<svg width="198" height="200" viewBox="0 0 198 200" fill="none" xmlns="http://www.w3.org/2000/svg">
<path opacity="0.7" d="M28.9262 184.312C67.4921 205.226 130.02 205.231 168.586 184.312C207.152 163.393 207.152 129.474 168.586 108.555C130.02 87.6355 67.4921 87.6355 28.9262 108.555C-9.63972 129.474 -9.6444 163.393 28.9262 184.312Z" fill="#F0F0F0"/>
<path d="M52.6361 137.384C67.3598 137.384 79.2957 131.696 79.2957 124.678C79.2957 117.661 67.3598 111.973 52.6361 111.973C37.9125 111.973 25.9766 117.661 25.9766 124.678C25.9766 131.696 37.9125 137.384 52.6361 137.384Z" fill="#E0E0E0"/>
<path d="M19.1325 123.85L22.129 122.139C22.129 122.139 23.5688 114.221 22.4936 107.414C20.979 97.8406 14.4626 94.5403 12.0972 95.4892C9.73181 96.4382 9.17552 99.2757 13.4482 104.806C15.9912 108.059 19.2167 114.969 19.1325 123.85Z" fill="#6E864C"/>
<path d="M20.222 120.05H20.1986C20.1428 120.04 20.0926 120.01 20.0587 119.965C20.0247 119.919 20.0095 119.863 20.0163 119.806C21.2457 110.864 17.6416 101.047 13.5933 97.0736C13.5549 97.0334 13.5335 96.9799 13.5337 96.9243C13.5339 96.8686 13.5556 96.8152 13.5944 96.7753C13.6331 96.7354 13.6858 96.712 13.7414 96.7101C13.797 96.7082 13.8511 96.7279 13.8925 96.7651C18.0155 100.795 21.6898 110.789 20.437 119.867C20.4291 119.918 20.403 119.965 20.3635 119.999C20.324 120.032 20.2738 120.05 20.222 120.05Z" fill="white"/>
<path d="M10.8212 128.656C10.3537 128.927 9.37207 128.333 8.9981 128.081C8.35735 127.644 7.83915 127.05 7.49286 126.356C7.10896 125.567 6.97834 124.679 7.11889 123.813C7.19373 123.355 7.30152 122.904 7.44144 122.462L7.82008 121.148C7.97129 120.724 8.03644 120.275 8.01174 119.825C7.89488 118.928 7.07681 118.297 6.37562 117.754C5.57157 117.156 4.73949 116.352 4.74416 115.281C4.79807 114.445 5.12673 113.649 5.67909 113.019C6.1933 112.364 6.80568 111.789 7.27315 111.098C7.6395 110.616 7.83224 110.024 7.82008 109.419C7.76798 109.048 7.64245 108.69 7.45079 108.368C7.0128 107.698 6.62978 106.995 6.30549 106.264C6.03904 105.507 6.07644 104.567 6.67012 104.025C6.9345 103.825 7.2363 103.681 7.55753 103.601C7.87877 103.521 8.21288 103.506 8.53998 103.557C9.15418 103.63 9.74474 103.838 10.2696 104.165C11.9852 105.1 12.9669 107.148 14.7853 107.905C15.5096 108.127 16.2463 108.307 16.9918 108.442C17.3619 108.511 17.7136 108.656 18.0243 108.869C18.3351 109.081 18.598 109.356 18.7962 109.676C19.4646 111.013 18.2259 112.654 18.698 114.075C19.114 115.328 20.3295 115.805 21.0353 116.936C21.3126 117.436 21.424 118.01 21.3532 118.577C21.2965 119.537 21.0635 120.478 20.666 121.354C20.2197 122.222 19.7103 123.056 19.1421 123.85C19.1047 123.878 10.8913 128.628 10.8212 128.656Z" fill="#6E864C"/>
<path d="M15.6827 126.061C15.6546 126.061 15.627 126.055 15.6014 126.043C15.5758 126.032 15.5527 126.015 15.5336 125.995C15.5144 125.974 15.4995 125.95 15.4898 125.924C15.4801 125.898 15.4757 125.87 15.477 125.842C15.8276 117.357 11.8307 107.994 8.93246 105.273C8.91221 105.254 8.89589 105.231 8.88446 105.206C8.87303 105.181 8.86669 105.153 8.86583 105.125C8.86496 105.098 8.86957 105.07 8.8794 105.044C8.88923 105.018 8.90408 104.994 8.92311 104.974C8.94214 104.954 8.96498 104.937 8.99031 104.926C9.01565 104.915 9.04299 104.908 9.07077 104.907C9.09855 104.906 9.12623 104.911 9.15223 104.921C9.17823 104.931 9.20203 104.946 9.22229 104.965C12.186 107.737 16.267 117.259 15.907 125.856C15.9065 125.884 15.9001 125.912 15.8884 125.938C15.8767 125.964 15.8599 125.987 15.8389 126.007C15.8179 126.026 15.7932 126.041 15.7664 126.05C15.7395 126.059 15.7111 126.063 15.6827 126.061Z" fill="white"/>
<path d="M14.4161 116.044H14.3507C12.3407 115.49 10.2764 115.156 8.19416 115.048C8.14317 115.041 8.09659 115.015 8.06293 114.976C8.02926 114.937 8.01074 114.887 8.01074 114.836C8.01074 114.784 8.02926 114.734 8.06293 114.695C8.09659 114.656 8.14317 114.631 8.19416 114.623C10.3126 114.732 12.4129 115.07 14.4582 115.633C14.5073 115.648 14.5495 115.68 14.577 115.723C14.6046 115.767 14.6157 115.818 14.6083 115.869C14.601 115.92 14.5757 115.967 14.537 116C14.4983 116.034 14.4488 116.053 14.3974 116.053L14.4161 116.044Z" fill="white"/>
<path d="M165.473 167.012C167.086 163.506 172.952 157.41 178.679 154.53C184.405 151.651 191.646 150.95 195.073 154.203C198.261 157.232 195.573 162.005 189.463 163.188C183.353 164.371 174.57 165.333 169.942 170.092L162.504 175.122L165.473 167.012Z" fill="#6E864C"/>
<path d="M163.014 171.686C163.072 171.708 163.135 171.709 163.194 171.692C163.253 171.674 163.304 171.638 163.341 171.588C171.18 160.701 185.312 155.423 192.1 155.933C192.174 155.938 192.248 155.913 192.305 155.864C192.362 155.815 192.397 155.746 192.403 155.671C192.406 155.634 192.401 155.597 192.389 155.562C192.378 155.527 192.359 155.495 192.335 155.467C192.31 155.439 192.281 155.417 192.248 155.4C192.214 155.384 192.178 155.374 192.142 155.372C185.232 154.848 170.839 160.205 162.883 171.266C162.861 171.296 162.846 171.33 162.837 171.366C162.829 171.402 162.828 171.439 162.834 171.476C162.84 171.512 162.853 171.547 162.873 171.578C162.893 171.61 162.918 171.637 162.948 171.658C162.968 171.672 162.99 171.681 163.014 171.686Z" fill="white"/>
<path d="M161.284 180.162C162.752 178.451 166.651 176.305 171.774 175.407C177.445 174.412 183.517 175.548 185.836 173.813C188.617 171.729 187.481 168.031 182.811 166.549C178.141 165.067 167.591 167.531 162.177 176.043L161.284 180.162Z" fill="#6E864C"/>
<path d="M161.373 177.712C161.424 177.73 161.48 177.734 161.533 177.721C161.586 177.709 161.635 177.681 161.672 177.641C170.045 169.077 179.515 169.073 183.353 170.265C183.389 170.276 183.426 170.279 183.462 170.276C183.499 170.272 183.535 170.262 183.567 170.244C183.6 170.227 183.629 170.203 183.652 170.175C183.676 170.146 183.693 170.113 183.704 170.078C183.715 170.043 183.72 170.006 183.717 169.969C183.714 169.933 183.704 169.897 183.687 169.864C183.67 169.831 183.646 169.802 183.618 169.779C183.59 169.755 183.557 169.738 183.522 169.727C179.277 168.409 169.816 168.507 161.266 177.249C161.239 177.275 161.219 177.306 161.205 177.34C161.19 177.374 161.183 177.411 161.183 177.447C161.183 177.484 161.19 177.521 161.205 177.555C161.219 177.589 161.239 177.62 161.266 177.646C161.296 177.676 161.333 177.698 161.373 177.712Z" fill="white"/>
<path d="M76.4067 136.215L81.8948 139.379L80.067 140.436H87.3782V136.215L85.5504 137.271L80.067 134.102L76.4067 136.215Z" fill="#6E864C"/>
<path d="M90.5711 142.731C90.4922 142.731 90.4147 142.71 90.3467 142.67L88.9817 141.88C88.8825 141.817 88.8106 141.719 88.7802 141.606C88.7499 141.492 88.7634 141.372 88.8181 141.268C88.8803 141.166 88.9787 141.093 89.0933 141.061C89.2079 141.03 89.3302 141.044 89.4351 141.099L90.8001 141.889C90.8761 141.945 90.9334 142.023 90.9644 142.112C90.9955 142.201 90.9988 142.298 90.974 142.389C90.9493 142.48 90.8975 142.561 90.8256 142.622C90.7537 142.683 90.6649 142.721 90.5711 142.731Z" fill="#6E864C"/>
<path d="M148.083 175.935C148.005 175.935 147.927 175.914 147.859 175.874L145.227 174.355C145.152 174.281 145.103 174.184 145.09 174.08C145.076 173.976 145.098 173.87 145.152 173.779C145.206 173.689 145.289 173.619 145.388 173.582C145.486 173.545 145.594 173.542 145.695 173.574L148.322 175.093C148.398 175.149 148.455 175.226 148.486 175.315C148.517 175.404 148.521 175.5 148.497 175.591C148.473 175.681 148.422 175.763 148.35 175.824C148.279 175.886 148.191 175.924 148.097 175.935H148.083ZM141.693 172.242C141.615 172.242 141.538 172.223 141.469 172.186L138.837 170.666C138.77 170.645 138.708 170.609 138.657 170.56C138.606 170.512 138.566 170.452 138.541 170.386C138.516 170.32 138.507 170.25 138.513 170.179C138.519 170.109 138.541 170.041 138.578 169.981C138.614 169.92 138.663 169.869 138.722 169.83C138.781 169.791 138.848 169.766 138.918 169.757C138.988 169.748 139.059 169.755 139.126 169.777C139.193 169.799 139.254 169.836 139.304 169.886L141.936 171.405C142.011 171.461 142.066 171.539 142.096 171.627C142.126 171.715 142.129 171.811 142.105 171.901C142.08 171.991 142.029 172.071 141.958 172.132C141.887 172.193 141.8 172.231 141.707 172.242H141.693ZM135.303 168.553C135.224 168.554 135.147 168.533 135.079 168.493L132.447 166.959C132.348 166.896 132.276 166.799 132.245 166.685C132.215 166.572 132.228 166.451 132.283 166.347C132.346 166.247 132.445 166.174 132.559 166.143C132.674 166.113 132.796 166.127 132.9 166.183L135.532 167.703C135.606 167.759 135.662 167.836 135.692 167.925C135.722 168.013 135.725 168.108 135.7 168.198C135.676 168.288 135.625 168.369 135.554 168.43C135.483 168.49 135.396 168.529 135.303 168.539V168.553ZM128.913 164.865C128.834 164.865 128.756 164.844 128.688 164.804L126.056 163.285C125.957 163.222 125.885 163.124 125.855 163.011C125.825 162.897 125.838 162.777 125.893 162.673C125.955 162.571 126.053 162.498 126.168 162.466C126.283 162.435 126.405 162.449 126.51 162.504L129.137 164.024C129.213 164.079 129.27 164.156 129.301 164.245C129.333 164.334 129.336 164.43 129.312 164.521C129.288 164.612 129.237 164.693 129.166 164.755C129.094 164.816 129.006 164.855 128.913 164.865ZM122.522 161.177C122.444 161.177 122.366 161.156 122.298 161.116L119.666 159.597C119.591 159.523 119.542 159.427 119.529 159.322C119.515 159.218 119.537 159.112 119.591 159.021C119.645 158.931 119.728 158.862 119.827 158.824C119.925 158.787 120.033 158.784 120.134 158.816L122.766 160.335C122.866 160.398 122.939 160.497 122.969 160.612C122.999 160.726 122.985 160.848 122.929 160.952C122.887 161.022 122.827 161.079 122.756 161.119C122.684 161.158 122.604 161.178 122.522 161.177ZM116.132 157.488C116.053 157.487 115.976 157.466 115.908 157.428L113.276 155.908C113.209 155.887 113.147 155.851 113.096 155.802C113.045 155.754 113.005 155.694 112.98 155.628C112.955 155.562 112.946 155.492 112.952 155.421C112.958 155.351 112.98 155.283 113.017 155.223C113.053 155.162 113.102 155.111 113.161 155.072C113.22 155.033 113.287 155.009 113.357 154.999C113.427 154.99 113.498 154.997 113.565 155.019C113.632 155.041 113.693 155.079 113.743 155.128L116.375 156.647C116.474 156.71 116.546 156.808 116.577 156.921C116.607 157.035 116.594 157.155 116.539 157.259C116.497 157.33 116.438 157.388 116.366 157.428C116.295 157.469 116.214 157.489 116.132 157.488ZM109.742 153.795C109.664 153.796 109.586 153.777 109.518 153.739L106.886 152.22C106.81 152.147 106.762 152.05 106.748 151.946C106.734 151.841 106.756 151.735 106.811 151.645C106.865 151.554 106.948 151.485 107.046 151.448C107.145 151.41 107.253 151.408 107.353 151.439L109.985 152.959C110.059 153.015 110.115 153.092 110.145 153.181C110.175 153.269 110.178 153.364 110.153 153.454C110.129 153.544 110.078 153.625 110.007 153.686C109.936 153.747 109.849 153.785 109.756 153.795H109.742ZM103.352 150.131C103.273 150.131 103.195 150.11 103.127 150.07L100.495 148.55C100.396 148.488 100.324 148.39 100.294 148.276C100.264 148.163 100.277 148.042 100.332 147.938C100.394 147.837 100.492 147.763 100.607 147.732C100.722 147.701 100.844 147.714 100.949 147.77L103.581 149.289C103.657 149.345 103.714 149.423 103.745 149.512C103.776 149.601 103.779 149.697 103.755 149.788C103.73 149.879 103.678 149.961 103.606 150.022C103.534 150.083 103.446 150.121 103.352 150.131ZM96.9614 146.442C96.8825 146.442 96.805 146.421 96.7371 146.381L94.1052 144.862C94.0297 144.789 93.9812 144.692 93.9676 144.588C93.9539 144.483 93.9759 144.377 94.03 144.287C94.0841 144.197 94.1672 144.127 94.2656 144.09C94.3641 144.053 94.4723 144.05 94.5727 144.082L97.2045 145.601C97.3049 145.664 97.3777 145.762 97.4081 145.877C97.4384 145.992 97.4242 146.113 97.3681 146.218C97.323 146.283 97.262 146.336 97.1908 146.371C97.1196 146.406 97.0407 146.423 96.9614 146.419V146.442Z" fill="#6E864C"/>
<path d="M153.207 178.889C153.129 178.89 153.051 178.87 152.982 178.833L151.617 178.043C151.518 177.98 151.446 177.882 151.416 177.769C151.386 177.655 151.399 177.535 151.454 177.431C151.516 177.329 151.614 177.256 151.729 177.224C151.844 177.193 151.966 177.207 152.071 177.262L153.431 178.052C153.505 178.109 153.561 178.185 153.591 178.273C153.622 178.361 153.625 178.456 153.601 178.546C153.577 178.636 153.526 178.717 153.456 178.778C153.386 178.839 153.299 178.878 153.207 178.889Z" fill="#6E864C"/>
<path d="M183.017 60.9948L182.596 60.7517L169.535 53.2723C166.513 51.2729 162.958 50.2319 159.335 50.2851C154.768 50.2851 150.159 51.94 144.731 54.9598C125.766 65.4684 109.564 95.7695 109.564 115.665V121.148C109.564 145.26 141.277 174.692 141.277 174.692L154.427 182.288C154.433 182.297 154.441 182.304 154.451 182.308C154.461 182.312 154.472 182.313 154.483 182.311C154.043 181.793 168.455 160.766 182.063 119.751C197.088 74.3316 183.297 61.2566 183.017 60.9948ZM160.822 133.087C150.07 139.291 141.08 136.042 138.533 126.033C133.61 125.355 130.053 121.569 128.954 115.352C127.575 95.2507 138.243 79.268 153.52 72.7796C160.064 70.4002 165.524 72.0971 168.451 77.0148C177.426 75.4722 183.849 81.624 183.849 93.2078C183.849 107.886 173.527 125.753 160.822 133.087Z" fill="#AEC987"/>
<path d="M183.849 93.2076C183.849 107.886 173.541 125.753 160.822 133.087C150.07 139.29 141.081 136.041 138.533 126.033C141.763 126.5 145.578 125.636 149.677 123.266C161.327 116.548 170.76 100.196 170.76 86.7612C170.76 82.7691 169.928 79.4828 168.451 77.0146C177.426 75.4719 183.849 81.6238 183.849 93.2076Z" fill="#6E864C" fill-opacity="0.5"/>
<path d="M142.88 124.63L150.187 128.852V114.697L142.88 110.476V124.63Z" fill="#B0C592"/>
<path d="M177.749 98.7842L160.812 90.8467L143.876 118.343L150.187 114.697V128.852L158.19 124.233V114.973L163.43 111.948V121.204L171.442 116.576V102.421L177.749 98.7842Z" fill="#6E864C"/>
<path d="M153.501 86.626L160.812 90.8472L143.876 118.344L136.565 114.122L153.501 86.626Z" fill="#B0C592"/>
<path d="M153.501 86.626L160.812 90.8472L177.749 98.7848L170.437 94.5635L153.501 86.626Z" fill="#B0C592"/>
<path d="M158.19 124.233L163.43 121.204V111.948L158.19 114.973V124.233Z" fill="#586447"/>
<path d="M183.017 60.9948L182.596 60.7517C176.257 57.1897 167.787 57.6665 158.48 63.033C144.456 71.1435 132.302 88.1779 126.556 106.04C124.275 113.122 123.312 116.871 123.312 123.719V129.221C123.312 147.803 144.03 172.799 153.721 181.722C153.938 181.923 154.174 182.102 154.427 182.255C154.433 182.264 154.441 182.271 154.451 182.275C154.461 182.279 154.472 182.281 154.483 182.279C155.049 182.628 155.681 182.855 156.34 182.945C156.999 183.035 157.669 182.986 158.308 182.801C158.946 182.616 159.539 182.299 160.048 181.871C160.556 181.443 160.97 180.913 161.261 180.315C169.61 163.22 193.956 111.682 193.956 91.698V86.2146C193.956 73.8267 189.767 65.0524 183.017 60.9948ZM138.533 126.033C138.402 125.524 138.281 124.991 138.187 124.444C137.913 122.911 137.781 121.355 137.794 119.797C137.794 105.119 148.079 87.257 160.822 79.9225C162.166 79.1442 163.573 78.4812 165.029 77.9404C166.141 77.527 167.288 77.2141 168.455 77.0055C177.431 75.4629 183.854 81.6147 183.854 93.1985C183.854 107.877 173.546 125.743 160.826 133.078C150.084 139.291 141.081 136.042 138.533 126.033Z" fill="#6E864C"/>
<path d="M66.7585 41.4831H56.9417C54.8117 41.4831 52.769 40.637 51.2629 39.1309C49.7568 37.6248 48.9106 35.582 48.9106 33.4521V31.1849C48.9106 28.8193 49.8504 26.5507 51.523 24.878C53.1957 23.2053 55.4644 22.2656 57.8299 22.2656C60.1954 22.2656 62.4641 23.2053 64.1367 24.878C65.8094 26.5507 66.7491 28.8193 66.7491 31.1849L66.7585 41.4831Z" fill="#263238"/>
<path d="M50.3362 26.7436L48.2466 25.6357C48.3126 25.4963 48.4062 25.3718 48.5217 25.2696C48.6372 25.1675 48.7722 25.0898 48.9186 25.0413C49.065 24.9928 49.2197 24.9745 49.3733 24.9874C49.527 25.0004 49.6764 25.0444 49.8126 25.1168C50.0921 25.2688 50.3023 25.5226 50.3998 25.8254C50.4973 26.1283 50.4745 26.457 50.3362 26.7436Z" fill="#263238"/>
<path d="M50.5093 26.9775L48.3123 27.8003C48.251 27.6589 48.219 27.5065 48.2183 27.3525C48.2175 27.1984 48.248 27.0458 48.3078 26.9038C48.3677 26.7618 48.4557 26.6334 48.5665 26.5264C48.6773 26.4193 48.8087 26.3359 48.9527 26.281C49.2521 26.1768 49.5799 26.1909 49.8692 26.3204C50.1586 26.4498 50.3875 26.6849 50.5093 26.9775Z" fill="#263238"/>
<path d="M70.0118 52.8662L72.7138 57.8167L68.96 61.0375L65.2063 55.2176L70.0118 52.8662Z" fill="#9A4A4D"/>
<path d="M62.4575 42.2451C63.8599 42.3667 65.3371 42.9697 66.3515 45.0499L70.5587 53.6887C70.5587 53.6887 69.8481 56.5309 66.1458 56.9095L64.678 54.6563L62.4575 42.2451Z" fill="#6E864C"/>
<path d="M37.495 110.21C36.7891 109.846 36.345 110.739 35.7046 111.458C35.2371 111.959 34.5593 112.758 34.4564 113.328C34.3022 114.179 35.0688 115.511 35.9149 116.25C36.761 116.989 37.7427 117.512 38.0512 119.125C38.3598 120.738 38.9862 121.696 40.6597 122.42C42.4922 123.21 44.9464 122.958 45.7784 122.42C46.7648 121.78 45.8626 121.084 44.4836 119.106C42.6791 116.526 41.2721 114.679 41.2721 112.272L37.495 110.21Z" fill="#263238"/>
<path d="M38.9393 108.092L37.4575 110.266C37.1442 110.716 37.0216 111.273 37.1161 111.814C37.2106 112.355 37.5147 112.836 37.9623 113.154L38.0091 113.187C38.4588 113.457 38.9889 113.561 39.5073 113.481C40.0257 113.4 40.4996 113.141 40.8466 112.748L43.1559 110.223L38.9393 108.092Z" fill="#B16668"/>
<path d="M65.571 66.885C65.6645 69.6524 66.1507 79.7403 64.1313 85.0367C63.011 88.0438 61.6021 90.9354 59.9241 93.6708C59.321 94.7039 41.9921 111.575 41.9921 111.575C41.9921 111.575 39.0471 111.36 38.5796 108.508C38.5796 108.508 45.6804 96.4335 47.2184 93.9606C48.7563 91.4877 54.2023 87.6872 54.2023 87.6872L53.7068 64.4775L65.571 66.885Z" fill="#37474F"/>
<path d="M62.3261 124.682L65.991 123.849L64.7773 118.511L61.1124 119.344L62.3261 124.682Z" fill="#B16668"/>
<path d="M59.4659 75.3369C60.7209 74.1779 61.8448 72.8846 62.8176 71.4803C65.6224 67.6097 65.1877 64.1738 65.1877 64.1738H64.0377L48.8871 64.4824C47.3819 66.9459 47.0547 70.6809 47.5642 74.2991C48.616 81.8487 54.8707 94.9144 54.8707 94.9144C54.7819 95.9475 54.3471 100.286 55.3382 104.133C56.8948 110.21 61.1301 120.494 61.1301 120.494C61.1301 120.494 63.7806 120.873 65.0988 119.339C65.0988 119.339 62.7615 98.4858 62.1211 93.1614C61.4246 87.3554 59.4659 75.3369 59.4659 75.3369Z" fill="#37474F"/>
<path d="M65.5802 122.037L65.4586 121.514C65.8466 121.588 67.4921 124.318 69.1236 125.506C70.9093 126.805 72.4613 127.572 73.2606 128.161C74.3265 128.942 72.7932 130.55 70.152 130.69C68.8478 130.76 66.473 130.363 65.7391 129.671C65.0052 128.979 64.477 127.801 63.8973 127.334C63.3176 126.866 62.1396 126.399 61.7423 125.758C61.5272 125.408 61.4899 124.534 61.5179 123.786C61.546 123.038 61.56 122.346 61.7984 122.355C61.7984 122.435 61.8872 122.757 61.8872 122.757C62.5773 123.106 63.3443 123.275 64.117 123.248C64.7341 123.211 65.884 123.066 65.5802 122.037Z" fill="#263238"/>
<path d="M61.6442 89.5997C61.6442 89.5997 59.8772 77.0482 59.4658 75.3373C59.4658 75.3373 62.5791 74.1499 63.5374 73.0654C63.5374 73.0654 62.8549 74.5847 60.6251 75.9357L61.6442 89.5997Z" fill="#263238"/>
<path d="M52.2856 89.1133C52.2856 89.1133 54.1088 93.8955 54.8661 94.9286C54.8661 94.9286 54.6744 98.486 54.7024 99.2059L53.7161 100.061C53.7161 100.061 53.6693 97.0742 54.1836 95.2651C53.2832 93.3069 52.6451 91.2384 52.2856 89.1133Z" fill="#263238"/>
<path d="M64.7201 55.6518C64.9585 57.8489 65.5709 66.871 65.5709 66.871C58.3205 70.7416 49.3265 68.1752 47.9521 66.5811C48.6695 63.951 50.075 61.5597 52.0238 59.6533L49.6864 53.1088C49.6864 53.1088 49.406 52.4356 49.4106 52.431C49.5556 52.1879 53.0615 49.0278 51.3366 44.0166C51.2756 43.8347 51.2569 43.6412 51.2819 43.451C51.3069 43.2608 51.3749 43.0787 51.4809 42.9187C51.5868 42.7587 51.7278 42.625 51.8931 42.5277C52.0585 42.4303 52.2439 42.372 52.4351 42.3571L54.5154 42.1888L60.1624 42.0205C61.5087 42.1 62.4716 42.2262 62.4716 42.2262C63.3364 43.0396 64.7014 45.26 65.5849 47.5226C66.1412 48.9998 66.7583 51.3324 64.7201 55.6518Z" fill="#6E864C"/>
<path opacity="0.1" d="M51.1869 55.4795L52.0143 52.2773L53.038 59.6726L50.9672 60.8226L52.0236 59.668L50.9531 56.6809L51.1869 55.4795Z" fill="black"/>
<path d="M63.5701 26.1504C64.505 26.7067 65.6784 29.0767 65.5615 34.0412C65.4633 38.2484 64.0983 39.2955 63.4158 39.5947C62.7333 39.8939 61.4104 39.7116 60.1436 39.4965V42.0255C60.1436 42.0255 62.0555 45.5642 61.6255 46.976C60.6905 47.1349 59.5172 46.5085 57.8577 45.3819C56.6232 44.4599 55.5028 43.3944 54.52 42.2078L54.548 36.3972C54.548 36.3972 53.7907 37.1312 52.5099 36.0092C51.4534 35.0743 51.1075 33.527 51.9209 32.6856C52.1345 32.4867 52.3924 32.3414 52.6732 32.2617C52.954 32.1821 53.2497 32.1703 53.536 32.2273C53.8222 32.2844 54.0908 32.4087 54.3196 32.59C54.5484 32.7712 54.7308 33.0043 54.8519 33.2699C54.8519 33.2699 56.9041 33.3494 59.6294 31.8675C60.6895 31.2916 61.5989 30.4737 62.2836 29.4803C62.9684 28.487 63.4091 27.3461 63.5701 26.1504Z" fill="#B16668"/>
<path d="M60.8685 32.9847C60.8702 33.0895 60.841 33.1924 60.7846 33.2807C60.7281 33.3689 60.6469 33.4386 60.5511 33.481C60.4552 33.5233 60.349 33.5365 60.2458 33.5188C60.1425 33.5011 60.0467 33.4534 59.9704 33.3816C59.8941 33.3098 59.8407 33.2171 59.8168 33.1151C59.7929 33.013 59.7996 32.9062 59.8361 32.808C59.8725 32.7098 59.9372 32.6245 60.0218 32.5628C60.1065 32.5011 60.2075 32.4657 60.3122 32.4611C60.4552 32.4573 60.594 32.5103 60.6982 32.6083C60.8024 32.7064 60.8636 32.8417 60.8685 32.9847Z" fill="#263238"/>
<g style="mix-blend-mode:multiply" opacity="0.5">
<path d="M61.0037 36.5371L62.2331 36.9298C62.2106 37.0118 62.1718 37.0885 62.1191 37.1552C62.0664 37.222 62.0009 37.2775 61.9263 37.3185C61.8518 37.3595 61.7698 37.3851 61.6852 37.3938C61.6006 37.4025 61.5151 37.3941 61.4337 37.3692C61.268 37.3135 61.1305 37.1955 61.0503 37.0402C60.97 36.8849 60.9533 36.7045 61.0037 36.5371Z" fill="#9A4A4D"/>
</g>
<path d="M65.2015 31.3579L64.1404 30.6194C64.1849 30.547 64.2437 30.4845 64.3133 30.4357C64.3829 30.387 64.4618 30.353 64.545 30.3359C64.6282 30.3189 64.7141 30.319 64.7973 30.3364C64.8804 30.3538 64.9591 30.388 65.0286 30.437C65.1714 30.538 65.2693 30.6906 65.3016 30.8625C65.3339 31.0343 65.298 31.2121 65.2015 31.3579Z" fill="#263238"/>
<path d="M64.9537 32.6011C64.9594 32.6718 64.9509 32.743 64.9288 32.8105C64.9066 32.8779 64.8712 32.9403 64.8246 32.9938C64.778 33.0474 64.7212 33.0911 64.6574 33.1224C64.5937 33.1537 64.5244 33.1719 64.4535 33.1761C64.3438 33.1862 64.2336 33.1633 64.137 33.1102C64.0405 33.0572 63.962 32.9764 63.9118 32.8784C63.8615 32.7803 63.8418 32.6695 63.8551 32.5601C63.8684 32.4508 63.9142 32.3479 63.9865 32.2648C64.0588 32.1816 64.1544 32.1221 64.2608 32.0938C64.3673 32.0654 64.4798 32.0696 64.5839 32.1058C64.6879 32.142 64.7788 32.2085 64.8447 32.2968C64.9106 32.385 64.9486 32.491 64.9537 32.6011Z" fill="#263238"/>
<g style="mix-blend-mode:multiply" opacity="0.5">
<path d="M62.4575 32.3018L62.5417 35.4852L64.2199 34.9663L62.4575 32.3018Z" fill="#9A4A4D"/>
</g>
<g style="mix-blend-mode:multiply" opacity="0.5">
<path d="M60.1248 39.4962C58.7692 39.3186 55.9831 38.5192 55.5483 37.416C55.7235 37.9721 56.0644 38.4614 56.5253 38.8184C57.3574 39.529 60.1248 40.333 60.1248 40.333V39.4962Z" fill="#9A4A4D"/>
</g>
<path d="M43.469 63.6131C43.5017 63.1456 44.3572 58.298 44.9415 55.582L50.6539 57.3303L49.719 61.1402L44.9742 65.7354C44.4969 65.6463 44.0729 65.3751 43.7919 64.979C43.511 64.5829 43.3952 64.093 43.469 63.6131Z" fill="#B16668"/>
<path d="M52.4212 42.376C50.2288 42.5676 47.3399 42.8949 45.9655 49.1355C44.6753 54.9835 44.3574 57.0263 44.3574 57.0263C44.3574 57.0263 46.045 59.1627 50.4111 58.9289L52.0145 52.2769C54.9362 48.4297 53.9966 45.6763 52.4212 42.376Z" fill="#6E864C"/>
<path d="M70.8907 59.0882C71.676 57.6297 71.8723 57.5643 72.3351 57.2183C72.7979 56.8724 75.6681 56.4704 76.8555 56.3722C78.2579 56.2553 78.7487 56.5125 78.3608 57.7138C77.5287 60.2849 75.0043 65.7449 74.4387 66.5022C74.0694 66.9697 73.9946 67.4371 72.4239 67.6054C70.9561 67.7503 69.1143 67.8298 68.572 67.8625C68.0298 67.8952 67.2818 68.0308 67.768 66.4367C68.3865 64.6336 69.1028 62.8656 69.9137 61.1404C70.5167 59.8502 70.8907 59.0882 70.8907 59.0882Z" fill="#263238"/>
<path d="M49.7377 61.1402C49.7377 61.1402 62.4341 62.4818 64.0749 61.9723C65.7157 61.4628 67.9315 59.8173 69.1188 59.1395C70.3062 58.4616 71.157 58.4009 71.157 58.672C71.157 58.9431 70.1426 60.5091 69.9135 61.1496C69.6845 61.79 71.0074 61.79 72.7464 61.3926C74.4853 60.9953 75.1819 59.9902 75.6353 60.5699C76.0887 61.1496 74.6723 64.0525 71.7834 65.1324C68.8945 66.2122 66.7488 65.497 64.3647 65.5998C61.9806 65.7027 48.3026 66.7685 44.9883 65.726C44.9045 65.1985 44.967 64.6581 45.169 64.1636C45.3709 63.6691 45.7045 63.2394 46.1336 62.9213C47.2052 62.0949 48.4303 61.4895 49.7377 61.1402Z" fill="#B16668"/>
<path d="M130.89 15.8893L134.373 13.8792C134.353 13.7382 134.344 13.5961 134.344 13.4538V12.4441C134.397 11.4691 134.678 10.5201 135.165 9.67385C135.653 8.82764 136.332 8.108 137.149 7.57313C137.393 7.40902 137.667 7.29585 137.955 7.24041C138.244 7.18498 138.54 7.18844 138.827 7.25057C139.085 4.69821 140.852 1.81395 143.002 0.575168C145.339 -0.766458 147.209 0.318063 147.209 3.00599V4.51123C147.2 5.24492 147.081 5.97306 146.854 6.67092L149.747 5.00207C150.608 4.50655 151.304 4.90857 151.304 5.90427C151.275 6.44524 151.119 6.97175 150.849 7.44116C150.578 7.91058 150.201 8.30971 149.747 8.60623L130.89 19.4935C130.03 19.989 129.333 19.587 129.333 18.5913C129.362 18.0503 129.518 17.5238 129.789 17.0544C130.059 16.585 130.437 16.1859 130.89 15.8893Z" fill="#DDEDC8"/>
<path d="M114.215 39.2674L116.843 37.7481C116.827 37.6413 116.819 37.5335 116.819 37.4256V36.6683C116.859 35.9316 117.073 35.2147 117.441 34.5756C117.81 33.9365 118.324 33.3931 118.941 32.9893C119.125 32.8651 119.332 32.7795 119.55 32.7377C119.768 32.6959 119.992 32.6988 120.208 32.7463C120.338 31.7285 120.687 30.7511 121.231 29.8811C121.775 29.0112 122.501 28.2695 123.359 27.707C125.112 26.6926 126.538 27.5153 126.538 29.5395V30.6801C126.53 31.2329 126.439 31.7814 126.267 32.3068L128.45 31.0494C129.099 30.6754 129.628 30.9792 129.628 31.7272C129.605 32.1362 129.487 32.5342 129.282 32.889C129.078 33.2439 128.792 33.5457 128.45 33.77L114.215 41.9834C113.566 42.362 113.037 42.0582 113.037 41.3056C113.059 40.8971 113.178 40.4996 113.382 40.1455C113.587 39.7913 113.872 39.4905 114.215 39.2674Z" fill="#DDEDC8"/>
</svg>
