<svg width="139" height="177" viewBox="0 0 139 177" fill="none" xmlns="http://www.w3.org/2000/svg">
<g clip-path="url(#clip0_598_1089)">
<mask id="mask0_598_1089" style="mask-type:luminance" maskUnits="userSpaceOnUse" x="-327" y="-385" width="512" height="2497">
<path d="M184.967 2103.86L144.024 -384.199L-326.728 -376.452L-285.784 2111.6L184.967 2103.86Z" fill="white"/>
</mask>
<g mask="url(#mask0_598_1089)">
<path fill-rule="evenodd" clip-rule="evenodd" d="M53.9739 118.302C52.9561 119.792 52.0476 121.115 51.4641 121.993C46.733 129.141 40.3541 132.944 36.0378 129.298C32.3626 126.196 33.7339 117.469 36.6057 107.509C37.2482 107.445 37.7272 107.367 37.9858 107.272C38.4368 107.107 38.606 104.704 38.5902 101.084C40.9303 93.8937 43.6364 86.553 45.5007 80.5592C48.5948 70.6125 58.6426 66.6436 72.7036 61.6284C72.7044 62.2541 72.7178 62.7203 72.7497 62.9284C72.9309 64.1351 77.8301 75.742 77.8301 75.742C83.7556 69.4215 91.6595 57.3441 91.6595 57.3441C93.67 62.8837 103.897 68.8928 107.246 69.0975C109.425 69.2304 110.559 67.949 110.971 66.486C110.971 66.486 118.858 69.4373 123.525 75.1076C127.134 79.4945 132.098 108.18 132.921 115.512C133.858 123.859 132.198 133.893 114.975 133.14C112.617 133.036 110.415 132.927 108.361 132.809C81.9626 139.168 59.0695 137.579 56.2217 136.422C53.1236 135.162 54.7731 131.104 53.9739 118.302ZM60.323 87.0824C57.3364 88.9063 56.8807 93.4037 55.9408 94.7749C54.9637 96.196 52.2291 98.5731 52.2291 98.5731C53.3522 99.6771 55.7508 103.995 58.8171 106.667C61.2307 104.974 62.8612 102.879 63.7049 101.543L64.234 104.164L76.8178 102.366L80.2866 98.5798L75.4216 75.7816L62.7384 77.6532L58.8429 80.0855L60.323 87.0824ZM81.1786 127.173C81.1312 122.792 79.8547 116.748 79.1894 115.428C75.5833 115.489 72.4681 115.614 70.3891 115.832C66.1059 116.278 59.8318 123.567 60.9935 124.481C61.6128 124.968 65.385 122.422 65.385 122.422C63.7623 124.417 62.0525 126.879 62.7262 127.445C63.0323 127.701 64.7104 126.307 66.3021 124.857C66.3021 124.857 64.8859 128.09 65.2647 128.497C65.5701 128.824 68.3294 126.454 69.7687 125.088C69.7687 125.088 67.2991 128.795 67.9107 129.043C68.5204 129.293 73.7978 125.234 74.1557 125.524C75.7584 126.819 79.6406 127.271 81.1786 127.173Z" fill="#6E864C"/>
</g>
<path d="M66.4253 23.3702C66.2255 23.2925 66.0029 23.2973 65.8066 23.3834C65.6103 23.4695 65.4562 23.6299 65.3783 23.8294C65.3004 24.0289 65.305 24.2511 65.3911 24.4472C66.5264 27.0318 66.8496 29.7244 66.9449 31.9157C66.9925 33.0113 66.9835 33.9783 66.9964 34.7601C67.0094 35.5418 66.9333 36.0585 67.2766 36.6915C67.5407 37.1787 68.0474 37.4544 68.496 37.5384C68.9448 37.6224 69.3738 37.5753 69.7844 37.4872C70.6056 37.311 71.3304 36.9798 71.8203 36.619C71.9928 36.4919 72.1077 36.3015 72.1398 36.0898C72.1718 35.8781 72.1183 35.6623 71.9911 35.49C71.9281 35.4046 71.8489 35.3325 71.758 35.2777C71.667 35.2229 71.5662 35.1865 71.4612 35.1707C71.3561 35.1549 71.2491 35.1598 71.146 35.1853C71.0429 35.2108 70.9458 35.2564 70.8604 35.3194C70.6787 35.4531 69.997 35.7897 69.4447 35.9082C69.1686 35.9674 68.9196 35.9746 68.7939 35.9511C68.6683 35.9276 68.7048 35.9341 68.6986 35.9226C68.7707 36.0557 68.6261 35.4795 68.6137 34.7334C68.6014 33.9873 68.6104 32.9912 68.5607 31.8461C68.4612 29.5558 68.1277 26.6564 66.8724 23.7988C66.8298 23.7016 66.7684 23.6138 66.6917 23.5403C66.615 23.4668 66.5246 23.4092 66.4256 23.3706L66.4253 23.3702Z" fill="#6E864C"/>
<path d="M77.866 37.6474C77.6663 37.6272 77.4688 37.6539 77.3458 37.7145C75.4342 38.6634 73.4638 39.2095 71.9744 39.5553C71.2296 39.7282 70.6094 39.8503 70.1496 39.9571C69.9198 40.0105 69.7368 40.0544 69.548 40.1266C69.4536 40.1627 69.3578 40.1938 69.2085 40.314C69.1339 40.3742 69.0366 40.463 68.9579 40.6307C68.8792 40.7985 68.8554 41.0605 68.9196 41.2557C68.9202 41.2571 68.9209 41.2585 68.9216 41.2599C69.0194 41.5522 69.1188 41.6597 69.243 41.8408C69.3671 42.0219 69.5103 42.2141 69.6488 42.3944C69.9259 42.7551 70.1857 43.0696 70.1857 43.0696C70.2827 43.1693 70.4039 43.2422 70.5375 43.2814C70.671 43.3206 70.8124 43.3247 70.948 43.2933C70.8585 43.4844 70.8474 43.7029 70.9172 43.9021C70.9869 44.1012 71.1319 44.2652 71.3212 44.3589C72.7663 45.0628 74.1499 45.0371 75.2341 44.5334C76.3183 44.0296 77.0917 43.1282 77.6407 42.2026C78.1897 41.277 78.5197 40.3176 78.6646 39.553C78.7371 39.1707 78.777 38.856 78.7211 38.5037C78.6932 38.3275 78.6655 38.1058 78.4009 37.8579C78.2686 37.734 78.0666 37.6676 77.8668 37.6475L77.866 37.6474ZM76.9587 39.654C76.8185 40.1735 76.599 40.7886 76.2485 41.3795C75.8093 42.12 75.219 42.7588 74.551 43.0691C73.883 43.3795 73.126 43.4414 72.0295 42.9073C71.8733 42.847 71.7021 42.8366 71.5396 42.8776C71.6006 42.7418 71.6227 42.5919 71.6038 42.4443C71.5848 42.2968 71.5254 42.1573 71.432 42.0413C71.432 42.0413 71.1947 41.7523 70.9493 41.4345C71.3411 41.3496 71.7504 41.2653 72.3403 41.1283C73.6124 40.833 75.2562 40.3766 76.9587 39.654Z" fill="#6E864C"/>
<mask id="mask1_598_1089" style="mask-type:luminance" maskUnits="userSpaceOnUse" x="-327" y="-385" width="512" height="2497">
<path d="M184.968 2103.85L143.125 -384.014L-326.727 -376.453L-284.884 2111.42L184.968 2103.85Z" fill="white"/>
</mask>
<g mask="url(#mask1_598_1089)">
<path fill-rule="evenodd" clip-rule="evenodd" d="M74.3392 26.4155C74.4225 26.7592 74.4216 27.1083 74.3367 27.386C74.2519 27.6638 74.0899 27.8474 73.8866 27.8966C73.7859 27.9209 73.678 27.9114 73.5692 27.8688C73.4604 27.8262 73.3527 27.7511 73.2524 27.648C73.152 27.5449 73.0609 27.4157 72.9842 27.2678C72.9076 27.1199 72.8469 26.9562 72.8056 26.786C72.7644 26.6158 72.7433 26.4425 72.7437 26.276C72.7442 26.1095 72.766 25.953 72.808 25.8155C72.8501 25.678 72.9115 25.5621 72.9887 25.4745C73.066 25.3869 73.1575 25.3293 73.2582 25.305C73.4616 25.2559 73.6897 25.3453 73.8924 25.5535C74.0951 25.7618 74.2558 26.0719 74.3392 26.4155Z" fill="#6E864C"/>
</g>
<mask id="mask2_598_1089" style="mask-type:luminance" maskUnits="userSpaceOnUse" x="-327" y="-385" width="512" height="2497">
<path d="M184.968 2103.85L143.125 -384.014L-326.727 -376.453L-284.884 2111.42L184.968 2103.85Z" fill="white"/>
</mask>
<g mask="url(#mask2_598_1089)">
<path fill-rule="evenodd" clip-rule="evenodd" d="M64.994 28.3496C65.0352 28.5198 65.0562 28.6931 65.0558 28.8596C65.0554 29.0261 65.0336 29.1826 64.9915 29.3201C64.9495 29.4577 64.8881 29.5735 64.8109 29.6611C64.7336 29.7487 64.642 29.8063 64.5413 29.8306C64.338 29.8797 64.1099 29.7904 63.9071 29.5821C63.7044 29.3738 63.5437 29.0637 63.4604 28.7201C63.3771 28.3764 63.378 28.0273 63.4628 27.7496C63.5477 27.4718 63.7097 27.2882 63.913 27.2391C64.0137 27.2148 64.1215 27.2242 64.2304 27.2668C64.3392 27.3095 64.4468 27.3845 64.5472 27.4876C64.6476 27.5907 64.7387 27.7199 64.8154 27.8679C64.892 28.0158 64.9527 28.1794 64.994 28.3496Z" fill="#6E864C"/>
</g>
<path d="M75.3698 1.00598C74.0147 0.996313 72.446 1.0859 70.6692 1.3396C65.3917 2.09245 60.5038 4.47366 57.0978 7.74411C53.6917 11.0146 51.7448 15.2506 52.6275 19.5731C53.1477 22.1199 55.2933 23.6173 57.5644 23.7717C59.6259 23.9119 61.844 22.9867 63.2511 20.9881C65.9909 22.2069 68.8489 22.256 71.6539 21.2298C74.3383 20.2476 76.9847 18.2906 79.6326 15.5957C80.5178 18.3925 82.3745 20.3855 84.0124 22.017C84.967 22.9679 85.8505 23.8111 86.4491 24.5974C87.0476 25.3836 87.3469 26.0628 87.3181 26.7973C87.314 26.9033 87.3308 27.009 87.3676 27.1085C87.4044 27.208 87.4604 27.2992 87.5325 27.377C87.6046 27.4549 87.6914 27.5178 87.7878 27.5621C87.8843 27.6065 87.9885 27.6314 88.0946 27.6355C88.3088 27.6438 88.5176 27.5668 88.675 27.4215C88.8324 27.2761 88.9255 27.0743 88.9339 26.8603C88.982 25.6358 88.4556 24.5649 87.7363 23.62C87.017 22.6751 86.0908 21.8061 85.1545 20.8735C83.2821 19.0084 81.3925 16.941 80.8657 13.8708C80.8401 13.7218 80.7731 13.5831 80.6725 13.4702C80.5718 13.3574 80.4414 13.275 80.2962 13.2325C80.151 13.1899 79.9967 13.189 79.851 13.2297C79.7053 13.2704 79.5739 13.3511 79.4718 13.4627C76.5871 16.6171 73.7726 18.7344 71.0976 19.7132C68.4226 20.6919 65.9025 20.5869 63.3285 19.2496C63.1415 19.1525 62.924 19.1321 62.7222 19.1929C62.5204 19.2536 62.3503 19.3906 62.2482 19.5747C61.1918 21.4809 59.3441 22.274 57.6743 22.1605C56.0045 22.047 54.5882 21.0915 54.2122 19.2504C53.4637 15.5849 55.0895 11.913 58.2186 8.90851C61.3477 5.90398 65.9573 3.64298 70.8979 2.93826C74.2933 2.45345 76.8487 2.60149 78.5421 2.86283C80.2354 3.12418 81.009 3.47365 81.009 3.47365C81.1061 3.51648 81.2108 3.53979 81.317 3.54223C81.4231 3.54467 81.5287 3.52621 81.6277 3.48788C81.7267 3.44956 81.8172 3.39214 81.894 3.31889C81.9708 3.24564 82.0324 3.15799 82.0753 3.06096C82.1618 2.86506 82.1669 2.64286 82.0894 2.44322C82.0119 2.24359 81.8582 2.08287 81.6621 1.99639C81.6621 1.99639 80.6344 1.5515 78.7891 1.26672C77.8664 1.12432 76.7248 1.01565 75.3698 1.00598Z" fill="#6E864C"/>
<path d="M84.4357 2.16332C83.8481 2.15631 83.2282 2.22033 82.5783 2.36239C82.4746 2.38505 82.3763 2.42789 82.2892 2.48848C82.202 2.54906 82.1276 2.62621 82.0703 2.7155C82.013 2.80479 81.9739 2.90447 81.9552 3.00887C81.9364 3.11327 81.9385 3.22032 81.9612 3.32392C81.9839 3.42753 82.0268 3.52567 82.0874 3.61272C82.1481 3.69976 82.2253 3.77401 82.3147 3.83124C82.4041 3.88848 82.5039 3.92756 82.6085 3.94626C82.713 3.96496 82.8202 3.96291 82.9239 3.94023C85.1176 3.46073 86.4897 3.95141 87.6398 5.10138C88.79 6.25134 89.6588 8.17966 90.3246 10.5229C91.4946 14.6334 92.0449 18.5655 92.28 21.1485C92.2994 21.3617 92.4029 21.5585 92.5676 21.6956C92.7323 21.8327 92.9447 21.8988 93.1582 21.8795C93.264 21.8699 93.3668 21.8396 93.4608 21.7903C93.5548 21.741 93.6382 21.6737 93.7062 21.5922C93.7742 21.5107 93.8254 21.4166 93.857 21.3154C93.8885 21.2141 93.8998 21.1076 93.8902 21.002C93.6479 18.3407 93.0875 14.3235 91.8799 10.0811C91.1794 7.61554 90.2691 5.44471 88.7835 3.95935C87.6693 2.84532 86.198 2.18383 84.4353 2.16259L84.4357 2.16332Z" fill="#6E864C"/>
<path d="M93.017 20.2626C92.369 20.2299 91.7417 20.3809 91.185 20.6305C89.7006 21.2959 88.6009 22.5607 88.1892 23.7746C88.1551 23.8751 88.1412 23.9813 88.1482 24.0872C88.1552 24.193 88.183 24.2965 88.23 24.3916C88.2771 24.4867 88.3425 24.5716 88.4224 24.6415C88.5023 24.7113 88.5952 24.7648 88.6959 24.7988C88.7964 24.8328 88.9028 24.8467 89.0087 24.8396C89.1146 24.8326 89.2182 24.8048 89.3134 24.7578C89.4085 24.7108 89.4935 24.6455 89.5634 24.5657C89.6334 24.4859 89.6869 24.3931 89.7209 24.2927C89.9249 23.6914 90.8597 22.5466 91.8474 22.1039C92.3412 21.8825 92.8191 21.8113 93.2761 21.9259C93.733 22.0405 94.22 22.3411 94.7269 23.0678C95.5003 24.1758 95.1939 25.8899 94.1383 27.4522C93.0827 29.0145 91.3324 30.2309 89.8692 30.3063C89.6652 30.3168 89.4728 30.404 89.3306 30.5504C89.1883 30.6968 89.1068 30.8915 89.1024 31.0955C89.1024 31.0955 88.8821 41.1126 89.5229 49.214C89.5313 49.3197 89.5604 49.4228 89.6086 49.5173C89.6569 49.6118 89.7232 49.6959 89.804 49.7648C89.8848 49.8336 89.9784 49.8859 90.0794 49.9186C90.1804 49.9514 90.2869 49.9639 90.3928 49.9555C90.6065 49.9386 90.8048 49.8376 90.944 49.6746C91.0832 49.5117 91.1518 49.3002 91.1349 49.0867C90.5409 41.5769 90.6959 32.8635 90.7158 31.8188C91.8494 31.5919 92.8898 30.9749 93.805 30.1852C95.1389 33.4745 97.8406 38.0824 101.978 41.9957C105.469 45.2973 109.542 49.6368 112.357 53.661C113.764 55.6732 114.853 57.61 115.406 59.2492C115.958 60.8883 115.955 62.1506 115.432 63.0031C114.916 63.842 113.76 64.366 112.579 64.4788C112.344 64.5013 112.119 64.4896 111.898 64.4756C111.882 64.3385 111.891 64.1914 111.865 64.0592C111.711 63.2636 111.415 62.5355 110.773 62.0681C110.409 61.8033 109.933 61.6793 109.503 61.7798C109.072 61.8803 108.735 62.1758 108.541 62.5215C108.151 63.2127 108.245 64.1365 108.829 64.9016C109.191 65.3762 109.697 65.6637 110.26 65.8543C110.24 65.9732 110.24 66.0944 110.209 66.2103C110.045 66.8287 109.738 67.3734 109.287 67.7434C108.836 68.1133 108.233 68.3488 107.296 68.2921C106.672 68.2536 105.427 67.8751 104.008 67.2148C102.589 66.5543 100.96 65.6254 99.379 64.5346C96.2159 62.3529 93.2674 59.4664 92.4034 57.0195C92.1404 56.2747 91.9022 55.2437 91.7032 54.0376C91.686 53.933 91.6483 53.8328 91.5923 53.7427C91.5363 53.6526 91.463 53.5744 91.3768 53.5125C91.2905 53.4507 91.1929 53.4065 91.0895 53.3824C90.9861 53.3582 90.879 53.3547 90.7742 53.3719C90.6694 53.3891 90.5691 53.4268 90.4789 53.4828C90.3887 53.5388 90.3104 53.612 90.2485 53.6982C90.1867 53.7844 90.1424 53.8819 90.1183 53.9852C90.0942 54.0885 90.0907 54.1955 90.108 54.3002C90.3161 55.562 90.5632 56.6643 90.8783 57.5568C91.9758 60.6652 95.1501 63.5805 98.4598 65.8633C100.115 67.0047 101.81 67.9736 103.325 68.6788C104.841 69.3841 106.141 69.839 107.197 69.9039C108.473 69.9812 109.544 69.6223 110.314 68.9912C111.083 68.3601 111.541 67.4973 111.772 66.6234C111.818 66.4526 111.818 66.2822 111.847 66.1107C112.14 66.1142 112.434 66.1147 112.733 66.0861C114.267 65.9395 115.921 65.295 116.81 63.847C117.69 62.4126 117.571 60.6114 116.938 58.7339C116.306 56.8565 115.142 54.8239 113.682 52.736C110.761 48.5602 106.638 44.1784 103.09 40.8231C98.835 36.7989 96.153 31.9089 95.0524 28.8785C95.191 28.7011 95.3533 28.5407 95.4784 28.3556C96.7621 26.4556 97.3563 24.0111 96.0532 22.1442C95.377 21.1745 94.545 20.5787 93.6697 20.3592C93.4509 20.3043 93.2326 20.2731 93.0166 20.2622L93.017 20.2626ZM109.954 63.5621C110.017 63.6541 110.065 63.772 110.13 63.934C110.127 63.9308 110.117 63.9266 110.115 63.9234C110.003 63.7765 109.973 63.6619 109.954 63.5621Z" fill="#6E864C"/>
<path d="M58.4804 22.1631C58.3805 22.1991 58.2888 22.2545 58.2103 22.326C58.1319 22.3975 58.0683 22.4837 58.0232 22.5798C57.9781 22.6758 57.9525 22.7797 57.9476 22.8857C57.9428 22.9916 57.9589 23.0975 57.995 23.1972C57.995 23.1972 61.93 34.0826 63.679 43.8C64.6229 49.0438 68.6825 52.4209 73.2166 52.8602C77.7507 53.2995 82.7338 50.7766 85.4962 44.7275C85.5851 44.5326 85.5929 44.3105 85.5178 44.1099C85.4428 43.9093 85.291 43.7467 85.096 43.6579C84.9009 43.5691 84.6784 43.5613 84.4776 43.6363C84.2767 43.7113 84.114 43.8629 84.025 44.0577C81.4917 49.605 77.2155 51.6249 73.3726 51.2526C69.5296 50.8803 66.0945 48.0915 65.2706 43.5142C63.4842 33.5894 59.5155 22.6478 59.5155 22.6478C59.4426 22.4465 59.2926 22.2823 59.0985 22.1914C58.9044 22.1005 58.682 22.0903 58.4804 22.1631Z" fill="#6E864C"/>
<path d="M73.0154 51.2144C72.9094 51.2098 72.8034 51.2262 72.7037 51.2626C72.604 51.2989 72.5124 51.3546 72.4341 51.4263C72.3559 51.498 72.2926 51.5844 72.2478 51.6806C72.203 51.7767 72.1776 51.8807 72.1731 51.9867C72.1731 51.9867 72.0697 54.4158 71.989 56.998C71.9486 58.2891 71.9141 59.6185 71.9009 60.7069C71.8878 61.7948 71.8744 62.5447 71.9511 63.0495C71.9511 63.0495 71.9511 63.0495 71.9511 63.0495C72.0196 63.5073 72.2019 63.9576 72.4828 64.7183C72.7642 65.4802 73.1382 66.4402 73.5532 67.4808C74.383 69.562 75.3751 71.9629 76.0963 73.6946C76.1371 73.7925 76.1968 73.8815 76.272 73.9564C76.3472 74.0313 76.4364 74.0906 76.5346 74.1311C76.6328 74.1715 76.738 74.1923 76.8442 74.1921C76.9504 74.1919 77.0555 74.1708 77.1536 74.1301C77.2516 74.0893 77.3407 74.0297 77.4156 73.9545C77.4906 73.8794 77.55 73.7903 77.5905 73.6922C77.6309 73.5942 77.6517 73.4891 77.6515 73.3831C77.6513 73.277 77.6301 73.172 77.5893 73.0741C76.8697 71.3464 75.8795 68.95 75.0554 66.8832C74.6434 65.8498 74.2726 64.8982 73.9998 64.1594C73.727 63.4206 73.5462 62.7816 73.5504 62.8099C73.5504 62.809 73.5504 62.8081 73.5504 62.8072C73.5355 62.7096 73.5051 61.7953 73.518 60.7254C73.531 59.6555 73.5657 58.333 73.6058 57.0477C73.6862 54.477 73.7892 52.0545 73.7892 52.0545C73.7982 51.8405 73.7219 51.6318 73.5769 51.4741C73.4319 51.3164 73.2301 51.2227 73.0159 51.2136L73.0154 51.2144Z" fill="#6E864C"/>
<path d="M75.3039 74.9835L62.6206 76.855C62.5104 76.8713 62.4047 76.9101 62.3102 76.969L58.4146 79.4014C58.2741 79.4892 58.164 79.618 58.0992 79.7703C58.0344 79.9227 58.018 80.0912 58.0523 80.2532L59.9111 89.0413C59.9398 89.1771 60.0031 89.3032 60.0949 89.4075C60.1866 89.5117 60.3037 89.5906 60.4348 89.6365C60.566 89.6824 60.7068 89.6938 60.8436 89.6695C60.9805 89.6452 61.1087 89.5861 61.216 89.4979C63.3326 87.7583 65.4171 87.1754 67.6322 87.444C67.845 87.4699 68.0594 87.4102 68.2282 87.2782C68.397 87.1462 68.5064 86.9526 68.5324 86.74C68.5452 86.6347 68.5371 86.528 68.5086 86.4258C68.4801 86.3236 68.4317 86.2281 68.3662 86.1446C68.3007 86.0611 68.2194 85.9913 68.1269 85.9392C68.0344 85.8871 67.9326 85.8538 67.8272 85.841C65.5734 85.5677 63.3347 86.0939 61.2344 87.4841L59.7512 80.4715L63.0239 78.4279L74.7895 76.6918L79.4096 98.342L76.4173 101.609L64.876 103.258L64.4977 101.384C64.4553 101.174 64.3312 100.99 64.1526 100.871C63.974 100.753 63.7557 100.71 63.5455 100.752C63.3353 100.795 63.1506 100.919 63.0319 101.097C62.9132 101.275 62.8703 101.494 62.9127 101.703L63.4419 104.324C63.4827 104.527 63.5994 104.706 63.7681 104.825C63.9367 104.943 64.1446 104.993 64.349 104.964L76.9327 103.166C77.1179 103.14 77.2883 103.05 77.4146 102.912L80.8834 99.1254C80.9703 99.0305 81.0333 98.9163 81.0671 98.7922C81.101 98.6681 81.1046 98.5377 81.0778 98.4119L76.2127 75.6137C76.1698 75.413 76.0519 75.2361 75.8831 75.1191C75.7143 75.002 75.5072 74.9536 75.3039 74.9835Z" fill="#6E864C"/>
<path d="M69.7924 94.8377C69.0453 95.1188 67.8345 95.8245 66.5807 96.7603C65.3268 97.6962 64.0801 98.7708 63.5859 100.081C63.5228 100.247 62.9971 101.261 62.116 102.396C61.2345 103.531 59.9734 104.87 58.3525 106.007C58.2656 106.068 58.1916 106.145 58.1347 106.235C58.0778 106.324 58.0391 106.424 58.0208 106.529C58.0025 106.633 58.005 106.74 58.0281 106.844C58.0513 106.947 58.0946 107.045 58.1556 107.132C58.2166 107.219 58.2942 107.293 58.3838 107.35C58.4735 107.406 58.5734 107.445 58.678 107.463C58.7826 107.482 58.8898 107.479 58.9934 107.456C59.0971 107.433 59.1951 107.39 59.282 107.329C61.0675 106.076 62.4328 104.624 63.3941 103.386C64.3554 102.148 64.8887 101.206 65.0989 100.651C65.3396 100.013 66.3992 98.9122 67.5482 98.0546C68.6973 97.197 69.9864 96.4909 70.3619 96.3496C70.5626 96.2741 70.725 96.1221 70.8134 95.9271C70.9019 95.732 70.9091 95.5098 70.8335 95.3094C70.7579 95.109 70.6057 94.9469 70.4104 94.8585C70.2151 94.7702 69.9927 94.763 69.792 94.8384L69.7924 94.8377Z" fill="#6E864C"/>
<path d="M75.4099 74.975C75.3037 74.9766 75.1989 74.9991 75.1014 75.0412C75.004 75.0833 74.9158 75.1441 74.8418 75.2203L71.4892 78.6714C71.3974 78.7658 71.3301 78.8811 71.2932 79.0074C71.2562 79.1336 71.2507 79.267 71.2771 79.3959L76.0261 102.53C76.0692 102.739 76.194 102.924 76.373 103.041C76.552 103.159 76.7705 103.201 76.9805 103.158C77.0845 103.137 77.1833 103.096 77.2713 103.036C77.3593 102.977 77.4347 102.901 77.4931 102.812C77.5516 102.724 77.5921 102.624 77.6122 102.52C77.6323 102.416 77.6317 102.309 77.6104 102.205L72.9472 79.4895L76.0024 76.3447C76.1517 76.1911 76.2339 75.9845 76.2307 75.7704C76.2275 75.5562 76.1393 75.3521 75.9855 75.2029C75.8316 75.0538 75.6247 74.9718 75.4103 74.975L75.4099 74.975Z" fill="#6E864C"/>
<path d="M72.0171 78.4282L58.7912 79.2809C58.6852 79.2877 58.5816 79.3153 58.4864 79.3621C58.3911 79.4089 58.3059 79.474 58.2358 79.5537C58.1657 79.6334 58.112 79.7261 58.0778 79.8265C58.0435 79.9268 58.0295 80.033 58.0363 80.1388C58.0502 80.3525 58.1484 80.5519 58.3095 80.6932C58.4706 80.8346 58.6813 80.9062 58.8952 80.8924L72.1211 80.0396C72.2271 80.0328 72.3307 80.0052 72.4259 79.9584C72.5212 79.9116 72.6064 79.8465 72.6765 79.7668C72.7466 79.6872 72.8003 79.5945 72.8345 79.4941C72.8688 79.3937 72.8829 79.2876 72.876 79.1817C72.8621 78.968 72.7639 78.7686 72.6028 78.6273C72.4417 78.486 72.231 78.4144 72.0171 78.4282Z" fill="#6E864C"/>
<path d="M77.0754 82.0743C76.9709 82.0558 76.8637 82.058 76.7599 82.0809C76.6562 82.1038 76.558 82.1468 76.471 82.2076L73.0152 84.6172L66.2411 85.7856C66.1365 85.8036 66.0364 85.8421 65.9467 85.8988C65.8569 85.9555 65.7792 86.0292 65.718 86.1159C65.6568 86.2026 65.6133 86.3004 65.5899 86.4039C65.5666 86.5074 65.5639 86.6144 65.582 86.7189C65.6001 86.8234 65.6386 86.9233 65.6953 87.013C65.7521 87.1026 65.8259 87.1803 65.9127 87.2414C65.9995 87.3025 66.0975 87.346 66.201 87.3693C66.3046 87.3926 66.4118 87.3952 66.5165 87.3772L73.4677 86.1781C73.5847 86.158 73.6958 86.1124 73.7932 86.0446L77.3968 83.5315C77.5726 83.4089 77.6925 83.2216 77.73 83.0108C77.7676 82.7999 77.7198 82.5828 77.597 82.4072C77.5363 82.3202 77.4589 82.246 77.3694 82.1889C77.2799 82.1318 77.18 82.0929 77.0754 82.0743Z" fill="#6E864C"/>
<path d="M68.244 87.7714C65.6714 88.237 63.8822 89.1529 62.735 89.97C61.5878 90.787 61.0381 91.5637 61.0381 91.5637C60.9778 91.651 60.9352 91.7493 60.9129 91.853C60.8906 91.9567 60.889 92.0638 60.9081 92.1681C60.9273 92.2724 60.9668 92.3719 61.0245 92.461C61.0821 92.5501 61.1568 92.627 61.2442 92.6872C61.4207 92.8088 61.6384 92.8553 61.8493 92.8167C62.0602 92.778 62.247 92.6572 62.3688 92.4809C62.3688 92.4809 62.7064 91.9739 63.6739 91.2848C64.6415 90.5957 66.1946 89.7835 68.5319 89.3606C68.6364 89.3417 68.7362 89.3024 68.8255 89.245C68.9148 89.1876 68.992 89.1132 69.0525 89.026C69.113 88.9388 69.1557 88.8406 69.1782 88.737C69.2007 88.6333 69.2025 88.5262 69.1835 88.4218C69.1453 88.2111 69.0248 88.0243 68.8486 87.9023C68.6724 87.7804 68.455 87.7333 68.244 87.7714Z" fill="#6E864C"/>
<path d="M68.9337 90.664C64.1099 91.5558 61.6437 94.6599 61.6437 94.6599C61.511 94.8281 61.4508 95.0421 61.4761 95.2548C61.5014 95.4674 61.6103 95.6613 61.7788 95.7938C61.8622 95.8594 61.9578 95.9079 62.06 95.9366C62.1622 95.9653 62.2691 95.9735 62.3745 95.961C62.4799 95.9484 62.5819 95.9152 62.6744 95.8633C62.767 95.8114 62.8485 95.7418 62.9141 95.6585C62.9141 95.6585 64.9555 93.0419 69.2279 92.252C69.4388 92.213 69.6255 92.092 69.747 91.9155C69.8685 91.739 69.9148 91.5216 69.8758 91.311C69.8368 91.1005 69.7156 90.914 69.5389 90.7927C69.3623 90.6714 69.1446 90.6251 68.9337 90.664Z" fill="#6E864C"/>
<path d="M69.5962 93.0213C65.9362 93.2206 62.691 96.3612 62.691 96.3612C62.6128 96.4331 62.5496 96.5196 62.505 96.6159C62.4603 96.7121 62.4351 96.8162 62.4308 96.9222C62.4264 97.0282 62.443 97.134 62.4796 97.2336C62.5163 97.3332 62.5721 97.4246 62.6441 97.5026C62.7895 97.6601 62.9915 97.7534 63.2057 97.7621C63.42 97.7708 63.6289 97.6941 63.7866 97.549C63.7866 97.549 66.9598 94.7821 69.6843 94.6337C69.8984 94.622 70.099 94.5259 70.2421 94.3664C70.3853 94.207 70.4591 93.9973 70.4475 93.7835C70.4358 93.5697 70.3395 93.3693 70.1799 93.2263C70.0202 93.0834 69.8103 93.0096 69.5962 93.0213Z" fill="#6E864C"/>
<path d="M52.0297 97.5266C51.7669 97.4673 51.3462 97.5585 51.1202 97.776C50.8096 98.0757 48.8399 99.8625 46.7576 101.756C44.6754 103.649 42.4447 105.682 41.4313 106.651C41.3546 106.724 41.293 106.812 41.2502 106.909C41.2074 107.006 41.1842 107.11 41.1818 107.216C41.1795 107.323 41.1981 107.428 41.2365 107.527C41.275 107.626 41.3325 107.716 41.406 107.793C41.5542 107.947 41.7578 108.037 41.9721 108.042C42.1864 108.046 42.3938 107.966 42.5488 107.818C43.5222 106.888 45.7653 104.842 47.8463 102.95C49.7223 101.244 51.1736 99.928 51.8106 99.3326C51.9007 99.4307 51.9533 99.473 52.0766 99.6308C52.5382 100.222 53.1781 101.165 53.9376 102.225C55.3636 104.214 57.2131 106.626 59.4483 108.172C59.3657 108.373 59.255 108.623 59.063 108.976C58.6028 109.821 57.8754 110.996 57.0359 112.29C55.3568 114.879 53.2244 117.96 51.7733 120.091C51.7136 120.179 51.6717 120.278 51.6502 120.382C51.6286 120.485 51.6277 120.592 51.6475 120.697C51.6674 120.801 51.7076 120.9 51.7659 120.989C51.8242 121.077 51.8993 121.154 51.9871 121.213C52.0749 121.273 52.1737 121.315 52.2776 121.336C52.3816 121.358 52.4888 121.359 52.5931 121.339C52.6974 121.319 52.7968 121.279 52.8856 121.221C52.9743 121.162 53.0508 121.087 53.1105 121C54.5547 118.878 56.6926 115.79 58.393 113.168C59.2431 111.858 59.9829 110.667 60.4835 109.747C60.7339 109.286 60.9244 108.901 61.0479 108.554C61.1097 108.381 61.1605 108.223 61.1743 108.006C61.1812 107.898 61.1812 107.77 61.1283 107.605C61.0755 107.44 60.9412 107.229 60.7419 107.105C58.6906 105.825 56.7411 103.362 55.2522 101.285C54.5078 100.246 53.8775 99.3109 53.3517 98.6377C53.0888 98.3012 52.8655 98.0316 52.5868 97.8097C52.4475 97.6987 52.2933 97.5852 52.0304 97.5259L52.0297 97.5266Z" fill="#6E864C"/>
<path d="M91.494 56.5548C91.2841 56.5988 91.1004 56.7242 90.9832 56.9035C90.9832 56.9035 88.5237 60.6619 85.3233 65.0769C82.1229 69.4919 78.1518 74.5763 75.297 77.1058C75.2175 77.1761 75.1527 77.2614 75.1062 77.3568C75.0598 77.4522 75.0326 77.5558 75.0263 77.6617C75.0199 77.7676 75.0345 77.8738 75.0692 77.974C75.104 78.0743 75.1581 78.1667 75.2286 78.246C75.3709 78.4062 75.5711 78.5033 75.7852 78.516C75.9992 78.5287 76.2095 78.456 76.3699 78.3139C79.4655 75.5711 83.4077 70.4734 86.633 66.0241C89.8582 61.5748 92.3367 57.7871 92.3367 57.7871C92.3948 57.6983 92.4348 57.5989 92.4544 57.4947C92.4741 57.3905 92.473 57.2834 92.4513 57.1796C92.4295 57.0758 92.3874 56.9773 92.3275 56.8897C92.2676 56.8021 92.191 56.7272 92.1021 56.6692C92.0132 56.6112 91.9138 56.5712 91.8094 56.5516C91.7051 56.5319 91.5979 56.533 91.494 56.5548Z" fill="#6E864C"/>
<path d="M96.5115 62.7862C96.3055 62.8458 96.1318 62.9847 96.0284 63.1723C96.0284 63.1723 94.1965 66.4914 92.0959 70.1033C91.0457 71.9092 89.9281 73.7879 88.9435 75.3546C88.1651 76.593 87.5146 77.5301 87.0307 78.158C86.8976 77.9236 86.8282 77.7957 86.5939 77.4138C85.7818 76.0899 84.2728 74.0575 81.1801 71.7924C81.0945 71.7296 80.9973 71.6844 80.8942 71.6592C80.791 71.634 80.6839 71.6292 80.579 71.6454C80.474 71.6615 80.3732 71.6982 80.2825 71.7532C80.1917 71.8082 80.1126 71.8806 80.0499 71.9661C79.9231 72.1388 79.8703 72.3547 79.9029 72.5664C79.9355 72.778 80.0509 72.968 80.2238 73.0946C83.1496 75.2375 84.4802 77.0594 85.2151 78.2575C85.5826 78.8566 85.7685 79.2765 86.0442 79.6544C86.182 79.8434 86.3854 80.1262 86.8497 80.1852C87.3141 80.2442 87.6462 79.9701 87.8241 79.7762C88.4671 79.0742 89.3109 77.8072 90.3121 76.2142C91.3134 74.6212 92.4377 72.7308 93.4935 70.9154C95.6051 67.2845 97.4435 63.9526 97.4435 63.9526C97.4948 63.8597 97.5273 63.7577 97.5391 63.6523C97.5509 63.5468 97.5418 63.4401 97.5123 63.3382C97.4828 63.2363 97.4335 63.1412 97.3672 63.0584C97.3009 62.9755 97.2188 62.9065 97.1258 62.8553C97.0328 62.8042 96.9306 62.7718 96.8251 62.76C96.7195 62.7483 96.6127 62.7575 96.5107 62.787L96.5115 62.7862Z" fill="#6E864C"/>
<path d="M106.885 86.9901C106.672 87.0137 106.477 87.1209 106.343 87.2882C106.21 87.4554 106.148 87.6689 106.171 87.8817C106.171 87.8817 106.783 93.3934 107.695 99.8561C108.607 106.319 109.8 113.694 111.042 117.624C111.074 117.725 111.125 117.819 111.194 117.9C111.262 117.981 111.346 118.048 111.44 118.097C111.534 118.146 111.637 118.176 111.743 118.186C111.848 118.195 111.955 118.183 112.056 118.151C112.261 118.087 112.431 117.944 112.53 117.754C112.629 117.564 112.648 117.342 112.584 117.138C111.43 113.485 110.204 106.066 109.296 99.6305C108.388 93.1946 107.778 87.7034 107.778 87.7034C107.755 87.4906 107.647 87.2959 107.48 87.1621C107.312 87.0283 107.099 86.9664 106.885 86.9901Z" fill="#6E864C"/>
<path d="M80.2193 114.596C76.1743 114.654 72.6366 114.786 70.3055 115.03C67.7526 115.295 65.1028 117.351 63.073 119.416C62.0581 120.448 61.2183 121.489 60.6762 122.392C60.4052 122.843 60.204 123.253 60.1023 123.679C60.0514 123.892 60.0215 124.114 60.0628 124.368C60.1041 124.623 60.2491 124.924 60.4938 125.116C60.8625 125.406 61.2103 125.369 61.474 125.332C61.7377 125.295 61.9786 125.216 62.2328 125.118C62.7411 124.922 63.2907 124.635 63.8192 124.337C64.8761 123.741 65.8377 123.091 65.8377 123.091C65.9257 123.032 66.0011 122.956 66.0596 122.867C66.1182 122.779 66.1587 122.68 66.1789 122.575C66.1991 122.471 66.1985 122.364 66.1773 122.26C66.156 122.156 66.1145 122.058 66.0551 121.97C65.9956 121.882 65.9194 121.807 65.8308 121.748C65.7422 121.69 65.643 121.649 65.5387 121.629C65.4345 121.609 65.3273 121.609 65.2233 121.631C65.1192 121.652 65.0204 121.693 64.9324 121.753C64.9324 121.753 64.008 122.376 63.0241 122.931C62.6398 123.148 62.2828 123.315 61.9505 123.463C61.9992 123.368 61.9987 123.329 62.0626 123.222C62.504 122.487 63.2828 121.507 64.2266 120.547C66.1142 118.627 68.7429 116.816 70.4732 116.636C79.35 115.707 108.641 116.514 111.332 116.719C111.437 116.727 111.544 116.715 111.645 116.682C111.746 116.649 111.839 116.596 111.92 116.527C112 116.458 112.066 116.374 112.114 116.279C112.162 116.184 112.191 116.081 112.199 115.976C112.215 115.762 112.146 115.551 112.007 115.388C111.867 115.226 111.669 115.125 111.455 115.109C109.056 114.926 92.3536 114.424 80.2185 114.596L80.2193 114.596Z" fill="#6E864C"/>
<path d="M67.8122 118.983C67.5986 118.966 67.3868 119.034 67.2236 119.173C66.9084 119.441 66.4623 119.923 65.8553 120.614C65.2484 121.306 64.5326 122.167 63.8712 123.044C63.2097 123.921 62.6044 124.804 62.2078 125.594C62.0095 125.988 61.8575 126.355 61.7938 126.751C61.7302 127.146 61.7815 127.706 62.2062 128.063C62.2062 128.063 62.2063 128.063 62.2062 128.063C62.5199 128.326 62.8658 128.3 63.0652 128.258C63.2647 128.217 63.4099 128.15 63.5598 128.072C63.8595 127.916 64.1652 127.704 64.5101 127.442C65.2 126.92 66.0207 126.205 66.8227 125.475C68.4266 124.016 69.9451 122.499 69.9451 122.499C70.0202 122.425 70.0798 122.335 70.1204 122.238C70.1611 122.14 70.182 122.035 70.182 121.928C70.182 121.822 70.1612 121.717 70.1205 121.619C70.0799 121.521 70.0203 121.432 69.9453 121.357C69.8702 121.282 69.7811 121.223 69.683 121.182C69.5849 121.142 69.4797 121.121 69.3735 121.121C69.2673 121.121 69.1622 121.142 69.0641 121.182C68.966 121.223 68.8768 121.282 68.8017 121.357C68.8017 121.357 67.3011 122.855 65.7337 124.281C65.1054 124.853 64.5152 125.344 63.9697 125.784C64.2908 125.244 64.6894 124.642 65.1624 124.015C65.7922 123.18 66.4873 122.344 67.071 121.679C67.6546 121.014 68.1784 120.481 68.2714 120.402C68.4346 120.264 68.536 120.066 68.5532 119.852C68.5704 119.639 68.502 119.427 68.3631 119.264C68.2943 119.183 68.2102 119.117 68.1156 119.069C68.021 119.02 67.9178 118.991 67.8119 118.983L67.8122 118.983Z" fill="#6E864C"/>
<path d="M70.4729 123.519C70.367 123.527 70.2636 123.555 70.1685 123.602C70.0735 123.65 69.9887 123.715 69.919 123.795C69.675 124.076 68.4081 125.28 67.2523 126.252C66.9202 126.531 66.6548 126.719 66.3568 126.948C66.3759 126.893 66.3835 126.851 66.4033 126.796C66.6977 125.971 67.0434 125.181 67.0434 125.181C67.0859 125.084 67.1089 124.979 67.1109 124.873C67.113 124.767 67.0942 124.662 67.0555 124.563C67.0168 124.464 66.9589 124.374 66.8853 124.298C66.8118 124.221 66.7238 124.16 66.6265 124.117C66.4301 124.032 66.2076 124.027 66.0079 124.105C65.8082 124.183 65.6478 124.337 65.5618 124.533C65.5618 124.533 65.1993 125.36 64.8804 126.254C64.7209 126.7 64.5707 127.162 64.4777 127.584C64.4312 127.794 64.3969 127.992 64.3927 128.209C64.3885 128.426 64.3582 128.71 64.6727 129.048C64.9282 129.322 65.2758 129.35 65.4631 129.33C65.6504 129.311 65.7724 129.262 65.892 129.21C66.1312 129.107 66.3513 128.97 66.6012 128.801C67.1012 128.462 67.6918 127.994 68.2938 127.488C69.4979 126.475 70.6735 125.39 71.1393 124.855C71.209 124.775 71.2622 124.682 71.296 124.581C71.3297 124.481 71.3432 124.375 71.3359 124.269C71.3285 124.163 71.3003 124.06 71.2529 123.965C71.2055 123.87 71.1399 123.785 71.0598 123.716C70.9797 123.646 70.8866 123.593 70.7859 123.559C70.6852 123.526 70.5789 123.512 70.4729 123.519Z" fill="#6E864C"/>
<path d="M79.4434 114.661C79.2397 114.594 79.0178 114.611 78.8264 114.707C78.6349 114.804 78.4897 114.972 78.4225 115.176C78.3554 115.379 78.3718 115.6 78.4682 115.792C78.5863 116.026 78.8503 116.815 79.0959 117.817C79.3415 118.819 79.5964 120.072 79.8124 121.408C80.2445 124.079 80.5114 127.109 80.2929 129.087C80.2455 129.52 80.4683 129.739 80.5934 129.859C80.7184 129.978 80.8316 130.046 80.9602 130.116C81.2174 130.256 81.5384 130.383 81.9844 130.525C82.8765 130.81 84.2572 131.142 86.3506 131.499C90.5374 132.214 97.5631 133.024 109.013 133.655C109.227 133.667 109.437 133.593 109.596 133.45C109.756 133.307 109.853 133.107 109.864 132.893C109.87 132.787 109.855 132.681 109.82 132.581C109.785 132.481 109.73 132.389 109.66 132.31C109.589 132.231 109.503 132.166 109.407 132.121C109.312 132.075 109.208 132.048 109.102 132.042C97.692 131.413 90.7133 130.605 86.6229 129.907C84.5776 129.558 83.2516 129.235 82.4775 128.987C82.1902 128.895 82.0586 128.832 81.9252 128.772C82.0939 126.545 81.8243 123.718 81.4089 121.149C81.1864 119.773 80.925 118.485 80.667 117.432C80.4089 116.379 80.1819 115.598 79.9124 115.064C79.8646 114.97 79.7987 114.885 79.7182 114.816C79.6378 114.747 79.5445 114.694 79.4437 114.661L79.4434 114.661Z" fill="#6E864C"/>
<path d="M69.6101 124.297C69.3999 124.339 69.215 124.463 69.0963 124.641C69.0963 124.641 68.4674 125.584 67.9067 126.576C67.6264 127.073 67.3621 127.576 67.1876 128.034C67.1004 128.263 67.0287 128.473 67.0091 128.745C66.9994 128.881 66.998 129.041 67.0756 129.245C67.1531 129.449 67.3622 129.692 67.6066 129.791C67.9157 129.917 68.1027 129.864 68.2524 129.831C68.4027 129.797 68.527 129.75 68.657 129.695C68.9169 129.584 69.1924 129.435 69.5007 129.256C70.1174 128.897 70.8511 128.418 71.573 127.943C72.2949 127.468 73.0048 126.998 73.5344 126.677C73.7485 126.548 73.9011 126.468 74.0312 126.401C75.0118 127.048 76.2751 127.42 77.5389 127.664C78.9667 127.939 80.3395 128.036 81.2302 127.98C81.3362 127.973 81.4398 127.946 81.5352 127.899C81.6306 127.852 81.7158 127.787 81.786 127.708C81.8562 127.628 81.91 127.535 81.9444 127.435C81.9787 127.335 81.9929 127.228 81.9862 127.123C81.9795 127.017 81.9519 126.913 81.9052 126.818C81.8584 126.723 81.7933 126.638 81.7136 126.568C81.6339 126.498 81.5412 126.444 81.4407 126.41C81.3402 126.375 81.234 126.361 81.128 126.368C80.4806 126.409 79.1435 126.329 77.845 126.078C76.5471 125.828 75.255 125.373 74.6657 124.897C74.2759 124.582 74.0007 124.698 73.8495 124.733C73.6982 124.769 73.5896 124.816 73.4724 124.87C73.2381 124.978 72.9865 125.122 72.6967 125.297C72.1171 125.648 71.4027 126.122 70.6843 126.595C70.1675 126.935 69.7056 127.222 69.2483 127.506C69.2762 127.455 69.2873 127.421 69.3158 127.37C69.8371 126.447 70.4432 125.536 70.4432 125.536C70.562 125.358 70.605 125.14 70.5627 124.93C70.5205 124.72 70.3964 124.535 70.2179 124.417C70.0394 124.298 69.821 124.255 69.6108 124.297L69.6101 124.297Z" fill="#6E864C"/>
<path d="M51.0861 86.4344C50.874 86.4651 50.6827 86.5787 50.5543 86.7503C50.426 86.9218 50.3712 87.1373 50.4019 87.3492C50.4019 87.3492 51.2571 93.2694 51.4217 98.5994C51.4283 98.8134 51.5198 99.0161 51.676 99.1628C51.8322 99.3095 52.0404 99.3881 52.2547 99.3815C52.4691 99.3749 52.672 99.2835 52.8188 99.1274C52.9657 98.9714 53.0445 98.7635 53.0379 98.5495C52.8692 93.0848 52.0021 87.1181 52.0021 87.1181C51.987 87.0131 51.9512 86.9122 51.897 86.821C51.8427 86.7298 51.771 86.6502 51.686 86.5868C51.6009 86.5233 51.5042 86.4771 51.4012 86.4509C51.2983 86.4248 51.1912 86.4192 51.0861 86.4344Z" fill="#6E864C"/>
<path d="M60.513 86.2986C60.4098 86.2738 60.3027 86.2694 60.1978 86.2859C60.0929 86.3024 59.9922 86.3393 59.9016 86.3946C58.1716 87.4511 57.2443 89.212 56.6133 90.802C55.9823 92.3919 55.5456 93.9237 55.274 94.3199C54.8654 94.9139 53.9494 95.8685 53.1591 96.6256C52.3686 97.3829 51.6988 97.9654 51.6988 97.9654C51.6187 98.035 51.5531 98.1197 51.5057 98.2147C51.4584 98.3096 51.4303 98.4129 51.4229 98.5187C51.4156 98.6245 51.4292 98.7307 51.4629 98.8313C51.4967 98.9318 51.5499 99.0247 51.6196 99.1047C51.6894 99.1847 51.7742 99.2502 51.8692 99.2974C51.9643 99.3446 52.0677 99.3727 52.1737 99.38C52.2796 99.3873 52.3859 99.3737 52.4866 99.34C52.5873 99.3062 52.6803 99.253 52.7604 99.1833C52.7604 99.1833 53.4574 98.5776 54.2785 97.7911C55.0995 97.0045 56.0389 96.0605 56.6076 95.2334C56.6076 95.2328 56.6076 95.2322 56.6076 95.2315C57.2759 94.2565 57.537 92.854 58.1155 91.3964C58.694 89.9388 59.4879 88.539 60.7445 87.7717C60.9273 87.6599 61.0583 87.4803 61.1085 87.2721C61.1588 87.064 61.1242 86.8445 61.0125 86.6618C60.9571 86.5713 60.8844 86.4926 60.7986 86.4301C60.7128 86.3677 60.6155 86.3227 60.5122 86.2979L60.513 86.2986Z" fill="#6E864C"/>
<path d="M137.867 165.149L41.7859 169.461L3.7002 171.17C3.51159 171.179 3.33187 171.253 3.19221 171.38C3.05255 171.506 2.96176 171.678 2.93556 171.865C2.93556 171.865 2.81184 172.727 2.82121 173.658C2.82584 174.124 2.85721 174.61 2.98616 175.075C3.11513 175.54 3.38464 176.123 4.04582 176.31C4.04645 176.31 4.04709 176.31 4.04772 176.31C4.24871 176.366 4.29545 176.353 4.40968 176.36C4.52392 176.367 4.65891 176.371 4.8215 176.374C5.14669 176.379 5.58 176.379 6.11261 176.374C7.17781 176.363 8.637 176.332 10.3623 176.286C13.8129 176.194 18.3248 176.041 22.8315 175.867C27.3382 175.693 31.839 175.498 35.2682 175.322C36.9828 175.234 38.4289 175.151 39.479 175.076C40.004 175.039 40.429 175.005 40.7472 174.972C40.9063 174.955 41.0377 174.94 41.1513 174.922C41.2647 174.905 41.2926 174.938 41.5529 174.812C42.1823 174.509 42.3058 173.988 42.425 173.525C42.5442 173.062 42.5971 172.561 42.6266 172.079C42.6598 171.539 42.6397 171.39 42.6325 171.04L137.941 166.763C138.155 166.753 138.356 166.659 138.501 166.501C138.645 166.343 138.721 166.134 138.712 165.92C138.702 165.706 138.608 165.505 138.45 165.36C138.291 165.216 138.082 165.14 137.868 165.149L137.867 165.149ZM41.0166 171.112C41.0218 171.427 41.039 171.54 41.0119 171.98C40.9859 172.404 40.9326 172.833 40.858 173.122C40.827 173.243 40.7879 173.299 40.7615 173.344C40.7029 173.351 40.66 173.358 40.579 173.366C40.2927 173.396 39.8788 173.43 39.3634 173.466C38.3325 173.539 36.8926 173.622 35.1837 173.71C31.7659 173.885 27.2691 174.08 22.7674 174.253C18.2657 174.427 13.7579 174.58 10.3175 174.672C8.59723 174.718 7.14352 174.748 6.09482 174.759C5.57045 174.764 5.14645 174.765 4.84785 174.759C4.73247 174.758 4.65509 174.754 4.58147 174.751C4.57181 174.729 4.56485 174.72 4.54375 174.644C4.48066 174.416 4.44143 174.03 4.43753 173.642C4.43305 173.197 4.46498 173.05 4.49407 172.751L41.0166 171.112Z" fill="#6E864C"/>
<mask id="mask3_598_1089" style="mask-type:luminance" maskUnits="userSpaceOnUse" x="-327" y="-385" width="512" height="2497">
<path d="M184.967 2103.86L144.024 -384.199L-326.728 -376.452L-285.784 2111.6L184.967 2103.86Z" fill="white"/>
</mask>
<g mask="url(#mask3_598_1089)">
<path fill-rule="evenodd" clip-rule="evenodd" d="M41.8283 170.268C41.8283 170.268 42.0119 173.695 41.2001 174.085C40.3864 174.478 5.25449 175.811 4.26462 175.533C3.27472 175.254 3.73529 171.977 3.73529 171.977L41.8283 170.268Z" fill="#6E864C"/>
</g>
<path d="M24.6258 86.2747C24.4121 86.2588 24.2008 86.3284 24.0383 86.4681C23.1241 87.2546 22.5795 88.4748 22.3289 90.2969C22.0784 92.119 22.0821 94.6125 22.2896 98.2237C22.325 98.836 22.691 103.556 23.2297 110.467C23.7683 117.377 24.4751 126.397 25.1783 135.353C26.5849 153.264 27.9765 170.917 27.9765 170.917C27.9933 171.131 28.0944 171.329 28.2574 171.468C28.4205 171.607 28.6322 171.675 28.846 171.659C28.9518 171.65 29.0551 171.621 29.1497 171.573C29.2443 171.525 29.3285 171.459 29.3975 171.378C29.4665 171.297 29.5189 171.204 29.5517 171.103C29.5846 171.002 29.5972 170.896 29.5888 170.79C29.5888 170.79 28.1972 153.137 26.7907 135.226C26.0874 126.271 25.3803 117.251 24.8417 110.341C24.303 103.431 23.9283 98.5513 23.904 98.1309C23.699 94.5629 23.7086 92.1348 23.9311 90.5168C24.1536 88.8987 24.5497 88.1597 25.0937 87.6917C25.2561 87.5519 25.3563 87.3534 25.3721 87.1398C25.388 86.9263 25.3184 86.7152 25.1784 86.553C25.1091 86.4726 25.0247 86.4067 24.9298 86.3589C24.835 86.3112 24.7317 86.2826 24.6258 86.2747Z" fill="#6E864C"/>
<path d="M17.2563 84.3856C17.153 84.4104 17.0557 84.4554 16.9698 84.5178C16.8839 84.5802 16.8112 84.6589 16.7558 84.7494C16.4713 85.2138 15.9478 86.1622 15.6316 87.8875C15.3155 89.6129 15.1733 92.1467 15.524 95.9721C15.5407 96.1525 15.6353 97.5754 15.7735 99.7743C15.9117 101.973 16.0989 105.003 16.3181 108.581C16.7566 115.737 17.3236 125.087 17.8846 134.372C19.0065 152.942 20.1045 171.256 20.1045 171.256C20.1108 171.361 20.138 171.465 20.1844 171.56C20.2309 171.656 20.2957 171.741 20.3752 171.811C20.4546 171.882 20.5472 171.936 20.6475 171.97C20.7479 172.005 20.8541 172.02 20.9601 172.013C21.1742 172 21.3743 171.903 21.5166 171.743C21.6589 171.583 21.7316 171.373 21.7188 171.159C21.7188 171.159 20.6205 152.845 19.4985 134.274C18.9376 124.989 18.3706 115.639 17.932 108.482C17.7128 104.904 17.5257 101.873 17.3874 99.6729C17.2491 97.4724 17.1649 96.1569 17.1342 95.8238C16.793 92.1028 16.941 89.7106 17.2219 88.1776C17.5028 86.6447 17.8832 86.0023 18.1349 85.5914C18.1903 85.5009 18.2274 85.4004 18.2439 85.2957C18.2604 85.1909 18.2561 85.0839 18.2313 84.9808C18.2064 84.8777 18.1614 84.7805 18.0989 84.6948C18.0365 84.609 17.9577 84.5364 17.8671 84.4811C17.6842 84.3693 17.4644 84.3348 17.2559 84.3849L17.2563 84.3856Z" fill="#6E864C"/>
<path d="M29.5004 60.7778C28.3551 60.7947 27.1324 60.8344 25.8911 60.889C20.926 61.1072 15.7306 61.556 14.0773 61.793C12.4845 62.0216 11.0396 63.0092 9.94251 64.1774C8.84558 65.3455 8.04544 66.6755 8.0604 68.0106C8.07916 69.8083 8.40638 78.0443 8.82654 86.2445C9.03663 90.3446 9.26973 94.4222 9.49925 97.6515C9.61402 99.2661 9.72795 100.668 9.83829 101.76C9.94862 102.853 10.0336 103.582 10.1753 104.08C10.5677 105.459 11.1485 106.632 12.2614 107.413C13.3743 108.195 14.8869 108.538 17.0529 108.616C17.159 108.619 17.2648 108.602 17.3643 108.565C17.4638 108.528 17.5551 108.472 17.6328 108.4C17.7105 108.327 17.7732 108.241 17.8174 108.144C17.8615 108.048 17.8862 107.943 17.89 107.837C17.8938 107.731 17.8766 107.626 17.8396 107.526C17.8025 107.427 17.7461 107.336 17.6738 107.258C17.6014 107.181 17.5145 107.118 17.4179 107.074C17.3213 107.03 17.217 107.005 17.1109 107.001C15.094 106.93 13.9123 106.598 13.1915 106.092C12.4706 105.586 12.0781 104.858 11.731 103.639C11.6792 103.457 11.5551 102.664 11.4475 101.599C11.3399 100.533 11.2266 99.1427 11.1126 97.5375C10.8844 94.327 10.6516 90.2562 10.4419 86.1624C10.0223 77.9748 9.69462 69.6409 9.67751 67.994C9.67119 67.4374 10.2124 66.2524 11.1224 65.2834C12.0324 64.3145 13.2601 63.5431 14.3075 63.3927C15.7623 63.1842 21.0467 62.7196 25.9625 62.5036C28.4205 62.3956 30.8031 62.3482 32.5838 62.4168C33.4742 62.4511 34.2179 62.517 34.7124 62.6066C34.9265 62.6454 35.0644 62.6881 35.1603 62.7222C35.1807 62.8205 35.2037 62.9408 35.23 63.1047C35.2905 63.4806 35.3616 64.0092 35.4391 64.6596C35.5942 65.9605 35.7764 67.7525 35.9686 69.8651C36.3532 74.0905 36.7793 79.6016 37.1216 85.0864C37.464 90.5712 37.7228 96.0329 37.7737 100.149C37.799 102.207 37.7717 103.933 37.681 105.131C37.6357 105.731 37.5715 106.202 37.506 106.482C37.4973 106.519 37.4948 106.516 37.4863 106.546C37.2536 106.601 36.7114 106.701 35.8599 106.764C34.8931 106.836 33.6581 106.886 32.3036 106.92C29.5944 106.988 26.4033 106.993 23.8335 106.989C23.7274 106.989 23.6222 107.01 23.5241 107.05C23.4259 107.091 23.3367 107.15 23.2615 107.225C23.1864 107.3 23.1267 107.389 23.0859 107.487C23.0452 107.585 23.0242 107.69 23.024 107.796C23.0239 107.902 23.0447 108.007 23.0852 108.105C23.1257 108.203 23.1851 108.292 23.2601 108.367C23.3351 108.442 23.4242 108.502 23.5222 108.543C23.6203 108.583 23.7254 108.604 23.8316 108.604C26.4048 108.608 29.6051 108.603 32.3442 108.535C33.7138 108.5 34.9669 108.45 35.979 108.375C36.9908 108.3 37.6963 108.241 38.266 108.031C38.6409 107.893 38.7816 107.639 38.8782 107.446C38.9748 107.252 39.0308 107.063 39.0808 106.849C39.1809 106.422 39.2446 105.897 39.2934 105.253C39.3908 103.964 39.4161 102.212 39.3904 100.129C39.3389 95.9631 39.0789 90.4865 38.7355 84.9857C38.3921 79.485 37.9655 73.9633 37.5792 69.719C37.386 67.5969 37.203 65.7951 37.0449 64.4688C36.9658 63.8056 36.8933 63.2619 36.8269 62.8484C36.7936 62.6417 36.7621 62.4684 36.7296 62.3201C36.6971 62.1721 36.6854 62.075 36.5926 61.8843C36.3982 61.4843 36.1046 61.3538 35.8476 61.2477C35.5905 61.1415 35.3166 61.0751 35.0014 61.0179C34.3709 60.9036 33.5787 60.8393 32.6467 60.8034C31.7146 60.7675 30.6466 60.7621 29.5012 60.7792L29.5004 60.7778Z" fill="#6E864C"/>
<path d="M35.5932 61.4751C34.2023 61.971 33.1951 62.7257 32.6048 63.7881C32.0146 64.8505 31.8351 66.1194 31.7775 67.6824C31.7644 68.0374 31.7912 68.6521 31.8391 69.5971C31.887 70.542 31.9595 71.7751 32.0489 73.2006C32.2277 76.0517 32.4741 79.6715 32.7267 83.2706C33.2318 90.469 33.758 97.547 33.8197 98.2947C33.9766 100.229 34.1327 102.369 34.5759 104.185C34.7975 105.094 35.0888 105.926 35.5304 106.626C35.9721 107.325 36.6009 107.906 37.4212 108.141C37.6273 108.2 37.8484 108.175 38.036 108.072C38.2235 107.968 38.3622 107.794 38.4214 107.588C38.4508 107.486 38.4597 107.38 38.4477 107.274C38.4358 107.169 38.4031 107.067 38.3517 106.974C38.3002 106.881 38.2309 106.799 38.1478 106.733C38.0647 106.667 37.9694 106.618 37.8673 106.589C37.4994 106.484 37.1963 106.236 36.8982 105.764C36.6001 105.292 36.3437 104.609 36.147 103.803C35.7535 102.19 35.5887 100.104 35.4312 98.1634C35.4312 98.1628 35.4312 98.1621 35.4312 98.1615C35.3768 97.5023 34.8448 90.3509 34.34 83.157C34.0876 79.56 33.8411 75.943 33.6628 73.0992C33.5736 71.6774 33.5013 70.4485 33.454 69.5149C33.4067 68.5813 33.3874 67.9008 33.3933 67.7417C33.4473 66.2785 33.6339 65.2633 34.0186 64.571C34.4032 63.8786 34.9798 63.4081 36.1369 62.9955C36.3389 62.9235 36.5039 62.7743 36.5957 62.5808C36.6875 62.3872 36.6986 62.1652 36.6265 61.9635C36.5543 61.7618 36.405 61.597 36.2112 61.5054C36.0174 61.4137 35.7951 61.4026 35.5932 61.4747L35.5932 61.4751Z" fill="#6E864C"/>
<path d="M19.6938 78.542C18.6737 78.63 17.7351 78.9306 16.9095 79.3962C15.2584 80.3274 14.0597 81.8713 13.3496 83.5892C12.6394 85.3071 12.4062 87.2122 12.7566 88.9506C13.1071 90.6889 14.0848 92.2846 15.7578 93.1629C15.9476 93.2625 16.1692 93.2827 16.3739 93.2191C16.5786 93.1555 16.7496 93.0134 16.8494 92.8239C16.8988 92.73 16.9293 92.6274 16.939 92.5218C16.9486 92.4161 16.9374 92.3096 16.9059 92.2084C16.8744 92.1071 16.8232 92.013 16.7552 91.9315C16.6873 91.85 16.604 91.7826 16.51 91.7333C15.3114 91.104 14.6185 90.003 14.3421 88.6319C14.0657 87.2608 14.2497 85.6441 14.8444 84.2056C15.439 82.7671 16.4326 81.52 17.7047 80.8026C18.9766 80.0853 20.5268 79.8508 22.4528 80.4949C28.4968 82.5165 27.5661 91.9516 22.8008 92.8334C22.59 92.8723 22.4033 92.9934 22.2818 93.1698C22.1603 93.3463 22.1139 93.5637 22.1529 93.7743C22.192 93.9848 22.3131 94.1713 22.4898 94.2927C22.6665 94.414 22.8842 94.4603 23.095 94.4213C29.7352 93.1927 30.4837 81.478 22.9664 78.9636C21.8152 78.5787 20.7139 78.4539 19.6938 78.542Z" fill="#6E864C"/>
<path d="M56.6204 135.89C56.5227 135.931 56.4342 135.992 56.3599 136.068C56.2856 136.143 56.227 136.233 56.1875 136.332C56.1875 136.332 47.9227 156.844 45.151 169.917C45.1067 170.127 45.1474 170.345 45.2644 170.525C45.3813 170.704 45.5648 170.83 45.7745 170.874C45.9842 170.918 46.203 170.878 46.3827 170.761C46.5624 170.644 46.6883 170.461 46.7328 170.251C49.44 157.482 57.688 136.934 57.688 136.934C57.7679 136.735 57.7655 136.513 57.6813 136.316C57.5972 136.119 57.4381 135.963 57.2391 135.883C57.0402 135.803 56.8176 135.806 56.6204 135.89Z" fill="#6E864C"/>
<path d="M108.737 132.108C108.54 132.193 108.385 132.352 108.305 132.551C108.226 132.75 108.229 132.972 108.314 133.169C108.314 133.169 116.954 153.232 120.687 166.906C120.715 167.008 120.763 167.104 120.828 167.188C120.893 167.272 120.974 167.342 121.066 167.395C121.158 167.447 121.26 167.481 121.365 167.495C121.471 167.508 121.578 167.501 121.68 167.473C121.783 167.445 121.879 167.397 121.962 167.332C122.046 167.267 122.117 167.186 122.169 167.094C122.222 167.002 122.256 166.901 122.27 166.795C122.283 166.69 122.275 166.583 122.247 166.481C118.453 152.585 109.799 132.53 109.799 132.53C109.757 132.433 109.696 132.345 109.62 132.271C109.544 132.197 109.454 132.139 109.355 132.099C109.257 132.06 109.151 132.041 109.045 132.042C108.939 132.044 108.834 132.066 108.737 132.108Z" fill="#6E864C"/>
<mask id="mask4_598_1089" style="mask-type:luminance" maskUnits="userSpaceOnUse" x="-327" y="-385" width="512" height="2497">
<path d="M184.967 2103.86L144.024 -384.199L-326.728 -376.452L-285.784 2111.6L184.967 2103.86Z" fill="white"/>
</mask>
<g mask="url(#mask4_598_1089)">
<path fill-rule="evenodd" clip-rule="evenodd" d="M56.9373 136.632C61.8004 137.741 83.5304 138.792 108.361 132.809C108.591 132.822 108.822 132.836 109.056 132.849C109.056 132.849 117.703 152.908 121.467 166.693L45.9413 170.084C48.6808 157.162 56.9373 136.632 56.9373 136.632Z" fill="#6E864C"/>
</g>
</g>
<defs>
<clipPath id="clip0_598_1089">
<rect width="136" height="174.215" fill="white" transform="translate(0 2.23779) rotate(-0.942766)"/>
</clipPath>
</defs>
</svg>
