<svg width="178" height="80" viewBox="0 0 178 80" fill="none" xmlns="http://www.w3.org/2000/svg">
<path d="M104.962 23.0818C109.36 23.0818 112.925 19.7056 112.925 15.5409C112.925 11.3762 109.36 8 104.962 8C100.565 8 97 11.3762 97 15.5409C97 19.7056 100.565 23.0818 104.962 23.0818Z" fill="#F1B32B" fill-opacity="0.5"/>
<path d="M104.838 9.88477C101.608 9.88477 98.9907 12.3638 98.9907 15.4226C98.9907 18.4814 101.608 20.9605 104.838 20.9605C108.068 20.9605 110.686 18.4814 110.686 15.4226C110.686 13.9539 110.07 12.5453 108.973 11.5068C107.876 10.4682 106.389 9.88477 104.838 9.88477ZM104.838 19.5795C103.674 19.5795 102.558 19.1416 101.734 18.362C100.911 17.5824 100.449 16.5251 100.449 15.4226C100.449 14.3201 100.911 13.2628 101.734 12.4832C102.558 11.7037 103.674 11.2657 104.838 11.2657C106.002 11.2657 107.119 11.7037 107.942 12.4832C108.765 13.2628 109.228 14.3201 109.228 15.4226C109.228 16.5251 108.765 17.5824 107.942 18.362C107.119 19.1416 106.002 19.5795 104.838 19.5795ZM103.38 15.4273L104.843 17.5011L106.296 15.4273L104.843 13.3489L103.38 15.4273Z" fill="white" fill-opacity="0.5"/>
<path d="M10.0482 49.1461C15.5977 49.1461 20.0964 44.8856 20.0964 39.6299C20.0964 34.3743 15.5977 30.1138 10.0482 30.1138C4.49873 30.1138 0 34.3743 0 39.6299C0 44.8856 4.49873 49.1461 10.0482 49.1461Z" fill="#F1B32B" fill-opacity="0.5"/>
<path d="M9.89086 32.4932C5.81506 32.4932 2.51172 35.6216 2.51172 39.4816C2.51172 43.3416 5.81506 46.47 9.89086 46.47C13.9667 46.47 17.27 43.3416 17.27 39.4816C17.27 37.6282 16.4926 35.8506 15.1087 34.54C13.7248 33.2294 11.8479 32.4932 9.89086 32.4932ZM9.89086 44.7274C8.42181 44.7274 7.01293 44.1747 5.97415 43.1909C4.93537 42.2072 4.35179 40.8729 4.35179 39.4816C4.35179 38.0903 4.93537 36.756 5.97415 35.7723C7.01293 34.7885 8.42181 34.2358 9.89086 34.2358C11.3599 34.2358 12.7688 34.7885 13.8076 35.7723C14.8463 36.756 15.4299 38.0903 15.4299 39.4816C15.4299 40.8729 14.8463 42.2072 13.8076 43.1909C12.7688 44.1747 11.3599 44.7274 9.89086 44.7274ZM8.05079 39.4876L9.89714 42.1045L11.7309 39.4876L9.89714 36.8647L8.05079 39.4876Z" fill="white" fill-opacity="0.5"/>
<path d="M167.782 49.1461C173.331 49.1461 177.83 44.8856 177.83 39.6299C177.83 34.3743 173.331 30.1138 167.782 30.1138C162.232 30.1138 157.733 34.3743 157.733 39.6299C157.733 44.8856 162.232 49.1461 167.782 49.1461Z" fill="#F1B32B" fill-opacity="0.5"/>
<path d="M167.624 32.4932C163.548 32.4932 160.245 35.6216 160.245 39.4816C160.245 43.3416 163.548 46.47 167.624 46.47C171.7 46.47 175.003 43.3416 175.003 39.4816C175.003 37.6282 174.226 35.8506 172.842 34.54C171.458 33.2294 169.581 32.4932 167.624 32.4932ZM167.624 44.7274C166.155 44.7274 164.746 44.1747 163.708 43.1909C162.669 42.2072 162.085 40.8729 162.085 39.4816C162.085 38.0903 162.669 36.756 163.708 35.7723C164.746 34.7885 166.155 34.2358 167.624 34.2358C169.093 34.2358 170.502 34.7885 171.541 35.7723C172.58 36.756 173.163 38.0903 173.163 39.4816C173.163 40.8729 172.58 42.2072 171.541 43.1909C170.502 44.1747 169.093 44.7274 167.624 44.7274ZM165.784 39.4876L167.631 42.1045L169.464 39.4876L167.631 36.8647L165.784 39.4876Z" fill="white" fill-opacity="0.5"/>
<path d="M35.1586 29.8053C43.8493 29.8053 50.8944 23.1331 50.8944 14.9026C50.8944 6.67213 43.8493 0 35.1586 0C26.468 0 19.4229 6.67213 19.4229 14.9026C19.4229 23.1331 26.468 29.8053 35.1586 29.8053Z" fill="#F1B32B" fill-opacity="0.5"/>
<path d="M34.9134 3.72559C28.5306 3.72559 23.3574 8.62482 23.3574 14.6697C23.3574 20.7146 28.5306 25.6138 34.9134 25.6138C41.2962 25.6138 46.4694 20.7146 46.4694 14.6697C46.4694 11.7671 45.2519 8.98346 43.0847 6.93104C40.9175 4.87862 37.9782 3.72559 34.9134 3.72559ZM34.9134 22.8848C32.6128 22.8848 30.4065 22.0193 28.7797 20.4786C27.1529 18.938 26.239 16.8485 26.239 14.6697C26.239 12.4909 27.1529 10.4014 28.7797 8.86077C30.4065 7.32014 32.6128 6.45463 34.9134 6.45463C37.214 6.45463 39.4203 7.32014 41.0471 8.86077C42.6738 10.4014 43.5877 12.4909 43.5877 14.6697C43.5877 16.8485 42.6738 18.938 41.0471 20.4786C39.4203 22.0193 37.214 22.8848 34.9134 22.8848ZM32.0318 14.679L34.9232 18.7772L37.795 14.679L34.9232 10.5715L32.0318 14.679Z" fill="white" fill-opacity="0.5"/>
<path d="M137.133 30.4728C145.369 30.4728 152.047 24.1491 152.047 16.3484C152.047 8.54779 145.369 2.22412 137.133 2.22412C128.896 2.22412 122.219 8.54779 122.219 16.3484C122.219 24.1491 128.896 30.4728 137.133 30.4728Z" fill="#F1B32B" fill-opacity="0.5"/>
<path d="M136.899 5.75537C130.85 5.75537 125.947 10.3987 125.947 16.1279C125.947 21.8571 130.85 26.5005 136.899 26.5005C142.949 26.5005 147.852 21.8571 147.852 16.1279C147.852 13.3769 146.698 10.7387 144.644 8.79342C142.59 6.84819 139.804 5.75537 136.899 5.75537ZM136.899 23.914C134.719 23.914 132.628 23.0936 131.086 21.6335C129.544 20.1733 128.678 18.1929 128.678 16.1279C128.678 14.0629 129.544 12.0825 131.086 10.6224C132.628 9.1622 134.719 8.34189 136.899 8.34189C139.08 8.34189 141.171 9.1622 142.713 10.6224C144.254 12.0825 145.121 14.0629 145.121 16.1279C145.121 18.1929 144.254 20.1733 142.713 21.6335C141.171 23.0936 139.08 23.914 136.899 23.914ZM134.168 16.1367L136.909 20.0209L139.63 16.1367L136.909 12.2437L134.168 16.1367Z" fill="white" fill-opacity="0.5"/>
<path d="M79.6256 23.6502C84.0232 23.6502 87.5881 20.274 87.5881 16.1093C87.5881 11.9445 84.0232 8.56836 79.6256 8.56836C75.228 8.56836 71.6631 11.9445 71.6631 16.1093C71.6631 20.274 75.228 23.6502 79.6256 23.6502Z" fill="#F1B32B" fill-opacity="0.5"/>
<path d="M79.5013 10.4531C76.2715 10.4531 73.6538 12.9322 73.6538 15.991C73.6538 19.0498 76.2715 21.5288 79.5013 21.5288C82.7311 21.5288 85.3487 19.0498 85.3487 15.991C85.3487 14.5222 84.7327 13.1137 83.636 12.0751C82.5394 11.0366 81.0521 10.4531 79.5013 10.4531ZM79.5013 20.1479C78.3371 20.1479 77.2207 19.7099 76.3975 18.9304C75.5744 18.1508 75.1119 17.0935 75.1119 15.991C75.1119 14.8885 75.5744 13.8312 76.3975 13.0516C77.2207 12.272 78.3371 11.8341 79.5013 11.8341C80.6654 11.8341 81.7818 12.272 82.605 13.0516C83.4282 13.8312 83.8906 14.8885 83.8906 15.991C83.8906 17.0935 83.4282 18.1508 82.605 18.9304C81.7818 19.7099 80.6654 20.1479 79.5013 20.1479ZM78.0431 15.9957L79.5062 18.0694L80.9594 15.9957L79.5062 13.9172L78.0431 15.9957Z" fill="white" fill-opacity="0.5"/>
<path d="M88.0514 79.3089C92.4489 79.3089 96.0139 75.9327 96.0139 71.768C96.0139 67.6032 92.4489 64.2271 88.0514 64.2271C83.6538 64.2271 80.0889 67.6032 80.0889 71.768C80.0889 75.9327 83.6538 79.3089 88.0514 79.3089Z" fill="#F1B32B" fill-opacity="0.5"/>
<path d="M87.9271 66.1118C84.6973 66.1118 82.0796 68.5909 82.0796 71.6497C82.0796 74.7085 84.6973 77.1875 87.9271 77.1875C91.1568 77.1875 93.7745 74.7085 93.7745 71.6497C93.7745 70.1809 93.1584 68.7724 92.0618 67.7338C90.9652 66.6953 89.4779 66.1118 87.9271 66.1118ZM87.9271 75.8066C86.7629 75.8066 85.6465 75.3686 84.8233 74.5891C84.0002 73.8095 83.5377 72.7522 83.5377 71.6497C83.5377 70.5472 84.0002 69.4899 84.8233 68.7103C85.6465 67.9307 86.7629 67.4927 87.9271 67.4927C89.0912 67.4927 90.2076 67.9307 91.0308 68.7103C91.8539 69.4899 92.3164 70.5472 92.3164 71.6497C92.3164 72.7522 91.8539 73.8095 91.0308 74.5891C90.2076 75.3686 89.0912 75.8066 87.9271 75.8066ZM86.4689 71.6544L87.932 73.7281L89.3852 71.6544L87.932 69.5759L86.4689 71.6544Z" fill="white" fill-opacity="0.5"/>
<path d="M101.997 49.1459C107.023 49.1459 111.097 45.2873 111.097 40.5275C111.097 35.7678 107.023 31.9092 101.997 31.9092C96.9708 31.9092 92.8965 35.7678 92.8965 40.5275C92.8965 45.2873 96.9708 49.1459 101.997 49.1459Z" fill="#F1B32B" fill-opacity="0.5"/>
<path d="M101.855 34.0635C98.1636 34.0635 95.1719 36.8968 95.1719 40.3926C95.1719 43.8884 98.1636 46.7217 101.855 46.7217C105.546 46.7217 108.538 43.8884 108.538 40.3926C108.538 38.714 107.834 37.1042 106.58 35.9172C105.327 34.7303 103.627 34.0635 101.855 34.0635ZM101.855 45.1435C100.524 45.1435 99.2484 44.6429 98.3076 43.752C97.3669 42.861 96.8383 41.6526 96.8383 40.3926C96.8383 39.1326 97.3669 37.9242 98.3076 37.0332C99.2484 36.1422 100.524 35.6417 101.855 35.6417C103.185 35.6417 104.461 36.1422 105.402 37.0332C106.343 37.9242 106.871 39.1326 106.871 40.3926C106.871 41.6526 106.343 42.861 105.402 43.752C104.461 44.6429 103.185 45.1435 101.855 45.1435ZM100.188 40.398L101.861 42.768L103.521 40.398L101.861 38.0225L100.188 40.398Z" fill="white" fill-opacity="0.5"/>
<path d="M34.7578 79.3098C42.2967 79.3098 48.4082 73.5219 48.4082 66.3822C48.4082 59.2425 42.2967 53.4546 34.7578 53.4546C27.2189 53.4546 21.1074 59.2425 21.1074 66.3822C21.1074 73.5219 27.2189 79.3098 34.7578 79.3098Z" fill="#F1B32B" fill-opacity="0.5"/>
<path d="M34.5445 56.6865C29.0076 56.6865 24.52 60.9365 24.52 66.1802C24.52 71.424 29.0076 75.674 34.5445 75.674C40.0814 75.674 44.569 71.424 44.569 66.1802C44.569 63.6624 43.5129 61.2476 41.6329 59.4672C39.7529 57.6868 37.2032 56.6865 34.5445 56.6865ZM34.5445 73.3066C32.5488 73.3066 30.6349 72.5558 29.2237 71.2193C27.8125 69.8829 27.0197 68.0703 27.0197 66.1802C27.0197 64.2902 27.8125 62.4776 29.2237 61.1412C30.6349 59.8047 32.5488 59.0539 34.5445 59.0539C36.5402 59.0539 38.4542 59.8047 39.8653 61.1412C41.2765 62.4776 42.0693 64.2902 42.0693 66.1802C42.0693 68.0703 41.2765 69.8829 39.8653 71.2193C38.4542 72.5558 36.5402 73.3066 34.5445 73.3066ZM32.0448 66.1883L34.553 69.7434L37.0442 66.1883L34.553 62.6252L32.0448 66.1883Z" fill="white" fill-opacity="0.5"/>
<path d="M132.709 75.0001C140.039 75.0001 145.98 69.3732 145.98 62.432C145.98 55.4907 140.039 49.8638 132.709 49.8638C125.38 49.8638 119.438 55.4907 119.438 62.432C119.438 69.3732 125.38 75.0001 132.709 75.0001Z" fill="#F1B32B" fill-opacity="0.5"/>
<path d="M132.502 53.0059C127.119 53.0059 122.756 57.1376 122.756 62.2356C122.756 67.3336 127.119 71.4654 132.502 71.4654C137.885 71.4654 142.248 67.3336 142.248 62.2356C142.248 59.7877 141.221 57.4401 139.393 55.7092C137.566 53.9783 135.087 53.0059 132.502 53.0059ZM132.502 69.1638C130.562 69.1638 128.701 68.4339 127.329 67.1346C125.957 65.8353 125.187 64.0731 125.187 62.2356C125.187 60.3981 125.957 58.6359 127.329 57.3366C128.701 56.0373 130.562 55.3074 132.502 55.3074C134.442 55.3074 136.303 56.0373 137.675 57.3366C139.047 58.6359 139.818 60.3981 139.818 62.2356C139.818 64.0731 139.047 65.8353 137.675 67.1346C136.303 68.4339 134.442 69.1638 132.502 69.1638ZM130.072 62.2435L132.51 65.6997L134.932 62.2435L132.51 58.7794L130.072 62.2435Z" fill="white" fill-opacity="0.5"/>
<path d="M65.0908 63.1507C72.6297 63.1507 78.7412 57.3628 78.7412 50.223C78.7412 43.0833 72.6297 37.2954 65.0908 37.2954C57.5519 37.2954 51.4404 43.0833 51.4404 50.223C51.4404 57.3628 57.5519 63.1507 65.0908 63.1507Z" fill="#F1B32B" fill-opacity="0.5"/>
<path d="M64.8775 40.5273C59.3406 40.5273 54.853 44.7773 54.853 50.0211C54.853 55.2648 59.3406 59.5148 64.8775 59.5148C70.4144 59.5148 74.902 55.2648 74.902 50.0211C74.902 47.5032 73.8459 45.0884 71.9659 43.308C70.0859 41.5276 67.5362 40.5273 64.8775 40.5273ZM64.8775 57.1474C62.8818 57.1474 60.9679 56.3966 59.5567 55.0602C58.1455 53.7237 57.3528 51.9111 57.3528 50.0211C57.3528 48.131 58.1455 46.3184 59.5567 44.982C60.9679 43.6455 62.8818 42.8947 64.8775 42.8947C66.8732 42.8947 68.7872 43.6455 70.1983 44.982C71.6095 46.3184 72.4023 48.131 72.4023 50.0211C72.4023 51.9111 71.6095 53.7237 70.1983 55.0602C68.7872 56.3966 66.8732 57.1474 64.8775 57.1474ZM62.3778 50.0291L64.886 53.5842L67.3772 50.0291L64.886 46.466L62.3778 50.0291Z" fill="white" fill-opacity="0.5"/>
</svg>
