<svg width="182" height="84" viewBox="0 0 182 84" fill="none" xmlns="http://www.w3.org/2000/svg">
<path d="M14.2186 53.1461C19.7681 53.1461 24.2668 48.8856 24.2668 43.6299C24.2668 38.3743 19.7681 34.1138 14.2186 34.1138C8.66914 34.1138 4.17041 38.3743 4.17041 43.6299C4.17041 48.8856 8.66914 53.1461 14.2186 53.1461Z" fill="#F1B32B" fill-opacity="0.5"/>
<path d="M14.0613 36.4932C9.98547 36.4932 6.68213 39.6216 6.68213 43.4816C6.68213 47.3416 9.98547 50.47 14.0613 50.47C18.1371 50.47 21.4404 47.3416 21.4404 43.4816C21.4404 41.6282 20.663 39.8506 19.2791 38.54C17.8953 37.2294 16.0183 36.4932 14.0613 36.4932ZM14.0613 48.7274C12.5922 48.7274 11.1833 48.1747 10.1446 47.1909C9.10578 46.2072 8.5222 44.8729 8.5222 43.4816C8.5222 42.0903 9.10578 40.756 10.1446 39.7723C11.1833 38.7885 12.5922 38.2358 14.0613 38.2358C15.5303 38.2358 16.9392 38.7885 17.978 39.7723C19.0168 40.756 19.6003 42.0903 19.6003 43.4816C19.6003 44.8729 19.0168 46.2072 17.978 47.1909C16.9392 48.1747 15.5303 48.7274 14.0613 48.7274ZM12.2212 43.4876L14.0676 46.1045L15.9013 43.4876L14.0676 40.8647L12.2212 43.4876Z" fill="white" fill-opacity="0.5"/>
<path d="M171.952 53.1461C177.501 53.1461 182 48.8856 182 43.6299C182 38.3743 177.501 34.1138 171.952 34.1138C166.403 34.1138 161.904 38.3743 161.904 43.6299C161.904 48.8856 166.403 53.1461 171.952 53.1461Z" fill="#F1B32B" fill-opacity="0.5"/>
<path d="M171.795 36.4932C167.719 36.4932 164.416 39.6216 164.416 43.4816C164.416 47.3416 167.719 50.47 171.795 50.47C175.871 50.47 179.174 47.3416 179.174 43.4816C179.174 41.6282 178.397 39.8506 177.013 38.54C175.629 37.2294 173.752 36.4932 171.795 36.4932ZM171.795 48.7274C170.326 48.7274 168.917 48.1747 167.878 47.1909C166.839 46.2072 166.256 44.8729 166.256 43.4816C166.256 42.0903 166.839 40.756 167.878 39.7723C168.917 38.7885 170.326 38.2358 171.795 38.2358C173.264 38.2358 174.673 38.7885 175.712 39.7723C176.75 40.756 177.334 42.0903 177.334 43.4816C177.334 44.8729 176.75 46.2072 175.712 47.1909C174.673 48.1747 173.264 48.7274 171.795 48.7274ZM169.955 43.4876L171.801 46.1045L173.635 43.4876L171.801 40.8647L169.955 43.4876Z" fill="white" fill-opacity="0.5"/>
<path d="M39.3286 33.3961C48.0192 33.3961 55.0644 26.7239 55.0644 18.4934C55.0644 10.263 48.0192 3.59082 39.3286 3.59082C30.6379 3.59082 23.5928 10.263 23.5928 18.4934C23.5928 26.7239 30.6379 33.3961 39.3286 33.3961Z" fill="#F1B32B" fill-opacity="0.5"/>
<path d="M39.0833 7.31641C32.7005 7.31641 27.5273 12.2156 27.5273 18.2605C27.5273 24.3054 32.7005 29.2046 39.0833 29.2046C45.4661 29.2046 50.6393 24.3054 50.6393 18.2605C50.6393 15.358 49.4218 12.5743 47.2546 10.5219C45.0875 8.46944 42.1481 7.31641 39.0833 7.31641ZM39.0833 26.4756C36.7827 26.4756 34.5764 25.6101 32.9496 24.0695C31.3229 22.5288 30.409 20.4393 30.409 18.2605C30.409 16.0817 31.3229 13.9922 32.9496 12.4516C34.5764 10.911 36.7827 10.0454 39.0833 10.0454C41.3839 10.0454 43.5902 10.911 45.217 12.4516C46.8438 13.9922 47.7577 16.0817 47.7577 18.2605C47.7577 20.4393 46.8438 22.5288 45.217 24.0695C43.5902 25.6101 41.3839 26.4756 39.0833 26.4756ZM36.2017 18.2698L39.0931 22.3681L41.9649 18.2698L39.0931 14.1623L36.2017 18.2698Z" fill="white" fill-opacity="0.5"/>
<path d="M141.303 34.4728C149.54 34.4728 156.217 28.1491 156.217 20.3484C156.217 12.5478 149.54 6.22412 141.303 6.22412C133.066 6.22412 126.389 12.5478 126.389 20.3484C126.389 28.1491 133.066 34.4728 141.303 34.4728Z" fill="#F1B32B" fill-opacity="0.5"/>
<path d="M141.069 9.75537C135.02 9.75537 130.117 14.3987 130.117 20.1279C130.117 25.8571 135.02 30.5005 141.069 30.5005C147.119 30.5005 152.022 25.8571 152.022 20.1279C152.022 17.3769 150.868 14.7387 148.814 12.7934C146.76 10.8482 143.974 9.75537 141.069 9.75537ZM141.069 27.914C138.889 27.914 136.798 27.0936 135.256 25.6335C133.714 24.1733 132.848 22.1929 132.848 20.1279C132.848 18.0629 133.714 16.0825 135.256 14.6224C136.798 13.1622 138.889 12.3419 141.069 12.3419C143.25 12.3419 145.341 13.1622 146.883 14.6224C148.425 16.0825 149.291 18.0629 149.291 20.1279C149.291 22.1929 148.425 24.1733 146.883 25.6335C145.341 27.0936 143.25 27.914 141.069 27.914ZM138.338 20.1367L141.079 24.0209L143.801 20.1367L141.079 16.2437L138.338 20.1367Z" fill="white" fill-opacity="0.5"/>
<path d="M83.7958 27.6502C88.1933 27.6502 91.7583 24.274 91.7583 20.1093C91.7583 15.9445 88.1933 12.5684 83.7958 12.5684C79.3982 12.5684 75.8333 15.9445 75.8333 20.1093C75.8333 24.274 79.3982 27.6502 83.7958 27.6502Z" fill="#F1B32B" fill-opacity="0.5"/>
<path d="M83.6712 14.4531C80.4414 14.4531 77.8237 16.9322 77.8237 19.991C77.8237 23.0498 80.4414 25.5288 83.6712 25.5288C86.901 25.5288 89.5187 23.0498 89.5187 19.991C89.5187 18.5222 88.9026 17.1137 87.806 16.0751C86.7094 15.0366 85.222 14.4531 83.6712 14.4531ZM83.6712 24.1479C82.5071 24.1479 81.3906 23.7099 80.5675 22.9304C79.7443 22.1508 79.2819 21.0935 79.2819 19.991C79.2819 18.8885 79.7443 17.8312 80.5675 17.0516C81.3906 16.272 82.5071 15.8341 83.6712 15.8341C84.8353 15.8341 85.9518 16.272 86.7749 17.0516C87.5981 17.8312 88.0605 18.8885 88.0605 19.991C88.0605 21.0935 87.5981 22.1508 86.7749 22.9304C85.9518 23.7099 84.8353 24.1479 83.6712 24.1479ZM82.2131 19.9957L83.6762 22.0694L85.1293 19.9957L83.6762 17.9172L82.2131 19.9957Z" fill="white" fill-opacity="0.5"/>
<path d="M83.7958 27.6502C88.1933 27.6502 91.7583 24.274 91.7583 20.1093C91.7583 15.9445 88.1933 12.5684 83.7958 12.5684C79.3982 12.5684 75.8333 15.9445 75.8333 20.1093C75.8333 24.274 79.3982 27.6502 83.7958 27.6502Z" fill="#F1B32B" fill-opacity="0.5"/>
<path d="M83.6712 14.4531C80.4414 14.4531 77.8237 16.9322 77.8237 19.991C77.8237 23.0498 80.4414 25.5288 83.6712 25.5288C86.901 25.5288 89.5187 23.0498 89.5187 19.991C89.5187 18.5222 88.9026 17.1137 87.806 16.0751C86.7094 15.0366 85.222 14.4531 83.6712 14.4531ZM83.6712 24.1479C82.5071 24.1479 81.3906 23.7099 80.5675 22.9304C79.7443 22.1508 79.2819 21.0935 79.2819 19.991C79.2819 18.8885 79.7443 17.8312 80.5675 17.0516C81.3906 16.272 82.5071 15.8341 83.6712 15.8341C84.8353 15.8341 85.9518 16.272 86.7749 17.0516C87.5981 17.8312 88.0605 18.8885 88.0605 19.991C88.0605 21.0935 87.5981 22.1508 86.7749 22.9304C85.9518 23.7099 84.8353 24.1479 83.6712 24.1479ZM82.2131 19.9957L83.6762 22.0694L85.1293 19.9957L83.6762 17.9172L82.2131 19.9957Z" fill="white" fill-opacity="0.5"/>
<path d="M92.2218 83.3089C96.6193 83.3089 100.184 79.9327 100.184 75.768C100.184 71.6032 96.6193 68.2271 92.2218 68.2271C87.8242 68.2271 84.2593 71.6032 84.2593 75.768C84.2593 79.9327 87.8242 83.3089 92.2218 83.3089Z" fill="#F1B32B" fill-opacity="0.5"/>
<path d="M92.0972 70.1118C88.8674 70.1118 86.2498 72.5909 86.2498 75.6497C86.2498 78.7085 88.8674 81.1875 92.0972 81.1875C95.327 81.1875 97.9447 78.7085 97.9447 75.6497C97.9447 74.1809 97.3286 72.7724 96.232 71.7338C95.1354 70.6953 93.6481 70.1118 92.0972 70.1118ZM92.0972 79.8066C90.9331 79.8066 89.8167 79.3686 88.9935 78.5891C88.1703 77.8095 87.7079 76.7522 87.7079 75.6497C87.7079 74.5472 88.1703 73.4899 88.9935 72.7103C89.8167 71.9307 90.9331 71.4927 92.0972 71.4927C93.2613 71.4927 94.3778 71.9307 95.2009 72.7103C96.0241 73.4899 96.4865 74.5472 96.4865 75.6497C96.4865 76.7522 96.0241 77.8095 95.2009 78.5891C94.3778 79.3686 93.2613 79.8066 92.0972 79.8066ZM90.6391 75.6544L92.1022 77.7281L93.5554 75.6544L92.1022 73.5759L90.6391 75.6544Z" fill="white" fill-opacity="0.5"/>
<path d="M106.167 53.1459C111.193 53.1459 115.267 49.2873 115.267 44.5275C115.267 39.7678 111.193 35.9092 106.167 35.9092C101.141 35.9092 97.0667 39.7678 97.0667 44.5275C97.0667 49.2873 101.141 53.1459 106.167 53.1459Z" fill="#F1B32B" fill-opacity="0.5"/>
<path d="M106.025 38.0635C102.334 38.0635 99.342 40.8968 99.342 44.3926C99.342 47.8884 102.334 50.7217 106.025 50.7217C109.716 50.7217 112.708 47.8884 112.708 44.3926C112.708 42.714 112.004 41.1042 110.751 39.9172C109.497 38.7303 107.797 38.0635 106.025 38.0635ZM106.025 49.1435C104.695 49.1435 103.419 48.6429 102.478 47.752C101.537 46.861 101.009 45.6526 101.009 44.3926C101.009 43.1326 101.537 41.9242 102.478 41.0332C103.419 40.1422 104.695 39.6417 106.025 39.6417C107.355 39.6417 108.631 40.1422 109.572 41.0332C110.513 41.9242 111.041 43.1326 111.041 44.3926C111.041 45.6526 110.513 46.861 109.572 47.752C108.631 48.6429 107.355 49.1435 106.025 49.1435ZM104.359 44.398L106.031 46.768L107.691 44.398L106.031 42.0225L104.359 44.398Z" fill="white" fill-opacity="0.5"/>
<path d="M38.9272 83.3098C46.4661 83.3098 52.5776 77.5219 52.5776 70.3822C52.5776 63.2425 46.4661 57.4546 38.9272 57.4546C31.3883 57.4546 25.2769 63.2425 25.2769 70.3822C25.2769 77.5219 31.3883 83.3098 38.9272 83.3098Z" fill="#F1B32B" fill-opacity="0.5"/>
<path d="M38.7144 60.6865C33.1775 60.6865 28.6899 64.9365 28.6899 70.1802C28.6899 75.424 33.1775 79.674 38.7144 79.674C44.2514 79.674 48.7389 75.424 48.7389 70.1802C48.7389 67.6624 47.6828 65.2476 45.8028 63.4672C43.9229 61.6868 41.3731 60.6865 38.7144 60.6865ZM38.7144 77.3066C36.7187 77.3066 34.8048 76.5558 33.3936 75.2193C31.9825 73.8829 31.1897 72.0703 31.1897 70.1802C31.1897 68.2902 31.9825 66.4776 33.3936 65.1412C34.8048 63.8047 36.7187 63.0539 38.7144 63.0539C40.7101 63.0539 42.6241 63.8047 44.0352 65.1412C45.4464 66.4776 46.2392 68.2902 46.2392 70.1802C46.2392 72.0703 45.4464 73.8829 44.0352 75.2193C42.6241 76.5558 40.7101 77.3066 38.7144 77.3066ZM36.2147 70.1883L38.723 73.7434L41.2142 70.1883L38.723 66.6252L36.2147 70.1883Z" fill="white" fill-opacity="0.5"/>
<path d="M136.879 79.0001C144.209 79.0001 150.15 73.3732 150.15 66.432C150.15 59.4907 144.209 53.8638 136.879 53.8638C129.55 53.8638 123.608 59.4907 123.608 66.432C123.608 73.3732 129.55 79.0001 136.879 79.0001Z" fill="#F1B32B" fill-opacity="0.5"/>
<path d="M136.672 57.0059C131.289 57.0059 126.926 61.1376 126.926 66.2356C126.926 71.3336 131.289 75.4654 136.672 75.4654C142.055 75.4654 146.418 71.3336 146.418 66.2356C146.418 63.7877 145.391 61.4401 143.563 59.7092C141.735 57.9783 139.257 57.0059 136.672 57.0059ZM136.672 73.1638C134.732 73.1638 132.871 72.4339 131.499 71.1346C130.127 69.8353 129.356 68.0731 129.356 66.2356C129.356 64.3981 130.127 62.6359 131.499 61.3366C132.871 60.0373 134.732 59.3074 136.672 59.3074C138.612 59.3074 140.473 60.0373 141.845 61.3366C143.217 62.6359 143.987 64.3981 143.987 66.2356C143.987 68.0731 143.217 69.8353 141.845 71.1346C140.473 72.4339 138.612 73.1638 136.672 73.1638ZM134.242 66.2435L136.68 69.6997L139.102 66.2435L136.68 62.7794L134.242 66.2435Z" fill="white" fill-opacity="0.5"/>
<path d="M69.2607 67.1507C76.7996 67.1507 82.9111 61.3628 82.9111 54.223C82.9111 47.0833 76.7996 41.2954 69.2607 41.2954C61.7218 41.2954 55.6104 47.0833 55.6104 54.223C55.6104 61.3628 61.7218 67.1507 69.2607 67.1507Z" fill="#F1B32B" fill-opacity="0.5"/>
<path d="M69.0479 44.5273C63.511 44.5273 59.0234 48.7773 59.0234 54.0211C59.0234 59.2648 63.511 63.5148 69.0479 63.5148C74.5849 63.5148 79.0724 59.2648 79.0724 54.0211C79.0724 51.5032 78.0163 49.0884 76.1363 47.308C74.2564 45.5276 71.7066 44.5273 69.0479 44.5273ZM69.0479 61.1474C67.0522 61.1474 65.1383 60.3966 63.7271 59.0602C62.3159 57.7237 61.5232 55.9111 61.5232 54.0211C61.5232 52.131 62.3159 50.3184 63.7271 48.982C65.1383 47.6455 67.0522 46.8947 69.0479 46.8947C71.0436 46.8947 72.9576 47.6455 74.3687 48.982C75.7799 50.3184 76.5727 52.131 76.5727 54.0211C76.5727 55.9111 75.7799 57.7237 74.3687 59.0602C72.9576 60.3966 71.0436 61.1474 69.0479 61.1474ZM66.5482 54.0291L69.0565 57.5842L71.5477 54.0291L69.0565 50.466L66.5482 54.0291Z" fill="white" fill-opacity="0.5"/>
</svg>
