<svg width="60" height="84" viewBox="0 0 60 84" fill="none" xmlns="http://www.w3.org/2000/svg">
<g clip-path="url(#clip0_781_1041)">
<path d="M20.5219 24.9163C20.446 24.9462 20.3851 25.0049 20.3526 25.0795C20.3365 25.1165 20.3279 25.1563 20.3272 25.1966C20.3265 25.2369 20.3338 25.277 20.3487 25.3145C20.3635 25.352 20.3856 25.3862 20.4137 25.4151C20.4418 25.4441 20.4753 25.4673 20.5124 25.4833C20.7182 25.5724 21.0373 25.809 21.979 26.6897C22.2387 26.9324 22.9583 27.6305 23.7779 28.3566C24.5975 29.0828 25.5102 29.8385 26.2327 30.2343C26.2682 30.2537 26.3071 30.266 26.3472 30.2704C26.3874 30.2748 26.4281 30.2712 26.4668 30.2599C26.5056 30.2487 26.5418 30.2299 26.5734 30.2046C26.6049 30.1794 26.6311 30.1482 26.6505 30.1129C26.67 30.0776 26.6823 30.0387 26.6867 29.9986C26.6911 29.9586 26.6875 29.918 26.6762 29.8793C26.6649 29.8406 26.6461 29.8045 26.6208 29.7731C26.5955 29.7416 26.5643 29.7154 26.5288 29.696C25.9092 29.3566 24.9934 28.6124 24.1865 27.8975C23.3797 27.1826 22.6747 26.4984 22.3998 26.2415C21.4493 25.3525 21.0977 25.0672 20.7573 24.9199C20.6825 24.8875 20.5978 24.8861 20.5219 24.916V24.9163Z" fill="black"/>
<mask id="mask0_781_1041" style="mask-type:luminance" maskUnits="userSpaceOnUse" x="-104" y="-444" width="192" height="1009">
<path d="M87.1431 564.061L87.1431 -443.256H-103.643L-103.643 564.061H87.1431Z" fill="white"/>
</mask>
<g mask="url(#mask0_781_1041)">
<path fill-rule="evenodd" clip-rule="evenodd" d="M20.9612 26.4659C20.9612 26.4659 20.5343 27.3507 16.4391 25.3884L15.3853 21.9172L15.7975 21.4307C15.7975 21.4307 19.0051 21.8251 19.3151 21.8574C19.6251 21.8896 19.8066 21.9855 19.8712 22.2418C19.9351 22.4974 20.9612 26.4659 20.9612 26.4659Z" fill="#6E864C"/>
</g>
<mask id="mask1_781_1041" style="mask-type:luminance" maskUnits="userSpaceOnUse" x="-104" y="-444" width="192" height="1009">
<path d="M87.1431 564.061L87.1431 -443.256H-103.643L-103.643 564.061H87.1431Z" fill="white"/>
</mask>
<g mask="url(#mask1_781_1041)">
<path fill-rule="evenodd" clip-rule="evenodd" d="M22.3608 5.68234C22.4762 5.67159 22.5892 5.71305 22.67 5.79517C22.7515 5.87728 22.7908 5.99162 22.7785 6.10597C22.6954 7.00925 22.5154 8.92555 22.4562 9.08364C22.3785 9.29085 9.04056 10.4819 8.66366 10.495C8.28752 10.508 8.26213 7.77593 8.36521 7.42674C8.46905 7.07678 8.58596 6.92023 9.7536 6.82354C10.7843 6.73912 20.1647 5.88264 22.3608 5.68234Z" fill="#6E864C"/>
</g>
<mask id="mask2_781_1041" style="mask-type:luminance" maskUnits="userSpaceOnUse" x="-104" y="-444" width="192" height="1009">
<path d="M87.1431 564.061L87.1431 -443.256H-103.643L-103.643 564.061H87.1431Z" fill="white"/>
</mask>
<g mask="url(#mask2_781_1041)">
<path fill-rule="evenodd" clip-rule="evenodd" d="M56.2873 14.0249C56.2235 14.3579 56.1827 14.5736 56.1766 14.6119C56.1404 14.836 55.9904 14.9849 55.3812 14.9427C54.772 14.8997 45.8385 14.4761 45.4647 14.4654C45.0909 14.4546 44.8771 14.3587 44.9194 13.7393C44.9624 13.1208 45.2901 7.1585 45.3224 6.91369C45.354 6.66811 45.3863 6.3059 46.1778 6.34811C46.9685 6.39109 56.8358 6.88992 57.0889 6.89836C57.4458 6.91064 57.6219 7.14471 57.5058 7.69803C57.485 7.8001 57.255 8.98963 56.9919 10.3542C56.9019 10.3442 56.8096 10.3388 56.7166 10.3388C55.5474 10.3388 54.5982 11.173 54.5982 12.2014C54.5982 13.1001 55.3235 13.8506 56.2873 14.0249Z" fill="#6E864C"/>
</g>
<mask id="mask3_781_1041" style="mask-type:luminance" maskUnits="userSpaceOnUse" x="-104" y="-444" width="192" height="1009">
<path d="M87.1431 564.061L87.1431 -443.256H-103.643L-103.643 564.061H87.1431Z" fill="white"/>
</mask>
<g mask="url(#mask3_781_1041)">
<path fill-rule="evenodd" clip-rule="evenodd" d="M5.7124 18.6185C5.63394 17.3575 5.55318 15.9539 5.53779 15.818C5.51241 15.5855 5.63779 15.2026 6.05623 15.1442C6.47468 15.0859 14.4928 14.3184 14.7659 14.2893C15.0382 14.2601 15.3897 14.4267 15.4382 15.0736C15.4866 15.7214 15.8274 20.2715 15.8143 20.5823C15.8012 20.8932 15.6458 20.9837 14.9451 21.0612C14.4067 21.1211 10.1345 21.6698 8.01 21.8916C8.43614 21.5309 8.70305 21.0159 8.70305 20.445C8.70305 19.3552 7.73155 18.4711 6.53621 18.4711C6.24469 18.4711 5.96624 18.5233 5.7124 18.6185Z" fill="#6E864C"/>
</g>
<mask id="mask4_781_1041" style="mask-type:luminance" maskUnits="userSpaceOnUse" x="-104" y="-444" width="192" height="1009">
<path d="M87.1431 564.061L87.1431 -443.256H-103.643L-103.643 564.061H87.1431Z" fill="white"/>
</mask>
<g mask="url(#mask4_781_1041)">
<path fill-rule="evenodd" clip-rule="evenodd" d="M14.5684 34.0293C15.3045 34.7085 16.386 35.6486 17.5021 36.4997L19.0343 39.5403C18.6013 40.0307 18.2221 40.6309 17.9052 41.3569C17.5706 42.1228 16.6806 44.4497 15.626 47.257C15.626 47.257 11.6416 50.7005 10.9231 50.8371C10.2047 50.9737 8.68861 50.7688 8.2094 50.5754C7.73019 50.382 6.17948 49.3015 6.17948 49.3015C5.54104 49.415 3.91035 48.2769 3.87573 47.8564C3.84189 47.435 7.34482 38.2042 7.47328 37.9056C7.60173 37.6071 14.5684 34.0293 14.5684 34.0293Z" fill="#6E864C"/>
</g>
<path d="M28.0374 2.1171C27.998 2.10811 27.9572 2.10696 27.9173 2.11369C27.8775 2.12043 27.8393 2.13493 27.8051 2.15638C27.4633 2.37049 27.0664 2.75701 26.8272 3.2975C26.588 3.838 26.5323 4.54406 26.9062 5.27562C26.9246 5.31154 26.9499 5.34351 26.9806 5.36968C27.0113 5.39585 27.0469 5.41569 27.0854 5.42814C27.1238 5.44058 27.1643 5.44537 27.2046 5.44219C27.2449 5.43901 27.2841 5.42794 27.3201 5.40963C27.3561 5.39131 27.3882 5.3661 27.4144 5.33543C27.4406 5.30476 27.4605 5.26926 27.473 5.23092C27.4855 5.19257 27.4903 5.15213 27.4871 5.11194C27.4839 5.07175 27.4728 5.03259 27.4544 4.99667C27.1607 4.42205 27.2119 3.94831 27.3901 3.54542C27.5684 3.14254 27.8995 2.82218 28.1323 2.67635C28.2014 2.63307 28.2504 2.56418 28.2686 2.48483C28.2868 2.40547 28.2727 2.32216 28.2294 2.25321C28.2079 2.21905 28.1799 2.18943 28.1469 2.16608C28.114 2.14273 28.0767 2.1261 28.0374 2.1171Z" fill="black"/>
<path d="M31.416 0.000419994C31.1264 0.00287582 30.8377 0.016428 30.5548 0.0429892C29.4232 0.149234 28.3647 0.452936 27.7355 1.17977C27.7091 1.21028 27.689 1.24567 27.6763 1.28394C27.6635 1.32222 27.6585 1.36263 27.6615 1.40284C27.6644 1.44306 27.6753 1.48227 27.6934 1.5183C27.7116 1.55432 27.7366 1.58645 27.7672 1.61281C27.7978 1.63916 27.8333 1.65923 27.8717 1.6719C27.91 1.68457 27.9505 1.68958 27.9908 1.68663C28.0311 1.68368 28.0705 1.67282 28.1066 1.6547C28.1427 1.63658 28.1748 1.61155 28.2012 1.58103C28.6543 1.05769 29.5596 0.753102 30.6125 0.654248C31.6654 0.555393 32.847 0.651487 33.8053 0.828122C35.0548 1.05814 36.0325 1.49574 36.7251 2.26963C37.4177 3.04353 37.8476 4.1775 37.9259 5.87108C37.9297 5.95239 37.9657 6.02886 38.026 6.0837C38.0863 6.13854 38.1659 6.16726 38.2474 6.16352C38.3289 6.15975 38.4056 6.12384 38.4605 6.06369C38.5155 6.00354 38.5443 5.92406 38.5405 5.84275C38.458 4.0575 37.9922 2.7637 37.184 1.86073C36.3759 0.957757 35.248 0.469396 33.9169 0.224358C33.1616 0.0851513 32.2846 -0.00702423 31.4158 0.000419994H31.416ZM28.4611 2.11959C28.3822 2.14021 28.3147 2.19127 28.2735 2.26154C27.789 3.08825 27.8165 3.96749 28.2365 4.66265C28.6566 5.35781 29.4327 5.87489 30.404 6.13219C31.2571 6.35829 32.2137 6.38346 32.9982 6.55818C33.7828 6.73291 34.3443 7.0043 34.5967 7.72824C34.615 7.78076 34.6473 7.82733 34.69 7.86299C34.7328 7.89865 34.7845 7.92206 34.8395 7.9307C34.8946 7.93935 34.9509 7.9329 35.0026 7.91208C35.0543 7.89126 35.0993 7.85685 35.1329 7.81248C35.1329 7.81248 35.2892 7.60814 35.528 7.42995C35.7668 7.25176 36.0449 7.13132 36.3092 7.20781C36.524 7.26987 36.6264 7.38393 36.7 7.58045C36.7736 7.77697 36.7899 8.05873 36.7452 8.35823C36.6559 8.95722 36.2965 9.61724 36.0492 9.80394C35.4511 10.2549 35.0032 10.0145 35.0032 10.0145C34.9597 9.99489 34.9122 9.98563 34.8645 9.98748C34.8167 9.98934 34.7701 10.0023 34.7282 10.0253C34.6863 10.0482 34.6504 10.0806 34.6233 10.1198C34.5961 10.159 34.5785 10.204 34.5718 10.2512C34.5718 10.2512 33.9964 14.2804 34.312 18.4226C34.3478 18.8956 34.5946 19.2948 34.951 19.5857C35.3074 19.8767 35.7695 20.0786 36.2959 20.231C37.3486 20.5359 38.6714 20.64 39.9523 20.6763C40.2833 20.6858 40.5456 20.6584 40.7665 20.5756C40.9874 20.4928 41.1701 20.3325 41.253 20.1327C41.4188 19.7331 41.2621 19.3351 41.0861 18.9175C40.5091 17.5481 38.7602 16.815 38.6786 13.1864C38.6716 12.8642 38.6397 11.2802 38.6098 9.74398C38.5948 8.97589 38.5804 8.21944 38.5698 7.6383C38.5592 7.05718 38.5528 6.62832 38.5531 6.59086C38.5538 6.50947 38.522 6.43115 38.4649 6.3731C38.4077 6.31506 38.3297 6.28205 38.2481 6.28133C38.2077 6.281 38.1677 6.28862 38.1302 6.30374C38.0927 6.31886 38.0586 6.34116 38.0298 6.36943C38.001 6.3977 37.9781 6.43136 37.9623 6.46847C37.9465 6.50559 37.9382 6.54545 37.9379 6.58576C37.9371 6.68414 37.944 7.06792 37.9546 7.64955C37.9652 8.23117 37.9796 8.98759 37.9946 9.75582C38.0245 11.2923 38.0563 12.8747 38.0632 13.1994C38.0632 13.1997 38.0632 13.2 38.0632 13.2002C38.1493 17.0295 40.1093 18.1843 40.5185 19.1556C40.6786 19.5353 40.7157 19.8216 40.684 19.898C40.6682 19.9362 40.6542 19.9619 40.5496 20.0011C40.445 20.0403 40.2529 20.071 39.9694 20.0629C38.7111 20.0271 37.4214 19.9178 36.4671 19.6415C35.99 19.5034 35.5998 19.3226 35.3404 19.1108C35.0809 18.8989 34.948 18.6751 34.9254 18.3764C34.6517 14.7833 35.0455 11.4103 35.143 10.6506C35.466 10.6857 35.9354 10.6596 36.4202 10.294C36.913 9.92197 37.243 9.19022 37.3535 8.44907C37.4088 8.07849 37.4024 7.70312 37.2761 7.36595C37.1499 7.02883 36.8749 6.73269 36.4802 6.61859C35.9516 6.46571 35.4759 6.70236 35.1592 6.93876C35.0811 6.99702 35.0358 7.04906 34.973 7.10664C34.5655 6.44265 33.8615 6.12183 33.1321 5.95937C32.2617 5.76552 31.3099 5.73752 30.5616 5.53922C29.7106 5.3138 29.078 4.86694 28.7633 4.34608C28.4485 3.82523 28.4151 3.23627 28.8044 2.57185C28.8456 2.50158 28.8571 2.41787 28.8364 2.33914C28.8157 2.26041 28.7646 2.1931 28.6942 2.152C28.6593 2.13166 28.6207 2.11836 28.5807 2.11288C28.5406 2.1074 28.4999 2.10985 28.4608 2.12008L28.4611 2.11959Z" fill="black"/>
<path d="M28.0094 0.75355C27.2317 0.772552 26.4308 1.22681 25.861 1.92465C25.2097 2.72219 24.8683 3.88362 25.3129 5.11945C25.3265 5.1574 25.3475 5.19231 25.3747 5.22216C25.4019 5.25201 25.4347 5.27623 25.4712 5.29343C25.5078 5.31064 25.5474 5.3205 25.5877 5.32244C25.6281 5.32437 25.6685 5.31834 25.7065 5.30471C25.7446 5.2911 25.7795 5.27014 25.8095 5.24303C25.8394 5.21593 25.8637 5.1832 25.8809 5.14673C25.8981 5.11026 25.908 5.07076 25.91 5.03049C25.9119 4.99021 25.9059 4.94995 25.8922 4.912C25.5215 3.88156 25.8012 2.96977 26.3379 2.31242C26.8747 1.65508 27.6766 1.29795 28.2534 1.38025C28.2934 1.38597 28.3342 1.38375 28.3733 1.37376C28.4125 1.36378 28.4493 1.34619 28.4816 1.32201C28.5139 1.29784 28.5412 1.26755 28.5618 1.23287C28.5824 1.19818 28.5959 1.1598 28.6017 1.11989C28.6074 1.07998 28.6052 1.03932 28.5951 1.00027C28.5851 0.961219 28.5675 0.924525 28.5432 0.892275C28.519 0.860025 28.4886 0.832845 28.4538 0.812308C28.4191 0.791771 28.3806 0.778284 28.3406 0.772586C28.2311 0.756969 28.1206 0.750841 28.0094 0.75355Z" fill="black"/>
<path d="M26.284 4.71322C26.2035 4.72673 26.1317 4.77155 26.0844 4.83786C26.0371 4.90417 26.0181 4.98653 26.0316 5.06682C26.2996 6.65866 26.3636 8.04905 26.4036 9.20293C26.4436 10.3568 26.4504 11.2672 26.6452 11.9509C27.0334 13.3132 28.1595 14.1411 29.4293 14.3889C30.6991 14.6367 32.1309 14.3337 33.2295 13.4609C33.2611 13.4358 33.2874 13.4047 33.307 13.3694C33.3266 13.3342 33.339 13.2954 33.3435 13.2553C33.3481 13.2153 33.3447 13.1747 33.3335 13.136C33.3223 13.0972 33.3036 13.061 33.2784 13.0295C33.2533 12.998 33.2221 12.9717 33.1868 12.9522C33.1514 12.9326 33.1126 12.9203 33.0724 12.9157C33.0323 12.9112 32.9916 12.9146 32.9528 12.9257C32.9139 12.9369 32.8777 12.9555 32.8461 12.9807C31.8986 13.7333 30.6369 13.999 29.5474 13.7863C28.4579 13.5737 27.5588 12.9118 27.2371 11.783C27.0834 11.2434 27.0587 10.3412 27.0185 9.18179C26.9783 8.0224 26.9135 6.59892 26.6384 4.96519C26.6317 4.92543 26.6172 4.88737 26.5958 4.85318C26.5744 4.819 26.5464 4.78934 26.5135 4.76595C26.4806 4.74255 26.4434 4.72587 26.404 4.71682C26.3646 4.70777 26.3238 4.70654 26.284 4.71322Z" fill="black"/>
<path d="M27.1123 5.75445C26.7943 5.73669 26.5375 5.78591 26.3283 5.92817C26.2949 5.95088 26.2663 5.97992 26.2441 6.01365C26.222 6.04738 26.2067 6.08511 26.1992 6.12472C26.1917 6.16433 26.1921 6.20505 26.2003 6.24452C26.2086 6.28399 26.2245 6.32145 26.2473 6.35477C26.27 6.38808 26.2992 6.41661 26.333 6.43871C26.3668 6.4608 26.4046 6.47602 26.4443 6.48352C26.484 6.49102 26.5248 6.49067 26.5644 6.48244C26.6039 6.47421 26.6415 6.45827 26.6749 6.43556C26.6733 6.43663 26.8841 6.35653 27.0779 6.36736C27.2718 6.37818 27.4522 6.44101 27.5791 6.60284C27.604 6.63459 27.6349 6.66114 27.6701 6.68097C27.7053 6.7008 27.7441 6.71352 27.7842 6.7184C27.8243 6.72329 27.865 6.72025 27.9039 6.70945C27.9428 6.69865 27.9792 6.68029 28.011 6.65545C28.0429 6.63061 28.0695 6.59975 28.0894 6.56465C28.1092 6.52955 28.122 6.4909 28.1269 6.45088C28.1318 6.41087 28.1287 6.37026 28.1179 6.33142C28.1071 6.29258 28.0887 6.25626 28.0638 6.22451C27.8061 5.89595 27.4304 5.77222 27.1123 5.75445Z" fill="black"/>
<path d="M31.0133 5.65086C30.7246 5.64387 30.4555 5.71653 30.2323 5.80749C29.9347 5.92878 29.732 6.05863 29.5959 6.20411C29.5684 6.23358 29.5469 6.2682 29.5327 6.30596C29.5185 6.34372 29.512 6.38389 29.5134 6.42418C29.5148 6.46448 29.5241 6.5041 29.5408 6.5408C29.5576 6.5775 29.5814 6.61054 29.611 6.63804C29.6405 6.66556 29.6752 6.68701 29.713 6.70115C29.7509 6.71528 29.7912 6.72184 29.8315 6.72045C29.8719 6.71905 29.9117 6.70972 29.9484 6.69301C29.9852 6.67631 30.0183 6.65254 30.0459 6.62305C30.0491 6.61968 30.2438 6.46603 30.4651 6.37588C30.6863 6.28573 30.9473 6.23518 31.1727 6.28565C31.2121 6.29448 31.2529 6.29547 31.2927 6.28857C31.3325 6.28167 31.3706 6.26701 31.4047 6.24544C31.4388 6.22386 31.4684 6.19582 31.4917 6.16285C31.5149 6.12988 31.5314 6.09265 31.5403 6.05331C31.5491 6.01398 31.5501 5.97328 31.5432 5.93355C31.5363 5.89383 31.5216 5.85587 31.5 5.82181C31.4784 5.78775 31.4502 5.75827 31.4172 5.73506C31.3841 5.71185 31.3468 5.69535 31.3074 5.68653C31.2078 5.66423 31.1095 5.65318 31.0133 5.65086Z" fill="black"/>
<path d="M28.5283 6.64746C28.49 6.63438 28.4496 6.62894 28.4092 6.63146C28.3689 6.63398 28.3294 6.64441 28.2931 6.66215C28.2199 6.69792 28.1638 6.76125 28.1373 6.83823C28.1109 6.91522 28.1161 6.99957 28.1519 7.0727C28.195 7.16068 28.2699 7.48551 28.2762 7.82156C28.2824 8.15762 28.2297 8.52242 28.1217 8.75359C28.1217 8.75384 28.1217 8.75412 28.1217 8.75438C28.0166 8.9806 28.0414 9.29176 28.2675 9.48645C28.4936 9.68113 28.8302 9.69872 29.2272 9.57174C29.2656 9.55943 29.3013 9.53968 29.3321 9.51362C29.363 9.48755 29.3884 9.45568 29.4068 9.41982C29.4253 9.38396 29.4366 9.34481 29.4399 9.30463C29.4432 9.26444 29.4386 9.22401 29.4262 9.18561C29.4013 9.1081 29.3466 9.04363 29.274 9.00638C29.2015 8.96914 29.1171 8.96217 29.0394 8.98701C28.7525 9.07875 28.6668 9.01919 28.6696 9.02163C28.6724 9.02401 28.6731 9.02731 28.68 9.01264C28.8526 8.64299 28.8991 8.20956 28.8917 7.81036C28.8843 7.41101 28.8327 7.06353 28.7051 6.80309C28.6873 6.76686 28.6626 6.73445 28.6323 6.70775C28.602 6.68106 28.5668 6.66059 28.5286 6.6475L28.5283 6.64746Z" fill="black"/>
<path d="M30.7194 9.95975C30.6522 9.96474 30.5869 9.98216 30.5295 10.0079C30.5293 10.0079 30.529 10.0079 30.5287 10.0079C30.2394 10.1381 29.2665 10.4923 28.6212 10.522C28.4946 10.5278 28.3369 10.593 28.2542 10.7202C28.1715 10.8473 28.1736 10.9826 28.1958 11.0884C28.2401 11.3001 28.3634 11.4712 28.5363 11.6346C28.8823 11.9616 29.4831 12.2213 30.173 12.0188C30.8199 11.829 31.1639 11.315 31.2542 10.8676C31.2994 10.644 31.2983 10.4317 31.1941 10.2336C31.142 10.1345 31.051 10.0338 30.9209 9.98598C30.8558 9.96206 30.7866 9.95449 30.7194 9.95945L30.7194 9.95975ZM30.6584 10.6134C30.6602 10.6518 30.6615 10.6951 30.651 10.7468C30.6011 10.9942 30.4171 11.3075 29.9995 11.43C29.5363 11.566 29.1712 11.3891 28.9597 11.1892C28.929 11.1602 28.9122 11.1329 28.8903 11.1043C29.5923 11.0241 30.2934 10.77 30.6585 10.6134H30.6584Z" fill="black"/>
<mask id="mask5_781_1041" style="mask-type:luminance" maskUnits="userSpaceOnUse" x="-104" y="-444" width="192" height="1009">
<path d="M87.1431 564.061L87.1431 -443.256H-103.643L-103.643 564.061H87.1431Z" fill="white"/>
</mask>
<g mask="url(#mask5_781_1041)">
<path fill-rule="evenodd" clip-rule="evenodd" d="M30.6609 7.78821C30.6609 7.84914 30.6539 7.90946 30.6402 7.96576C30.6265 8.02205 30.6064 8.07324 30.5811 8.11632C30.5558 8.15941 30.5257 8.19358 30.4926 8.2169C30.4596 8.24022 30.4241 8.2522 30.3883 8.2522C30.3525 8.2522 30.3171 8.24022 30.284 8.2169C30.2509 8.19358 30.2209 8.15941 30.1956 8.11632C30.1702 8.07324 30.1502 8.02205 30.1365 7.96576C30.1228 7.90946 30.1157 7.84914 30.1157 7.78821C30.1157 7.72728 30.1228 7.66696 30.1365 7.61066C30.1502 7.55437 30.1702 7.50318 30.1956 7.4601C30.2209 7.41701 30.2509 7.38284 30.284 7.35952C30.3171 7.3362 30.3525 7.32422 30.3883 7.32422C30.4241 7.32422 30.4596 7.3362 30.4926 7.35952C30.5257 7.38284 30.5558 7.41701 30.5811 7.4601C30.6064 7.50318 30.6265 7.55437 30.6402 7.61066C30.6539 7.66696 30.6609 7.72728 30.6609 7.78821Z" fill="black"/>
</g>
<mask id="mask6_781_1041" style="mask-type:luminance" maskUnits="userSpaceOnUse" x="-104" y="-444" width="192" height="1009">
<path d="M87.1431 564.061L87.1431 -443.256H-103.643L-103.643 564.061H87.1431Z" fill="white"/>
</mask>
<g mask="url(#mask6_781_1041)">
<path fill-rule="evenodd" clip-rule="evenodd" d="M27.8211 7.75012C27.8211 7.81106 27.814 7.87141 27.8003 7.92771C27.7866 7.984 27.7666 8.03515 27.7412 8.07824C27.7159 8.12132 27.6859 8.15549 27.6528 8.17881C27.6197 8.20213 27.5843 8.21411 27.5485 8.21411C27.5127 8.21411 27.4772 8.20213 27.4442 8.17881C27.4111 8.15549 27.381 8.12132 27.3557 8.07824C27.3304 8.03515 27.3103 7.984 27.2966 7.92771C27.2829 7.87141 27.2759 7.81106 27.2759 7.75012C27.2759 7.68919 27.2829 7.62887 27.2966 7.57258C27.3103 7.51628 27.3304 7.46513 27.3557 7.42205C27.381 7.37896 27.4111 7.34475 27.4442 7.32143C27.4772 7.29811 27.5127 7.28613 27.5485 7.28613C27.5843 7.28613 27.6197 7.29811 27.6528 7.32143C27.6859 7.34475 27.7159 7.37896 27.7412 7.42205C27.7666 7.46513 27.7866 7.51628 27.8003 7.57258C27.814 7.62887 27.8211 7.68919 27.8211 7.75012Z" fill="black"/>
</g>
<path d="M31.2312 13.756C31.1497 13.7583 31.0724 13.7928 31.0163 13.852C30.9603 13.9112 30.9301 13.9901 30.9324 14.0715C30.9415 14.3909 30.952 14.4959 30.9611 14.7589C30.9625 14.7992 30.9718 14.8388 30.9886 14.8755C31.0053 14.9122 31.0292 14.9453 31.0587 14.9728C31.0883 15.0003 31.1229 15.0217 31.1608 15.0358C31.1986 15.05 31.2389 15.0565 31.2793 15.0551C31.3197 15.0537 31.3594 15.0444 31.3962 15.0277C31.433 15.011 31.4661 14.9872 31.4936 14.9577C31.5212 14.9282 31.5427 14.8936 31.5568 14.8559C31.571 14.8181 31.5776 14.7779 31.5762 14.7376C31.5667 14.4644 31.5564 14.3639 31.5476 14.0541C31.5465 14.0138 31.5374 13.9741 31.5209 13.9373C31.5043 13.9005 31.4807 13.8673 31.4513 13.8397C31.4219 13.812 31.3874 13.7903 31.3496 13.776C31.3119 13.7616 31.2716 13.7548 31.2312 13.756ZM31.2901 15.6667C31.2085 15.6677 31.1307 15.7011 31.0738 15.7594C31.0169 15.8177 30.9855 15.8961 30.9865 15.9775C30.9936 16.5291 30.9689 16.905 30.8946 17.1564C30.8202 17.4079 30.7172 17.5475 30.4838 17.7124C29.8437 18.1646 28.7503 18.4433 27.7048 18.7075C26.6592 18.9717 25.6528 19.1911 25.1113 19.8112C24.4649 20.551 24.0121 21.76 23.6382 23.1136C23.2644 24.4673 22.985 25.9638 22.7655 27.2432C22.7518 27.3235 22.7705 27.4059 22.8176 27.4724C22.8648 27.5388 22.9364 27.5838 23.0169 27.5976C23.0973 27.6113 23.1799 27.5926 23.2465 27.5456C23.3131 27.4986 23.3583 27.4271 23.372 27.3468C23.5902 26.0745 23.8677 24.5942 24.2315 23.2768C24.5953 21.9594 25.0609 20.8032 25.5752 20.2145C25.8829 19.8622 26.8149 19.5658 27.8558 19.3027C28.8967 19.0397 30.0379 18.7796 30.8393 18.2135C31.156 17.9897 31.3765 17.6957 31.4845 17.3302C31.5926 16.9646 31.6089 16.54 31.6016 15.9697C31.601 15.9294 31.5926 15.8896 31.5766 15.8526C31.5607 15.8155 31.5376 15.782 31.5087 15.7538C31.4797 15.7257 31.4455 15.7035 31.408 15.6885C31.3705 15.6736 31.3304 15.6661 31.29 15.6667H31.2901ZM15.7995 27.9277C15.6647 27.9228 15.5429 27.9823 15.4598 28.0417C15.349 28.1209 15.2586 28.219 15.1592 28.3369C14.9603 28.5725 14.7359 28.8902 14.4633 29.2491C13.9181 29.967 13.1877 30.8407 12.232 31.4386C12.2318 31.4386 12.2315 31.4386 12.2312 31.4386C12.1605 31.483 12.0916 31.5733 12.0706 31.661C12.0497 31.7487 12.0636 31.8196 12.0801 31.8725C12.1131 31.9784 12.1611 32.0404 12.214 32.1078C12.3196 32.2428 12.46 32.3791 12.6145 32.5247C12.9235 32.8159 13.297 33.1566 13.395 33.2918C13.4649 33.3882 13.558 33.482 13.7094 33.6333C13.8608 33.7845 14.06 33.9758 14.2977 34.1963C14.7731 34.6372 15.4013 35.1944 16.0956 35.7701C17.4841 36.9217 19.1176 38.1447 20.3772 38.6632C20.4527 38.6942 20.5374 38.6941 20.6127 38.6629C20.688 38.6316 20.7478 38.5718 20.779 38.4965C20.8101 38.4213 20.8099 38.3368 20.7786 38.2616C20.7473 38.1864 20.6873 38.1268 20.6119 38.0957C19.5001 37.638 17.8579 36.4333 16.4889 35.298C15.8044 34.7303 15.1834 34.1795 14.7167 33.7466C14.4834 33.5302 14.2885 33.3431 14.1448 33.1995C14.0011 33.056 13.8984 32.9386 13.8934 32.9318C13.6922 32.6542 13.3323 32.3565 13.0371 32.0783C12.9208 31.9687 12.8399 31.8815 12.7706 31.8037C13.7202 31.152 14.4343 30.3031 14.9535 29.6195C15.233 29.2515 15.4611 28.9315 15.6295 28.732C15.6997 28.6489 15.7491 28.6039 15.7864 28.5723C15.8465 28.6041 15.9271 28.647 16.0652 28.7426C16.2396 28.8634 16.4572 29.0251 16.7012 29.2116C17.1891 29.5847 17.7837 30.0576 18.379 30.5173C18.9743 30.977 19.5693 31.4232 20.0699 31.7491C20.3201 31.9121 20.5456 32.0451 20.747 32.1372C20.9483 32.2293 21.1148 32.3148 21.3593 32.2463C21.6312 32.17 21.7964 31.9711 21.9569 31.741C22.1175 31.511 22.2631 31.2301 22.3983 30.928C22.4148 30.8912 22.4239 30.8515 22.425 30.8112C22.4262 30.7709 22.4193 30.7308 22.4049 30.6931C22.3905 30.6555 22.3687 30.621 22.341 30.5917C22.3132 30.5624 22.2799 30.5389 22.243 30.5224C22.2061 30.506 22.1663 30.4969 22.1259 30.4958C22.0855 30.4947 22.0453 30.5016 22.0075 30.516C21.9697 30.5304 21.9352 30.5521 21.9059 30.5798C21.8765 30.6075 21.8529 30.6407 21.8365 30.6776C21.7109 30.958 21.5767 31.2115 21.452 31.3902C21.339 31.5521 21.2362 31.6266 21.2088 31.6429C21.1915 31.6357 21.1101 31.6281 21.0031 31.5792C20.8497 31.509 20.6418 31.3888 20.4059 31.2352C19.9341 30.928 19.3459 30.488 18.7553 30.032C18.1647 29.5759 17.5706 29.1034 17.0751 28.7245C16.8273 28.535 16.6044 28.369 16.4157 28.2384C16.2272 28.1079 16.0863 28.0142 15.9369 27.956C15.8901 27.9377 15.8438 27.929 15.7988 27.9274L15.7995 27.9277Z" fill="black"/>
<path d="M27.5172 12.7019C27.477 12.7061 27.4381 12.7181 27.4025 12.7373C27.367 12.7565 27.3356 12.7826 27.3102 12.8139C27.2847 12.8452 27.2657 12.8812 27.2542 12.9198C27.2427 12.9585 27.239 12.999 27.2432 13.0391C27.5234 15.7114 27.237 16.8262 26.8913 17.4813C26.7185 17.8089 26.5202 18.0342 26.3292 18.3102C26.1382 18.5863 25.9647 18.9218 25.9148 19.3873C25.9105 19.4274 25.9142 19.468 25.9256 19.5066C25.937 19.5453 25.956 19.5814 25.9813 19.6127C26.0067 19.6441 26.038 19.6702 26.0735 19.6895C26.109 19.7088 26.1479 19.7209 26.1881 19.7252C26.2283 19.7295 26.2689 19.7258 26.3077 19.7144C26.3464 19.7031 26.3826 19.6841 26.414 19.6588C26.4455 19.6335 26.4716 19.6023 26.4909 19.5669C26.5103 19.5315 26.5224 19.4926 26.5267 19.4525C26.5649 19.0961 26.6725 18.8948 26.8356 18.659C26.9988 18.4232 27.2278 18.1617 27.4359 17.7673C27.8521 16.9785 28.1419 15.7089 27.8553 12.9753C27.8511 12.9352 27.839 12.8963 27.8197 12.8609C27.8005 12.8254 27.7744 12.7941 27.743 12.7687C27.7116 12.7433 27.6755 12.7243 27.6368 12.7129C27.598 12.7014 27.5574 12.6977 27.5172 12.7019Z" fill="black"/>
<path d="M34.4237 16.1588C32.8739 16.7321 31.3961 16.1768 31.3961 16.1768C31.3199 16.1477 31.2352 16.15 31.1607 16.1832C31.0862 16.2164 31.028 16.2778 30.9988 16.3538C30.9844 16.3915 30.9775 16.4316 30.9786 16.4719C30.9797 16.5122 30.9888 16.5519 31.0052 16.5887C31.0217 16.6255 31.0453 16.6587 31.0746 16.6864C31.104 16.7142 31.1385 16.7359 31.1763 16.7503C31.1763 16.7503 32.8476 17.3967 34.6377 16.7345C34.6756 16.7205 34.7103 16.6992 34.7399 16.6718C34.7696 16.6443 34.7935 16.6114 34.8104 16.5747C34.8272 16.538 34.8367 16.4985 34.8382 16.4582C34.8397 16.4179 34.8332 16.3777 34.8192 16.3399C34.7908 16.2635 34.7332 16.2016 34.659 16.1676C34.5849 16.1337 34.5002 16.1305 34.4237 16.1588Z" fill="black"/>
<path d="M56.7168 10.0303C55.4005 10.0303 54.291 10.9826 54.291 12.1994C54.291 13.4161 55.4005 14.3686 56.7168 14.3686C58.0332 14.3686 59.1428 13.4161 59.1428 12.1994C59.1428 10.9826 58.0332 10.0303 56.7168 10.0303ZM56.7168 10.6442C57.7402 10.6442 58.5275 11.3592 58.5275 12.1994C58.5275 13.0395 57.7402 13.7546 56.7168 13.7546C55.6935 13.7546 54.9064 13.0395 54.9064 12.1994C54.9064 11.3592 55.6935 10.6442 56.7168 10.6442Z" fill="black"/>
<path d="M56.791 10.8724C56.7511 10.8625 56.7096 10.8606 56.669 10.867C56.6284 10.8734 56.5895 10.8878 56.5545 10.9094L56.1008 11.1903C56.0665 11.2115 56.0367 11.2393 56.0131 11.272C55.9895 11.3048 55.9727 11.3418 55.9634 11.3811C55.9542 11.4203 55.9528 11.461 55.9594 11.5008C55.9659 11.5406 55.9802 11.5787 56.0015 11.613C56.0286 11.6512 56.064 11.6827 56.1051 11.7051C56.1462 11.7276 56.1919 11.7403 56.2387 11.7425L55.8803 13.0338C55.8585 13.1122 55.8689 13.1961 55.9091 13.267C55.9493 13.3378 56.016 13.3898 56.0947 13.4115C56.1733 13.4332 56.2574 13.4229 56.3284 13.3828C56.3994 13.3427 56.4515 13.2761 56.4733 13.1976L57.0134 11.2522C57.0243 11.2127 57.0272 11.1713 57.0219 11.1307C57.0166 11.09 57.0032 11.0509 56.9825 11.0155C56.9618 10.9801 56.9341 10.9492 56.9013 10.9246C56.8684 10.9 56.8309 10.8822 56.791 10.8724Z" fill="black"/>
<path d="M6.80404 19.1467C6.76417 19.1369 6.72271 19.1351 6.68213 19.1414C6.64154 19.1478 6.60264 19.1622 6.56772 19.1838L6.11387 19.4647C6.04454 19.5076 5.99515 19.5762 5.97655 19.6555C5.95796 19.7348 5.97168 19.8182 6.01471 19.8874C6.04176 19.9255 6.07719 19.9571 6.1183 19.9795C6.15941 20.0019 6.20512 20.0147 6.25193 20.0169L5.89347 21.3082C5.87171 21.3866 5.88207 21.4705 5.92227 21.5413C5.96247 21.6122 6.02923 21.6642 6.10786 21.6859C6.18649 21.7076 6.27055 21.6973 6.34155 21.6572C6.41254 21.6171 6.46466 21.5505 6.48645 21.472L7.02639 19.5266C7.03735 19.4871 7.04026 19.4457 7.03496 19.4051C7.02966 19.3644 7.01626 19.3252 6.99554 19.2898C6.97481 19.2544 6.94718 19.2236 6.9143 19.199C6.88141 19.1744 6.84392 19.1566 6.80404 19.1467Z" fill="black"/>
<path d="M45.6349 6.35448C45.5535 6.36091 45.4781 6.3993 45.4251 6.46121C45.3722 6.52315 45.3461 6.60354 45.3525 6.68469C45.359 6.76585 45.3975 6.84111 45.4595 6.89394L50.5277 11.2086C50.5753 11.2491 50.6341 11.2742 50.6964 11.2804C50.7586 11.2867 50.8213 11.274 50.8761 11.2438L57.4544 7.62152C57.4898 7.60203 57.521 7.5758 57.5462 7.54429C57.5714 7.51278 57.5901 7.4766 57.6013 7.43786C57.6125 7.39913 57.616 7.35858 57.6114 7.31851C57.6069 7.27845 57.5946 7.23966 57.575 7.20437C57.5555 7.16906 57.5292 7.13795 57.4976 7.11278C57.4661 7.08762 57.4298 7.06889 57.391 7.0577C57.3522 7.04651 57.3115 7.04306 57.2714 7.04754C57.2312 7.05203 57.1923 7.06437 57.1569 7.08386L50.7652 10.6036L45.8589 6.42688C45.7968 6.37407 45.7162 6.34803 45.6349 6.35448Z" fill="black"/>
<path d="M41.0482 19.7128C40.9692 19.6925 40.8853 19.7044 40.8151 19.7457C40.7448 19.787 40.6939 19.8545 40.6735 19.9333C40.6634 19.9724 40.6611 20.013 40.6667 20.0529C40.6724 20.0928 40.6858 20.1313 40.7064 20.166C40.7269 20.2007 40.7541 20.231 40.7863 20.2553C40.8186 20.2795 40.8554 20.2972 40.8945 20.3073C41.7139 20.5183 42.6556 21.2833 42.7741 23.3446C43.0271 27.73 42.7592 33.2418 41.7469 36.4746C41.3951 37.5996 40.7809 38.2158 40.0419 38.5204C39.3029 38.8249 38.4143 38.8068 37.5437 38.5517C36.0651 38.1187 33.2328 37.4819 30.8512 37.0034C30.8116 36.9955 30.7708 36.9954 30.7311 37.0032C30.6915 37.011 30.6537 37.0264 30.6201 37.0488C30.5864 37.0711 30.5575 37.0998 30.535 37.1333C30.5125 37.1668 30.4968 37.2043 30.4888 37.2439C30.4727 37.3237 30.489 37.4066 30.5342 37.4744C30.5793 37.5422 30.6497 37.5893 30.7296 37.6054C33.1 38.0816 35.9397 38.7218 37.3703 39.1408C38.3411 39.4252 39.371 39.4611 40.2767 39.0878C41.1824 38.7146 41.9392 37.9209 42.3343 36.6576C43.3958 33.2674 43.6447 27.748 43.3885 23.3095C43.2593 21.0623 42.1242 19.9901 41.0483 19.713L41.0482 19.7128ZM27.0503 29.2152C26.8824 29.2062 26.7292 29.2106 26.5907 29.2311C26.4137 29.2574 26.3175 29.3768 26.2578 29.4723C26.1981 29.5677 26.1575 29.6697 26.1152 29.7911C26.0306 30.034 25.9471 30.3545 25.8371 30.7593C25.6172 31.5687 25.2964 32.7075 24.7189 34.0897C24.6462 34.2643 24.6908 34.4861 24.7811 34.6115C24.8714 34.7369 24.9774 34.8057 25.073 34.8672C25.1686 34.9287 25.2584 34.9796 25.3161 35.0201C25.3738 35.0605 25.3827 35.0934 25.366 35.0484C25.421 35.1965 25.4005 35.5517 25.6047 35.9406C25.809 36.3294 26.2559 36.6703 27.1243 36.8729C27.6243 36.9891 28.6488 37.1897 29.8943 37.4383C29.934 37.4462 29.9748 37.4462 30.0144 37.4384C30.0541 37.4306 30.0918 37.415 30.1254 37.3927C30.159 37.3703 30.1879 37.3416 30.2104 37.3081C30.2329 37.2746 30.2485 37.2369 30.2564 37.1974C30.2724 37.1176 30.2559 37.0347 30.2107 36.967C30.1654 36.8993 30.0951 36.8523 30.0151 36.8363C28.7686 36.5876 27.735 36.3845 27.2642 36.2751C26.4915 36.0948 26.2595 35.8647 26.1498 35.6558C26.04 35.4468 26.0701 35.1774 25.943 34.8353C25.8794 34.6638 25.7654 34.5847 25.6698 34.5176C25.5741 34.4506 25.4799 34.3986 25.4064 34.3513C25.3485 34.314 25.3245 34.2901 25.3074 34.2739C25.8858 32.8799 26.2128 31.7239 26.4313 30.9196C26.542 30.5123 26.6268 30.1926 26.6966 29.9923C26.7243 29.913 26.7451 29.8718 26.7626 29.8377C27.1053 29.8167 27.8648 29.9399 28.791 30.1825C29.7806 30.4417 30.9742 30.8125 32.1842 31.1881C33.3942 31.5637 34.6208 31.9441 35.6869 32.224C36.7531 32.5039 37.641 32.6912 38.2668 32.6528C38.3071 32.6504 38.3465 32.64 38.3829 32.6223C38.4192 32.6047 38.4517 32.58 38.4784 32.5498C38.5052 32.5196 38.5258 32.4844 38.5389 32.4463C38.5521 32.4082 38.5575 32.3678 38.5551 32.3276C38.5526 32.2873 38.5422 32.2479 38.5245 32.2117C38.5067 32.1755 38.482 32.1431 38.4518 32.1164C38.4215 32.0897 38.3862 32.0692 38.348 32.056C38.3098 32.0429 38.2694 32.0375 38.229 32.0399C37.7775 32.0676 36.8892 31.9048 35.8435 31.6303C34.7978 31.3557 33.5767 30.9774 32.3669 30.6019C31.1571 30.2263 29.9586 29.8535 28.9473 29.5886C28.1888 29.3899 27.5542 29.2419 27.0506 29.2149L27.0503 29.2152Z" fill="black"/>
<path d="M38.5062 22.7245C38.4259 22.7102 38.3431 22.7283 38.2762 22.7749C37.9041 23.0334 37.5788 23.3564 37.3607 23.8189C37.1425 24.2813 37.0295 24.8681 37.0168 25.6672C36.984 27.7239 37.0152 29.0785 36.9752 30.035C36.9351 30.9915 36.8295 31.5253 36.5393 32.0226C36.4983 32.0929 36.4869 32.1767 36.5077 32.2554C36.5286 32.3341 36.5799 32.4013 36.6504 32.4423C36.6853 32.4626 36.7239 32.4758 36.7639 32.4812C36.804 32.4866 36.8447 32.4841 36.8838 32.4738C36.9229 32.4635 36.9595 32.4456 36.9917 32.4212C37.0238 32.3967 37.0508 32.3662 37.0712 32.3314C37.4271 31.7213 37.5483 31.054 37.5899 30.0607C37.6316 29.0673 37.5994 27.723 37.632 25.6769C37.6439 24.9312 37.7502 24.4348 37.9174 24.0804C38.0846 23.7261 38.3108 23.499 38.6279 23.2787C38.6948 23.2321 38.7405 23.1609 38.7549 23.0808C38.7693 23.0007 38.7511 22.9181 38.7045 22.8513C38.6814 22.8182 38.652 22.79 38.618 22.7682C38.584 22.7465 38.546 22.7316 38.5062 22.7245Z" fill="black"/>
<path d="M16.3371 25.0984C16.299 25.1118 16.2639 25.1325 16.2338 25.1594C16.2037 25.1863 16.1792 25.2188 16.1617 25.2552C16.1442 25.2915 16.134 25.3309 16.1318 25.3712C16.1296 25.4115 16.1353 25.4518 16.1487 25.4898C16.1621 25.5278 16.1829 25.5629 16.2099 25.5929C16.2368 25.623 16.2695 25.6474 16.3059 25.6648C18.3735 26.6556 19.5305 26.9425 20.2239 26.9695C20.5705 26.983 20.806 26.9293 20.969 26.8473C21.0505 26.8064 21.1125 26.7581 21.1564 26.7127C21.2002 26.6673 21.2384 26.5987 21.2384 26.5987C21.2737 26.5253 21.2785 26.4409 21.2515 26.3641C21.2245 26.2873 21.1681 26.2243 21.0946 26.189C21.0211 26.1537 20.9365 26.149 20.8595 26.1759C20.7825 26.2028 20.7194 26.2591 20.684 26.3325C20.684 26.3325 20.7088 26.2914 20.7133 26.2867C20.7179 26.2821 20.7145 26.2877 20.692 26.299C20.6469 26.3217 20.5198 26.3666 20.2479 26.356C19.704 26.3348 18.5998 26.0829 16.5723 25.1113C16.4987 25.0761 16.4141 25.0714 16.3371 25.0984Z" fill="black"/>
<path d="M16.3374 25.0986C16.0638 25.1944 15.8742 25.4729 15.8852 25.7319C15.8962 25.991 16.0368 26.2123 16.2392 26.3852C16.2394 26.3852 16.2397 26.3852 16.2399 26.3852C16.383 26.5068 16.5488 26.6207 16.7324 26.7295C16.7671 26.7501 16.8056 26.7636 16.8456 26.7694C16.8856 26.7751 16.9263 26.773 16.9655 26.763C17.0047 26.7531 17.0415 26.7355 17.0738 26.7114C17.1062 26.6872 17.1335 26.657 17.1541 26.6223C17.1747 26.5876 17.1883 26.5492 17.1941 26.5093C17.1999 26.4694 17.1977 26.4288 17.1877 26.3897C17.1777 26.3506 17.1601 26.3139 17.1359 26.2816C17.1117 26.2493 17.0813 26.2221 17.0465 26.2015C16.8857 26.1063 16.7472 26.01 16.6396 25.9184C16.5373 25.8311 16.5014 25.7325 16.5003 25.7057C16.4991 25.6788 16.4619 25.7057 16.5413 25.6777C16.6183 25.6507 16.6814 25.5944 16.7168 25.521C16.7521 25.4477 16.7568 25.3633 16.7298 25.2864C16.7028 25.2096 16.6464 25.1467 16.5728 25.1114C16.4993 25.0761 16.4147 25.0714 16.3377 25.0983L16.3374 25.0986ZM17.3769 26.4854C17.3389 26.4993 17.3041 26.5206 17.2744 26.5479C17.2447 26.5752 17.2206 26.6082 17.2037 26.6448C17.1695 26.7187 17.1661 26.8031 17.1942 26.8795C17.2224 26.9559 17.2798 27.018 17.3539 27.0522C18.3083 27.4925 19.4325 27.8193 20.0309 27.9048C20.1117 27.9163 20.1937 27.8953 20.259 27.8465C20.3243 27.7977 20.3675 27.725 20.379 27.6444C20.3848 27.6045 20.3826 27.5638 20.3725 27.5248C20.3625 27.4857 20.3449 27.449 20.3207 27.4167C20.2964 27.3845 20.2661 27.3573 20.2313 27.3367C20.1966 27.3162 20.1581 27.3027 20.1181 27.2969C19.6411 27.2289 18.5008 26.9049 17.6122 26.4949C17.5381 26.4607 17.4535 26.4573 17.3769 26.4854Z" fill="black"/>
<path d="M16.7093 25.9905C16.6333 25.9611 16.5486 25.963 16.474 25.9959C16.3994 26.0287 16.3409 26.0898 16.3114 26.1657C16.2318 26.3705 16.227 26.6017 16.3051 26.7964C16.3831 26.9911 16.5203 27.1432 16.6851 27.2887C17.2103 27.7509 17.8748 28.1052 18.466 28.3757C19.0572 28.6462 19.5896 28.8367 19.7855 28.9226C19.8225 28.9389 19.8623 28.9477 19.9027 28.9485C19.9431 28.9494 19.9833 28.9423 20.021 28.9277C20.0586 28.913 20.093 28.8911 20.1222 28.8632C20.1514 28.8354 20.1748 28.802 20.191 28.7651C20.2073 28.7282 20.2161 28.6885 20.2169 28.6481C20.2178 28.6078 20.2107 28.5677 20.196 28.5302C20.1814 28.4926 20.1594 28.4583 20.1315 28.4292C20.1035 28.4001 20.0701 28.3768 20.0331 28.3605C19.7775 28.2485 19.2856 28.0753 18.7225 27.8176C18.1594 27.56 17.5395 27.2217 17.0924 26.8283C16.965 26.7159 16.8992 26.6256 16.8761 26.568C16.853 26.5104 16.849 26.4796 16.8848 26.3874C16.8994 26.3498 16.9064 26.3097 16.9055 26.2694C16.9046 26.2291 16.8957 26.1893 16.8794 26.1524C16.8631 26.1156 16.8396 26.0822 16.8104 26.0544C16.7812 26.0265 16.7467 26.0047 16.709 25.9902L16.7093 25.9905Z" fill="black"/>
<path d="M18.0649 27.5029C18.0254 27.4945 17.9846 27.4939 17.9449 27.5011C17.9051 27.5084 17.8672 27.5235 17.8333 27.5454C17.7993 27.5673 17.7701 27.5956 17.7471 27.6288C17.7242 27.662 17.708 27.6994 17.6996 27.7388C17.6374 28.0288 17.7445 28.3084 17.9052 28.5133C18.066 28.7183 18.2787 28.8764 18.5021 29.0137C18.9489 29.2882 19.4613 29.4806 19.6688 29.575C19.7056 29.5918 19.7453 29.6011 19.7857 29.6026C19.8261 29.604 19.8664 29.5975 19.9042 29.5834C19.9421 29.5693 19.9768 29.5479 20.0064 29.5204C20.036 29.4929 20.0598 29.4599 20.0766 29.4232C20.0934 29.3865 20.1027 29.3469 20.1042 29.3066C20.1056 29.2663 20.0991 29.2261 20.0849 29.1883C20.0708 29.1505 20.0493 29.1159 20.0217 29.0864C19.9942 29.0569 19.961 29.0331 19.9242 29.0164C19.6664 28.899 19.2001 28.7215 18.8248 28.4908C18.6372 28.3755 18.4781 28.2473 18.3899 28.1349C18.3017 28.0224 18.2829 27.9537 18.3014 27.8673C18.3185 27.7877 18.3032 27.7046 18.2588 27.6362C18.2145 27.5679 18.1447 27.5199 18.0649 27.5029Z" fill="black"/>
<path d="M18.7395 28.5164C18.6994 28.5215 18.6607 28.5345 18.6257 28.5546C18.5906 28.5747 18.5599 28.6014 18.5352 28.6334C18.5105 28.6653 18.4924 28.7018 18.4819 28.7407C18.4713 28.7796 18.4685 28.8202 18.4737 28.8602C18.5497 29.4469 18.9281 29.8341 19.3675 30.0839C19.8069 30.3338 20.3197 30.4987 20.827 30.7441C20.8273 30.7441 20.8275 30.7441 20.8278 30.7441C21.2075 30.9268 21.6072 30.9438 22.3005 31.1865C22.9939 31.4292 23.9798 31.8824 25.4261 32.8748C25.4594 32.8976 25.4969 32.9137 25.5364 32.9221C25.5759 32.9305 25.6167 32.931 25.6565 32.9237C25.6962 32.9164 25.7341 32.9013 25.768 32.8793C25.8019 32.8574 25.8311 32.829 25.854 32.7958C25.8769 32.7626 25.893 32.7252 25.9014 32.6858C25.9098 32.6463 25.9104 32.6056 25.903 32.566C25.8957 32.5263 25.8806 32.4885 25.8586 32.4547C25.8366 32.4209 25.8081 32.3917 25.7748 32.3689C24.2928 31.3521 23.252 30.8689 22.5042 30.6072C21.7565 30.3455 21.3009 30.2901 21.0952 30.1911C20.5427 29.9239 20.0276 29.7524 19.6725 29.5505C19.3173 29.3485 19.1346 29.1686 19.0844 28.7814C19.0793 28.7414 19.0663 28.7028 19.0461 28.6678C19.026 28.6329 18.9992 28.6022 18.9672 28.5776C18.9352 28.5529 18.8986 28.5348 18.8596 28.5243C18.8206 28.5138 18.7799 28.511 18.7398 28.5162L18.7395 28.5164Z" fill="black"/>
<path d="M15.7132 21.6523C15.6324 21.6412 15.5505 21.6626 15.4855 21.7118C15.4205 21.761 15.3778 21.8339 15.3666 21.9146C15.3611 21.9545 15.3636 21.9951 15.3738 22.0341C15.384 22.0731 15.4019 22.1098 15.4263 22.1419C15.4507 22.174 15.4812 22.201 15.5161 22.2214C15.551 22.2417 15.5895 22.255 15.6296 22.2605L19.0501 22.7292L20.1279 26.7418C20.149 26.8205 20.2005 26.8875 20.2712 26.9282C20.3419 26.9689 20.4258 26.9799 20.5047 26.9589C20.5835 26.9378 20.6507 26.8863 20.6914 26.8158C20.7322 26.7453 20.7433 26.6616 20.7222 26.5829L19.5915 22.3734C19.5758 22.3151 19.5432 22.2627 19.4978 22.2227C19.4524 22.1828 19.3962 22.1571 19.3363 22.1489L15.7132 21.6523Z" fill="black"/>
<path d="M26.6492 23.3871C26.5678 23.3829 26.4879 23.4112 26.4273 23.4657C26.3667 23.5202 26.3303 23.5965 26.3261 23.6778C26.2928 24.3172 26.1271 26.8007 25.5543 29.5757C25.5379 29.6554 25.5538 29.7384 25.5987 29.8064C25.6435 29.8744 25.7136 29.9218 25.7935 29.9383C25.8331 29.9464 25.8739 29.9467 25.9136 29.9391C25.9532 29.9315 25.991 29.9162 26.0248 29.894C26.0585 29.8718 26.0876 29.8432 26.1102 29.8099C26.1329 29.7765 26.1488 29.739 26.1569 29.6995C26.7395 26.8767 26.9061 24.3719 26.9405 23.7097C26.9427 23.6694 26.9368 23.6291 26.9233 23.5911C26.9098 23.5531 26.8889 23.5181 26.8619 23.4882C26.8348 23.4582 26.8021 23.4339 26.7656 23.4165C26.7291 23.3992 26.6896 23.3892 26.6492 23.3871ZM25.2638 32.0423C25.1857 32.0186 25.1014 32.0268 25.0294 32.0651C24.9574 32.1034 24.9036 32.1686 24.8798 32.2465C24.4172 33.7616 23.8096 35.2163 23.0296 36.3613C23.0648 36.3097 22.1396 36.6285 22.338 37.7929C22.3516 37.8732 22.3967 37.9448 22.4633 37.9919C22.5298 38.039 22.6124 38.0578 22.6928 38.0441C22.7733 38.0305 22.845 37.9855 22.8922 37.9191C22.9394 37.8527 22.9583 37.7704 22.9446 37.6901C22.7861 36.7595 23.1468 37.2823 23.5388 36.7061C24.371 35.4843 24.9942 33.9784 25.4684 32.4253C25.4922 32.3474 25.484 32.2633 25.4456 32.1915C25.4073 32.1196 25.3418 32.0659 25.2638 32.0422L25.2638 32.0423Z" fill="black"/>
<path d="M40.2773 38.4691C40.1966 38.4572 40.1144 38.4779 40.049 38.5265C39.9835 38.575 39.94 38.6476 39.9281 38.7281C39.8051 39.5628 40.1991 40.0538 40.3891 40.3304C40.4841 40.4688 40.5145 40.5351 40.51 40.6158C40.5055 40.6966 40.4512 40.8556 40.2185 41.1277C40.1656 41.1897 40.1395 41.2701 40.1459 41.3512C40.1524 41.4324 40.1909 41.5076 40.253 41.5605C40.315 41.6133 40.3956 41.6393 40.4769 41.6329C40.5583 41.6265 40.6337 41.5881 40.6867 41.5261C40.9632 41.2027 41.1088 40.9293 41.1245 40.6502C41.1401 40.3711 41.0112 40.1502 40.8967 39.9834C40.6677 39.65 40.4424 39.4593 40.537 38.8174C40.5429 38.7775 40.5409 38.7369 40.531 38.6978C40.5211 38.6587 40.5036 38.6219 40.4795 38.5896C40.4554 38.5572 40.4251 38.5299 40.3904 38.5093C40.3557 38.4886 40.3173 38.4749 40.2773 38.4691Z" fill="black"/>
<path d="M23.2893 37.3874C22.6369 37.4068 22.0079 37.4977 21.4111 37.6761C19.8198 38.152 18.479 39.2727 17.6231 41.2341C17.0911 42.4528 15.2712 47.3067 13.5489 51.9395C12.6878 54.256 11.854 56.5106 11.2257 58.2103C10.9115 59.0601 10.6487 59.7711 10.4596 60.2816C10.2705 60.7921 10.1438 61.1293 10.1387 61.1418C10.1387 61.1421 10.1387 61.1424 10.1387 61.1426C9.93497 61.6458 10.0077 62.1828 10.2974 62.6342C10.587 63.0856 11.0689 63.4724 11.7018 63.8197C12.2355 64.1128 12.9611 64.3176 13.6102 64.4251C13.9348 64.4789 14.2377 64.5072 14.4945 64.502C14.6228 64.4994 14.7394 64.4892 14.8495 64.4636C14.9594 64.4381 15.071 64.4043 15.1744 64.2941C15.2471 64.2169 15.2594 64.1821 15.3099 64.1003C15.3606 64.0183 15.4242 63.911 15.5 63.7803C15.6515 63.5187 15.8513 63.1638 16.0835 62.7462C16.5479 61.911 17.141 60.8259 17.7257 59.7495C18.6658 58.0191 19.2548 56.9206 19.5788 56.3175C19.8621 58.505 20.9384 66.0766 23.1211 72.2551C23.2118 72.5109 23.4292 72.6765 23.672 72.7808C23.9148 72.8851 24.2013 72.9404 24.5222 72.9629C25.164 73.008 25.9452 72.9166 26.7202 72.6889C27.7797 72.3778 28.4871 71.8569 28.91 71.3153C29.333 70.7738 29.491 70.2283 29.39 69.79C27.4961 61.6012 26.4607 49.5369 26.358 48.3075C27.4326 48.6425 31.9622 49.879 37.6612 48.5854C39.4934 48.1699 40.5192 46.9667 41.0054 45.6512C41.4916 44.3357 41.4778 42.909 41.3278 41.9078C41.2869 41.635 41.1106 41.4119 40.88 41.2373C40.6493 41.0627 40.3532 40.9192 39.9889 40.7822C39.2603 40.5082 38.2544 40.2652 36.9931 39.9987C34.4704 39.4658 30.9325 38.8471 26.7069 37.8103C25.5295 37.5214 24.3768 37.3554 23.2893 37.3878V37.3874ZM23.3099 38.0029C24.3228 37.9737 25.4205 38.1266 26.5599 38.4061C30.8078 39.4483 34.3627 40.0702 36.8655 40.599C38.117 40.8634 39.1071 41.1065 39.7718 41.3564C40.1042 41.4814 40.3542 41.6095 40.5081 41.7261C40.6621 41.8426 40.709 41.9303 40.7192 41.9984C40.8569 42.9181 40.862 44.2646 40.4281 45.4386C39.9941 46.6127 39.1609 47.6155 37.5248 47.9866C31.2145 49.4189 26.1151 47.597 26.1151 47.597C26.0667 47.5797 26.0147 47.5748 25.9638 47.5827C25.913 47.5906 25.865 47.611 25.8241 47.6423C25.7833 47.6735 25.7509 47.7144 25.73 47.7613C25.7091 47.8082 25.7004 47.8596 25.7045 47.9107C25.7045 47.9107 26.7759 61.2172 28.7905 69.9276C28.8256 70.0803 28.7614 70.5072 28.4249 70.938C28.0885 71.3688 27.4995 71.8202 26.5467 72.1C25.838 72.3082 25.1121 72.3888 24.5657 72.3504C24.2925 72.3313 24.0646 72.2809 23.9157 72.2169C23.767 72.153 23.715 72.0877 23.7017 72.0507C21.1843 64.9243 20.0659 55.3 20.0659 55.3C20.0584 55.235 20.0302 55.1742 19.9856 55.1263C19.941 55.0784 19.8822 55.046 19.8178 55.0338C19.7534 55.0215 19.6868 55.0301 19.6277 55.0583C19.5685 55.0865 19.52 55.1328 19.489 55.1904C19.489 55.1904 18.3537 57.3061 17.1852 59.4569C16.6009 60.5323 16.0083 61.6165 15.5458 62.4483C15.3145 62.8642 15.1157 63.2172 14.9676 63.473C14.8935 63.6008 14.8319 63.7046 14.7867 63.7778C14.75 63.8371 14.7319 63.8594 14.7379 63.8555C14.7316 63.8586 14.7268 63.8618 14.7102 63.8657C14.663 63.8766 14.5821 63.8862 14.4825 63.8882C14.2832 63.8921 14.0083 63.8685 13.7114 63.8194C13.1177 63.721 12.4267 63.5167 11.9989 63.2818C11.4219 62.9653 11.0217 62.6235 10.8161 62.3032C10.6107 61.9831 10.5753 61.7055 10.7098 61.3731C10.7098 61.3731 10.7098 61.3731 10.7098 61.3731C10.744 61.289 10.8483 61.006 11.0374 60.4954C11.2267 59.9845 11.4895 59.2733 11.8036 58.4236C12.4319 56.724 13.2655 54.4697 14.1264 52.1539C15.8482 47.5223 17.6906 42.619 18.1878 41.4801C18.9857 39.6519 20.1556 38.6936 21.5882 38.2652C22.1254 38.1046 22.7027 38.0213 23.3104 38.0038L23.3099 38.0029Z" fill="black"/>
<mask id="mask7_781_1041" style="mask-type:luminance" maskUnits="userSpaceOnUse" x="-104" y="-444" width="192" height="1009">
<path d="M87.1431 564.061L87.1431 -443.256H-103.643L-103.643 564.061H87.1431Z" fill="white"/>
</mask>
<g mask="url(#mask7_781_1041)">
<path fill-rule="evenodd" clip-rule="evenodd" d="M19.7598 55.3348C19.7598 55.3348 15.2177 63.7998 14.95 64.0837C14.6831 64.3684 12.8116 64.0784 11.8501 63.5504C10.6402 62.8865 10.0856 62.093 10.4241 61.2572C10.581 60.8712 16.8761 43.7142 17.9053 41.3566C19.5591 37.567 22.9266 37.1986 26.6334 38.108C35.1069 40.187 40.819 40.5892 41.0236 41.9529C41.3112 43.8738 41.0613 47.4992 37.5929 48.2859C31.1924 49.7386 26.0111 47.886 26.0111 47.886C26.0111 47.886 27.0857 61.192 29.0902 69.8587C29.2264 70.4497 28.6456 71.8035 26.6334 72.3944C25.1496 72.8303 23.6189 72.7382 23.4112 72.1526C20.8744 64.9717 19.7598 55.3348 19.7598 55.3348Z" fill="black"/>
</g>
<path d="M11.8037 24.4388C11.7284 24.436 11.6687 24.4521 11.6144 24.4748C11.5208 24.5139 11.444 24.5816 11.3796 24.6675C11.1511 24.6684 10.9323 24.7379 10.7405 24.8415C10.481 24.9817 10.2572 25.1822 10.0628 25.3966C9.67404 25.8253 9.41108 26.2839 9.31058 26.5613C8.95602 27.534 9.70706 28.6739 10.7639 28.6362C11.0427 28.6262 11.2748 28.4894 11.4866 28.3217C11.6983 28.1541 11.8918 27.9436 12.062 27.7265C12.2321 27.5094 12.3775 27.2865 12.4846 27.0902C12.5381 26.9921 12.5819 26.9009 12.6151 26.8153C12.6484 26.7297 12.6777 26.6605 12.6758 26.5403C12.6711 26.2407 12.4864 26.0675 12.3384 25.9005C12.1904 25.7336 12.0364 25.5617 11.9188 25.3242C11.8797 25.2451 11.8751 25.2045 11.8677 25.1617C11.8732 25.1652 11.8764 25.1676 11.882 25.1713C12.0022 25.2497 12.1559 25.3473 12.3169 25.4497C12.639 25.6544 12.9993 25.8859 13.1369 25.9893C13.263 26.0842 13.3282 26.2301 13.3789 26.4482C13.4297 26.6665 13.4507 26.934 13.5409 27.2035C13.6042 27.3928 13.7141 27.5073 13.8514 27.6576C13.9887 27.8079 14.156 27.9679 14.3292 28.1221C14.6754 28.4304 15.0029 28.6969 15.2433 28.8204C15.2793 28.8389 15.3185 28.8501 15.3587 28.8535C15.399 28.8568 15.4396 28.8522 15.4781 28.8399C15.5166 28.8276 15.5522 28.8079 15.5831 28.7818C15.6139 28.7558 15.6393 28.7239 15.6578 28.6881C15.6952 28.6157 15.7021 28.5315 15.6772 28.4539C15.6523 28.3764 15.5976 28.3119 15.525 28.2747C15.4547 28.2385 15.0627 27.9525 14.739 27.6642C14.5771 27.52 14.4219 27.3705 14.3063 27.244C14.1907 27.1175 14.1176 26.988 14.1247 27.0093C14.0687 26.8421 14.0426 26.585 13.9785 26.3096C13.9145 26.0342 13.7973 25.7173 13.5074 25.4991C13.3181 25.3569 12.9704 25.1373 12.6479 24.9322C12.4866 24.8297 12.3339 24.7326 12.2191 24.6578C12.1617 24.6203 12.1136 24.5882 12.0809 24.5654C12.0482 24.5427 12.012 24.5022 12.0603 24.555L12.0614 24.5562C11.9829 24.4696 11.8793 24.442 11.804 24.4392L11.8037 24.4388ZM11.2659 25.293C11.2856 25.3911 11.3155 25.4919 11.3668 25.5958C11.5269 25.9193 11.7332 26.1444 11.8773 26.307C12.0214 26.4697 12.0606 26.5586 12.0605 26.5499C12.0597 26.5026 12.0612 26.5429 12.0412 26.5935C12.0216 26.6441 11.988 26.7159 11.9439 26.7967C11.8557 26.9585 11.7255 27.1587 11.577 27.3482C11.4285 27.5377 11.2601 27.7171 11.1039 27.8407C10.9477 27.9644 10.806 28.0203 10.7417 28.0225C10.1635 28.0432 9.68868 27.3187 9.88883 26.7705C9.88883 26.7702 9.88883 26.77 9.88883 26.7697C9.93295 26.648 10.1928 26.1674 10.5186 25.8082C10.6815 25.6285 10.863 25.473 11.0332 25.3811C11.1158 25.3365 11.1922 25.3079 11.2654 25.2927L11.2659 25.293Z" fill="black"/>
<path d="M10.0306 27.6986C9.954 27.6705 9.86937 27.6739 9.7953 27.708C9.72123 27.7421 9.6638 27.8043 9.63562 27.8807C9.60745 27.9571 9.61085 28.0415 9.64507 28.1154C9.94086 28.7539 10.4977 29.0739 10.9876 29.2318C11.2325 29.3107 11.4651 29.3533 11.6545 29.3823C11.8438 29.4112 12.0029 29.4325 12.0353 29.4409C12.009 29.434 12.15 29.5007 12.2902 29.6088C12.4305 29.7168 12.5991 29.8626 12.7651 30.0147C13.0972 30.3188 13.4289 30.6575 13.5286 30.7697C13.5828 30.8306 13.659 30.8675 13.7404 30.8724C13.8219 30.8773 13.9019 30.8496 13.9629 30.7956C14.024 30.7416 14.0611 30.6656 14.066 30.5843C14.0709 30.5031 14.0432 30.4232 13.9891 30.3623C13.8535 30.2097 13.5294 29.8812 13.1811 29.5623C13.007 29.4029 12.8292 29.2483 12.6664 29.1228C12.5036 28.9974 12.3849 28.8977 12.1917 28.847C12.0567 28.8117 11.9216 28.8021 11.7477 28.7755C11.5739 28.749 11.3745 28.7112 11.1769 28.6475C10.7815 28.5201 10.4111 28.3053 10.2038 27.8579C10.1868 27.8213 10.1628 27.7884 10.1331 27.7611C10.1034 27.7337 10.0686 27.7125 10.0307 27.6986H10.0306Z" fill="black"/>
<path d="M13.4088 29.8731C13.3685 29.8698 13.328 29.8745 13.2895 29.8869C13.2511 29.8993 13.2154 29.9192 13.1846 29.9453C13.1846 29.9453 12.8937 30.1913 12.6105 30.5269C12.3272 30.8624 11.9986 31.28 12.0634 31.7894C12.0737 31.8702 12.1157 31.9436 12.1802 31.9934C12.2447 32.0433 12.3264 32.0656 12.4073 32.0553C12.4474 32.0503 12.4861 32.0374 12.5212 32.0174C12.5563 31.9974 12.5871 31.9707 12.6119 31.9388C12.6366 31.9069 12.6548 31.8705 12.6655 31.8316C12.6761 31.7927 12.6789 31.7521 12.6739 31.7121C12.6571 31.5807 12.8363 31.2124 13.0811 30.9223C13.326 30.6322 13.5834 30.413 13.5834 30.413C13.6141 30.3869 13.6395 30.3549 13.6579 30.3191C13.6763 30.2832 13.6875 30.244 13.6907 30.2038C13.694 30.1637 13.6892 30.1232 13.6768 30.0849C13.6644 30.0465 13.6446 30.0109 13.6184 29.9802C13.5922 29.9495 13.5602 29.9242 13.5243 29.9059C13.4883 29.8875 13.4491 29.8763 13.4088 29.8731Z" fill="black"/>
<path d="M9.96218 27.682C9.8812 27.672 9.79956 27.6946 9.73524 27.7447C9.67092 27.7948 9.62918 27.8683 9.61919 27.9491L8.49304 37.0456C8.4861 37.1017 8.49482 37.1586 8.51825 37.2101C8.54168 37.2616 8.5789 37.3056 8.62581 37.3373C8.67272 37.369 8.7275 37.3872 8.7841 37.3898C8.8407 37.3925 8.89693 37.3795 8.9466 37.3523L9.78731 36.891C9.83051 36.8673 9.86738 36.8337 9.89481 36.7928C9.92223 36.7519 9.93942 36.705 9.9449 36.6562L9.98126 36.3318L9.97059 38.3864C9.97032 38.4421 9.98528 38.4969 10.0139 38.5448C10.0424 38.5928 10.0836 38.632 10.1328 38.6584C10.1821 38.6847 10.2376 38.6972 10.2934 38.6945C10.3492 38.6918 10.4033 38.6739 10.4497 38.6428L11.1604 38.1669C11.1808 38.1532 11.1995 38.1371 11.216 38.119C11.2609 38.6393 11.3063 39.1674 11.3458 39.5798C11.3872 40.0066 11.425 40.3612 11.4581 40.6185C11.4746 40.7472 11.4898 40.8509 11.5049 40.9324C11.5125 40.9732 11.5196 41.0079 11.5297 41.0439C11.5348 41.0619 11.5403 41.08 11.5506 41.1045C11.5608 41.1289 11.5662 41.1599 11.6283 41.2198C11.7927 41.3788 11.9918 41.3527 12.1242 41.319C12.2568 41.2852 12.3746 41.2275 12.4873 41.1642C12.6 41.1008 12.7046 41.0309 12.7906 40.9669C12.876 40.9034 12.926 40.8739 13.0002 40.7791C13.0601 40.7032 13.0571 40.6703 13.0618 40.6476C13.0666 40.6245 13.0674 40.6115 13.0683 40.6C13.07 40.5769 13.0697 40.5618 13.0694 40.5456C13.0686 40.513 13.0663 40.4788 13.063 40.4363C13.0563 40.3512 13.0449 40.2361 13.0291 40.0911C12.9974 39.8011 12.9483 39.3935 12.8867 38.9009C12.8181 38.3471 12.7326 37.6883 12.6388 36.9723C12.568 36.4293 12.4918 35.8543 12.4133 35.2679C11.9632 31.8932 11.447 28.1486 11.447 28.1486C11.4415 28.1087 11.4281 28.0702 11.4077 28.0354C11.3873 28.0006 11.3603 27.9702 11.3281 27.9458C11.2959 27.9214 11.2592 27.9037 11.2201 27.8935C11.181 27.8832 11.1403 27.8808 11.1002 27.8863C11.0602 27.8918 11.0216 27.9051 10.9868 27.9255C10.9519 27.9458 10.9214 27.9728 10.897 28.0049C10.8726 28.0371 10.8547 28.0737 10.8445 28.1127C10.8343 28.1517 10.8318 28.1923 10.8373 28.2322C10.8373 28.2322 11.0013 29.4434 11.0421 29.7406C10.9952 29.7161 10.9428 29.704 10.8899 29.7056C10.837 29.7071 10.7854 29.7223 10.7401 29.7496C10.6948 29.7769 10.6573 29.8153 10.6313 29.8613C10.6052 29.9072 10.5915 29.9591 10.5914 30.0119L10.5971 30.5139C10.5748 30.4533 10.534 30.4013 10.4804 30.3652C10.4268 30.3292 10.3632 30.3108 10.2986 30.3129C10.2339 30.3149 10.1716 30.3371 10.1204 30.3765C10.0692 30.4159 10.0317 30.4704 10.0133 30.5322L9.3512 36.43L9.17752 36.5253L10.2299 28.0246C10.2349 27.9846 10.2319 27.944 10.2211 27.9051C10.2103 27.8663 10.192 27.8299 10.1671 27.7981C10.1423 27.7663 10.1114 27.7398 10.0762 27.7199C10.0411 27.7 10.0023 27.6872 9.96219 27.6823L9.96218 27.682ZM11.3658 32.126C11.5426 33.4234 11.5996 33.8214 11.8033 35.3487C11.8817 35.9347 11.9578 36.5091 12.0285 37.0513C12.1223 37.767 12.2076 38.425 12.2759 38.9762C12.3374 39.4674 12.3863 39.8735 12.4173 40.1572C12.4315 40.2867 12.4407 40.3825 12.4468 40.4552C12.4318 40.4683 12.4398 40.4615 12.4227 40.4742C12.3567 40.5233 12.2699 40.5814 12.1853 40.6289C12.1468 40.6506 12.1229 40.6564 12.088 40.6721C12.0814 40.6268 12.0759 40.5978 12.0685 40.54C12.0369 40.2949 11.9993 39.9439 11.9583 39.5206C11.9054 38.9683 11.8455 38.2925 11.7841 37.5591C11.7341 36.9644 11.6834 36.3317 11.6326 35.6949C11.4937 33.9341 11.4453 33.2205 11.3658 32.1257V32.126ZM10.6177 32.3195L10.6795 37.7496L10.589 37.8103L10.6177 32.3195Z" fill="black"/>
<mask id="mask8_781_1041" style="mask-type:luminance" maskUnits="userSpaceOnUse" x="-104" y="-444" width="192" height="1009">
<path d="M87.1431 564.061L87.1431 -443.256H-103.643L-103.643 564.061H87.1431Z" fill="white"/>
</mask>
<g mask="url(#mask8_781_1041)">
<path fill-rule="evenodd" clip-rule="evenodd" d="M9.92494 27.9863C10.1419 28.2035 10.4318 28.3409 10.7534 28.3294C10.8772 28.3248 11.0095 28.2733 11.1426 28.1897C11.1426 28.1897 11.6587 31.9341 12.1087 35.3078C12.1871 35.8941 12.2633 36.4689 12.3341 37.0115C12.4279 37.7275 12.5133 38.386 12.5817 38.9385C12.7048 39.9224 12.7779 40.5663 12.7594 40.5893C12.6794 40.6922 12.0179 41.1695 11.8425 40.9991C11.8033 40.9615 11.7349 40.4005 11.6526 39.5502C11.5995 38.9961 11.5395 38.3192 11.4779 37.5848C11.4279 36.9893 11.3772 36.3561 11.3264 35.7191C11.1041 32.9011 10.8995 30.0078 10.8995 30.0078L10.9895 37.9117L10.2788 38.3875L10.3195 30.5657L9.63956 36.6216L8.79883 37.0829L9.92494 27.9863Z" fill="black"/>
</g>
<path d="M15.5818 34.6673C15.5418 34.6731 15.5033 34.6866 15.4686 34.7073C15.4339 34.7279 15.4036 34.7552 15.3794 34.7875C15.3553 34.8198 15.3377 34.8566 15.3278 34.8956C15.3179 34.9347 15.3157 34.9754 15.3216 35.0153L15.6838 37.4987C15.6906 37.5453 15.708 37.5897 15.7347 37.6285C15.7614 37.6673 15.7967 37.6994 15.8379 37.7224C15.879 37.7454 15.9249 37.7586 15.972 37.7611C16.0191 37.7636 16.0662 37.7553 16.1096 37.7367L17.0679 37.3269C17.1347 37.2984 17.1893 37.2471 17.2218 37.1822C17.2544 37.1174 17.2629 37.0431 17.2458 36.9726L16.9512 35.7577C16.932 35.6786 16.8821 35.6103 16.8124 35.5679C16.7428 35.5255 16.6591 35.5124 16.5798 35.5315C16.5005 35.5507 16.432 35.6005 16.3895 35.67C16.347 35.7394 16.3339 35.8229 16.3531 35.9021L16.5865 36.8648L16.2351 37.015L15.9305 34.9269C15.9187 34.8463 15.8754 34.7737 15.81 34.725C15.7446 34.6763 15.6625 34.6556 15.5818 34.6673Z" fill="black"/>
<mask id="mask9_781_1041" style="mask-type:luminance" maskUnits="userSpaceOnUse" x="-104" y="-444" width="192" height="1009">
<path d="M87.1431 564.061L87.1431 -443.256H-103.643L-103.643 564.061H87.1431Z" fill="white"/>
</mask>
<g mask="url(#mask9_781_1041)">
<path fill-rule="evenodd" clip-rule="evenodd" d="M15.626 34.9717C15.9483 35.2495 16.2936 35.5396 16.6521 35.8304L16.9467 37.0453L15.9883 37.4551L15.626 34.9717Z" fill="black"/>
</g>
<path d="M15.5785 34.5771C15.5388 34.5693 15.498 34.5694 15.4584 34.5773C15.4188 34.5852 15.3811 34.6009 15.3476 34.6234L8.67776 39.0884C8.61791 39.1284 8.57405 39.1882 8.55384 39.2572C8.53364 39.3263 8.53836 39.4002 8.56719 39.4661L9.18795 40.8859C9.20427 40.9232 9.22784 40.9568 9.25732 40.985C9.28679 41.0131 9.32156 41.035 9.35963 41.0496C9.39769 41.0642 9.43828 41.0711 9.47903 41.0699C9.51979 41.0687 9.55991 41.0595 9.59704 41.0427L10.6825 40.5515C10.6972 40.5448 10.7114 40.537 10.7249 40.5281L16.4554 36.7553C16.5235 36.7105 16.5709 36.6405 16.5873 36.5607C16.6037 36.481 16.5876 36.398 16.5427 36.3301C16.4977 36.2621 16.4276 36.2148 16.3476 36.1985C16.2677 36.1821 16.1846 36.1981 16.1165 36.243L10.4061 40.0024L9.62709 40.355L9.23393 39.4555L15.6904 35.1332C15.724 35.1107 15.7528 35.0819 15.7751 35.0483C15.7975 35.0148 15.8131 34.9771 15.8209 34.9376C15.8287 34.898 15.8286 34.8573 15.8207 34.8178C15.8127 34.7782 15.797 34.7407 15.7745 34.7072C15.729 34.6396 15.6585 34.5928 15.5785 34.5771Z" fill="black"/>
<path d="M10.5511 39.9649C10.4695 39.9661 10.3918 39.9996 10.335 40.058C10.2781 40.1164 10.2469 40.195 10.2481 40.2764L10.4019 50.6393C10.4031 50.7207 10.4367 50.7982 10.4953 50.8549C10.5538 50.9116 10.6325 50.9428 10.7141 50.9416C10.7957 50.9404 10.8734 50.9069 10.9303 50.8485C10.9871 50.7901 11.0183 50.7115 11.0171 50.6301L10.8633 40.2674C10.8627 40.227 10.8542 40.1872 10.8382 40.1502C10.8221 40.1132 10.799 40.0797 10.77 40.0516C10.741 40.0235 10.7068 40.0014 10.6692 39.9865C10.6316 39.9716 10.5915 39.9643 10.5511 39.9649Z" fill="black"/>
<path d="M8.92793 39.0473C8.84904 39.0265 8.7651 39.0378 8.69458 39.0788C8.62406 39.1197 8.57273 39.187 8.55189 39.2657L5.96967 49.0191C5.95935 49.0581 5.95683 49.0988 5.96226 49.1387C5.96768 49.1787 5.98095 49.2172 6.00129 49.252C6.02163 49.2868 6.04865 49.3174 6.08081 49.3418C6.11297 49.3662 6.14963 49.384 6.18871 49.3943C6.2676 49.4151 6.35154 49.4038 6.42206 49.3628C6.49258 49.3218 6.5439 49.2546 6.56474 49.1759L9.14682 39.4225C9.16765 39.3438 9.1563 39.26 9.11525 39.1897C9.0742 39.1193 9.00682 39.0681 8.92793 39.0473Z" fill="black"/>
<path d="M9.51484 40.4593C9.43412 40.4475 9.35201 40.4682 9.28656 40.5168C9.22112 40.5654 9.1777 40.6379 9.16585 40.7185L7.91049 49.2563C7.90462 49.2962 7.90668 49.3368 7.91656 49.3759C7.92643 49.415 7.94393 49.4518 7.96805 49.4842C7.99217 49.5165 8.02244 49.5438 8.05713 49.5645C8.09182 49.5851 8.13027 49.5988 8.17025 49.6046C8.21023 49.6105 8.25098 49.6085 8.29016 49.5986C8.32935 49.5888 8.3662 49.5713 8.39862 49.5472C8.43105 49.5232 8.4584 49.493 8.47912 49.4583C8.49984 49.4237 8.51353 49.3854 8.51939 49.3455L9.77475 40.8076C9.78062 40.7677 9.77856 40.7271 9.76867 40.688C9.75879 40.6488 9.74127 40.6121 9.71713 40.5797C9.693 40.5474 9.66271 40.5201 9.628 40.4994C9.59329 40.4788 9.55484 40.4651 9.51484 40.4593Z" fill="black"/>
<path d="M6.29934 48.7917C6.25915 48.7875 6.21852 48.7912 6.17977 48.8027C6.14102 48.8141 6.10492 48.8331 6.07352 48.8585C6.04211 48.8838 6.01603 48.9151 5.99675 48.9506C5.97747 48.986 5.96538 49.0249 5.96116 49.065C5.95693 49.1051 5.96066 49.1456 5.97214 49.1843C5.98361 49.2229 6.00262 49.2589 6.02805 49.2903C6.05349 49.3216 6.08486 49.3476 6.12037 49.3669C6.15589 49.3861 6.19485 49.3982 6.23504 49.4024L8.12258 49.6002L10.5639 50.9055C10.5995 50.9246 10.6385 50.9364 10.6787 50.9404C10.7189 50.9444 10.7595 50.9405 10.7982 50.9289C10.8369 50.9172 10.8729 50.8981 10.9042 50.8726C10.9355 50.847 10.9614 50.8156 10.9805 50.78C10.9996 50.7445 11.0115 50.7056 11.0155 50.6654C11.0195 50.6253 11.0155 50.5848 11.0038 50.5462C10.9922 50.5076 10.973 50.4717 10.9473 50.4405C10.9217 50.4093 10.8902 50.3834 10.8546 50.3644L8.3601 49.0307C8.32496 49.0118 8.28648 49 8.24682 48.9959L6.29934 48.7917Z" fill="black"/>
<path d="M7.52075 37.877C7.44438 37.9056 7.38252 37.9634 7.3488 38.0375C7.31508 38.1116 7.31225 38.1961 7.34092 38.2723L7.78471 39.4518C7.8067 39.5103 7.84605 39.5607 7.89751 39.5963C7.94897 39.6319 8.0101 39.651 8.07271 39.651H8.84957C8.93118 39.651 9.00943 39.6186 9.06713 39.5611C9.12483 39.5035 9.15725 39.4254 9.15725 39.344C9.15725 39.2626 9.12483 39.1845 9.06713 39.1269C9.00943 39.0693 8.93118 39.037 8.84957 39.037H8.2859L7.91692 38.0564C7.88822 37.9802 7.83037 37.9185 7.75608 37.8849C7.68178 37.8512 7.59714 37.8484 7.52075 37.877Z" fill="black"/>
<path d="M5.26437 47.2074L4.04282 47.4943C4.00349 47.5035 3.96637 47.5204 3.93358 47.544C3.90079 47.5675 3.87296 47.5973 3.8517 47.6315C3.83044 47.6658 3.81616 47.7039 3.80966 47.7437C3.80317 47.7835 3.8046 47.8242 3.81386 47.8635C3.82312 47.9027 3.84003 47.9398 3.86364 47.9725C3.88725 48.0052 3.91709 48.0329 3.95146 48.0541C3.98582 48.0753 4.02402 48.0896 4.06391 48.0961C4.10379 48.1026 4.14456 48.1011 4.18389 48.0919L5.184 47.8569L6.00157 49.2519C6.04274 49.3222 6.1102 49.3733 6.18911 49.3939C6.26802 49.4146 6.35193 49.4031 6.42238 49.3621C6.45727 49.3417 6.48781 49.3148 6.51224 49.2826C6.53668 49.2505 6.55453 49.2139 6.56479 49.1749C6.57504 49.1359 6.5775 49.0953 6.57201 49.0553C6.56652 49.0154 6.5532 48.9769 6.5328 48.9421L5.60044 47.3511C5.5672 47.2945 5.51662 47.2499 5.45614 47.2241C5.39565 47.1982 5.32843 47.1923 5.26437 47.2074Z" fill="black"/>
<path d="M8.17022 39.053C8.09285 39.0271 8.00835 39.033 7.93532 39.0694C7.8623 39.1057 7.80672 39.1694 7.78082 39.2466L5.04325 47.4091C5.01736 47.4863 5.02325 47.5706 5.05965 47.6435C5.09605 47.7164 5.15998 47.7718 5.23735 47.7977C5.31473 47.8235 5.39923 47.8176 5.47225 47.7813C5.54528 47.745 5.60086 47.6812 5.62676 47.604L8.36433 39.4415C8.39022 39.3643 8.38432 39.28 8.34791 39.2071C8.31151 39.1343 8.2476 39.0788 8.17022 39.053Z" fill="black"/>
<path d="M28.6496 70.7444C28.571 70.7663 28.5044 70.8184 28.4643 70.8893C28.4242 70.9603 28.4141 71.0442 28.436 71.1226C28.6396 71.8504 28.9708 72.523 29.248 73.0794C29.5252 73.6358 29.7315 74.1153 29.7381 74.2514C29.7651 74.8038 29.82 75.8641 29.7797 76.8703C29.7596 77.3734 29.7151 77.8628 29.6355 78.258C29.5559 78.6532 29.4263 78.9494 29.3243 79.0559C28.8978 79.5008 28.5736 79.5407 28.3379 79.5132C28.1021 79.4857 27.9698 79.3786 27.9698 79.3786C27.9062 79.3276 27.825 79.3038 27.7438 79.3126C27.6627 79.3214 27.5884 79.362 27.5373 79.4254C27.5119 79.4568 27.493 79.4928 27.4817 79.5315C27.4703 79.5702 27.4667 79.6108 27.471 79.6509C27.4754 79.691 27.4876 79.7298 27.507 79.7652C27.5263 79.8006 27.5525 79.8318 27.584 79.8571C27.584 79.8571 27.8571 80.0754 28.2665 80.1231C28.676 80.1708 29.2368 80.0357 29.7693 79.4801C30.0285 79.2094 30.1487 78.8258 30.2386 78.3791C30.3286 77.9324 30.3737 77.4176 30.3946 76.8949C30.4364 75.8496 30.3795 74.7716 30.3527 74.2219C30.3315 73.7871 30.0747 73.3598 29.7991 72.8065C29.5234 72.2531 29.2119 71.613 29.0287 70.9578C29.0067 70.8794 28.9545 70.8129 28.8834 70.7729C28.8123 70.733 28.7282 70.7228 28.6496 70.7447V70.7444Z" fill="black"/>
<path d="M25.2175 72.3505C25.1773 72.3461 25.1367 72.3495 25.0978 72.3607C25.059 72.3719 25.0228 72.3906 24.9912 72.4157C24.9274 72.4665 24.8865 72.5405 24.8774 72.6214C24.8683 72.7023 24.8918 72.7835 24.9427 72.8471C26.6968 75.04 27.3132 78.2047 27.963 82.8164C28.023 83.2417 28.2446 83.5829 28.5552 83.7778C28.8658 83.9727 29.2435 84.0284 29.6267 83.9877C30.3931 83.9062 31.2186 83.4467 31.7731 82.6874C32.0281 82.3382 32.0894 81.8486 32.1251 81.2508C32.1608 80.653 32.1405 79.9545 32.0952 79.2619C32.0045 77.8768 31.8132 76.5242 31.7459 76.1106C31.5803 75.0928 30.6695 74.2551 30.2276 73.8854C30.1967 73.8595 30.1609 73.8399 30.1223 73.8278C30.0838 73.8157 30.0432 73.8113 30.0029 73.8148C29.9627 73.8184 29.9235 73.8298 29.8877 73.8484C29.8518 73.8671 29.82 73.8926 29.794 73.9235C29.7416 73.9859 29.7162 74.0665 29.7234 74.1476C29.7305 74.2287 29.7697 74.3036 29.8322 74.3559C30.2195 74.68 31.027 75.5245 31.1383 76.2089C31.201 76.5942 31.3923 77.9471 31.481 79.3018C31.5254 79.9791 31.544 80.659 31.5108 81.2141C31.4776 81.7692 31.3622 82.2071 31.2757 82.3257C30.8264 82.9409 30.1227 83.3173 29.5613 83.377C29.2806 83.4069 29.0445 83.3595 28.8827 83.258C28.7209 83.1565 28.6114 83.008 28.5722 82.7307C27.9205 78.1054 27.3122 74.8252 25.4234 72.464C25.3982 72.4325 25.3671 72.4062 25.3317 72.3867C25.2963 72.3672 25.2575 72.3549 25.2173 72.3504L25.2175 72.3505Z" fill="black"/>
<path d="M13.4422 66.2946C13.3012 66.2807 13.1716 66.3568 13.1028 66.4313C13.1215 66.4111 13.0918 66.4409 13.0522 66.4716C13.0123 66.5027 12.9552 66.5451 12.8847 66.5956C12.7437 66.6967 12.5482 66.8309 12.3132 66.9852C11.8431 67.2937 11.2141 67.6828 10.5346 68.0569C9.85502 68.431 9.12396 68.7902 8.45579 69.039C7.78763 69.2878 7.17719 69.417 6.78819 69.3738C6.36739 69.3271 5.93698 69.0971 5.58887 68.8654C5.41482 68.7496 5.26235 68.6357 5.13201 68.5448C5.06683 68.4994 5.00823 68.4597 4.94497 68.4253C4.88175 68.391 4.82487 68.3397 4.66568 68.3558C4.27173 68.3955 3.97804 68.6413 3.48379 68.9835C2.98941 69.3259 2.30365 69.796 1.2441 70.3622C0.868621 70.563 0.594388 70.7356 0.394374 70.9003C0.194359 71.0651 0.0491382 71.2236 0.00767072 71.4492C-0.0338045 71.6748 0.0995826 71.8979 0.247153 72.0151C0.394717 72.1322 0.565894 72.205 0.759001 72.2756C1.49434 72.5437 2.9395 72.6991 4.39031 72.8133C5.84112 72.9274 7.2504 72.9815 7.81369 72.9742C8.19231 72.9694 8.60768 72.7987 9.09098 72.5692C9.57428 72.3398 10.1045 72.0407 10.6001 71.7429C11.0421 71.4773 11.4303 71.2259 11.754 71.0138L11.0828 73.4533C11.0623 73.5277 11.0706 73.607 11.1061 73.6756C11.1416 73.7441 11.2016 73.7968 11.2743 73.8232C11.3469 73.8496 11.4269 73.8477 11.4982 73.8179C11.5696 73.7881 11.627 73.7327 11.6592 73.6625C11.6592 73.6625 12.1581 72.5776 12.6703 71.4367C12.9264 70.8662 13.1858 70.2817 13.3886 69.8102C13.49 69.5744 13.5772 69.3671 13.6434 69.2021C13.7095 69.0371 13.7521 68.9329 13.7774 68.826C13.9667 68.0227 13.9896 67.4062 13.9248 66.984C13.8924 66.7728 13.8515 66.6117 13.7362 66.465C13.6786 66.3917 13.5834 66.3085 13.4424 66.2946H13.4422ZM13.3079 67.0466C13.3117 67.0644 13.3133 67.0569 13.3163 67.0768C13.3634 67.3839 13.3535 67.9417 13.1783 68.6855C13.1773 68.6895 13.1348 68.8174 13.0719 68.9742C13.009 69.1311 12.9232 69.3352 12.8229 69.5683C12.7437 69.7526 12.634 69.9952 12.5404 70.208C12.5247 70.1655 12.4999 70.1271 12.4676 70.0953C12.4353 70.0636 12.3964 70.0393 12.3537 70.0243C12.3109 70.0093 12.2653 70.0039 12.2202 70.0085C12.1752 70.0131 12.1316 70.0276 12.0928 70.0509C12.0928 70.0509 11.2527 70.6339 10.2823 71.2171C9.79716 71.5086 9.27971 71.7997 8.82642 72.0149C8.37313 72.2301 7.96309 72.3584 7.80558 72.3604C7.29738 72.367 5.87283 72.3141 4.43838 72.2013C3.00413 72.0884 1.51286 71.897 0.970372 71.6993C0.806978 71.6395 0.685261 71.5765 0.634448 71.5371C0.639909 71.5314 0.657016 71.4804 0.786034 71.3742C0.933459 71.2527 1.17977 71.0934 1.53465 70.9036C2.62193 70.3226 3.33785 69.8322 3.83459 69.4882C4.29567 69.1689 4.55888 69.0174 4.68446 68.9864C4.71051 69.0023 4.73717 69.0184 4.78001 69.0483C4.89569 69.1289 5.05685 69.2496 5.24769 69.3765C5.62936 69.6305 6.13359 69.9189 6.72044 69.9842C7.2937 70.0478 7.95956 69.8793 8.67123 69.6143C9.38291 69.3492 10.1353 68.9784 10.8322 68.5947C11.5291 68.211 12.1696 67.8147 12.6517 67.4982C12.8927 67.34 13.094 67.2019 13.2441 67.0943C13.2698 67.0758 13.2855 67.0634 13.3082 67.0468L13.3079 67.0466Z" fill="black"/>
<path d="M10.5242 62.0074C10.4441 61.9921 10.3611 62.0092 10.2936 62.055C10.2261 62.1007 10.1796 62.1713 10.1643 62.2513C10.0562 62.815 9.68589 63.8726 8.86896 64.6599C8.10459 65.3969 4.6995 68.537 4.6995 68.537C4.63956 68.5922 4.60407 68.669 4.60083 68.7503C4.59759 68.8317 4.62687 68.911 4.68223 68.9708C4.73761 69.0306 4.81453 69.0659 4.89607 69.0691C4.9776 69.0724 5.05708 69.0431 5.11701 68.9879C5.11701 68.9879 8.50402 65.8655 9.29652 65.1013C10.241 64.1911 10.6398 63.0384 10.7687 62.3666C10.784 62.2866 10.7668 62.2038 10.721 62.1365C10.6752 62.0691 10.6044 62.0227 10.5242 62.0074Z" fill="black"/>
<path d="M14.2209 63.8933C14.1832 63.8789 14.1429 63.8721 14.1025 63.8732C14.0621 63.8743 14.0223 63.8833 13.9854 63.8998C13.9485 63.9162 13.9152 63.9398 13.8875 63.9691C13.8597 63.9983 13.838 64.0328 13.8235 64.0705C13.8235 64.0705 13.6517 64.5189 13.476 65.0503C13.3004 65.5818 13.1153 66.1671 13.0975 66.586C13.0957 66.6263 13.102 66.6665 13.1158 66.7044C13.1297 66.7423 13.1509 66.777 13.1782 66.8067C13.2055 66.8364 13.2384 66.8605 13.2751 66.8775C13.3117 66.8945 13.3514 66.9041 13.3918 66.9058C13.4733 66.9093 13.5528 66.8803 13.6129 66.8252C13.673 66.7702 13.7087 66.6935 13.7122 66.6122C13.722 66.3826 13.89 65.7584 14.0605 65.2425C14.2309 64.7266 14.3983 64.2896 14.3983 64.2896C14.4275 64.2136 14.4251 64.1292 14.3919 64.0548C14.3586 63.9805 14.2971 63.9224 14.2209 63.8933Z" fill="black"/>
<path d="M40.2847 46.165C40.2445 46.1618 40.2039 46.1666 40.1655 46.1791C40.1271 46.1915 40.0915 46.2114 40.0607 46.2376C40.03 46.2638 40.0047 46.2957 39.9864 46.3317C39.968 46.3676 39.957 46.4068 39.9538 46.447C39.9506 46.4872 39.9554 46.5276 39.9679 46.5659C39.9803 46.6043 40.0003 46.6398 40.0265 46.6705C40.0528 46.7012 40.0848 46.7263 40.1208 46.7446C40.1568 46.763 40.1961 46.774 40.2364 46.7772L53.1477 47.7939V73.3866L49.8677 75.9987L31.4504 75.8874C31.3688 75.8869 31.2904 75.9187 31.2323 75.9759C31.1743 76.0331 31.1414 76.111 31.1409 76.1924C31.1406 76.2327 31.1483 76.2727 31.1636 76.31C31.1788 76.3474 31.2013 76.3814 31.2297 76.4101C31.2581 76.4387 31.2919 76.4616 31.3291 76.4773C31.3664 76.4929 31.4064 76.5011 31.4468 76.5013L49.9729 76.6133C50.0433 76.6137 50.1117 76.5901 50.1667 76.5463L53.6473 73.7742C53.6834 73.7454 53.7125 73.7089 53.7326 73.6674C53.7526 73.6259 53.763 73.5804 53.763 73.5344V47.5103C53.763 47.433 53.7338 47.3586 53.6813 47.3019C53.6288 47.2452 53.5567 47.2103 53.4795 47.2042L40.2847 46.165ZM16.2238 61.5898C16.1835 61.5869 16.143 61.5921 16.1047 61.6048C16.0664 61.6176 16.0309 61.6378 16.0004 61.6643C15.9699 61.6907 15.9449 61.7229 15.9269 61.759C15.9088 61.7951 15.8981 61.8343 15.8953 61.8746L14.8977 76.0746C14.8948 76.1164 14.9005 76.1584 14.9145 76.198C14.9284 76.2376 14.9504 76.2739 14.979 76.3047C15.0075 76.3354 15.0421 76.36 15.0806 76.3769C15.1191 76.3939 15.1606 76.4027 15.2027 76.403L26.9645 76.4743C27.0049 76.4746 27.045 76.4669 27.0824 76.4517C27.1199 76.4365 27.1539 76.4141 27.1827 76.3858C27.2114 76.3575 27.2343 76.3238 27.25 76.2866C27.2657 76.2495 27.2739 76.2096 27.2742 76.1693C27.2744 76.129 27.2667 76.089 27.2514 76.0517C27.2362 76.0143 27.2137 75.9804 27.1853 75.9517C27.1569 75.923 27.1231 75.9002 27.0859 75.8846C27.0487 75.8689 27.0087 75.8608 26.9683 75.8605L15.5346 75.791L16.5091 61.9174C16.5148 61.8362 16.488 61.7561 16.4345 61.6947C16.381 61.6332 16.3052 61.5955 16.2238 61.5898Z" fill="black"/>
<path d="M26.1843 49.3578C26.1028 49.3539 26.0231 49.3824 25.9627 49.4371C25.9022 49.4919 25.8661 49.5683 25.8622 49.6496C25.8583 49.7309 25.8869 49.8105 25.9417 49.8707C25.9966 49.931 26.0732 49.9671 26.1547 49.971L49.8487 51.1049L49.6669 76.3041C49.6664 76.3855 49.6982 76.4638 49.7555 76.5218C49.8128 76.5797 49.8908 76.6126 49.9724 76.6132C50.0128 76.6135 50.0528 76.6058 50.0903 76.5907C50.1277 76.5755 50.1618 76.5532 50.1906 76.5249C50.2194 76.4966 50.2423 76.4629 50.258 76.4258C50.2737 76.3886 50.282 76.3488 50.2823 76.3085L50.4662 50.8147C50.4668 50.7355 50.4366 50.659 50.382 50.6015C50.3274 50.5439 50.2526 50.5096 50.1732 50.5058L26.1843 49.3578Z" fill="black"/>
<path d="M53.4548 47.2031C53.3732 47.2033 53.2951 47.2357 53.2374 47.2934L49.9407 50.5958C49.8831 50.6535 49.8509 50.7316 49.8511 50.813C49.8512 50.8944 49.8838 50.9724 49.9416 51.0299C49.9995 51.0873 50.0778 51.1195 50.1594 51.1193C50.241 51.1191 50.3191 51.0866 50.3767 51.029L53.6735 47.7267C53.731 47.669 53.7633 47.5908 53.7631 47.5094C53.7629 47.428 53.7303 47.3501 53.6725 47.2926C53.6147 47.2352 53.5364 47.203 53.4548 47.2031Z" fill="black"/>
<path d="M6.53652 18.1631C5.18797 18.1631 4.06201 19.1722 4.06201 20.4441C4.06201 21.7161 5.18797 22.7253 6.53652 22.7253C7.88506 22.7253 9.01103 21.7161 9.01103 20.4441C9.01103 19.1722 7.88506 18.1631 6.53652 18.1631ZM6.53652 18.777C7.58138 18.777 8.39567 19.5355 8.39567 20.4441C8.39567 21.3527 7.58138 22.1114 6.53652 22.1114C5.49165 22.1114 4.67737 21.3527 4.67737 20.4441C4.67737 19.5355 5.49165 18.777 6.53652 18.777Z" fill="black"/>
<path d="M15.0569 14.3052C15.0166 14.3028 14.9762 14.3083 14.938 14.3215C14.8998 14.3347 14.8645 14.3552 14.8343 14.382L10.6419 18.09L6.02906 15.2446C5.9947 15.2234 5.95648 15.2092 5.91659 15.2027C5.87671 15.1963 5.83594 15.1977 5.79661 15.207C5.75729 15.2162 5.72018 15.2331 5.68739 15.2566C5.65461 15.2802 5.6268 15.31 5.60555 15.3443C5.5843 15.3786 5.57003 15.4167 5.56355 15.4565C5.55707 15.4963 5.55851 15.537 5.56779 15.5762C5.57707 15.6155 5.594 15.6525 5.61762 15.6852C5.64124 15.7179 5.67109 15.7456 5.70546 15.7668L10.513 18.7323C10.5692 18.767 10.6352 18.7827 10.7012 18.777C10.7671 18.7713 10.8294 18.7446 10.8789 18.7008L15.2425 14.8414C15.3035 14.7874 15.3406 14.7114 15.3455 14.6301C15.3504 14.5489 15.3227 14.469 15.2686 14.4081C15.2145 14.3472 15.1384 14.3102 15.0569 14.3052Z" fill="black"/>
<path d="M10.2944 7.63944C10.2214 7.63537 10.1503 7.63837 10.0807 7.64888C10.0112 7.65938 9.94267 7.6749 9.8644 7.72038C9.78612 7.76586 9.67604 7.87569 9.66894 8.02886C9.6661 8.09022 9.64334 8.30855 9.62132 8.52905C9.59929 8.74961 9.57715 8.97716 9.57715 9.1451C9.57715 9.27023 9.67389 9.4311 9.78417 9.48866C9.89444 9.54621 9.9854 9.54387 10.0662 9.53632C10.2277 9.52123 10.3743 9.46266 10.5265 9.37729C10.8308 9.20654 11.1723 8.91239 11.1974 8.4574C11.1974 8.45714 11.1974 8.45691 11.1974 8.45665C11.2092 8.23371 11.1062 8.02589 10.9688 7.8998C10.8313 7.77371 10.6713 7.70924 10.5185 7.67287C10.4421 7.65469 10.3673 7.64353 10.2944 7.63944ZM10.2643 8.26239C10.303 8.26385 10.3328 8.26002 10.3756 8.27019C10.4538 8.28878 10.5224 8.32431 10.5523 8.35173C10.582 8.37899 10.5852 8.37876 10.5828 8.42397C10.5761 8.54076 10.4152 8.73522 10.2248 8.84202C10.2203 8.84456 10.2191 8.84346 10.2146 8.84592C10.222 8.75323 10.2235 8.68974 10.2335 8.5899C10.2468 8.45681 10.2544 8.36712 10.2643 8.26239Z" fill="black"/>
<path d="M11.9501 7.48356C11.8699 7.46887 11.7871 7.48656 11.7199 7.53277C11.6527 7.57898 11.6067 7.64993 11.5919 7.72999L11.3259 9.17584C11.3186 9.2155 11.3192 9.25621 11.3276 9.29564C11.3361 9.33507 11.3522 9.37243 11.3751 9.40563C11.3981 9.43882 11.4274 9.4672 11.4613 9.48911C11.4952 9.51103 11.5331 9.52605 11.5729 9.53333C11.6126 9.54061 11.6534 9.53999 11.6929 9.53153C11.7324 9.52308 11.7699 9.50695 11.8031 9.48406C11.8364 9.46116 11.8648 9.43195 11.8868 9.39809C11.9087 9.36424 11.9237 9.32642 11.931 9.28676L12.1972 7.84091C12.2045 7.80125 12.2039 7.76056 12.1954 7.72114C12.187 7.68172 12.1708 7.64434 12.1479 7.61116C12.1249 7.57798 12.0956 7.54964 12.0617 7.52774C12.0278 7.50585 11.9899 7.49083 11.9501 7.48356Z" fill="black"/>
<path d="M13.1099 7.40655C12.9729 7.40517 12.8436 7.43559 12.7282 7.50248C12.6127 7.56937 12.5141 7.68137 12.4735 7.8186C12.4329 7.95573 12.4544 8.10585 12.5162 8.22931C12.5162 8.22931 12.5162 8.22934 12.5162 8.22931C12.6279 8.45264 12.7992 8.56924 12.9017 8.66024C12.9329 8.68792 12.9415 8.69926 12.9577 8.7166C12.9498 8.72405 12.9473 8.74155 12.9341 8.74628C12.9047 8.75686 12.8582 8.75882 12.8018 8.72185C12.7336 8.67715 12.6504 8.66132 12.5705 8.67782C12.4906 8.69432 12.4205 8.7418 12.3757 8.80984C12.3309 8.87788 12.315 8.96088 12.3316 9.04059C12.3481 9.12031 12.3957 9.19022 12.4639 9.23493C12.6721 9.3714 12.9247 9.40226 13.1428 9.32381C13.3608 9.24542 13.5424 9.04665 13.591 8.79695C13.6205 8.64602 13.565 8.49928 13.5029 8.40813C13.4408 8.31688 13.3728 8.25669 13.3108 8.20158C13.2257 8.12601 13.1878 8.08136 13.1434 8.0325C13.1869 8.03587 13.2354 8.04046 13.3052 8.06907C13.3807 8.09997 13.4654 8.09968 13.5407 8.06828C13.616 8.03689 13.6757 7.97695 13.7066 7.90164C13.7376 7.82635 13.7374 7.74187 13.7059 7.66676C13.6745 7.59166 13.6144 7.53207 13.539 7.50113C13.3918 7.44083 13.2468 7.40764 13.1098 7.40625L13.1099 7.40655Z" fill="black"/>
<path d="M14.5894 7.28739C14.3519 7.31223 14.1321 7.41728 13.9586 7.57143C13.7271 7.77698 13.5676 8.10488 13.6446 8.4537C13.6446 8.45395 13.6446 8.45419 13.6446 8.45445C13.7796 9.0617 14.3333 9.36851 14.805 9.27106C14.8445 9.26288 14.8821 9.24703 14.9155 9.22437C14.9489 9.2017 14.9776 9.1727 14.9997 9.139C15.0219 9.1053 15.0372 9.06757 15.0448 9.02797C15.0524 8.98837 15.052 8.94764 15.0438 8.90817C15.0273 8.82847 14.9797 8.7586 14.9115 8.71391C14.8433 8.66922 14.7602 8.65337 14.6803 8.66984C14.5874 8.68903 14.3107 8.61371 14.2455 8.32194C14.2233 8.22109 14.263 8.1235 14.3676 8.03055C14.4723 7.93756 14.6321 7.88409 14.7521 7.8997C14.833 7.9102 14.9148 7.88822 14.9794 7.83858C15.0441 7.78894 15.0863 7.7157 15.0969 7.63499C15.1074 7.55427 15.0854 7.47271 15.0356 7.4082C14.9859 7.34369 14.9125 7.30152 14.8316 7.29099C14.7495 7.2803 14.6684 7.27956 14.5892 7.28784L14.5894 7.28739Z" fill="black"/>
<path d="M16.0065 7.27246C15.9556 7.27246 15.9041 7.27807 15.8525 7.2906C15.852 7.29085 15.8515 7.29109 15.8509 7.29135C15.4889 7.38128 15.3194 7.68649 15.2213 7.96406C15.1722 8.10285 15.1435 8.24324 15.1462 8.38646C15.1489 8.52967 15.1762 8.70605 15.3454 8.83343C15.617 9.03782 15.9697 9.00622 16.2146 8.86611C16.4595 8.72601 16.6489 8.48663 16.6853 8.18275C16.7222 7.87489 16.6165 7.60238 16.44 7.44813C16.3076 7.33244 16.1593 7.27377 16.0064 7.27276L16.0065 7.27246ZM15.9969 7.88957C15.9881 7.89379 16.0163 7.89363 16.0346 7.90965C16.0566 7.92883 16.0929 7.95553 16.0744 8.10961C16.0662 8.17864 15.9952 8.2838 15.9087 8.33324C15.8468 8.36869 15.8045 8.37182 15.7642 8.35978C15.7652 8.31401 15.7753 8.24228 15.8016 8.16776C15.8574 8.00996 15.9816 7.896 15.9969 7.88942V7.88957Z" fill="black"/>
<path d="M18.24 6.98293C18.1598 6.96774 18.0769 6.98496 18.0094 7.03078C17.942 7.0766 17.8955 7.14727 17.8803 7.22725C17.8803 7.22725 17.8295 7.49462 17.776 7.79249C17.7225 8.09037 17.6674 8.39579 17.653 8.56189C17.6495 8.60205 17.654 8.6425 17.6662 8.68094C17.6784 8.71938 17.698 8.75504 17.724 8.7859C17.75 8.81676 17.7819 8.84223 17.8177 8.86081C17.8536 8.87939 17.8928 8.89072 17.933 8.8942C17.9733 8.89767 18.0138 8.8932 18.0524 8.88104C18.0909 8.86888 18.1266 8.84928 18.1576 8.82333C18.1885 8.79739 18.214 8.76562 18.2326 8.72984C18.2513 8.69406 18.2626 8.65496 18.2661 8.6148C18.2725 8.54144 18.3289 8.19493 18.3818 7.90071C18.4346 7.6065 18.485 7.34162 18.485 7.34162C18.5002 7.26163 18.4829 7.17891 18.4369 7.11165C18.391 7.04438 18.3201 6.99808 18.24 6.98293Z" fill="black"/>
<path d="M17.2856 6.9882C17.2466 6.97767 17.2059 6.9749 17.1658 6.98007C17.1258 6.98523 17.0871 6.99822 17.0521 7.01829C17.017 7.03836 16.9863 7.06513 16.9616 7.09706C16.9369 7.12898 16.9188 7.16543 16.9082 7.20434C16.8484 7.4249 16.7624 7.85633 16.8653 8.27157C16.9167 8.4792 17.0619 8.73203 17.3369 8.79784C17.6119 8.86365 17.8768 8.75096 18.1809 8.53568C18.2139 8.51236 18.2419 8.48281 18.2634 8.44867C18.2849 8.41453 18.2995 8.37649 18.3063 8.33674C18.3131 8.29698 18.3119 8.25629 18.3029 8.21697C18.2939 8.17766 18.2773 8.14048 18.2539 8.10759C18.2305 8.0747 18.2009 8.04672 18.1666 8.02526C18.1324 8.00381 18.0943 7.98929 18.0545 7.98254C18.0146 7.97579 17.9738 7.97694 17.9344 7.98592C17.895 7.9949 17.8578 8.01155 17.8248 8.03489C17.5874 8.20296 17.4706 8.1985 17.4803 8.20082C17.4901 8.20313 17.4866 8.2208 17.4626 8.12423C17.4147 7.93108 17.4713 7.47878 17.5023 7.36473C17.5128 7.32581 17.5156 7.28521 17.5104 7.24523C17.5052 7.20524 17.4922 7.16665 17.4721 7.13168C17.452 7.09672 17.4252 7.06607 17.3932 7.04145C17.3612 7.01683 17.3246 6.99873 17.2856 6.9882Z" fill="black"/>
<path d="M19.9568 6.44741C19.8752 6.44494 19.796 6.47491 19.7366 6.53071C19.6772 6.58651 19.6424 6.66357 19.64 6.74494C19.64 6.74494 19.6292 7.09437 19.6033 7.43384C19.6 7.47669 19.5948 7.50468 19.591 7.54641C19.5543 7.5103 19.5243 7.48064 19.4864 7.44404C19.3743 7.33571 19.2636 7.23151 19.1547 7.14995C19.1002 7.10917 19.0513 7.07236 18.9666 7.04128C18.9243 7.02573 18.8692 7.00758 18.7833 7.01864C18.6975 7.02971 18.5833 7.09928 18.5344 7.18158C18.5344 7.18183 18.5344 7.18207 18.5344 7.18233C18.4859 7.2641 18.4815 7.30706 18.4689 7.36205C18.4563 7.41704 18.4461 7.47604 18.4366 7.54042C18.4175 7.66916 18.4015 7.81852 18.3876 7.96461C18.3737 8.1107 18.3622 8.25301 18.3532 8.36152C18.3487 8.41577 18.3447 8.46178 18.3416 8.49388C18.3386 8.52598 18.3241 8.58205 18.3416 8.51261C18.3316 8.55167 18.3294 8.59232 18.3351 8.63223C18.3408 8.67214 18.3544 8.71052 18.375 8.74521C18.3956 8.77989 18.4228 8.81021 18.4551 8.83439C18.4875 8.85858 18.5242 8.87615 18.5634 8.88614C18.6025 8.89614 18.6433 8.89837 18.6833 8.89267C18.7233 8.88696 18.7617 8.87345 18.7965 8.85291C18.8313 8.83236 18.8616 8.80519 18.8859 8.77294C18.9101 8.74069 18.9278 8.70396 18.9378 8.6649C18.9596 8.57974 18.9504 8.58936 18.954 8.55174C18.9575 8.51412 18.9615 8.46709 18.966 8.41234C18.9751 8.30285 18.9866 8.16321 19 8.02247C19.0058 7.96089 19.0131 7.91014 19.0196 7.85084C19.0344 7.86489 19.0433 7.87087 19.0583 7.88532C19.1641 7.98756 19.2739 8.09815 19.3694 8.18975C19.4171 8.23554 19.4608 8.2764 19.5034 8.31236C19.546 8.34831 19.5546 8.38023 19.6822 8.42163C19.6825 8.42189 19.6829 8.42216 19.6833 8.42242C19.8161 8.465 19.9777 8.38381 20.0295 8.32589C20.0814 8.26796 20.0948 8.22822 20.1086 8.19218C20.1361 8.12011 20.1481 8.05761 20.1607 7.98443C20.1859 7.83809 20.2031 7.66027 20.2167 7.4811C20.2441 7.12277 20.2549 6.76417 20.2549 6.76417C20.2574 6.68279 20.2273 6.60378 20.1714 6.5445C20.1155 6.48522 20.0382 6.45051 19.9567 6.44804L19.9568 6.44741Z" fill="black"/>
<path d="M21.689 6.45406C21.7169 6.44854 21.6018 6.46311 21.4869 6.47055C21.372 6.478 21.2285 6.48572 21.0889 6.49259C20.8098 6.50631 20.5464 6.51687 20.5464 6.51687C20.5061 6.51847 20.4664 6.528 20.4297 6.5449C20.393 6.5618 20.36 6.58573 20.3326 6.61535C20.3052 6.64497 20.2839 6.67967 20.2699 6.7175C20.256 6.75533 20.2496 6.79555 20.2512 6.83584C20.2528 6.87612 20.2624 6.9157 20.2793 6.9523C20.2962 6.98891 20.3202 7.02182 20.3499 7.04917C20.3796 7.07652 20.4144 7.09778 20.4523 7.11171C20.4902 7.12565 20.5305 7.13198 20.5709 7.13038C20.5709 7.13038 20.8364 7.11969 21.1191 7.10579C21.2605 7.09881 21.4062 7.09112 21.5269 7.08331C21.6475 7.0755 21.7142 7.07504 21.8082 7.05648C21.8479 7.04866 21.8856 7.03312 21.9192 7.01076C21.9529 6.9884 21.9818 6.95965 22.0042 6.92615C22.0267 6.89264 22.0424 6.85503 22.0503 6.81549C22.0582 6.77595 22.0583 6.73525 22.0504 6.69569C22.0346 6.61582 21.9876 6.54551 21.9198 6.50019C21.8521 6.45488 21.769 6.43829 21.689 6.45406Z" fill="black"/>
<path d="M21.1838 6.49081C21.1435 6.48676 21.1029 6.49065 21.0642 6.50227C21.0255 6.51389 20.9895 6.53301 20.9582 6.55852C20.9269 6.58403 20.901 6.61548 20.8819 6.651C20.8627 6.68652 20.8508 6.72544 20.8468 6.76556C20.8468 6.76556 20.8111 7.12045 20.7708 7.50003C20.7304 7.87961 20.6775 8.32197 20.6698 8.36295C20.6624 8.40259 20.6628 8.4433 20.6712 8.48276C20.6795 8.52221 20.6955 8.55966 20.7184 8.59293C20.7412 8.62619 20.7704 8.65463 20.8043 8.67664C20.8381 8.69865 20.876 8.71379 20.9157 8.7212C20.9959 8.73613 21.0788 8.71868 21.1461 8.67267C21.2134 8.62665 21.2597 8.55584 21.2746 8.47582C21.3047 8.31573 21.3421 7.94651 21.3827 7.56478C21.4233 7.18305 21.4591 6.82701 21.4591 6.82701C21.4632 6.7869 21.4593 6.74638 21.4476 6.70777C21.436 6.66916 21.4168 6.63321 21.3912 6.60199C21.3657 6.57077 21.3342 6.54488 21.2986 6.52581C21.263 6.50673 21.224 6.49484 21.1838 6.49081Z" fill="black"/>
</g>
<defs>
<clipPath id="clip0_781_1041">
<rect width="59.1429" height="84" fill="white"/>
</clipPath>
</defs>
</svg>
