<svg width="216" height="252" viewBox="0 0 216 252" fill="none" xmlns="http://www.w3.org/2000/svg">
<path d="M90.4586 32.1158C88.566 32.2277 86.5591 33.3344 85.9548 35.6216C85.1939 38.5035 86.7939 41.1446 89.1821 42.1811C91.5703 43.2177 94.7791 42.7045 97.1705 39.9727C97.2623 39.8679 97.3326 39.746 97.3774 39.6139C97.4223 39.4818 97.4408 39.3422 97.432 39.2029C97.4232 39.0636 97.3872 38.9274 97.326 38.8021C97.2649 38.6768 97.1797 38.5649 97.0756 38.4726C96.9714 38.3804 96.8502 38.3097 96.7188 38.2646C96.5875 38.2195 96.4486 38.2008 96.31 38.2097C96.1715 38.2186 96.0361 38.2548 95.9115 38.3163C95.7869 38.3778 95.6756 38.4634 95.5839 38.5681C93.7022 40.7176 91.5794 40.9065 90.0198 40.2296C88.4602 39.5527 87.4966 38.0653 87.9978 36.1669C88.3705 34.757 89.2934 34.3134 90.5827 34.2372C91.8721 34.161 93.4101 34.7136 94.1237 35.3432C94.3344 35.5291 94.6099 35.6232 94.8896 35.6048C95.1692 35.5864 95.4302 35.4571 95.6151 35.2453C95.7999 35.0334 95.8935 34.7563 95.8752 34.4751C95.8569 34.1939 95.7283 33.9314 95.5176 33.7455C94.2473 32.6248 92.3512 32.0036 90.4586 32.1155V32.1158Z" fill="black"/>
<path d="M96.9493 22.2858C96.8147 22.3197 96.688 22.38 96.5766 22.4631C96.4651 22.5463 96.371 22.6507 96.2996 22.7704C96.2283 22.8901 96.1811 23.0228 96.1608 23.1609C96.1404 23.2989 96.1473 23.4397 96.181 23.5751C97.0469 27.0504 94.1391 29.5276 94.1391 29.5276C94.0144 29.6334 93.9158 29.7667 93.8509 29.9172C93.786 30.0677 93.7567 30.2312 93.7651 30.395C93.8457 31.9621 93.4542 34.0792 93.4542 34.0792C93.4276 34.2162 93.428 34.3571 93.4556 34.4939C93.4831 34.6307 93.5371 34.7607 93.6146 34.8765C93.6921 34.9923 93.7915 35.0916 93.9072 35.1688C94.0229 35.2459 94.1525 35.2994 94.2887 35.3262C94.425 35.353 94.5651 35.3525 94.7011 35.3248C94.8372 35.2971 94.9665 35.2428 95.0816 35.1648C95.1968 35.0869 95.2955 34.9869 95.3722 34.8706C95.449 34.7543 95.5022 34.624 95.5288 34.487C95.5288 34.487 95.8887 32.6266 95.8726 30.7827C96.7191 29.9481 99.2364 27.092 98.2314 23.0584C98.1977 22.923 98.1378 22.7956 98.0551 22.6835C97.9724 22.5714 97.8685 22.4768 97.7495 22.4051C97.6304 22.3333 97.4985 22.2859 97.3612 22.2654C97.2239 22.2449 97.084 22.2519 96.9493 22.2858Z" fill="black"/>
<path d="M95.5966 0C90.4564 1.80456e-05 85.8852 2.03356 82.3283 4.9301C78.2632 8.24045 75.468 12.6577 74.5081 16.7151C73.2716 21.9422 74.7581 26.8613 76.6345 30.3775C77.5727 32.1356 78.6085 33.5492 79.5079 34.5202C79.9576 35.0057 80.3645 35.3795 80.7689 35.6516C80.9712 35.7877 81.1678 35.9042 81.4408 35.984C81.7139 36.0637 82.1925 36.1234 82.6238 35.7863C82.7642 35.6764 85.3833 33.6745 89.0942 30.8421C92.8051 28.0096 97.6725 24.2961 102.513 20.6033C112.195 13.2178 121.769 5.91591 121.769 5.91591C121.79 5.89988 121.81 5.88307 121.83 5.86551C121.977 5.73447 122.106 5.6094 122.233 5.42248C122.36 5.23558 122.563 4.92862 122.444 4.41588C122.325 3.90313 121.831 3.60949 121.569 3.54215C121.308 3.4748 121.133 3.48855 120.957 3.50479C120.253 3.56975 119.476 3.84696 118.448 4.29992C116.634 5.09928 114.259 6.50647 112.115 8.42291C109.68 5.56066 104.775 0.921891 97.8331 0.12794C97.0768 0.0415381 96.3309 0 95.5966 0ZM95.5927 2.12494C96.2497 2.12494 96.9171 2.16251 97.594 2.23984C105.22 3.11198 110.173 9.2365 111.513 11.0709C107.846 13.8676 106.403 14.9679 101.236 18.9098C96.3952 22.6026 91.5275 26.3162 87.8163 29.1489C84.3736 31.7765 82.3545 33.3187 81.7959 33.7494C81.6046 33.6028 81.367 33.4089 81.0546 33.0717C80.3046 32.262 79.3505 30.9716 78.497 29.3723C76.7902 26.1738 75.4865 21.7642 76.5644 17.2071C77.387 13.7304 79.9474 9.60434 83.6588 6.58205C86.9062 3.93756 90.9932 2.12273 95.5927 2.12494Z" fill="black"/>
<mask id="mask0_531_1350" style="mask-type:luminance" maskUnits="userSpaceOnUse" x="-84" y="-331" width="446" height="2369">
<path d="M361.83 2038L361.83 -330.586H-83.2705L-83.2705 2038H361.83Z" fill="white"/>
</mask>
<g mask="url(#mask0_531_1350)">
<path fill-rule="evenodd" clip-rule="evenodd" d="M112.986 11.2805C101.69 19.8954 82.578 34.4744 81.9745 34.9472C81.116 35.6185 73.2215 26.7455 75.5359 16.9612C77.3184 9.42719 86.2469 -0.126123 97.7132 1.18399C104.927 2.00867 109.981 7.38625 112.003 9.9397C112.649 10.7536 112.986 11.2805 112.986 11.2805Z" fill="black"/>
</g>
<path d="M109.366 14.1665C108.083 14.1698 107.165 14.4672 107.165 14.4672C107.033 14.5082 106.909 14.5752 106.803 14.6641C106.696 14.7531 106.607 14.8624 106.542 14.9857C106.477 15.1091 106.437 15.2441 106.424 15.383C106.411 15.522 106.425 15.6622 106.466 15.7956C106.507 15.929 106.574 16.053 106.662 16.1605C106.751 16.268 106.859 16.357 106.982 16.4222C107.105 16.4875 107.239 16.5279 107.377 16.541C107.515 16.5541 107.655 16.5398 107.787 16.4987C107.787 16.4987 110.484 15.7172 112.442 17.291C112.551 17.3782 112.675 17.4431 112.808 17.4819C112.942 17.5208 113.081 17.5328 113.219 17.5173C113.357 17.5019 113.491 17.4593 113.612 17.3919C113.734 17.3245 113.841 17.2337 113.928 17.1247C114.103 16.9045 114.184 16.6234 114.153 16.3433C114.121 16.0632 113.981 15.8069 113.762 15.631C112.299 14.4545 110.649 14.1633 109.366 14.1665Z" fill="black"/>
<path d="M111.123 11.5097C110.847 11.5614 110.603 11.721 110.445 11.9535C110.286 12.186 110.226 12.4722 110.278 12.7493C110.329 13.0264 110.488 13.2716 110.719 13.431C110.719 13.431 111.217 13.776 111.733 14.2765C112.249 14.777 112.677 15.4599 112.705 15.6863C112.741 15.9659 112.885 16.2199 113.107 16.3924C113.328 16.5649 113.609 16.6418 113.887 16.6062C114.025 16.5886 114.158 16.5438 114.278 16.4745C114.399 16.4052 114.504 16.3128 114.589 16.2024C114.674 16.092 114.737 15.9658 114.773 15.8311C114.81 15.6964 114.82 15.5558 114.802 15.4174C114.648 14.2001 113.857 13.3841 113.2 12.7469C112.543 12.1096 111.914 11.6779 111.914 11.6779C111.683 11.5185 111.398 11.458 111.123 11.5097Z" fill="black"/>
<path d="M113.747 9.47354C113.612 9.50757 113.486 9.56794 113.374 9.65122C113.263 9.7345 113.169 9.83904 113.097 9.95887C112.954 10.2008 112.911 10.4902 112.98 10.7635C113.048 11.0368 113.222 11.2716 113.462 11.4163C113.462 11.4163 116.018 13.0696 116.406 15.4102C116.429 15.5479 116.478 15.6797 116.552 15.7982C116.625 15.9166 116.721 16.0193 116.834 16.1004C116.947 16.1816 117.075 16.2395 117.21 16.271C117.345 16.3025 117.485 16.3069 117.622 16.284C117.899 16.2376 118.146 16.0827 118.308 15.8533C118.471 15.624 118.537 15.339 118.491 15.061C117.899 11.4899 114.547 9.59196 114.547 9.59196C114.306 9.44736 114.019 9.40477 113.747 9.47354Z" fill="black"/>
<path d="M111.827 16.4879C110.469 16.5658 109.466 17.1509 108.89 17.842C108.123 18.7634 108.005 19.808 108.005 19.808C107.97 20.0876 108.047 20.3697 108.219 20.5922C108.391 20.8148 108.644 20.9595 108.922 20.9947C109.2 21.0297 109.481 20.9523 109.702 20.7794C109.923 20.6065 110.067 20.3523 110.102 20.0726C110.102 20.0726 110.172 19.613 110.511 19.2067C110.849 18.8004 111.345 18.3822 112.904 18.6815C113.04 18.7077 113.18 18.7067 113.316 18.6784C113.452 18.6502 113.581 18.5952 113.696 18.5168C113.811 18.4384 113.909 18.338 113.985 18.2214C114.062 18.1047 114.114 17.9741 114.14 17.837C114.166 17.6999 114.165 17.559 114.137 17.4223C114.109 17.2856 114.055 17.1559 113.977 17.0404C113.899 16.9249 113.799 16.826 113.683 16.7494C113.567 16.6727 113.437 16.6198 113.301 16.5936C112.772 16.492 112.28 16.4618 111.827 16.4879Z" fill="black"/>
<mask id="mask1_531_1350" style="mask-type:luminance" maskUnits="userSpaceOnUse" x="-84" y="-331" width="446" height="2369">
<path d="M359.327 2037.5L361.831 -330.586L-80.766 -330.089L-83.2696 2038L359.327 2037.5Z" fill="white"/>
</mask>
<g mask="url(#mask1_531_1350)">
<path fill-rule="evenodd" clip-rule="evenodd" d="M114.646 20.4248C114.911 20.8289 115.079 21.2737 115.112 21.6613C115.146 22.0489 115.043 22.3476 114.826 22.4916C114.609 22.6356 114.295 22.6132 113.955 22.4294C113.614 22.2455 113.273 21.9151 113.009 21.511C112.744 21.1069 112.576 20.6621 112.542 20.2745C112.508 19.8869 112.611 19.5882 112.828 19.4442C113.046 19.3002 113.359 19.3226 113.7 19.5065C114.041 19.6904 114.381 20.0207 114.646 20.4248Z" fill="black"/>
</g>
<path d="M115.113 13.812C114.833 13.8137 114.565 13.9273 114.368 14.1278C114.171 14.3283 114.061 14.5992 114.063 14.881C114.067 15.577 114.293 16.2412 114.652 17.0542C115.012 17.8673 115.527 18.7708 116.197 19.6465C117.428 21.2577 119.221 22.805 121.522 23.2267C121.509 23.3187 121.49 23.4208 121.444 23.5394C121.226 24.0914 120.599 24.9177 118.787 25.4743C118.654 25.5151 118.531 25.5818 118.424 25.6705C118.317 25.7593 118.228 25.8684 118.163 25.9916C118.098 26.1148 118.057 26.2497 118.044 26.3887C118.031 26.5276 118.045 26.6678 118.085 26.8013C118.126 26.9348 118.192 27.0589 118.28 27.1667C118.368 27.2744 118.477 27.3636 118.6 27.4291C118.722 27.4947 118.856 27.5353 118.994 27.5487C119.133 27.5621 119.272 27.5481 119.405 27.5073C121.67 26.8116 122.924 25.5545 123.409 24.3218C123.651 23.7055 123.712 23.1155 123.614 22.5817C123.565 22.3149 123.481 22.0572 123.301 21.8007C123.121 21.5442 122.79 21.2508 122.317 21.2079C122.317 21.2079 122.316 21.2079 122.316 21.2079C120.543 21.0484 118.99 19.8134 117.872 18.3513C117.313 17.6202 116.873 16.8457 116.583 16.1904C116.293 15.5351 116.176 14.9406 116.175 14.8687C116.174 14.7291 116.146 14.5911 116.092 14.4624C116.039 14.3338 115.96 14.2171 115.861 14.1189C115.763 14.0208 115.646 13.9432 115.517 13.8906C115.389 13.8379 115.251 13.8112 115.112 13.812H115.113Z" fill="black"/>
<path d="M120.18 25.226C119.916 25.133 119.625 25.1495 119.373 25.2719C119.248 25.3324 119.136 25.4171 119.043 25.5212C118.951 25.6252 118.88 25.7466 118.834 25.8783C118.788 26.0101 118.768 26.1496 118.776 26.2889C118.784 26.4283 118.819 26.5647 118.879 26.6905C118.879 26.6905 119.234 27.4315 119.614 28.2614C119.913 28.9147 120.137 29.4657 120.282 29.8305C120.196 29.9084 120.148 29.9617 120.019 30.0627C119.545 30.4339 118.837 30.9076 118.121 31.358C116.688 32.2588 115.214 33.0787 115.214 33.0787C115.001 33.1972 114.836 33.3859 114.745 33.613C114.655 33.8401 114.645 34.0916 114.717 34.3252C114.79 34.5587 114.94 34.7599 115.143 34.8949C115.346 35.0299 115.589 35.0904 115.831 35.0662C115.831 35.0662 117.479 34.9002 119.132 34.8328C119.958 34.7992 120.789 34.7926 121.364 34.8357C121.51 34.8465 121.562 34.8624 121.665 34.878C122.044 36.6992 121.992 38.4194 120.984 39.9572C119.886 41.6333 117.532 43.258 112.867 44.3287C112.731 44.3597 112.603 44.4173 112.49 44.498C112.377 44.5788 112.281 44.6812 112.207 44.7994C112.133 44.9176 112.083 45.0492 112.06 45.1868C112.037 45.3244 112.041 45.4653 112.071 45.6014C112.102 45.7375 112.16 45.8661 112.24 45.9799C112.32 46.0938 112.422 46.1906 112.54 46.2648C112.657 46.3391 112.788 46.3894 112.925 46.4127C113.062 46.4361 113.202 46.4322 113.337 46.4011C118.305 45.2612 121.238 43.4327 122.749 41.1267C124.26 38.821 124.203 36.1967 123.626 33.875C123.527 33.4762 123.261 33.234 123.065 33.1066C122.869 32.9792 122.702 32.9227 122.539 32.8758C122.212 32.7819 121.888 32.7438 121.522 32.7164C121.042 32.6806 120.459 32.7024 119.898 32.7119C120.397 32.3845 120.919 32.0531 121.318 31.7402C121.61 31.5115 121.861 31.2988 122.081 31.0505C122.191 30.9263 122.297 30.796 122.395 30.5976C122.493 30.3991 122.613 30.0771 122.492 29.6604C122.315 29.0492 121.923 28.222 121.534 27.3726C121.145 26.5229 120.784 25.7686 120.784 25.7686C120.724 25.6429 120.64 25.5303 120.536 25.4372C120.433 25.3442 120.312 25.2726 120.181 25.2265L120.18 25.226Z" fill="black"/>
<path d="M115.726 43.5713C115.587 43.5713 115.449 43.5987 115.321 43.6521C115.193 43.7055 115.076 43.7838 114.978 43.8825C114.88 43.9811 114.802 44.0983 114.749 44.2272C114.696 44.3561 114.668 44.4944 114.668 44.6339V56.3583C114.668 56.4979 114.696 56.6361 114.749 56.7651C114.802 56.8941 114.88 57.0113 114.978 57.11C115.076 57.2087 115.193 57.287 115.321 57.3404C115.449 57.3938 115.587 57.4213 115.726 57.4213C115.864 57.4212 116.002 57.3937 116.13 57.3403C116.258 57.2869 116.375 57.2086 116.473 57.1099C116.571 57.0112 116.649 56.894 116.702 56.765C116.755 56.636 116.782 56.4978 116.782 56.3583V44.6339C116.782 44.3521 116.671 44.0819 116.473 43.8826C116.275 43.6833 116.006 43.5713 115.726 43.5713Z" fill="black"/>
<path d="M96.6119 52.9809C96.3344 52.9827 96.0532 53.0234 95.7619 53.1165H95.7612C94.9071 53.3902 94.3135 54.0573 93.9607 54.7459C93.6079 55.4346 93.4266 56.1788 93.2779 56.9167C92.9806 58.3925 92.7488 59.8955 92.4108 60.4536C91.899 61.2993 90.136 63.0125 88.5151 65.9761C86.8942 68.9398 85.3975 73.2504 85.0971 79.7182C84.7812 86.5183 85.4724 95.1361 86.1317 102.848C86.791 110.559 87.3853 117.481 87.0199 120.266C86.6129 123.368 85.2821 125.274 84.3617 127.254C83.9015 128.243 83.5359 129.294 83.626 130.473C83.7162 131.651 84.272 132.847 85.3354 134.099C87.5634 136.72 90.6862 138.092 94.0953 138.657C97.5043 139.221 101.233 139.006 104.884 138.435C112.186 137.294 119.244 134.7 122.432 133.753C122.701 133.673 122.927 133.489 123.061 133.241C123.195 132.994 123.225 132.703 123.146 132.432C123.107 132.299 123.042 132.174 122.954 132.065C122.867 131.957 122.759 131.867 122.637 131.8C122.516 131.733 122.382 131.691 122.244 131.677C122.106 131.662 121.966 131.675 121.833 131.714C118.462 132.716 111.584 135.237 104.56 136.335C101.047 136.884 97.5152 137.069 94.4388 136.559C91.3624 136.05 88.7754 134.875 86.9421 132.718H86.9424C86.0659 131.686 85.7827 130.952 85.7336 130.31C85.6844 129.668 85.8792 129.008 86.2765 128.154C87.071 126.446 88.6444 124.133 89.1155 120.544C89.57 117.08 88.8964 110.368 88.2379 102.666C87.5793 94.9636 86.9033 86.3876 87.2085 79.8176C87.4958 73.632 88.8961 69.6903 90.3671 67.0007C91.8381 64.3113 93.3619 62.9705 94.2162 61.5588C95.0061 60.2546 95.0828 58.6637 95.3497 57.3389C95.4832 56.6765 95.6482 56.0939 95.8401 55.7194C96.0317 55.3454 96.1808 55.2132 96.4023 55.1421C96.3888 55.1464 97.2391 55.2148 98.3889 55.6859C99.5386 56.1571 101.026 56.882 102.735 57.6279C106.153 59.1199 110.483 60.7153 115.16 60.5325C115.44 60.5215 115.705 60.3992 115.895 60.1923C116.085 59.9854 116.186 59.711 116.175 59.4293C116.164 59.1477 116.043 58.882 115.837 58.6905C115.631 58.4991 115.358 58.3977 115.078 58.4086C110.934 58.5705 106.897 57.1272 103.577 55.6782C101.918 54.9537 100.444 54.2327 99.1866 53.7175C98.2436 53.3311 97.4442 52.9764 96.6119 52.9805V52.9809Z" fill="black"/>
<path d="M95.3206 39.1083C95.0431 39.1481 94.7928 39.2972 94.6246 39.5226C94.4564 39.7481 94.3841 40.0315 94.4237 40.3105C94.4237 40.3105 95.1665 45.5415 95.6781 49.7157C95.7124 49.9954 95.8557 50.25 96.0767 50.4234C96.2976 50.5969 96.5779 50.675 96.8561 50.6406C96.9939 50.6235 97.127 50.5793 97.2477 50.5105C97.3685 50.4417 97.4746 50.3497 97.56 50.2396C97.6454 50.1296 97.7085 50.0037 97.7455 49.8692C97.7825 49.7347 97.7928 49.5941 97.7758 49.4556C97.26 45.2476 96.5161 40.0102 96.5161 40.0102C96.4765 39.7312 96.3283 39.4795 96.1041 39.3103C95.8799 39.1412 95.5981 39.0685 95.3206 39.1083ZM96.8961 50.9634C96.6174 50.9938 96.3622 51.1342 96.1865 51.3537C96.0108 51.5733 95.9291 51.8541 95.9592 52.1342C96.0567 53.0394 96.1237 53.7866 96.1425 54.2095C96.1551 54.491 96.2784 54.756 96.4852 54.9462C96.692 55.1363 96.9655 55.2361 97.2455 55.2235C97.3842 55.2173 97.5203 55.1837 97.646 55.1245C97.7717 55.0654 97.8846 54.982 97.9783 54.879C98.072 54.776 98.1446 54.6555 98.1919 54.5243C98.2392 54.3931 98.2604 54.2538 98.2542 54.1143C98.2308 53.5861 98.1604 52.8292 98.0608 51.9052C98.0305 51.625 97.8908 51.3684 97.6723 51.1917C97.4539 51.0151 97.1747 50.933 96.8961 50.9634Z" fill="black"/>
<path d="M87.7564 42.2701C87.6193 42.2481 87.4793 42.2535 87.3443 42.2859C87.2093 42.3183 87.0819 42.3771 86.9695 42.459C86.8571 42.541 86.7618 42.6443 86.6891 42.7633C86.6165 42.8822 86.5678 43.0144 86.5459 43.1522C86.524 43.2901 86.5294 43.4309 86.5617 43.5667C86.5939 43.7025 86.6525 43.8306 86.734 43.9436C87.9371 45.6131 89.8423 46.2794 91.5715 46.9281C93.3007 47.5769 94.8824 48.2048 95.803 49.2712C95.894 49.3767 96.0047 49.463 96.1289 49.5254C96.253 49.5878 96.3882 49.625 96.5267 49.6348C96.6651 49.6447 96.8041 49.627 96.9358 49.5828C97.0675 49.5386 97.1892 49.4688 97.294 49.3773C97.3988 49.2858 97.4847 49.1745 97.5467 49.0496C97.6087 48.9247 97.6456 48.7888 97.6554 48.6496C97.6652 48.5103 97.6476 48.3705 97.6036 48.2382C97.5596 48.1058 97.4902 47.9834 97.3992 47.878C96.0002 46.2575 94.0299 45.5816 92.3103 44.9364C90.5908 44.2913 89.1501 43.674 88.4454 42.6962C88.364 42.5832 88.2613 42.4874 88.1431 42.4143C88.0248 42.3412 87.8934 42.2922 87.7564 42.2701Z" fill="black"/>
<path d="M82.2461 33.7064C82.1074 33.701 81.969 33.7232 81.8388 33.7716C81.7086 33.82 81.5892 33.8938 81.4873 33.9886C81.3855 34.0835 81.3032 34.1976 81.2452 34.3244C81.1872 34.4512 81.1547 34.5883 81.1494 34.7278C81.1154 35.6224 80.9587 37.7841 81.6422 40.0508C82.3256 42.3176 83.9538 44.7533 87.2143 46.0009C87.344 46.0506 87.4822 46.0741 87.621 46.07C87.7597 46.066 87.8963 46.0345 88.023 45.9773C88.1496 45.9202 88.2638 45.8385 88.359 45.737C88.4543 45.6354 88.5287 45.516 88.5781 45.3856C88.6275 45.2551 88.6508 45.1162 88.6468 44.9766C88.6427 44.8371 88.6114 44.6998 88.5546 44.5724C88.4977 44.4451 88.4165 44.3302 88.3156 44.2345C88.2146 44.1387 88.0959 44.0638 87.9661 44.0142C85.3127 42.9989 84.2131 41.2523 83.6649 39.4341C83.1166 37.6158 83.2245 35.7895 83.2618 34.8092C83.2671 34.6697 83.2451 34.5305 83.1969 34.3996C83.1487 34.2687 83.0754 34.1486 82.9811 34.0462C82.8868 33.9438 82.7733 33.8611 82.6472 33.8027C82.5211 33.7444 82.3848 33.7117 82.2461 33.7064Z" fill="black"/>
<path d="M143.321 125.087C143.058 125.184 142.844 125.382 142.727 125.638C141.693 127.882 140.841 129.503 139.887 130.634C138.932 131.764 137.898 132.454 136.236 132.944C132.912 133.924 127.064 133.847 116.121 133.577C115.982 133.574 115.844 133.598 115.714 133.648C115.585 133.698 115.467 133.774 115.366 133.87C115.266 133.966 115.185 134.082 115.129 134.209C115.072 134.337 115.042 134.474 115.038 134.614C115.035 134.753 115.059 134.892 115.109 135.022C115.159 135.153 115.234 135.272 115.33 135.373C115.425 135.474 115.54 135.555 115.667 135.611C115.794 135.668 115.93 135.699 116.069 135.702C127.015 135.972 132.876 136.15 136.831 134.984C138.809 134.401 140.308 133.418 141.498 132.01C142.687 130.602 143.591 128.82 144.645 126.531C144.703 126.404 144.736 126.267 144.742 126.128C144.748 125.988 144.726 125.849 144.678 125.718C144.63 125.587 144.557 125.467 144.463 125.364C144.369 125.261 144.256 125.178 144.13 125.12C144.004 125.061 143.868 125.028 143.729 125.022C143.59 125.017 143.452 125.039 143.321 125.087Z" fill="black"/>
<path d="M97.3372 58.6104C96.5224 58.5492 95.6561 58.6768 94.6815 59.0418C94.4189 59.1402 94.2059 59.3395 94.0893 59.5958C93.9728 59.8521 93.9623 60.1445 94.0601 60.4086C94.1085 60.5394 94.1821 60.6593 94.2766 60.7615C94.3711 60.8637 94.4847 60.9462 94.6109 61.0043C94.7372 61.0623 94.8735 61.0948 95.0122 61.0999C95.1509 61.105 95.2892 61.0825 95.4193 61.0338C97.0308 60.4303 97.4159 60.5412 98.7301 61.209C100.044 61.8768 102.049 63.2164 105.798 64.8163C111.571 67.2822 115.755 67.214 120.982 73.2097C122.234 74.6463 131.045 85.6167 132.676 87.8474C132.505 87.9788 132.396 88.0747 132.096 88.2745C131.118 88.9265 129.563 89.8918 127.683 91.3003C123.922 94.1174 118.829 98.735 113.961 106.458C113.811 106.696 113.761 106.984 113.822 107.259C113.883 107.534 114.051 107.773 114.287 107.924C114.524 108.075 114.811 108.125 115.084 108.064C115.358 108.002 115.596 107.834 115.746 107.596C120.462 100.115 125.338 95.7078 128.946 93.0051C130.75 91.6538 132.23 90.7356 133.264 90.0459C133.781 89.7011 134.182 89.4309 134.522 89.0954C134.692 88.9277 134.867 88.7448 134.991 88.412C135.116 88.0792 135.075 87.5216 134.847 87.1897C134.847 87.1891 134.847 87.1885 134.847 87.1879C133.359 85.0287 124.123 73.5875 122.572 71.8083C116.963 65.3741 112.031 65.1689 106.625 62.8598C103.016 61.3198 101.221 60.0925 99.6845 59.3117C98.9162 58.9213 98.153 58.6715 97.3383 58.6103L97.3372 58.6104Z" fill="black"/>
<path d="M131.275 89.1071C130.996 89.0748 130.717 89.1549 130.497 89.3299C130.277 89.505 130.136 89.7606 130.104 90.0406C130.071 90.3206 130.151 90.602 130.325 90.8229C131.778 92.6658 136.022 96.4985 142.831 101.543C149.64 106.587 158.932 112.717 170.164 118.687C172.177 119.756 174.468 119.759 177.002 119.782C179.295 119.803 181.84 119.841 184.659 120.429C183.92 120.787 182.567 121.195 180.502 121.309C180.364 121.317 180.228 121.352 180.103 121.412C179.978 121.473 179.866 121.558 179.773 121.661C179.68 121.765 179.609 121.887 179.563 122.018C179.517 122.15 179.497 122.29 179.505 122.429C179.513 122.568 179.548 122.705 179.608 122.831C179.668 122.957 179.752 123.069 179.855 123.162C179.959 123.255 180.079 123.327 180.21 123.373C180.341 123.42 180.48 123.439 180.619 123.432C183.515 123.271 185.342 122.681 186.438 121.833C186.986 121.409 187.449 120.865 187.418 120.074C187.402 119.678 187.208 119.274 186.939 119.014C186.671 118.755 186.356 118.616 186.041 118.538C182.582 117.678 179.541 117.68 177.021 117.657C174.501 117.634 172.548 117.55 171.152 116.808C160.023 110.893 150.813 104.816 144.085 99.8319C137.357 94.8477 133.029 90.8306 131.982 89.5029C131.895 89.3936 131.789 89.3024 131.667 89.2345C131.546 89.1667 131.413 89.1235 131.275 89.1075V89.1071Z" fill="black"/>
<path d="M117.494 102.03C117.355 102.036 117.219 102.07 117.093 102.129C116.967 102.188 116.854 102.271 116.761 102.374C116.571 102.582 116.472 102.857 116.484 103.139C116.496 103.42 116.619 103.685 116.826 103.876C122.425 109.036 133.321 114.661 143.26 119.207C148.23 121.481 152.949 123.466 156.611 124.935C160.274 126.403 162.756 127.325 163.686 127.579C165.499 128.073 166.354 128.94 167.592 129.789C168.83 130.638 170.511 131.3 173.082 130.821C176.922 130.105 179.771 128.945 181.759 127.61C183.747 126.275 184.923 124.769 185.187 123.2C185.234 122.922 185.169 122.637 185.006 122.408C184.844 122.178 184.598 122.022 184.321 121.975C184.184 121.952 184.044 121.956 183.909 121.987C183.774 122.018 183.646 122.076 183.533 122.157C183.42 122.238 183.323 122.34 183.25 122.459C183.176 122.577 183.126 122.708 183.103 122.846C182.986 123.541 182.264 124.715 180.585 125.842C178.906 126.97 176.317 128.055 172.697 128.731C170.551 129.13 169.809 128.737 168.783 128.033C167.757 127.329 166.508 126.145 164.239 125.527C163.726 125.387 161.028 124.417 157.395 122.96C153.761 121.503 149.069 119.529 144.136 117.273C134.27 112.76 123.397 107.048 118.254 102.309C118.047 102.118 117.774 102.018 117.494 102.03H117.494Z" fill="black"/>
<path d="M94.3972 71.0984C94.265 71.0557 94.1258 71.0395 93.9875 71.0509C93.8491 71.0623 93.7143 71.1009 93.5909 71.1647C93.4674 71.2285 93.3576 71.316 93.2678 71.4225C93.178 71.5289 93.1099 71.6521 93.0674 71.785C91.238 77.5081 92.3542 81.1878 94.1227 84.4528C94.2568 84.7003 94.4831 84.8842 94.752 84.9639C95.0208 85.0436 95.3101 85.0126 95.5563 84.8779C95.6782 84.8111 95.7858 84.7208 95.873 84.6123C95.9603 84.5037 96.0254 84.3789 96.0646 84.245C96.1039 84.1111 96.1165 83.9707 96.1018 83.8319C96.0871 83.6931 96.0454 83.5586 95.9789 83.436C94.3264 80.385 93.3964 77.7019 95.0799 72.4352C95.1657 72.1669 95.1419 71.8753 95.0138 71.6246C94.8858 71.3739 94.664 71.1846 94.3972 71.0984ZM96.5317 85.0358C96.3972 85.0008 96.2573 84.9929 96.1198 85.0123C95.9824 85.0318 95.85 85.0784 95.7304 85.1493C95.6109 85.2202 95.5064 85.3141 95.4229 85.4256C95.3394 85.5372 95.2786 85.6641 95.244 85.7993C95.2093 85.9345 95.2014 86.0752 95.2209 86.2134C95.2403 86.3516 95.2866 86.4847 95.3572 86.6049C95.8015 87.3623 96.9144 88.9855 98.424 91.1484C99.9336 93.3112 101.811 95.9602 103.672 98.5657C105.533 101.171 107.377 103.733 108.82 105.72C110.262 107.707 111.224 109.027 111.588 109.466C111.941 109.892 112.453 110.141 112.933 110.224C113.413 110.308 113.876 110.263 114.333 110.165C115.248 109.97 116.171 109.549 117.074 109.06C118.881 108.084 120.579 106.811 121.161 106.369C121.384 106.198 121.531 105.946 121.569 105.667C121.608 105.388 121.534 105.105 121.365 104.88C121.196 104.655 120.945 104.507 120.667 104.469C120.389 104.43 120.108 104.504 119.884 104.674C119.335 105.092 117.688 106.316 116.073 107.188C115.266 107.624 114.46 107.965 113.894 108.086C113.612 108.146 113.396 108.147 113.294 108.13C113.191 108.112 113.217 108.112 113.212 108.106C113.079 107.945 111.966 106.448 110.527 104.467C109.089 102.486 107.247 99.9274 105.389 97.3261C103.531 94.7249 101.656 92.0803 100.154 89.9278C98.6517 87.7753 97.4927 86.0614 97.178 85.525C97.0355 85.2823 96.803 85.1065 96.5317 85.0361V85.0358Z" fill="black"/>
<path d="M135.61 133.119C135.347 133.216 135.133 133.414 135.015 133.669C134.897 133.925 134.885 134.217 134.981 134.482C142.791 155.941 157.464 179.56 170.071 198.008C176.375 207.232 182.163 215.16 186.315 220.853C188.391 223.699 190.058 225.989 191.166 227.588C191.721 228.388 192.137 229.019 192.38 229.431C192.39 229.45 192.389 229.45 192.399 229.468C192.196 229.697 192.025 229.902 191.583 230.335C190.945 230.959 190.102 231.744 189.128 232.622C187.18 234.376 184.704 236.501 182.247 238.49C179.791 240.478 177.345 242.334 175.494 243.535C174.569 244.135 173.78 244.571 173.294 244.763C173.231 244.788 173.244 244.778 173.192 244.794C166.493 232.309 154.028 215.676 143.164 201.938C137.666 194.986 132.587 188.787 128.897 184.282C127.052 182.029 125.554 180.199 124.53 178.917C124.017 178.276 123.623 177.77 123.372 177.43C123.33 177.374 123.32 177.356 123.286 177.308C123.344 177.128 123.366 177.056 123.493 176.677C123.699 176.064 123.985 175.225 124.323 174.237C124.999 172.261 125.886 169.685 126.774 167.105C127.663 164.525 128.552 161.939 129.234 159.94C129.575 158.94 129.864 158.086 130.076 157.451C130.287 156.816 130.397 156.513 130.471 156.206C130.767 154.971 130.251 153.841 129.441 153.27C129.036 152.984 128.526 152.797 127.945 152.907C127.365 153.017 126.827 153.532 126.641 154.105C126.641 154.106 126.641 154.107 126.641 154.107C119.131 177.24 116.002 186.063 109.46 195.196C108.797 196.121 106.985 197.199 104.293 198.066C101.602 198.933 98.0713 199.646 94.0191 200.207C85.9148 201.329 75.7185 201.858 65.7154 202.007C55.7123 202.156 45.8956 201.929 38.5251 201.552C34.8399 201.364 31.7639 201.138 29.5974 200.906C28.5141 200.79 27.6548 200.672 27.0864 200.563C26.9005 200.527 26.8075 200.5 26.6932 200.47C26.6519 200.249 26.611 199.924 26.5778 199.528C26.5114 198.734 26.4733 197.651 26.4622 196.393C26.44 193.877 26.5241 190.654 26.6735 187.465C26.823 184.277 27.0377 181.118 27.2732 178.73C27.391 177.536 27.5148 176.531 27.6328 175.834C27.6713 175.607 27.7043 175.479 27.7387 175.327C27.7838 175.324 27.7985 175.321 27.8491 175.319C28.3092 175.298 28.9894 175.288 29.8416 175.286C31.5461 175.283 33.9468 175.315 36.8017 175.364C42.5117 175.461 50.0438 175.624 57.552 175.699C65.0602 175.773 72.541 175.76 78.1814 175.502C81.0015 175.373 83.3549 175.186 85.0686 174.904C85.9254 174.763 86.6165 174.607 87.1883 174.377C87.4743 174.262 87.7357 174.134 87.991 173.911C88.2463 173.688 88.5228 173.289 88.5297 172.807C88.7859 154.744 92.0436 140.038 92.7205 137.244C92.7534 137.109 92.7594 136.968 92.7382 136.83C92.7169 136.692 92.6689 136.559 92.5967 136.44C92.5246 136.321 92.4298 136.217 92.3178 136.135C92.2058 136.052 92.0787 135.993 91.9438 135.96C91.809 135.927 91.669 135.921 91.5318 135.942C91.3946 135.963 91.263 136.012 91.1444 136.084C91.0258 136.157 90.9225 136.252 90.8406 136.365C90.7586 136.477 90.6995 136.605 90.6666 136.741C89.9612 139.653 86.7302 154.271 86.4295 172.391C86.4122 172.399 86.4232 172.395 86.4032 172.403C86.0976 172.526 85.5045 172.679 84.7279 172.806C83.1746 173.061 80.8646 173.251 78.0853 173.378C72.5267 173.633 65.0648 173.647 57.573 173.573C50.0813 173.498 42.5559 173.336 36.8375 173.238C33.9783 173.19 31.5719 173.157 29.8374 173.16C28.9702 173.162 28.273 173.172 27.7552 173.195C27.4962 173.207 27.2846 173.221 27.0973 173.243C27.0036 173.254 26.9177 173.267 26.8141 173.291C26.7105 173.315 26.6089 173.293 26.3195 173.516C26.0261 173.743 25.9748 173.913 25.9098 174.057C25.8449 174.2 25.8025 174.331 25.7623 174.474C25.6817 174.758 25.6156 175.085 25.5492 175.478C25.4163 176.263 25.2905 177.298 25.1699 178.52C24.9288 180.965 24.713 184.147 24.5622 187.365C24.4113 190.583 24.3256 193.832 24.3484 196.412C24.3597 197.701 24.3977 198.822 24.4717 199.706C24.5087 200.149 24.5538 200.531 24.6161 200.865C24.6785 201.199 24.7169 201.462 24.9407 201.822C24.9408 201.822 24.9409 201.822 24.9411 201.822C25.3239 202.438 25.5771 202.358 25.8282 202.44C26.0792 202.523 26.3559 202.587 26.6914 202.651C27.3625 202.779 28.2578 202.9 29.3737 203.02C31.6056 203.258 34.7071 203.485 38.4182 203.675C45.8404 204.054 55.6915 204.282 65.7469 204.132C75.8024 203.982 86.0552 203.455 94.3076 202.312C98.4337 201.741 102.058 201.018 104.938 200.09C107.819 199.162 109.994 198.086 111.174 196.439C115.536 190.35 118.438 184.312 121.976 174.569C121.806 175.066 121.611 175.636 121.49 175.998C121.281 176.618 121.183 176.876 121.106 177.189C120.947 177.836 121.148 177.863 121.195 177.964C121.243 178.066 121.285 178.133 121.331 178.206C121.423 178.352 121.533 178.507 121.674 178.699C121.958 179.082 122.361 179.598 122.881 180.249C123.921 181.55 125.42 183.381 127.265 185.634C130.955 190.139 136.025 196.327 141.509 203.261C152.475 217.13 165.106 234.018 171.588 246.258C171.867 246.785 172.525 247.013 172.941 247.006C173.357 246.999 173.696 246.888 174.067 246.742C174.808 246.449 175.654 245.96 176.639 245.321C178.609 244.043 181.083 242.161 183.572 240.146C186.061 238.131 188.559 235.988 190.538 234.205C191.527 233.314 192.386 232.514 193.056 231.859C193.725 231.204 194.176 230.749 194.48 230.319C194.763 229.918 194.7 229.609 194.671 229.433C194.642 229.258 194.598 229.146 194.553 229.034C194.461 228.81 194.346 228.601 194.198 228.349C193.9 227.844 193.468 227.192 192.9 226.373C191.764 224.735 190.095 222.444 188.019 219.597C183.867 213.903 178.094 205.997 171.812 196.805C159.249 178.421 144.653 154.876 136.965 133.752C136.918 133.621 136.845 133.501 136.751 133.398C136.657 133.295 136.544 133.212 136.418 133.154C136.292 133.095 136.156 133.061 136.017 133.056C135.879 133.05 135.74 133.071 135.61 133.119L135.61 133.119ZM128.407 155.5C128.409 155.572 128.438 155.618 128.416 155.709C128.434 155.633 128.28 156.15 128.072 156.776C127.863 157.402 127.575 158.253 127.235 159.25C126.681 160.874 125.952 162.992 125.235 165.076C126.238 162.076 127.22 159.151 128.407 155.5ZM27.3615 175.352C27.3147 175.368 27.2977 175.359 27.289 175.361C27.2719 175.365 27.2999 175.359 27.3472 175.353C27.3499 175.353 27.3587 175.353 27.3615 175.351V175.352ZM123.106 177.054C123.115 177.074 123.165 177.091 123.195 177.179C123.173 177.147 123.128 177.086 123.116 177.066C123.096 177.035 123.089 177.018 123.106 177.054ZM123.159 177.696C123.159 177.696 123.159 177.696 123.159 177.698C123.159 177.698 123.159 177.696 123.159 177.696ZM26.4538 200.356C26.4611 200.358 26.4997 200.417 26.5116 200.425C26.5068 200.424 26.4901 200.421 26.4857 200.42C26.4344 200.403 26.4182 200.346 26.4538 200.356Z" fill="black"/>
<mask id="mask2_531_1350" style="mask-type:luminance" maskUnits="userSpaceOnUse" x="-84" y="-331" width="446" height="2369">
<path d="M361.83 2038L361.83 -330.586H-83.2705L-83.2705 2038H361.83Z" fill="white"/>
</mask>
<g mask="url(#mask2_531_1350)">
<path fill-rule="evenodd" clip-rule="evenodd" d="M91.693 136.991C98.9158 139.33 109.087 136.784 116.095 134.64C126.494 134.896 132.298 135.024 135.973 134.117C151.47 176.699 194.508 228.444 193.618 229.702C192.091 231.861 173.62 247.833 172.52 245.757C159.4 220.986 121.943 178.211 122.132 177.442C122.32 176.675 129.222 156.878 129.442 155.957C129.839 154.301 128.023 153.274 127.644 154.436C120.132 177.576 116.954 186.55 110.316 195.816C102.943 206.102 27.3126 202.695 26.1948 200.897C25.077 199.098 24.4245 176.605 26.4251 174.718C29.4794 171.838 87.7185 175.528 87.7693 171.951C88.0272 153.768 90.9992 139.855 91.693 136.991Z" fill="black"/>
</g>
<path d="M19.6699 174.657C19.2619 174.663 18.8585 174.752 18.4565 174.991C16.1104 176.39 15.3186 178.542 15.1254 180.277C15.0288 181.144 15.0519 181.928 15.0483 182.514C15.0447 183.1 14.9167 183.484 14.9992 183.351C14.9914 183.363 14.6533 183.843 14.197 184.469C13.7406 185.094 13.1248 185.936 12.4063 186.936C10.9692 188.935 9.11985 191.565 7.29083 194.376C5.4618 197.188 3.65345 200.179 2.29209 202.927C0.930719 205.674 -0.0265002 208.126 0.000559457 210.188C0.0193482 211.621 0.943547 212.979 2.34852 213.211C3.75348 213.444 5.26321 212.707 6.74265 211.123C7.94993 209.83 11.1764 206.86 14.2295 204.199C15.7561 202.868 17.2487 201.605 18.4411 200.643C19.0373 200.162 19.5596 199.757 19.9643 199.462C20.369 199.167 20.7186 198.969 20.6888 198.982C21.0914 198.812 21.9615 198.674 22.8555 198.755C23.7496 198.836 24.6748 199.118 25.3297 199.579C25.5592 199.741 25.8432 199.805 26.1193 199.756C26.3953 199.707 26.6408 199.55 26.8018 199.319C26.9627 199.089 27.0259 198.803 26.9774 198.525C26.929 198.248 26.7729 198.001 26.5434 197.839C25.4809 197.09 24.2257 196.745 23.0448 196.638C21.8639 196.531 20.7647 196.645 19.8711 197.022H19.8707C19.4689 197.192 19.1735 197.413 18.7236 197.741C18.2737 198.069 17.7319 198.491 17.119 198.985C15.8932 199.973 14.3866 201.249 12.8454 202.593C9.76309 205.279 6.5798 208.192 5.20152 209.668C4.0003 210.955 3.06684 211.176 2.69164 211.114C2.31644 211.052 2.12323 210.863 2.11402 210.16C2.09703 208.865 2.88327 206.5 4.18404 203.875C5.48481 201.249 7.25763 198.311 9.05976 195.54C10.8619 192.77 12.6936 190.165 14.1195 188.181C14.8324 187.19 15.444 186.353 15.9014 185.726C16.3588 185.099 16.621 184.752 16.792 184.477C17.2323 183.769 17.1579 183.169 17.1618 182.527C17.1657 181.886 17.15 181.198 17.2263 180.513C17.3788 179.143 17.7793 177.866 19.5346 176.82H19.535C19.4768 176.854 19.8266 176.758 20.4774 176.895C21.1283 177.032 22.0202 177.321 23.0522 177.667C25.1161 178.358 27.7563 179.275 30.6376 179.609C30.7755 179.625 30.9151 179.614 31.0486 179.575C31.1821 179.537 31.3068 179.473 31.4155 179.386C31.5243 179.299 31.6149 179.192 31.6824 179.07C31.7498 178.948 31.7927 178.813 31.8085 178.675C31.8244 178.536 31.813 178.396 31.7749 178.261C31.7368 178.127 31.6728 178.002 31.5865 177.892C31.5003 177.783 31.3934 177.692 31.2721 177.624C31.1507 177.556 31.0173 177.513 30.8794 177.497C28.2931 177.198 25.7979 176.346 23.7202 175.65C22.6813 175.302 21.7509 174.992 20.9107 174.815C20.4905 174.726 20.0779 174.651 19.6699 174.657V174.657Z" fill="black"/>
<path d="M212.409 223.603C212.056 223.63 211.695 223.708 211.335 223.844C210.228 224.261 206.901 225.843 203.492 227.384C201.787 228.155 200.096 228.903 198.756 229.453C198.087 229.727 197.504 229.952 197.066 230.101C196.628 230.251 196.234 230.297 196.406 230.297C195.955 230.297 195.238 230.076 194.681 229.824C194.125 229.571 193.741 229.327 193.741 229.327C193.505 229.177 193.218 229.126 192.945 229.188C192.671 229.25 192.433 229.418 192.283 229.656C192.209 229.774 192.158 229.905 192.134 230.043C192.111 230.18 192.114 230.321 192.144 230.457C192.175 230.594 192.231 230.723 192.311 230.837C192.391 230.951 192.493 231.048 192.61 231.123C192.61 231.123 193.117 231.446 193.813 231.761C194.509 232.077 195.407 232.423 196.406 232.423C196.94 232.423 197.239 232.287 197.746 232.114C198.252 231.941 198.862 231.704 199.554 231.421C200.939 230.853 202.644 230.098 204.359 229.323C207.788 227.773 211.385 226.095 212.077 225.834C212.773 225.571 213.365 225.797 213.669 226.088C213.821 226.234 213.878 226.379 213.886 226.454C213.895 226.529 213.909 226.556 213.784 226.691C206.945 234.119 195.041 244.757 189.978 248.265C189.863 248.345 189.766 248.446 189.69 248.563C189.615 248.68 189.563 248.811 189.538 248.948C189.513 249.085 189.515 249.226 189.544 249.363C189.573 249.499 189.628 249.629 189.707 249.744C189.786 249.859 189.886 249.957 190.003 250.033C190.119 250.108 190.249 250.161 190.386 250.186C190.522 250.211 190.663 250.209 190.798 250.18C190.934 250.151 191.063 250.095 191.177 250.016C196.597 246.259 208.352 235.719 215.335 228.136C215.829 227.599 216.063 226.868 215.986 226.208C215.91 225.548 215.577 224.982 215.128 224.551C214.454 223.904 213.469 223.524 212.409 223.603ZM180.115 240.502C179.976 240.495 179.838 240.515 179.707 240.563C179.576 240.61 179.456 240.682 179.353 240.776C179.146 240.965 179.021 241.23 179.008 241.511C178.994 241.793 179.092 242.068 179.28 242.277C180.544 243.679 181.748 245.994 183.074 247.962C183.737 248.946 184.434 249.854 185.292 250.532C186.15 251.21 187.252 251.647 188.429 251.465C188.566 251.444 188.698 251.396 188.816 251.323C188.935 251.251 189.038 251.155 189.12 251.043C189.202 250.93 189.261 250.802 189.294 250.667C189.327 250.531 189.333 250.39 189.312 250.253C189.291 250.115 189.243 249.982 189.171 249.863C189.099 249.744 189.004 249.64 188.892 249.557C188.781 249.475 188.653 249.415 188.519 249.382C188.384 249.349 188.244 249.343 188.107 249.364C187.579 249.446 187.157 249.302 186.599 248.861C186.041 248.42 185.431 247.671 184.824 246.769C183.608 244.965 182.414 242.589 180.846 240.849C180.658 240.641 180.395 240.515 180.115 240.502Z" fill="black"/>
<mask id="mask3_531_1350" style="mask-type:luminance" maskUnits="userSpaceOnUse" x="-84" y="-331" width="446" height="2369">
<path d="M361.83 2038L361.83 -330.586H-83.2705L-83.2705 2038H361.83Z" fill="white"/>
</mask>
<g mask="url(#mask3_531_1350)">
<path fill-rule="evenodd" clip-rule="evenodd" d="M116.136 67.7722L110.996 55.6402L178.418 26.354L215.687 107.061L186.298 120.407C186.47 120.018 186.278 119.693 185.787 119.57C179.147 117.921 174.065 119.559 170.657 117.748C148.295 105.863 133.652 93.3337 131.152 90.1631C133.146 88.844 134.266 88.2142 133.977 87.7937C132.688 85.9242 123.201 74.1441 121.776 72.5091C119.813 70.2571 117.962 68.8116 116.136 67.7722ZM167.944 128.741L146.158 138.633L135.951 114.541C148.5 120.823 162.149 126.059 163.962 126.554C165.857 127.07 166.899 127.99 167.944 128.741Z" fill="#6E864C"/>
</g>
<path d="M200.815 93.3411C200.648 93.3234 200.513 93.3557 200.386 93.3669C200.133 93.3889 199.891 93.4409 199.618 93.5114C199.072 93.6523 198.413 93.8751 197.654 94.1578C196.136 94.7231 194.235 95.5269 192.362 96.3507C188.616 97.9984 184.992 99.7265 184.992 99.7265C184.75 99.842 184.56 100.046 184.462 100.297C184.363 100.548 184.363 100.827 184.462 101.077L189.38 113.592C189.433 113.727 189.513 113.849 189.615 113.952C189.716 114.054 189.838 114.135 189.971 114.188C190.105 114.242 190.248 114.268 190.392 114.264C190.536 114.26 190.678 114.226 190.808 114.165L206.383 106.897C206.628 106.783 206.82 106.579 206.92 106.327C207.02 106.075 207.02 105.794 206.921 105.542C206.921 105.542 205.856 102.835 204.676 100.038C204.086 98.639 203.468 97.2181 202.932 96.086C202.664 95.52 202.417 95.0277 202.195 94.6311C201.972 94.2345 201.923 93.988 201.431 93.6167C201.431 93.6167 201.43 93.6167 201.43 93.6167C201.178 93.4274 200.98 93.3596 200.814 93.3418L200.815 93.3411ZM200.569 95.4844C200.599 95.4817 200.581 95.5065 200.509 95.4963C200.521 95.4945 200.561 95.4849 200.569 95.4844ZM200.263 95.5461C200.296 95.5946 200.323 95.6197 200.354 95.6751C200.535 95.9978 200.767 96.459 201.023 96.9996C201.535 98.0807 202.146 99.4843 202.73 100.868C203.698 103.164 204.301 104.7 204.577 105.396L190.935 111.763L186.793 101.227C187.827 100.738 190.235 99.6063 193.209 98.298C195.063 97.4826 196.944 96.6891 198.388 96.1512C199.11 95.8823 199.728 95.6772 200.143 95.57C200.202 95.5549 200.213 95.557 200.263 95.5461Z" fill="black"/>
<path d="M199.883 97.8864C199.619 97.7922 199.328 97.8072 199.075 97.9283L188.791 102.851C188.665 102.911 188.553 102.995 188.46 103.099C188.367 103.202 188.295 103.324 188.249 103.455C188.202 103.587 188.182 103.726 188.189 103.865C188.197 104.005 188.231 104.141 188.291 104.268C188.35 104.394 188.434 104.507 188.537 104.6C188.64 104.693 188.761 104.766 188.891 104.812C189.022 104.859 189.161 104.879 189.299 104.872C189.438 104.865 189.574 104.83 189.699 104.77L199.984 99.8474C200.109 99.7874 200.221 99.7032 200.314 99.5995C200.407 99.4958 200.479 99.3748 200.525 99.2433C200.572 99.1117 200.592 98.9723 200.585 98.8329C200.578 98.6935 200.543 98.5569 200.484 98.4309C200.363 98.1765 200.147 97.9806 199.883 97.8864Z" fill="black"/>
<path d="M197.857 101.942C197.726 101.895 197.588 101.875 197.449 101.882C197.31 101.889 197.175 101.924 197.049 101.984L190.095 105.312C189.97 105.372 189.858 105.456 189.765 105.56C189.672 105.664 189.6 105.785 189.554 105.916C189.507 106.048 189.487 106.187 189.494 106.327C189.501 106.466 189.536 106.603 189.595 106.729C189.716 106.983 189.932 107.179 190.196 107.273C190.46 107.368 190.751 107.353 191.004 107.232L197.958 103.903C198.083 103.843 198.195 103.759 198.288 103.655C198.381 103.552 198.453 103.43 198.5 103.299C198.546 103.167 198.566 103.028 198.559 102.889C198.552 102.749 198.518 102.613 198.458 102.487C198.398 102.36 198.315 102.247 198.211 102.154C198.108 102.06 197.988 101.988 197.857 101.942Z" fill="black"/>
<path d="M152.371 36.7879C152.238 36.7468 152.099 36.7323 151.96 36.7454C151.822 36.7585 151.688 36.7988 151.565 36.864C151.317 36.9958 151.132 37.2211 151.049 37.4905C150.967 37.7598 150.994 38.0511 151.125 38.3003C152.453 40.8263 154.264 44.4698 155.611 47.4492C156.152 48.6459 156.528 49.5884 156.853 50.4412C156.534 50.2374 156.237 50.0543 155.894 49.8332C155.292 49.4452 154.689 49.064 154.103 48.7864C153.81 48.6476 153.522 48.5308 153.193 48.465C152.864 48.3992 152.44 48.366 151.995 48.6172C151.497 48.8995 151.347 49.2859 151.228 49.6126C151.109 49.9392 151.043 50.2711 150.989 50.6312C150.88 51.3512 150.833 52.1786 150.789 52.9912C150.744 53.7931 150.701 54.5744 150.63 55.1454C150.224 54.8317 149.73 54.3997 149.224 53.9273C148.665 53.406 148.119 52.8781 147.652 52.4819C147.418 52.2838 147.222 52.1202 146.951 51.9722C146.815 51.8982 146.669 51.8029 146.334 51.7865C146.167 51.7784 145.929 51.805 145.698 51.9398C145.467 52.0746 145.292 52.3102 145.214 52.5044C145.214 52.505 145.214 52.5056 145.214 52.5062C145.077 52.8528 145.094 52.9939 145.073 53.2245C145.053 53.4552 145.04 53.7156 145.03 54.0028C145.018 54.3203 145.009 54.6851 145 55.039C144.38 53.9476 143.676 52.6122 142.979 51.2008C141.638 48.4885 140.271 45.4891 139.307 43.3273C139.192 43.0701 138.981 42.8693 138.719 42.769C138.457 42.6686 138.166 42.677 137.91 42.7923C137.655 42.9077 137.455 43.1205 137.355 43.3839C137.256 43.6472 137.264 43.9397 137.379 44.1968C138.349 46.3732 139.724 49.3912 141.085 52.1467C142.447 54.9023 143.725 57.3336 144.788 58.6171C144.919 58.7752 145.161 59.0411 145.646 59.0668C146.133 59.0925 146.515 58.7587 146.653 58.561C146.928 58.1657 146.911 57.9668 146.953 57.7137C147.037 57.2076 147.065 56.6025 147.088 55.9515C147.101 55.5755 147.11 55.2341 147.119 54.8716C147.352 55.0887 147.531 55.2473 147.786 55.4859C148.36 56.0213 148.958 56.5685 149.528 56.9877C149.813 57.1973 150.084 57.3783 150.412 57.5142C150.741 57.65 151.268 57.8171 151.832 57.4526C152.329 57.132 152.426 56.7603 152.525 56.4428C152.624 56.1253 152.679 55.8008 152.724 55.4464C152.815 54.7376 152.855 53.9161 152.9 53.11C152.944 52.3038 152.994 51.5126 153.079 50.9512C153.098 50.8281 153.117 50.7803 153.138 50.6844C153.167 50.6972 153.172 50.6945 153.204 50.7094C153.607 50.9002 154.17 51.2459 154.753 51.6223C155.337 51.9987 155.946 52.406 156.521 52.7406C157.097 53.0753 157.558 53.3874 158.306 53.424C158.307 53.424 158.307 53.424 158.308 53.424C158.549 53.4352 158.89 53.3437 159.12 53.1456C159.349 52.9475 159.447 52.7141 159.494 52.544C159.587 52.2038 159.548 52.0096 159.519 51.8059C159.46 51.3985 159.332 50.9842 159.154 50.4712C158.797 49.4452 158.223 48.0887 157.536 46.5695C156.163 43.5312 154.344 39.8728 152.995 37.3064C152.864 37.0573 152.64 36.8707 152.372 36.7876L152.371 36.7879Z" fill="black"/>
</svg>
