<?xml version="1.0" standalone="no"?>
<!DOCTYPE svg PUBLIC "-//W3C//DTD SVG 20010904//EN"
 "http://www.w3.org/TR/2001/REC-SVG-20010904/DTD/svg10.dtd">
<svg version="1.0" xmlns="http://www.w3.org/2000/svg"
 width="728.000000pt" height="719.000000pt" viewBox="0 0 728.000000 719.000000"
 preserveAspectRatio="xMidYMid meet">

<g transform="translate(0.000000,719.000000) scale(0.100000,-0.100000)"
fill="#000000" stroke="none">
<path d="M2090 6335 c-515 -73 -977 -464 -1144 -967 -75 -223 -70 -161 -71
-1078 0 -454 2 -865 5 -915 6 -88 6 -88 8 -22 2 65 16 90 25 45 l4 -23 2 23
c0 12 6 22 11 22 6 0 10 -6 9 -12 -1 -7 -1 -32 0 -55 1 -46 15 -57 26 -22 6
18 11 15 41 -30 19 -27 34 -52 34 -55 0 -9 48 -53 64 -59 9 -4 16 -2 16 3 0 5
7 7 15 4 20 -8 19 -22 -2 -26 -13 -3 -4 -11 29 -28 25 -13 44 -28 42 -34 -2
-6 14 -22 36 -36 40 -24 47 -34 33 -43 -5 -2 -2 -2 4 -1 19 5 63 -40 63 -64 0
-26 19 -39 31 -21 7 12 9 12 9 0 0 -11 3 -11 15 -1 12 10 15 -4 18 -112 1 -67
4 201 5 597 5 1325 5 1316 73 1519 143 428 488 731 946 834 72 16 171 17 1223
17 1138 0 1146 0 1240 -22 133 -30 252 -75 358 -136 331 -190 542 -488 619
-872 17 -83 18 -173 18 -1200 0 -862 -3 -1126 -13 -1180 -65 -352 -248 -643
-531 -838 -104 -73 -180 -110 -302 -151 -191 -64 -204 -65 -981 -68 -748 -3
-1319 -11 -1153 -17 68 -2 92 -6 75 -11 -23 -7 -23 -8 -3 -9 12 -1 23 -4 25
-8 6 -14 65 -43 87 -43 28 0 27 -26 -1 -34 -21 -6 -19 -8 15 -20 49 -18 53
-23 28 -31 -31 -9 -26 -25 8 -25 16 0 36 -6 43 -13 7 -7 22 -17 33 -22 19 -8
19 -9 -2 -12 -38 -7 -26 -23 17 -23 22 0 40 -4 40 -10 0 -5 -9 -10 -21 -10
-19 0 -19 -1 -5 -16 9 -8 20 -13 25 -9 5 3 12 1 16 -5 3 -5 15 -10 26 -10 26
0 24 -29 -3 -39 -20 -7 -18 -9 19 -15 28 -5 40 -12 37 -20 -9 -24 23 -36 112
-45 86 -8 87 -8 29 -11 -33 -1 -85 -5 -115 -10 -30 -4 350 -7 845 -6 827 2
906 3 975 20 293 70 509 186 712 384 211 206 342 440 410 732 l22 95 3 1475
c3 1013 0 1497 -7 1545 -93 606 -499 1053 -1102 1212 l-103 27 -1485 2 c-1201
2 -1503 0 -1580 -11z m-1010 -3080 c0 -8 -4 -15 -9 -15 -5 0 -11 7 -15 15 -3
9 0 15 9 15 8 0 15 -7 15 -15z"/>
<path d="M2575 5469 c-160 -15 -341 -89 -476 -197 -152 -121 -255 -273 -316
-469 l-28 -88 -3 -1098 c-1 -644 1 -1104 6 -1114 6 -10 8 10 6 58 l-3 74 13
-93 c15 -102 25 -127 27 -66 1 23 4 30 6 17 5 -27 23 -31 24 -5 0 13 2 14 6 2
2 -8 7 -22 10 -30 3 -8 6 -24 7 -35 1 -13 8 -20 21 -21 47 -2 51 -4 36 -13 -7
-5 -10 -14 -6 -21 6 -10 9 -9 15 0 9 14 30 5 30 -13 0 -8 -3 -8 -9 1 -7 11 -9
11 -14 -2 -5 -12 3 -17 33 -22 32 -5 40 -11 40 -28 1 -12 17 -34 39 -51 21
-16 37 -33 35 -36 -1 -3 8 -13 22 -23 13 -11 24 -25 24 -32 0 -8 6 -14 14 -14
8 0 17 -8 19 -17 4 -17 5 -17 6 0 1 21 21 23 21 2 0 -8 6 -15 13 -15 20 0 47
-38 47 -65 0 -14 6 -25 13 -25 6 0 26 -13 44 -30 17 -16 53 -43 79 -60 26 -16
43 -30 36 -30 -7 0 -12 -6 -12 -14 0 -9 8 -12 24 -9 13 3 27 0 30 -6 5 -7 -5
-11 -26 -12 -19 -1 -25 -3 -13 -6 11 -2 29 -6 41 -8 34 -7 25 -32 -10 -27 -28
3 -29 2 -12 -9 11 -7 32 -12 47 -11 15 0 33 -6 40 -14 6 -8 17 -14 24 -14 13
0 28 -35 26 -57 -1 -6 10 -13 24 -15 14 -2 24 -7 23 -13 -2 -5 17 -13 42 -17
25 -4 -2 -5 -60 -2 -58 2 -116 6 -130 9 -21 5 -22 4 -5 -3 64 -29 245 -33
1285 -30 1165 4 1068 -2 1249 68 283 109 502 385 561 705 8 42 10 391 8 1175
l-3 1115 -23 75 c-31 101 -103 245 -161 322 -151 199 -407 340 -641 354 -129
7 -2085 10 -2165 3z m2418 -501 c97 -54 134 -176 83 -276 -37 -73 -88 -105
-176 -110 -52 -3 -75 0 -106 16 -75 38 -114 104 -114 190 0 63 19 108 63 150
68 65 165 77 250 30z m-1130 -383 c237 -41 435 -139 606 -301 485 -456 496
-1211 24 -1680 -165 -165 -373 -274 -607 -321 -98 -20 -323 -22 -416 -4 -419
81 -771 381 -899 766 -104 316 -87 617 54 900 141 285 375 492 671 594 171 58
392 77 567 46z m-2026 -2057 c-3 -8 -6 -5 -6 6 -1 11 2 17 5 13 3 -3 4 -12 1
-19z m63 -88 c0 -5 -4 -10 -10 -10 -5 0 -10 5 -10 10 0 6 5 10 10 10 6 0 10
-4 10 -10z"/>
<path d="M3545 4269 c-329 -48 -608 -302 -691 -627 -50 -195 -27 -406 62 -587
81 -166 211 -295 379 -380 481 -240 1057 24 1196 550 27 104 29 286 4 395 -64
279 -281 520 -550 609 -142 47 -266 59 -400 40z"/>
<path d="M1761 2454 c0 -11 3 -14 6 -6 3 7 2 16 -1 19 -3 4 -6 -2 -5 -13z"/>
<path d="M1772 2410 c0 -14 3 -34 8 -45 l9 -20 -1 20 c0 11 -4 31 -8 45 l-8
25 0 -25z"/>
<path d="M1801 2294 c0 -11 3 -14 6 -6 3 7 2 16 -1 19 -3 4 -6 -2 -5 -13z"/>
<path d="M2190 2090 c0 -22 16 -43 28 -39 7 3 3 14 -8 29 -13 17 -20 20 -20
10z"/>
<path d="M2408 1698 c5 -5 16 -8 23 -6 8 3 3 7 -10 11 -17 4 -21 3 -13 -5z"/>
<path d="M3310 858 c0 -4 7 -8 15 -8 8 0 15 4 15 8 0 5 -7 9 -15 9 -8 0 -15
-4 -15 -9z"/>
</g>
</svg>
