<svg width="198" height="198" viewBox="0 0 198 198" fill="none" xmlns="http://www.w3.org/2000/svg">
<g opacity="0.8">
<path d="M71.046 141.122C70.5571 140.898 70.0818 140.645 69.6224 140.365C67.1621 139.62 64.5347 139.63 62.0806 140.396C62.0042 140.415 61.9233 140.404 61.8549 140.365C61.8209 140.346 61.7913 140.32 61.7676 140.288C61.744 140.257 61.7268 140.222 61.7172 140.184C61.7072 140.146 61.7048 140.107 61.71 140.068C61.7153 140.029 61.7281 139.992 61.7478 139.958C61.7675 139.924 61.7936 139.895 61.8247 139.871C61.8558 139.848 61.8913 139.83 61.9291 139.821C64.3078 139.094 66.8382 139.02 69.2551 139.608C66.7573 132.114 66.1059 120.996 67.4988 114.588C65.6337 113.91 65.2674 113.768 65.3476 113.528C65.3783 113.344 65.5347 113.179 65.9535 113.346C66.2415 113.49 67.5206 113.925 67.8919 114.074C68.1552 114.074 74.7308 116.922 82.2469 116.252C87.7008 115.767 92.0211 114 92.8488 108.588C93.2018 106.212 92.8324 103.785 91.7885 101.621C91.7885 101.348 90.5322 103.72 88.4868 102.832C87.8918 102.494 87.4404 101.951 87.2173 101.304C86.9942 100.657 87.0148 99.9514 87.2751 99.3186C85.9642 99.3611 84.6757 99.6703 83.4883 100.227C80.4975 101.604 80.9777 102.447 80.4599 102.136C79.5858 101.611 82.8359 99.2533 86.2752 98.8038C84.5239 94.2904 86.0415 89.2296 81.3687 84.628C77.7057 81.0215 72.2211 80.6294 67.3741 81.2056C67.4652 81.857 67.5058 82.5154 67.4959 83.1737C67.4959 83.2541 67.464 83.3311 67.4071 83.3879C67.3503 83.4447 67.2733 83.4767 67.1929 83.4767C67.1126 83.4767 67.0355 83.4447 66.9787 83.3879C66.9219 83.3311 66.89 83.2541 66.89 83.1737C66.9821 72.9767 56.7247 76.3586 58.3473 83.5074C58.671 84.933 59.3145 86.5417 60.7411 87.1426C61.1034 87.2951 60.7995 87.8129 60.4382 87.6574C59.7601 87.2812 59.1763 86.756 58.7304 86.1216C58.2846 85.4871 57.9884 84.7599 57.8642 83.9944C57.7652 84.0934 39.659 91.3937 27.6949 112.861C18.378 129.578 14.1755 154.967 21.3035 171.291C32.137 196.1 68.9225 194.061 73.524 190.011C75.0506 188.484 77.5117 178.082 75.8267 175.864C74.8842 174.625 73.2201 176.137 72.6152 176.925C70.9322 179.126 69.4293 184.152 69.2838 185.315C69.1927 185.711 68.6245 185.529 68.7076 185.164C68.8403 184.59 68.9809 184.043 69.1323 183.498C71.2163 173.639 64.1695 163.478 53.623 163.537C50.8755 163.555 48.1722 164.229 45.738 165.504C43.3039 166.778 41.2095 168.615 39.6293 170.863C39.4175 171.196 38.8977 170.891 39.1145 170.56C48.0721 156.886 70.548 162.327 70.0709 180.434C73.1577 171.947 79.2244 172.665 76.099 184.615C75.2981 188.529 74.3269 189 75.3416 188.249C91.6895 176.171 88.6284 150.65 71.046 141.122Z" fill="white"/>
<path d="M77.3772 81.4505C78.6157 74.8482 72.0015 74.1443 72.2292 80.3615C73.9894 80.4664 75.7249 80.8337 77.3772 81.4505Z" fill="white"/>
<path d="M98.784 169.862C95.8496 169.394 93.8756 175.514 93.042 179.861C92.9658 180.257 92.3757 180.073 92.4668 179.71C92.9588 177.841 93.2133 175.917 93.2242 173.985C93.1551 171.375 92.4785 168.817 91.248 166.514C90.0175 164.211 88.2671 162.227 86.1358 160.719C88.0316 170.197 85.4962 179.85 78.1702 186.678C82.3995 187.125 86.6644 187.115 90.8917 186.648C90.4254 186.648 96.4357 185.984 97.495 184.254C99.0414 181.725 101.7 170.327 98.784 169.862Z" fill="#6E864C"/>
<path d="M63.8983 112.983C62.5816 112.325 64.1577 117.515 66.7752 121.161C66.8525 118.937 67.0841 116.72 67.4683 114.528C65.6269 113.857 65.2408 113.442 63.8983 112.983Z" fill="#6E864C"/>
<path d="M85.8902 127.673C85.5586 127.889 85.2586 127.376 85.5873 127.158C86.621 126.472 87.4765 125.55 88.0831 124.467C88.489 123.727 88.6978 123.169 88.3375 122.706C88.1683 122.483 87.9553 122.296 87.7116 122.157C87.4679 122.018 87.1985 121.93 86.9198 121.898C86.3421 123.713 85.2214 125.306 83.7092 126.462C83.3796 126.68 83.0756 126.165 83.4063 125.947C84.8087 125.031 85.8394 123.646 86.3139 122.04C83.9607 122.254 81.3283 124.885 79.6809 124.584C78.1959 124.313 76.3011 123.594 74.9863 124.736C73.6409 125.899 73.9102 127.602 72.2906 130.127C71.3923 131.701 70.0115 132.943 68.3524 133.672C68.7708 135.776 69.2966 137.858 69.9274 139.909C71.3617 140.608 72.739 141.418 74.0468 142.332C76.7763 142.469 78.978 140.417 79.2572 137.001C79.4235 134.965 79.1859 133.051 81.5293 131.306C83.3598 129.943 85.7863 130.092 87.8593 126.944C88.4171 126.142 88.7326 125.196 88.7681 124.219C88.1768 125.633 87.1741 126.836 85.8902 127.673Z" fill="#6E864C"/>
<path d="M31.3659 143.607C35.8536 153.363 51.3194 150.472 50.3888 138.756C48.0157 147.755 37.6653 149.556 31.3659 143.607Z" fill="#6E864C"/>
<path d="M76.0742 100.927C77.4394 100.927 77.4394 98.3223 76.0742 98.3223C75.9752 98.3223 76.0049 98.354 76.0742 98.1095C76.3039 97.8808 76.2782 97.9669 76.3772 97.8679C76.413 97.848 76.4445 97.8213 76.47 97.7892C76.4955 97.7571 76.5144 97.7203 76.5257 97.6809C76.5369 97.6416 76.5403 97.6003 76.5356 97.5596C76.531 97.5189 76.5183 97.4795 76.4984 97.4437C76.4785 97.4079 76.4518 97.3764 76.4197 97.3509C76.3876 97.3254 76.3508 97.3065 76.3114 97.2952C76.2721 97.284 76.2308 97.2806 76.1901 97.2852C76.1494 97.2899 76.11 97.3026 76.0742 97.3224C76.0742 97.4214 75.0446 97.5739 75.0446 99.5638C75.0426 100.352 75.499 100.927 76.0742 100.927Z" fill="#875E3E"/>
<path d="M83.3443 98.4742C84.6134 98.4742 84.6728 96.0507 83.2839 96.0507C83.37 95.7943 83.3462 95.7171 83.7086 95.5359C83.7765 95.4915 83.8262 95.4241 83.8483 95.3461C83.8705 95.2681 83.8638 95.1846 83.8294 95.1112C83.5254 94.6053 82.1464 95.6646 82.3741 97.3733C82.4513 97.9564 82.7651 98.4742 83.3443 98.4742Z" fill="#875E3E"/>
<path d="M46.7849 126.886C44.594 125.599 44.4822 127.948 42.2408 124.281C41.0597 122.615 39.0906 119.676 36.6681 120.98C35.092 121.827 34.7752 123.95 34.9712 125.553C35.4138 129.164 37.664 130.374 38.7273 132.217C40.2687 134.89 38.758 137.033 38.758 136.73C38.5154 137.033 38.9431 137.46 39.1817 137.154C39.7455 136.348 40.0428 135.386 40.032 134.403C40.0212 133.419 39.7027 132.464 39.1213 131.671C38.3897 130.523 37.3393 129.639 36.6374 128.46C35.6474 126.79 35.0188 124.5 35.8801 122.674C36.2087 121.981 35.4761 124.06 37.0314 126.854C37.0608 126.906 37.1051 126.947 37.1584 126.974C37.2117 127 37.2717 127.01 37.3305 127.001C37.3893 126.993 37.4444 126.967 37.4885 126.928C37.5326 126.888 37.5637 126.836 37.5779 126.778C37.5878 126.74 37.5901 126.7 37.5846 126.661C37.5792 126.623 37.5661 126.585 37.5462 126.551C36.6757 125.074 36.374 123.329 36.6978 121.645C36.6978 121.546 37.1205 121.362 37.3344 121.281C37.7639 121.165 38.2193 121.186 38.6362 121.342C38.2771 123.19 38.6 125.105 39.545 126.733C39.7302 127.065 40.245 126.762 40.0598 126.43C39.2277 124.983 38.9279 123.29 39.2124 121.645C40.5301 122.437 41.7597 124.655 42.7556 125.946C44.2535 128.276 46.0117 125.236 48.6629 129.763C52.0161 135.489 49.7519 142.743 44.4525 145.392C39.3847 147.926 32.7596 145.188 30.4935 141.424C30.2727 141.059 29.7084 141.458 30.0084 141.758C31.301 143.636 33.111 145.099 35.2187 145.968C48.157 151.704 56.5483 133.721 46.7849 126.886Z" fill="#875E3E"/>
<path d="M78.4378 107.985C79.0777 107.985 79.0777 107.193 78.4378 107.193C77.7978 107.193 77.7978 107.985 78.4378 107.985Z" fill="#875E3E"/>
<path d="M81.9208 106.921C82.5094 107.068 82.7201 106.318 82.1028 106.164C81.4856 106.01 81.351 106.782 81.9208 106.921Z" fill="#875E3E"/>
<path d="M81.042 109.529C81.4446 109.368 81.2596 108.882 80.861 109.015C80.396 109.198 80.7304 109.654 81.042 109.529Z" fill="#875E3E"/>
<path d="M99.6109 169.656C98.4358 168.829 96.9429 169.835 96.1578 170.745C95.1181 172.059 94.3181 173.546 93.7947 175.138C93.8987 172.128 93.2294 169.141 91.8507 166.463C90.472 163.785 88.4298 161.505 85.9192 159.841C84.3387 153.09 80.4498 147.102 74.9243 142.912C75.5916 142.854 76.2407 142.663 76.8335 142.351C77.4264 142.039 77.9512 141.612 78.3774 141.096C80.9068 138.02 79.0902 134.838 81.0425 132.614C82.6215 130.815 83.9442 131.054 86.1014 129.644C91.2741 126.266 90.0337 119.592 84.7985 121.829C79.8149 123.96 81.3583 124.361 78.9833 123.798C71.3167 121.984 74.85 130.347 68.321 133.068C67.2013 127.026 67.1397 120.835 68.1388 114.771C77.1419 117.824 90.9801 118.765 93.2492 109.623C94.0214 106.7 93.6194 103.59 92.1285 100.96C93.8115 97.2544 89.3882 95.0665 87.525 98.7186C87.3123 98.7136 87.0996 98.7238 86.8884 98.7493C85.0668 94.0835 86.733 85.4744 78.0438 81.7263C79.5892 73.6568 71.2128 73.8063 71.7434 80.3937C70.2661 80.3411 68.7869 80.411 67.3211 80.6026C65.7678 73.0301 56.8637 76.0031 57.7498 82.9648C57.8785 83.6103 57.9804 83.2618 56.2648 84.1468C45.6502 89.7407 36.6248 97.931 30.0298 107.954C17.7597 126.789 14.6184 152.238 19.216 167.354C23.3898 181.078 34.4719 189.119 48.322 191.828C55.0322 193.142 72.2018 194.346 74.6144 189.617C75.7048 188.888 76.7468 188.089 77.7339 187.225C82.577 187.741 94.852 188.153 97.9071 184.948C99.4862 183.067 102.603 171.766 99.6109 169.656ZM72.2869 130.067C73.8185 127.678 73.7175 125.768 74.9827 124.674C76.2974 123.538 78.1933 124.252 79.6773 124.523C81.3514 124.83 83.3749 122.469 86.3103 121.979C85.8346 123.585 84.8042 124.969 83.4026 125.886C83.072 126.103 83.367 126.637 83.7056 126.401C85.2527 125.339 86.3885 123.778 86.9231 121.979C87.1961 121.969 87.4669 122.03 87.7096 122.156C87.9522 122.281 88.1587 122.466 88.3091 122.694C89.108 123.724 86.8063 126.286 85.5876 127.098C85.2589 127.317 85.5519 127.848 85.8905 127.613C87.1505 126.75 88.1465 125.555 88.7675 124.16C88.7497 125.14 88.4326 126.091 87.8586 126.886C85.746 130.034 83.2809 129.943 81.5286 131.248C79.1298 133.03 79.4367 135.054 79.2565 136.943C78.9179 140.494 76.6568 142.406 74.0462 142.274C72.7405 141.356 71.3629 140.546 69.9268 139.85C69.2707 137.806 68.7446 135.723 68.3517 133.613C70.0163 132.893 71.3992 131.647 72.2889 130.067H72.2869ZM74.6471 76.1803C77.3042 76.0209 77.8537 78.9196 77.3735 81.4808C75.7262 80.8512 73.9876 80.4931 72.2255 80.4205C72.1721 78.7246 72.5918 76.3031 74.6471 76.1803ZM75.2836 188.254C74.263 189.034 75.2777 188.435 76.041 184.62C79.1169 172.859 73.2264 171.803 70.0129 180.439C70.4871 162.43 48.0794 156.791 39.0566 170.565C38.8398 170.896 39.3595 171.201 39.5714 170.868C41.1397 168.608 43.2316 166.762 45.6684 165.486C48.1052 164.21 50.8145 163.543 53.565 163.542C64.0868 163.482 71.1425 173.64 69.0744 183.503C68.9229 184.048 68.7774 184.625 68.6497 185.168C68.5635 185.534 69.1645 185.714 69.2258 185.32C69.905 182.602 70.7693 179.305 72.5572 176.93C73.169 176.117 74.8183 174.605 75.7678 175.869C77.0835 177.621 75.8192 184.156 74.7481 187.462C74.493 188.362 74.0862 189.212 73.5452 189.975C72.9948 190.56 71.6444 191.319 67.8032 191.955C57.5201 193.645 44.1373 191.729 34.5521 186.104C19.1081 177.047 16.4351 160.434 18.4893 142.708C21.8415 113.746 39.1962 92.5311 57.8626 84.2349C58.0032 84.0944 58.2121 86.7327 60.3891 87.6603C60.7514 87.8138 61.0554 87.298 60.692 87.1455C59.2664 86.5446 58.6378 84.9329 58.3299 83.5103C56.7657 76.2833 66.9637 73.0232 66.8716 83.1766C66.869 83.2171 66.875 83.2576 66.8893 83.2956C66.9036 83.3335 66.9259 83.368 66.9545 83.3967C66.9832 83.4253 67.0177 83.4476 67.0556 83.4618C67.0935 83.4761 67.1341 83.4822 67.1746 83.4796C67.5191 83.4796 67.4369 83.1766 67.4775 83.1766C67.4812 82.5186 67.4409 81.8611 67.3567 81.2085C72.2028 80.6323 77.6943 81.0471 81.3504 84.6309C86.0261 89.2156 84.5184 94.3211 86.2578 98.8068C82.6255 99.281 79.5416 101.777 80.4415 102.139C81.0296 102.374 80.4416 101.588 83.471 100.23C84.6655 99.6949 85.9493 99.3867 87.2567 99.3215C86.9971 99.9544 86.9769 100.66 87.1999 101.307C87.4229 101.954 87.8739 102.497 88.4685 102.835C90.3307 103.655 91.6711 101.624 91.7701 101.624C92.8135 103.788 93.1828 106.215 92.8304 108.591C91.2613 118.782 76.2489 117.173 66.2984 113.497C65.8836 113.345 65.4074 113.048 65.3292 113.528C65.2629 113.791 65.5411 113.883 67.4795 114.588C64.8669 126.605 69.2367 139.422 69.2367 139.608C66.8195 139.023 64.29 139.097 61.9107 139.82C61.8728 139.83 61.8372 139.847 61.8059 139.871C61.7747 139.894 61.7484 139.924 61.7287 139.958C61.709 139.992 61.6962 140.029 61.6911 140.068C61.6859 140.107 61.6886 140.146 61.6989 140.184C61.7088 140.222 61.726 140.257 61.7497 140.288C61.7733 140.319 61.8028 140.345 61.8366 140.365C61.8703 140.385 61.9076 140.398 61.9463 140.403C61.9851 140.408 62.0244 140.406 62.0622 140.396C64.3571 139.711 66.7927 139.648 69.1199 140.214C69.7773 140.47 70.4148 140.774 71.0286 141.122C88.9219 150.877 91.1801 176.111 75.2876 188.254H75.2836ZM99.4852 177.895C99.0715 180.094 98.3795 182.231 97.426 184.256C95.6123 187.408 82.1543 187.233 78.1002 186.679C81.562 183.412 84.1162 179.303 85.5127 174.752C86.9092 170.202 87.1001 165.367 86.0667 160.72C88.1902 162.236 89.9348 164.222 91.1643 166.523C92.3939 168.824 93.0752 171.379 93.1551 173.986C93.1752 175.921 92.9202 177.849 92.3978 179.712C92.3067 180.108 93.0413 180.24 93.1116 179.848C95.3925 167.219 101.989 166.672 99.4892 177.895H99.4852Z" fill="#875E3E"/>
<path d="M161.025 103.24L123.63 69.788C106.23 69.788 106.655 69.9573 106.213 69.5158C88.9723 52.2719 86.0182 49.2148 76.0736 39.2703H49.5396C49.2743 39.2703 49.3703 39.3881 27.3973 17.416L25.6153 19.198L26.6152 20.1979C47.3151 40.8978 47.2072 40.8711 47.3636 40.8711H72.2879C74.2877 40.8711 73.7729 40.582 74.8619 41.673C104.588 71.4205 104.457 71.4562 104.556 71.5057C104.556 71.5057 121.304 71.3443 121.698 71.5868C122.061 71.8898 159.104 105.156 159.104 105.156L161.025 103.24Z" fill="#6E864C"/>
<path d="M153.346 111.649C152.434 112.56 151.93 112.996 151.716 113.216C151.44 113.5 151.65 113.423 152.093 113.55L180.239 118.081L180.213 116.466L153.346 111.649Z" fill="#6E864C"/>
<path d="M175.429 89.5385L167.014 97.9891C166.636 98.3663 128.843 57.8625 128.756 57.7635H112.847C111.238 57.8971 112.259 58.4178 101.912 48.0704C81.243 27.4012 81.1935 27.4239 81.1935 27.3249H55.2951C53.9556 27.3249 54.8446 27.7833 32.6082 5.54492C28.9452 14.1708 27.8087 16.9943 27.8562 16.9943L49.5402 38.6505C76.1316 38.6505 76.1187 38.599 76.4682 38.8317C76.5672 38.9069 76.4929 38.8564 105.153 67.5169C107.061 69.4257 106.618 69.1524 107.304 69.1524C123.611 69.1524 123.653 69.1287 123.752 69.1524C124.253 69.2732 123.851 69.0534 161.614 102.957C161.945 103.287 161.735 103.275 153.769 111.239C153.868 111.253 180.16 115.938 180.16 115.938L175.429 89.5385Z" fill="white"/>
<path d="M180.79 117.951C180.813 115.339 181.308 117.386 175.938 88.8102C175.803 88.0875 175.627 88.5182 166.852 97.2915C128.847 56.859 129.38 57.0094 128.565 57.1272C111.975 57.1272 112.065 57.1956 111.966 57.0965C111.853 57.0965 81.6717 26.9392 81.5846 26.8669C81.1886 26.5323 54.6249 26.6838 54.5962 26.655C54.5289 26.556 49.6996 21.7872 49.5066 21.5961C32.145 4.31074 32.8192 4.65328 32.5172 5.05819C32.2202 5.44726 32.3192 5.25619 52.539 25.473C54.3843 27.5361 54.3517 27.3243 55.2951 27.3243H81.1935C81.1935 27.4233 81.2143 27.3748 110.97 57.1302C111.564 57.7242 111.498 57.8787 112.851 57.7658C113.962 57.7658 128.745 57.847 128.745 57.847C128.745 57.847 166.48 98.5191 167.011 97.9915L175.426 89.5705L180.092 115.83C178.184 115.473 180.092 115.851 153.83 111.196L161.584 103.442C161.903 103.123 162.316 103.67 152.194 94.5671C124.125 69.3221 124.184 69.3577 124.085 69.2745C123.826 69.1013 124.077 69.1538 106.784 69.1468C76.4801 38.8449 76.5672 38.9073 76.4683 38.8311C76.0911 38.5806 76.4683 38.7103 49.5403 38.7103C32.7607 21.9308 28.872 17.6876 27.8593 16.9303C27.4633 16.6333 27.0722 17.0758 27.385 17.455C29.5225 20.0468 49.2314 39.2845 49.3264 39.334H76.0742L106.243 69.5488C106.675 69.9804 106.302 69.822 122.328 69.822C122.749 69.8517 123.172 69.8517 123.593 69.822C123.666 69.921 123.784 69.9794 160.916 103.232L159.128 105.014C146.703 93.8621 134.274 82.7153 121.841 71.5733C121.611 71.3912 121.821 71.4525 104.569 71.4456C93.8774 60.8328 100.917 67.7935 74.8912 41.6763C73.819 40.6002 74.4348 40.8893 72.3172 40.8893C47.3365 40.8893 47.3771 40.9883 47.3266 40.8893C47.3266 40.7903 46.1238 39.6923 41.6925 35.2859L25.611 19.2063C25.5548 19.1501 25.4786 19.1185 25.3991 19.1185C25.3196 19.1185 25.2434 19.1501 25.1872 19.2063C25.1311 19.2625 25.0995 19.3387 25.0995 19.4181C25.0995 19.4976 25.1311 19.5738 25.1872 19.63L46.7534 41.1942C47.2187 41.7258 46.8059 41.5278 73.924 41.5278L104.093 71.6971C104.541 72.1436 104.135 71.9693 121.508 71.9683C121.655 72.1822 121.416 72.0673 158.697 105.446C153.309 110.835 151.455 112.585 150.931 113.236C150.678 113.55 150.608 113.74 151.359 113.861C172.735 117.294 178.772 118.358 180.35 118.44C181.009 118.474 180.789 118.008 180.79 117.951ZM180.183 117.981C151.692 113.435 151.749 113.421 151.649 113.407L153.315 111.679L179.88 116.405C180.28 116.486 180.181 116.177 180.181 117.981H180.183Z" fill="#875E3E"/>
<path d="M80.7392 14.6298L102.579 35.8327C102.852 36.1059 103.278 35.6792 103.003 35.409C81.3728 14.0923 81.647 14.6021 81.2233 14.2358C80.7847 13.8002 80.467 14.6298 80.7392 14.6298Z" fill="#875E3E"/>
<path d="M97.2183 76.6339C97.5232 76.9388 97.9469 76.5151 97.6727 76.2379L75.862 55.036C75.8342 55.008 75.8011 54.9857 75.7646 54.9704C75.7281 54.9552 75.689 54.9473 75.6494 54.9473C75.6099 54.9472 75.5708 54.955 75.5342 54.9701C75.4977 54.9852 75.4645 55.0074 75.4366 55.0354C75.4087 55.0634 75.3866 55.0966 75.3715 55.1331C75.3565 55.1697 75.3488 55.2089 75.349 55.2484C75.3492 55.2879 75.3571 55.327 75.3724 55.3635C75.3878 55.3999 75.4101 55.433 75.4383 55.4607C97.047 76.7675 96.9213 76.3785 97.2183 76.6339Z" fill="#875E3E"/>
<path d="M150.77 67.7281C150.813 67.7694 150.866 67.7975 150.924 67.8088C150.982 67.82 151.042 67.814 151.096 67.7914C151.151 67.7688 151.198 67.7307 151.231 67.6818C151.264 67.6328 151.282 67.5752 151.282 67.5162C151.282 67.4768 151.274 67.4378 151.259 67.4015C151.244 67.3651 151.222 67.3321 151.194 67.3043L140.26 56.7331C140.218 56.6913 140.164 56.6628 140.106 56.6512C140.048 56.6397 139.988 56.6457 139.933 56.6683C139.878 56.691 139.831 56.7293 139.799 56.7786C139.766 56.8278 139.748 56.8857 139.748 56.945C139.748 57.0242 139.779 57.1004 139.836 57.1568L150.77 67.7281Z" fill="#875E3E"/>
<path d="M65.6542 17.4165C65.7105 17.4728 65.7869 17.5045 65.8665 17.5045C65.906 17.5045 65.945 17.4967 65.9815 17.4816C66.0179 17.4665 66.051 17.4444 66.0789 17.4165C66.1068 17.3886 66.1289 17.3555 66.144 17.3191C66.1591 17.2826 66.1669 17.2436 66.1669 17.2041C66.1669 17.1647 66.1591 17.1257 66.144 17.0892C66.1289 17.0528 66.1068 17.0197 66.0789 16.9918L55.1136 6.39087C54.8404 6.14832 54.4207 6.57204 54.7177 6.81459L65.6542 17.4165Z" fill="#875E3E"/>
<path d="M44.0274 50.4018C44.0837 50.4576 44.1598 50.4889 44.239 50.4888C44.3183 50.4886 44.3943 50.4571 44.4504 50.4011C44.5066 50.3452 44.5382 50.2692 44.5385 50.19C44.5388 50.1107 44.5078 50.0345 44.4521 49.9781L33.4868 39.4366C33.4292 39.3877 33.3552 39.3623 33.2797 39.3655C33.2042 39.3687 33.1326 39.4001 33.0792 39.4536C33.0258 39.5071 32.9946 39.5788 32.9916 39.6543C32.9886 39.7298 33.0141 39.8037 33.0631 39.8613C33.0671 39.7613 32.6206 39.1881 44.0274 50.4018Z" fill="#875E3E"/>
<path d="M113.392 107.474V110.923C113.8 111.245 114.305 111.418 114.825 111.416C115.344 111.413 115.848 111.233 116.252 110.907C116.252 106.896 116.583 109.837 113.392 107.474Z" fill="white"/>
<path d="M133.171 144.182C131.944 144.64 130.627 144.806 129.325 144.666C129.245 146.325 129.648 148.125 130.018 146.089C130.021 146.05 130.033 146.011 130.052 145.976C130.071 145.941 130.097 145.909 130.128 145.884C130.159 145.859 130.194 145.84 130.232 145.828C130.271 145.817 130.311 145.813 130.351 145.817C130.39 145.821 130.429 145.832 130.464 145.851C130.5 145.87 130.531 145.896 130.556 145.927C130.581 145.958 130.6 145.993 130.612 146.032C130.623 146.07 130.627 146.11 130.623 146.15C130.623 150.345 130.979 147.089 131.078 147.089C131.077 147.011 131.1 146.935 131.143 146.87C131.186 146.805 131.248 146.755 131.32 146.726C131.831 146.627 131.59 147.263 132.112 148.301C132.211 148.301 132.385 147.442 132.385 147.212C132.385 146.848 132.484 146.788 132.657 146.788C132.954 146.74 132.954 146.949 133.172 147.606C133.4 148.062 133.354 147.946 133.354 147.818C133.389 146.603 133.328 145.387 133.171 144.182Z" fill="white"/>
<path d="M117.087 108.197C122.619 108.402 125.799 101.434 122.539 96.4741C118.268 96.0504 117.542 92.8398 117.542 92.8398C117.542 92.8398 117.48 93.6249 114.815 94.3248C112.512 94.9287 111.548 98.6561 111.302 99.656C111.653 100.36 111.444 100.474 111.544 100.474C111.564 100.55 111.553 100.631 111.514 100.699C111.473 100.767 111.408 100.817 111.331 100.837C110.647 100.974 111.143 99.2145 109.635 98.9897C106.788 98.565 107.404 103.475 110.484 103.321C110.308 102.751 109.791 100.565 110.424 100.565C111.266 100.565 109.942 103.182 112.816 106.229C113.925 107.422 115.46 108.129 117.087 108.197Z" fill="white"/>
<path d="M129.484 120.636C127.098 115.599 125.212 111.907 120.048 110.947C119.314 114.565 117.986 118.037 116.118 121.221C114.995 120.709 111.281 116.008 109.345 111.054C101.47 111.684 92.7591 124.972 94.6421 134.277C95.1264 136.422 96.2662 138.363 97.9034 139.831C99.5405 141.298 101.594 142.221 103.779 142.469C110.166 142.874 115.548 143.756 124.685 141.473C125.526 141.473 126.19 140.664 126.675 139.493C127.491 143.255 127.145 144.146 130.476 144.146C131.911 144.069 134.307 143.448 135.117 142.562C136.312 140.621 133.301 128.7 129.484 120.636Z" fill="white"/>
<path d="M114.876 112.195L112.089 115.648C113.111 117.446 114.398 119.08 115.907 120.494C116.704 118.978 117.421 117.421 118.057 115.831C118.169 115.607 118.532 116.1 114.876 112.195Z" fill="#6E864C"/>
<path d="M115.453 111.953L118.36 115.072C118.899 113.752 119.265 112.367 119.449 110.953L116.784 110.166C116.878 111.006 116.92 111.587 115.453 111.953Z" fill="#6E864C"/>
<path d="M113.029 111.375C112.758 111.162 112.817 110.851 112.817 109.981C111.761 110.165 110.733 110.48 109.757 110.921C110.334 112.345 111.002 113.731 111.756 115.07L114.27 111.951C113.812 111.874 113.383 111.675 113.029 111.375Z" fill="#6E864C"/>
<path d="M116.257 108.635C113.065 108.072 113.422 106.715 113.422 108.076C113.719 108.592 114.128 109.035 114.618 109.372C115.109 109.709 115.669 109.932 116.257 110.025V108.635Z" fill="#6E864C"/>
<path d="M125.66 144C125.462 143.004 125.452 141.932 124.66 142.031C119.086 143.464 113.302 143.895 107.577 143.303C105.849 143.075 105.984 143.06 105.85 143.06C104.292 146.565 110.806 155.217 109.727 171.928C109.568 174.393 108.915 176.355 109.152 177.41C109.302 178.008 109.665 178.531 110.172 178.882C110.679 179.233 111.296 179.388 111.908 179.318C115.139 179.508 115.023 177.034 115.15 175.047C115.632 167.472 116.355 161.11 114.967 151.724C114.718 150.035 114.503 148.023 116.24 147.362C121.307 145.433 121.821 154.606 122.025 159.599C122.183 163.46 122.965 167.401 122.965 173.684C122.965 177.401 122.453 177.999 123.055 178.925C123.249 179.218 123.516 179.455 123.829 179.614C124.142 179.773 124.491 179.849 124.842 179.833C128.36 179.76 128.544 178.767 128.537 176.622C128.645 165.68 127.682 154.754 125.66 144Z" fill="#6E864C"/>
<path d="M115.391 99.9901C115.348 99.9767 115.301 99.9773 115.258 99.9917C115.215 100.006 115.178 100.034 115.151 100.07C115.125 100.107 115.11 100.151 115.11 100.197C115.109 100.242 115.123 100.287 115.149 100.324C115.37 100.655 115.119 100.506 115.119 100.99C115.119 102.289 116.912 101.509 115.391 99.9901Z" fill="#875E3E"/>
<path d="M119.934 103.895C120.114 104.26 120.627 103.928 120.449 103.592C118.835 100.501 119.069 101.542 119.54 98.8665C119.605 98.5041 119.026 98.322 118.965 98.715C118.318 101.822 118.243 100.457 119.934 103.895Z" fill="#875E3E"/>
<path d="M116.059 106.198C116.505 106.014 116.99 105.942 117.471 105.99C117.951 106.037 118.413 106.202 118.815 106.47C119.02 106.881 119.563 106.401 119.269 106.107C118.809 105.711 118.245 105.455 117.644 105.369C117.042 105.283 116.429 105.371 115.876 105.622C115.543 105.713 115.698 106.327 116.059 106.198Z" fill="#875E3E"/>
<path d="M121.267 100.049C121.108 99.7296 120.61 99.88 120.964 100.352C120.64 100.783 120.88 101.503 121.267 101.503C121.762 101.503 121.882 100.503 121.479 100.261L121.267 100.049Z" fill="#875E3E"/>
<path d="M114.147 99.5634C115.209 99.3365 116.143 98.7071 116.752 97.8072C116.79 97.7353 116.8 97.6515 116.779 97.5726C116.763 97.5141 116.73 97.4614 116.685 97.4207C116.64 97.3801 116.584 97.353 116.524 97.3426C116.465 97.3322 116.403 97.339 116.347 97.3622C116.291 97.3854 116.242 97.424 116.207 97.4736C115.712 98.4636 114.281 98.7606 113.949 98.8516C113.307 99.0378 113.85 99.6228 114.147 99.5634Z" fill="#875E3E"/>
<path d="M122.328 99.3214C122.365 99.3367 122.405 99.3443 122.445 99.3437C122.486 99.343 122.526 99.3342 122.563 99.3177C122.599 99.3011 122.633 99.2773 122.66 99.2476C122.687 99.2179 122.708 99.1829 122.722 99.1448C122.735 99.1067 122.741 99.0663 122.738 99.026C122.735 98.9857 122.725 98.9464 122.706 98.9104C122.688 98.8744 122.662 98.8425 122.631 98.8167C122.6 98.7908 122.564 98.7716 122.526 98.7601C121.915 98.5155 121.693 98.0671 121.309 97.4305C121.111 97.1117 120.715 97.3424 120.765 97.676C120.888 98.0487 121.092 98.3895 121.362 98.674C121.632 98.9586 121.962 99.1796 122.328 99.3214Z" fill="#875E3E"/>
<path d="M126.538 114.467C124.276 111.101 121.046 110.744 116.814 109.529C116.814 108.122 116.724 109.314 119.177 108.53C120.783 108.772 124.569 109.256 126.387 108.742C128.749 108.074 127.164 104.236 126.387 103.108C125.61 101.98 126.568 98.356 127.962 97.6857C129.744 96.8343 124.747 84.5791 115.33 88.7807C115.33 88.7807 113.392 87.1145 109.39 88.2659C105.389 89.4172 104.424 95.3533 104.817 97.656C105.21 99.9588 106.209 102.229 104.726 103.835C103.271 105.41 102.636 107.227 103.333 108.686C104.03 110.144 105.418 107.661 106.906 108.686C108.236 109.599 112.054 108.867 112.814 108.715C112.814 109.953 113.494 108.725 109.3 110.473C103.286 110.859 97.8489 117.591 95.5175 123.406C90.4596 136.021 97.845 143.653 105.271 142.761C104.828 143.559 105.166 145.712 105.331 146.609C106.352 152.117 108.888 156.014 109.149 166.933C109.359 175.775 107.376 177.031 109.361 179.019C108.406 182.105 108.006 185.335 108.179 188.561C108.33 188.985 109.361 188.924 109.481 188.773C109.602 188.621 109.996 186.743 110.421 186.865C110.846 186.987 111.451 188.561 111.996 188.894C113.896 189.311 115.854 189.393 117.782 189.136C118.538 188.803 117.358 187.376 115.327 186.986C113.571 186.649 113.268 181.261 113.207 179.868C113.832 179.719 114.395 179.38 114.819 178.897C115.242 178.414 115.505 177.811 115.57 177.172C118.05 153.786 113.324 148.923 116.57 147.941C121.041 146.316 121.243 156.728 121.447 160.845C121.603 164.022 122.868 170.828 122.14 177.656C122.103 178.036 122.149 178.42 122.274 178.781C122.4 179.142 122.602 179.472 122.867 179.747C122.461 182.293 122.103 188.007 122.322 188.621C122.473 189.046 123.503 188.985 123.625 188.834C123.746 188.684 124.138 186.808 124.563 186.925C125.017 187.05 125.593 188.621 126.138 188.955C128.048 189.376 130.016 189.458 131.954 189.197C132.714 188.87 131.501 187.433 129.5 187.046C127.745 186.708 127.441 181.534 127.381 180.201C129.704 179.381 129.084 176.816 129.046 173.385C128.875 157.97 126.509 142.547 125.532 141.732C125.896 141.485 126.212 141.177 126.472 140.823C126.868 142.878 127.003 144.03 128.774 144.579C128.698 146.091 128.93 148.385 130.046 147.549C130.108 148.11 130.145 149.24 130.838 149.093C130.98 149.025 131.104 148.923 131.199 148.797C131.294 148.67 131.357 148.523 131.382 148.367C131.764 149.322 132.462 149.436 132.806 148.336C133.337 149.045 133.803 148.868 133.927 148.245C134.021 146.841 133.981 145.432 133.806 144.036C133.905 144.036 136.065 143.338 135.866 141.369C134.821 131.041 130.515 120.384 126.538 114.467ZM112.817 109.984C112.817 111.092 112.774 111.172 113.029 111.377C113.387 111.677 113.813 111.885 114.27 111.983L111.756 115.103C111.002 113.764 110.334 112.377 109.758 110.953C110.728 110.489 111.757 110.164 112.817 109.984ZM119.48 110.953C119.286 112.365 118.92 113.748 118.391 115.072L115.484 111.953C117.057 111.557 116.847 110.903 116.847 110.171L119.48 110.953ZM113.423 107.53C116.654 109.807 116.209 107.122 116.209 110.923C115.817 111.246 115.324 111.422 114.816 111.422C114.308 111.422 113.815 111.246 113.423 110.923V107.53ZM114.876 112.195C118.448 116.007 117.999 115.561 118.178 115.648C118.079 115.846 117.422 117.607 116.179 120.04C116.08 120.191 115.999 120.355 115.936 120.525C114.427 119.109 113.141 117.474 112.12 115.674L114.876 112.195ZM114.816 94.3237C117.481 93.6248 117.542 92.8387 117.542 92.8387C117.542 92.8387 118.269 96.08 122.54 96.473C125.699 101.356 122.696 108.403 117.088 108.196C113.273 108.054 110.727 104.584 110.727 100.87C110.727 100.83 110.719 100.79 110.704 100.754C110.688 100.717 110.666 100.684 110.638 100.656C110.596 100.613 110.542 100.583 110.483 100.571C110.424 100.559 110.363 100.564 110.307 100.587C110.251 100.61 110.204 100.65 110.171 100.7C110.137 100.75 110.12 100.809 110.121 100.87C110.123 101.701 110.245 102.527 110.484 103.323C110.041 103.339 109.601 103.24 109.207 103.035C108.813 102.83 108.48 102.527 108.238 102.155C107.997 101.782 107.857 101.353 107.831 100.91C107.806 100.467 107.895 100.025 108.091 99.6271C108.857 98.6064 110.607 98.651 110.968 100.627C111.036 100.99 111.996 101.047 111.302 99.6578C111.545 98.6549 112.513 94.9276 114.816 94.3237ZM125.387 142.758C127.586 153.019 128.477 167.31 128.477 177.744C128.477 179.625 126.649 179.856 124.781 179.895C124.431 179.91 124.083 179.834 123.771 179.675C123.458 179.516 123.193 179.279 122.999 178.987C122.674 178.264 122.599 177.454 122.787 176.684C123.245 170.108 121.56 154.169 121.545 154.057C121.192 151.451 120.06 145.947 116.184 147.424C112.806 148.711 116.671 152.116 115.306 172.142C115.004 176.569 115.283 178.433 113.337 179.229C112.328 179.535 111.243 179.471 110.277 179.048C108.527 178.129 109.094 176.303 109.308 174.898C111.707 159.134 105.598 149.562 105.645 143.942C105.652 143.15 105.933 143.05 105.797 143.124C111.159 143.985 116.636 143.831 121.942 142.669C124.614 142.142 125.225 141.63 125.387 142.758ZM130.688 148.454C130.658 148.484 130.688 148.484 130.688 148.454V148.454ZM130.84 148.484C130.811 148.454 130.84 148.453 130.84 148.483V148.484ZM133.384 147.845C133.384 147.966 133.431 148.09 133.202 147.633C133.004 147.039 132.985 146.814 132.687 146.814C132.257 146.887 132.56 147.329 132.172 148.299C132.172 148.304 132.171 148.307 132.17 148.311L132.163 148.321C132.16 148.323 132.157 148.326 132.153 148.327C132.15 148.328 132.146 148.329 132.142 148.329C131.647 147.33 131.862 146.653 131.354 146.754C131.282 146.783 131.22 146.834 131.177 146.899C131.134 146.963 131.111 147.04 131.112 147.117C131.211 147.117 130.834 148.2 130.809 148.299C130.652 147.604 130.601 146.889 130.658 146.179C130.73 145.745 130.052 145.743 130.052 146.118C130.032 146.218 129.826 147.057 129.628 147.057C129.4 146.291 129.308 145.492 129.355 144.695C130.657 144.835 131.975 144.669 133.202 144.21C133.355 145.416 133.417 146.631 133.384 147.847V147.845ZM134.928 142.544C134.098 143.457 131.986 144.062 130.597 144.149C127.576 144.338 127.483 142.795 127.204 141.393C126.775 139.227 126.879 140.857 127.719 138.212C129.145 133.728 128.369 131.144 124.326 117.224C124.317 117.186 124.3 117.151 124.276 117.12C124.253 117.088 124.223 117.062 124.189 117.042C124.155 117.023 124.118 117.01 124.079 117.005C124.04 117 124.001 117.002 123.963 117.013C123.925 117.022 123.89 117.039 123.858 117.063C123.827 117.086 123.801 117.116 123.781 117.15C123.761 117.184 123.749 117.221 123.743 117.26C123.738 117.299 123.741 117.338 123.751 117.376C123.85 117.376 127.623 131.245 127.75 133.127C127.94 135.957 126.999 140.826 124.483 141.457C124.582 141.457 115.16 143.997 106.491 142.577C110.786 141.401 113.103 136.962 114.185 132.642C114.921 129.698 115.637 127.098 113.125 125.316H113.094C113.119 125.258 113.129 125.196 113.125 125.133C112.782 124.022 113.271 123.592 112.822 122.408C112.671 122.012 112.276 121.529 111.822 121.832C111.761 121.863 111.731 121.923 111.67 121.954C111.652 121.821 111.595 121.698 111.506 121.597C111.418 121.497 111.303 121.425 111.174 121.389C111.045 121.354 110.909 121.357 110.782 121.398C110.655 121.439 110.542 121.516 110.459 121.62C110.459 121.18 110.646 120.643 110.186 120.287C109.438 119.708 108.116 121.698 108.701 124.043C106.001 124.7 106.008 128.581 105.278 130.768C104.585 132.163 103.675 131.317 103.491 129.769C103.429 129.244 103.575 128.829 103.157 128.829C102.323 128.829 103.171 132.77 105.066 131.919C106.887 131.1 105.963 124.934 109.156 124.558C111.136 124.325 114.601 126.097 114.365 128.981C114.176 130.563 113.841 132.125 113.365 133.645C110.761 142.203 104.903 143.912 99.6438 140.946C88.0727 134.419 98.3657 112.372 109.307 111.109C111.35 116.397 115.594 121.906 116.304 121.196C116.799 120.701 119.794 114.523 120.151 111.079C122.341 111.449 124.328 112.587 125.754 114.29C131.193 121.368 136.646 140.065 134.928 142.546V142.544ZM109.242 123.916C109.004 122.931 109.145 121.893 109.638 121.007C109.716 120.945 109.787 120.874 109.85 120.795C109.88 120.904 109.88 121.02 109.85 121.129C109.569 123.658 110.516 123.179 110.486 122.794C110.59 122.794 110.434 122.483 110.729 122.189C111.19 121.727 111.176 121.966 111.061 123.097C111.028 123.431 111.609 123.522 111.667 123.188C111.718 122.9 112.182 122.042 112.182 122.461C112.642 123.379 112.259 123.73 112.425 124.885C111.486 124.247 110.376 123.91 109.242 123.918V123.916Z" fill="#875E3E"/>
<path d="M114.543 101.866C114.353 101.861 114.163 101.894 113.986 101.963C113.809 102.032 113.648 102.136 113.512 102.269C113.376 102.402 113.267 102.56 113.193 102.735C113.12 102.911 113.081 103.099 113.081 103.289C113.081 103.479 113.12 103.667 113.193 103.842C113.267 104.017 113.376 104.176 113.512 104.309C113.648 104.441 113.809 104.545 113.986 104.615C114.163 104.684 114.353 104.717 114.543 104.712C114.914 104.702 115.266 104.548 115.525 104.282C115.784 104.016 115.929 103.66 115.929 103.289C115.929 102.918 115.784 102.561 115.525 102.296C115.266 102.03 114.914 101.876 114.543 101.866Z" fill="#6E864C"/>
<path d="M122.6 101.835C122.79 101.83 122.979 101.864 123.156 101.933C123.334 102.002 123.495 102.106 123.631 102.239C123.767 102.371 123.876 102.53 123.949 102.705C124.023 102.88 124.061 103.068 124.061 103.259C124.061 103.449 124.023 103.637 123.949 103.812C123.876 103.987 123.767 104.146 123.631 104.278C123.495 104.411 123.334 104.515 123.156 104.584C122.979 104.654 122.79 104.687 122.6 104.682C122.229 104.672 121.877 104.518 121.618 104.252C121.359 103.986 121.214 103.63 121.214 103.259C121.214 102.888 121.359 102.531 121.618 102.265C121.877 101.999 122.229 101.845 122.6 101.835Z" fill="#6E864C"/>
</g>
</svg>
