<svg width="146" height="153" viewBox="0 0 146 153" fill="none" xmlns="http://www.w3.org/2000/svg">
<g clip-path="url(#clip0_591_54)">
<mask id="mask0_591_54" style="mask-type:luminance" maskUnits="userSpaceOnUse" x="-18" y="-509" width="384" height="2033">
<path d="M365.113 1523.7L365.113 -508.158H-17.8139L-17.8139 1523.7H365.113Z" fill="white"/>
</mask>
<g mask="url(#mask0_591_54)">
<path fill-rule="evenodd" clip-rule="evenodd" d="M128.688 84.1286C128.184 83.5388 128.112 55.0646 128.244 54.5383C128.375 54.0104 131.06 51.7472 131.06 51.7472C131.06 51.7472 130.466 47.0397 131.873 47.0567C133.525 47.0768 133.329 51.7193 133.329 51.7193C133.329 51.7193 137.026 54.0212 137.307 54.5274C137.587 55.0321 138.368 84.0001 138.01 84.2246C137.651 84.4491 129.192 84.7184 128.688 84.1286Z" fill="#E8E8E8"/>
</g>
<mask id="mask1_591_54" style="mask-type:luminance" maskUnits="userSpaceOnUse" x="-18" y="-509" width="384" height="2033">
<path d="M365.113 1523.7L365.113 -508.158H-17.8139L-17.8139 1523.7H365.113Z" fill="white"/>
</mask>
<g mask="url(#mask1_591_54)">
<path fill-rule="evenodd" clip-rule="evenodd" d="M94.9236 84.1286C94.4193 83.5388 94.3475 55.0646 94.4789 54.5383C94.6102 54.0104 97.2956 51.7472 97.2956 51.7472C97.2956 51.7472 96.7013 47.0397 98.1079 47.0567C99.7606 47.0768 99.5644 51.7193 99.5644 51.7193C99.5644 51.7193 103.262 54.0212 103.542 54.5274C103.822 55.0321 104.604 84.0001 104.245 84.2246C103.887 84.4491 95.4276 84.7184 94.9236 84.1286Z" fill="#E8E8E8"/>
</g>
<mask id="mask2_591_54" style="mask-type:luminance" maskUnits="userSpaceOnUse" x="-18" y="-509" width="384" height="2033">
<path d="M365.113 1523.7L365.113 -508.158H-17.8139L-17.8139 1523.7H365.113Z" fill="white"/>
</mask>
<g mask="url(#mask2_591_54)">
<path fill-rule="evenodd" clip-rule="evenodd" d="M83.2981 84.1286C82.7938 83.5388 82.7221 55.0646 82.8534 54.5383C82.9847 54.0104 85.6701 51.7472 85.6701 51.7472C85.6701 51.7472 85.0758 47.0397 86.4824 47.0567C88.1351 47.0768 87.9389 51.7193 87.9389 51.7193C87.9389 51.7193 91.6363 54.0212 91.9164 54.5274C92.1964 55.0321 92.9782 84.0001 92.6198 84.2246C92.2613 84.4491 83.8021 84.7184 83.2981 84.1286Z" fill="#E8E8E8"/>
</g>
<mask id="mask3_591_54" style="mask-type:luminance" maskUnits="userSpaceOnUse" x="-18" y="-509" width="384" height="2033">
<path d="M365.113 1523.7L365.113 -508.158H-17.8139L-17.8139 1523.7H365.113Z" fill="white"/>
</mask>
<g mask="url(#mask3_591_54)">
<path fill-rule="evenodd" clip-rule="evenodd" d="M71.6731 84.1286C71.1688 83.5388 71.0971 55.0646 71.2284 54.5383C71.3597 54.0104 74.0451 51.7472 74.0451 51.7472C74.0451 51.7472 73.4508 47.0397 74.8574 47.0567C76.5101 47.0768 76.3139 51.7193 76.3139 51.7193C76.3139 51.7193 80.0113 54.0212 80.2914 54.5274C80.5714 55.0321 81.3532 84.0001 80.9948 84.2246C80.6363 84.4491 72.1771 84.7184 71.6731 84.1286Z" fill="#E8E8E8"/>
</g>
<mask id="mask4_591_54" style="mask-type:luminance" maskUnits="userSpaceOnUse" x="-18" y="-509" width="384" height="2033">
<path d="M365.113 1523.7L365.113 -508.158H-17.8139L-17.8139 1523.7H365.113Z" fill="white"/>
</mask>
<g mask="url(#mask4_591_54)">
<path fill-rule="evenodd" clip-rule="evenodd" d="M60.3096 53.6621C61.1454 52.8215 62.42 51.7472 62.42 51.7472C62.42 51.7472 61.8258 47.0397 63.2324 47.0567C64.8851 47.0768 64.6889 51.7193 64.6889 51.7193C64.6889 51.7193 68.3863 54.0212 68.6664 54.5274C68.9464 55.0321 69.7282 84.0001 69.3697 84.2246C69.0112 84.4491 60.5521 84.7184 60.0481 84.1286C59.7825 83.8174 59.6369 75.7724 59.5776 68.1484C61.325 67.1221 62.2816 65.8357 61.6623 63.7598C61.1931 62.1854 60.6519 57.1374 60.3096 53.6621Z" fill="#E8E8E8"/>
</g>
<mask id="mask5_591_54" style="mask-type:luminance" maskUnits="userSpaceOnUse" x="-18" y="-509" width="384" height="2033">
<path d="M365.113 1523.7L365.113 -508.158H-17.8139L-17.8139 1523.7H365.113Z" fill="white"/>
</mask>
<g mask="url(#mask5_591_54)">
<path fill-rule="evenodd" clip-rule="evenodd" d="M57.6222 69.0972C57.7599 74.4564 57.8568 79.8651 57.8327 82.5277C56.7581 82.3265 55.7334 82.2027 54.7716 82.1764C53.7727 82.147 52.6891 82.5107 51.5182 83.0463C50.6896 78.8017 52.0873 72.9084 52.8624 70.9377C54.5303 70.2597 56.1907 69.6963 57.6222 69.0972Z" fill="#E8E8E8"/>
</g>
<mask id="mask6_591_54" style="mask-type:luminance" maskUnits="userSpaceOnUse" x="-18" y="-509" width="384" height="2033">
<path d="M365.113 1523.7L365.113 -508.158H-17.8139L-17.8139 1523.7H365.113Z" fill="white"/>
</mask>
<g mask="url(#mask6_591_54)">
<path fill-rule="evenodd" clip-rule="evenodd" d="M25.0347 83.1858C24.6691 78.3513 24.6129 56.6388 24.7154 54.6729C25.6845 56.6605 26.8107 58.5971 27.966 60.3541C32.4434 67.1607 32.4679 70.766 33.2872 70.5725C33.2985 70.5694 33.3096 70.5679 33.3207 70.5648C33.2669 72.8094 33.2272 78.4566 31.1365 82.0341C31.0642 81.9582 30.9937 81.9149 30.9194 81.9118C29.7583 81.8762 27.4991 82.3932 25.0347 83.1858Z" fill="#E8E8E8"/>
</g>
<mask id="mask7_591_54" style="mask-type:luminance" maskUnits="userSpaceOnUse" x="-18" y="-509" width="384" height="2033">
<path d="M365.113 1523.7L365.113 -508.158H-17.8139L-17.8139 1523.7H365.113Z" fill="white"/>
</mask>
<g mask="url(#mask7_591_54)">
<path fill-rule="evenodd" clip-rule="evenodd" d="M13.5471 84.1286C13.0429 83.5388 12.9711 55.0646 13.1025 54.5383C13.2337 54.0104 15.9191 51.7472 15.9191 51.7472C15.9191 51.7472 15.3249 47.0397 16.7315 47.0567C18.3842 47.0768 18.1879 51.7193 18.1879 51.7193C18.1879 51.7193 21.8853 54.0212 22.1654 54.5274C22.4455 55.0321 23.2273 84.0001 22.8688 84.2246C22.5103 84.4491 14.0512 84.7184 13.5471 84.1286Z" fill="#E8E8E8"/>
</g>
<mask id="mask8_591_54" style="mask-type:luminance" maskUnits="userSpaceOnUse" x="-18" y="-509" width="384" height="2033">
<path d="M365.113 1523.7L365.113 -508.158H-17.8139L-17.8139 1523.7H365.113Z" fill="white"/>
</mask>
<g mask="url(#mask8_591_54)">
<path fill-rule="evenodd" clip-rule="evenodd" d="M135.964 42.7502C135.46 42.1604 135.388 13.6862 135.519 13.1598C135.651 12.632 138.336 10.3688 138.336 10.3688C138.336 10.3688 137.742 5.66124 139.148 5.67827C140.801 5.69839 140.605 10.3409 140.605 10.3409C140.605 10.3409 144.302 12.6428 144.582 13.149C144.862 13.6537 145.644 42.6217 145.286 42.8462C144.927 43.0706 136.468 43.34 135.964 42.7502Z" fill="#E8E8E8"/>
</g>
<mask id="mask9_591_54" style="mask-type:luminance" maskUnits="userSpaceOnUse" x="-18" y="-509" width="384" height="2033">
<path d="M365.113 1523.7L365.113 -508.158H-17.8139L-17.8139 1523.7H365.113Z" fill="white"/>
</mask>
<g mask="url(#mask9_591_54)">
<path fill-rule="evenodd" clip-rule="evenodd" d="M124.748 42.7502C124.244 42.1604 124.172 13.6862 124.304 13.1598C124.435 12.632 127.12 10.3688 127.12 10.3688C127.12 10.3688 126.526 5.66124 127.933 5.67827C129.585 5.69839 129.389 10.3409 129.389 10.3409C129.389 10.3409 133.087 12.6428 133.367 13.149C133.647 13.6537 134.428 42.6217 134.07 42.8462C133.711 43.0706 125.252 43.34 124.748 42.7502Z" fill="#E8E8E8"/>
</g>
<mask id="mask10_591_54" style="mask-type:luminance" maskUnits="userSpaceOnUse" x="-18" y="-509" width="384" height="2033">
<path d="M365.113 1523.7L365.113 -508.158H-17.8139L-17.8139 1523.7H365.113Z" fill="white"/>
</mask>
<g mask="url(#mask10_591_54)">
<path fill-rule="evenodd" clip-rule="evenodd" d="M113.532 42.7502C113.028 42.1604 112.956 13.6862 113.088 13.1598C113.219 12.632 115.904 10.3688 115.904 10.3688C115.904 10.3688 115.31 5.66124 116.717 5.67827C118.37 5.69839 118.173 10.3409 118.173 10.3409C118.173 10.3409 121.871 12.6428 122.151 13.149C122.431 13.6537 123.213 42.6217 122.854 42.8462C122.496 43.0706 114.037 43.34 113.532 42.7502Z" fill="#E8E8E8"/>
</g>
<mask id="mask11_591_54" style="mask-type:luminance" maskUnits="userSpaceOnUse" x="-18" y="-509" width="384" height="2033">
<path d="M365.113 1523.7L365.113 -508.158H-17.8139L-17.8139 1523.7H365.113Z" fill="white"/>
</mask>
<g mask="url(#mask11_591_54)">
<path fill-rule="evenodd" clip-rule="evenodd" d="M102.317 42.7502C101.812 42.1604 101.741 13.6862 101.872 13.1598C102.003 12.632 104.689 10.3688 104.689 10.3688C104.689 10.3688 104.094 5.66124 105.501 5.67827C107.154 5.69839 106.957 10.3409 106.957 10.3409C106.957 10.3409 110.655 12.6428 110.935 13.149C111.215 13.6537 111.997 42.6217 111.638 42.8462C111.28 43.0706 102.821 43.34 102.317 42.7502Z" fill="#E8E8E8"/>
</g>
<mask id="mask12_591_54" style="mask-type:luminance" maskUnits="userSpaceOnUse" x="-18" y="-509" width="384" height="2033">
<path d="M365.113 1523.7L365.113 -508.158H-17.8139L-17.8139 1523.7H365.113Z" fill="white"/>
</mask>
<g mask="url(#mask12_591_54)">
<path fill-rule="evenodd" clip-rule="evenodd" d="M91.1008 42.7502C90.5966 42.1604 90.5248 13.6862 90.6562 13.1598C90.7874 12.632 93.4728 10.3688 93.4728 10.3688C93.4728 10.3688 92.8786 5.66124 94.2852 5.67827C95.9379 5.69839 95.7417 10.3409 95.7417 10.3409C95.7417 10.3409 99.4391 12.6428 99.7191 13.149C99.9992 13.6537 100.781 42.6217 100.422 42.8462C100.064 43.0706 91.6049 43.34 91.1008 42.7502Z" fill="#E8E8E8"/>
</g>
<mask id="mask13_591_54" style="mask-type:luminance" maskUnits="userSpaceOnUse" x="-18" y="-509" width="384" height="2033">
<path d="M365.113 1523.7L365.113 -508.158H-17.8139L-17.8139 1523.7H365.113Z" fill="white"/>
</mask>
<g mask="url(#mask13_591_54)">
<path fill-rule="evenodd" clip-rule="evenodd" d="M79.885 42.7502C79.3808 42.1604 79.309 13.6862 79.4404 13.1598C79.5716 12.632 82.257 10.3688 82.257 10.3688C82.257 10.3688 81.6627 5.66124 83.0694 5.67827C84.7221 5.69839 84.5258 10.3409 84.5258 10.3409C84.5258 10.3409 88.2232 12.6428 88.5033 13.149C88.7833 13.6537 89.5652 42.6217 89.2067 42.8462C88.8482 43.0706 80.3891 43.34 79.885 42.7502Z" fill="#E8E8E8"/>
</g>
<mask id="mask14_591_54" style="mask-type:luminance" maskUnits="userSpaceOnUse" x="-18" y="-509" width="384" height="2033">
<path d="M365.113 1523.7L365.113 -508.158H-17.8139L-17.8139 1523.7H365.113Z" fill="white"/>
</mask>
<g mask="url(#mask14_591_54)">
<path fill-rule="evenodd" clip-rule="evenodd" d="M68.6692 42.7502C68.1649 42.1604 68.0932 13.6862 68.2245 13.1598C68.3558 12.632 71.0412 10.3688 71.0412 10.3688C71.0412 10.3688 70.4469 5.66124 71.8535 5.67827C73.5062 5.69839 73.31 10.3409 73.31 10.3409C73.31 10.3409 77.0074 12.6428 77.2875 13.149C77.5675 13.6537 78.3493 42.6217 77.9909 42.8462C77.6324 43.0706 69.1732 43.34 68.6692 42.7502Z" fill="#E8E8E8"/>
</g>
<mask id="mask15_591_54" style="mask-type:luminance" maskUnits="userSpaceOnUse" x="-18" y="-509" width="384" height="2033">
<path d="M365.113 1523.7L365.113 -508.158H-17.8139L-17.8139 1523.7H365.113Z" fill="white"/>
</mask>
<g mask="url(#mask15_591_54)">
<path fill-rule="evenodd" clip-rule="evenodd" d="M57.0678 33.9791C56.9238 25.3752 56.9243 13.4973 57.0087 13.1598C57.1399 12.632 59.8253 10.3688 59.8253 10.3688C59.8253 10.3688 59.2311 5.66124 60.6377 5.67827C62.2904 5.69839 62.0942 10.3409 62.0942 10.3409C62.0942 10.3409 65.7916 12.6428 66.0717 13.149C66.3517 13.6537 67.1335 42.6217 66.775 42.8462C66.4849 43.0273 60.8911 43.2394 58.4995 42.9994C57.8157 41.6449 57.3973 40.179 57.1863 39.0721C57.1736 38.6882 57.1616 38.2826 57.15 37.8538C57.5818 36.5163 57.5738 35.1943 57.0678 33.9791Z" fill="#E8E8E8"/>
</g>
<mask id="mask16_591_54" style="mask-type:luminance" maskUnits="userSpaceOnUse" x="-18" y="-509" width="384" height="2033">
<path d="M365.113 1523.7L365.113 -508.158H-17.8139L-17.8139 1523.7H365.113Z" fill="white"/>
</mask>
<g mask="url(#mask16_591_54)">
<path fill-rule="evenodd" clip-rule="evenodd" d="M45.7508 24.27C45.7188 18.4123 45.7383 13.3781 45.7929 13.1598C45.9242 12.632 48.6095 10.3688 48.6095 10.3688C48.6095 10.3688 48.0153 5.66124 49.4219 5.67827C51.0746 5.69839 50.8784 10.3409 50.8784 10.3409C50.8784 10.3409 54.5758 12.6428 54.8559 13.149C54.9908 13.392 55.2424 20.2498 55.4268 27.3118C54.7521 26.6106 51.8337 24.0176 45.7508 24.27Z" fill="#E8E8E8"/>
</g>
<mask id="mask17_591_54" style="mask-type:luminance" maskUnits="userSpaceOnUse" x="-18" y="-509" width="384" height="2033">
<path d="M365.113 1523.7L365.113 -508.158H-17.8139L-17.8139 1523.7H365.113Z" fill="white"/>
</mask>
<g mask="url(#mask17_591_54)">
<path fill-rule="evenodd" clip-rule="evenodd" d="M34.5808 29.914C34.4942 22.0548 34.5053 13.4462 34.5771 13.1598C34.7083 12.632 37.3937 10.3688 37.3937 10.3688C37.3937 10.3688 36.7995 5.66124 38.2061 5.67827C39.8588 5.69839 39.6626 10.3409 39.6626 10.3409C39.6626 10.3409 43.36 12.6428 43.64 13.149C43.7566 13.3595 43.9599 18.4974 44.1319 24.4418C40.4458 25.1152 37.7448 27.5951 34.5808 29.914Z" fill="#E8E8E8"/>
</g>
<mask id="mask18_591_54" style="mask-type:luminance" maskUnits="userSpaceOnUse" x="-18" y="-509" width="384" height="2033">
<path d="M365.113 1523.7L365.113 -508.158H-17.8139L-17.8139 1523.7H365.113Z" fill="white"/>
</mask>
<g mask="url(#mask18_591_54)">
<path fill-rule="evenodd" clip-rule="evenodd" d="M23.5372 39.0055C23.2806 31.1323 23.2588 13.5716 23.3618 13.1598C23.493 12.632 26.1784 10.3688 26.1784 10.3688C26.1784 10.3688 25.5842 5.66124 26.9908 5.67827C28.6435 5.69839 28.4473 10.3409 28.4473 10.3409C28.4473 10.3409 32.1447 12.6428 32.4247 13.149C32.5831 13.4338 32.9019 22.821 33.0843 30.9651C32.4428 31.3924 31.776 31.8011 31.0737 32.1804C26.4713 34.6618 25.9968 37.3151 25.9968 37.3151C24.9773 37.7501 24.166 38.3213 23.5372 39.0055Z" fill="#E8E8E8"/>
</g>
<mask id="mask19_591_54" style="mask-type:luminance" maskUnits="userSpaceOnUse" x="-18" y="-509" width="384" height="2033">
<path d="M365.113 1523.7L365.113 -508.158H-17.8139L-17.8139 1523.7H365.113Z" fill="white"/>
</mask>
<g mask="url(#mask19_591_54)">
<path fill-rule="evenodd" clip-rule="evenodd" d="M21.8387 42.8709C20.9313 43.0892 13.0758 43.3183 12.5906 42.7502C12.0863 42.1604 12.0145 13.6862 12.1459 13.1598C12.2772 12.632 14.9625 10.3688 14.9625 10.3688C14.9625 10.3688 14.3683 5.66124 15.7749 5.67827C17.4276 5.69839 17.2314 10.3409 17.2314 10.3409C17.2314 10.3409 20.9288 12.6428 21.2089 13.149C21.4624 13.6057 22.1265 37.3678 21.985 42.0505C21.9238 42.3183 21.8753 42.5907 21.8387 42.8709Z" fill="#E8E8E8"/>
</g>
<mask id="mask20_591_54" style="mask-type:luminance" maskUnits="userSpaceOnUse" x="-18" y="-509" width="384" height="2033">
<path d="M365.113 1523.7L365.113 -508.158H-17.8139L-17.8139 1523.7H365.113Z" fill="white"/>
</mask>
<g mask="url(#mask20_591_54)">
<path fill-rule="evenodd" clip-rule="evenodd" d="M106.893 74.1511C106.893 74.1511 104.354 61.4713 104.617 60.7701C104.879 60.0673 107.374 57.8552 107.374 57.8552L106.585 55.0641L114.727 51.29L115.383 53.7049L118.753 55.7235L123.616 71.2827C121.958 74.5799 118.053 78.0878 109.802 77.7534C108.752 77.71 107.665 75.854 107.44 74.2254C107.394 73.888 107.146 73.84 106.893 74.1511Z" fill="#E8E8E8"/>
</g>
<path d="M51.7649 27.282C50.0787 27.2307 48.5019 27.7173 47.4186 28.4932C47.3421 28.548 47.277 28.6175 47.2272 28.6975C47.1774 28.7775 47.1438 28.8666 47.1284 28.9596C47.1129 29.0527 47.1159 29.1479 47.1371 29.2398C47.1584 29.3316 47.1975 29.4185 47.2522 29.4952C47.3626 29.6501 47.5299 29.7548 47.7172 29.7861C47.9045 29.8174 48.0966 29.7728 48.2511 29.6621C49.2576 28.9412 51.2775 28.4439 53.1203 28.9138C54.9631 29.3837 56.6802 30.6912 57.4332 33.7441C57.4558 33.8356 57.4962 33.9218 57.552 33.9977C57.6078 34.0737 57.678 34.1378 57.7586 34.1865C57.8392 34.2352 57.9285 34.2676 58.0215 34.2817C58.1145 34.2957 58.2094 34.2913 58.3007 34.2687C58.4851 34.2229 58.6438 34.1056 58.7419 33.9425C58.84 33.7794 58.8695 33.584 58.8239 33.3991C57.9663 29.9224 55.7621 28.1053 53.4734 27.5218C52.9013 27.3759 52.327 27.2991 51.7649 27.282Z" fill="#6E864C" fill-opacity="0.5"/>
<path d="M53.886 30.0928C53.7022 30.1404 53.5447 30.2593 53.4482 30.4233C53.3516 30.5873 53.324 30.7831 53.3714 30.9675C53.4188 31.152 53.5373 31.31 53.7009 31.4068C56.2649 32.9238 57.0477 34.8064 56.6565 36.898C56.2654 38.9897 54.5331 41.3512 51.661 43.3501C51.5322 43.4398 51.4363 43.5693 51.388 43.7188C51.3397 43.8683 51.3416 44.0296 51.3935 44.178C51.3935 44.178 52.2342 46.663 51.6366 49.307C51.5204 49.1863 51.4101 49.066 51.2681 48.9423C50.4276 48.2105 49.027 47.5187 47.2818 48.0105C46.1736 48.3222 45.4446 49.2965 45.0773 50.3903C44.7098 51.4843 44.6748 52.7584 45.0936 53.9172C45.7211 55.6534 47.0168 56.6103 48.3133 56.9255C49.6099 57.2407 50.8872 57.0079 51.7798 56.4421C51.9403 56.3403 52.054 56.1787 52.0957 55.9929C52.1374 55.8071 52.1038 55.6122 52.0023 55.4513C51.9008 55.2903 51.7397 55.1764 51.5544 55.1345C51.369 55.0927 51.1748 55.1264 51.0142 55.2281C50.5343 55.5323 49.5499 55.7481 48.6511 55.5296C47.7523 55.3111 46.9191 54.7518 46.4405 53.4277C46.1499 52.6236 46.1703 51.637 46.4351 50.8486C46.6999 50.0602 47.18 49.5308 47.669 49.3934H47.6693C48.9179 49.0416 49.704 49.4831 50.3288 50.0272C50.6412 50.2992 50.8875 50.5962 51.073 50.829C51.1658 50.9454 51.2338 51.0388 51.3353 51.1468C51.3861 51.2007 51.414 51.267 51.6269 51.3635C51.7334 51.4118 51.9432 51.4757 52.1872 51.3871C52.4312 51.2986 52.5733 51.0857 52.6226 50.9617C53.7619 48.0933 53.1884 45.2878 52.8958 44.2188C55.7329 42.1374 57.5951 39.6738 58.0647 37.1629C58.5576 34.5273 57.3622 31.9053 54.4291 30.1699C54.348 30.122 54.2584 30.0905 54.1652 30.0774C54.072 30.0642 53.9771 30.0695 53.886 30.0931V30.0928Z" fill="#6E864C" fill-opacity="0.5"/>
<path d="M46.8193 23.5358C46.3867 23.5303 45.9377 23.5386 45.472 23.5633C42.3948 23.7273 39.9777 25.0709 37.7198 26.6757C35.4619 28.2805 33.3269 30.1497 30.7344 31.5477C28.3485 32.8341 26.9877 34.193 26.2268 35.2605C25.7288 35.9592 25.5287 36.4609 25.4178 36.7989C23.4529 37.7256 22.1737 39.2056 21.5494 40.9797C20.893 42.8447 20.9114 44.9943 21.3401 47.245C22.1976 51.7463 24.7103 56.7076 27.3684 60.7493C29.5755 64.1045 30.673 66.6464 31.3309 68.3476C31.6598 69.1982 31.8721 69.8312 32.0871 70.3095C32.1946 70.5487 32.2925 70.7548 32.4864 70.9608C32.6801 71.1667 33.107 71.3523 33.4513 71.2713C37.3969 70.3429 40.4997 70.3362 42.6309 70.4779C43.6965 70.5488 44.5126 70.6571 45.1077 70.7107C45.4053 70.7376 45.6372 70.7582 45.896 70.7283C46.0253 70.7133 46.1726 70.6957 46.3639 70.5726C46.5553 70.4495 46.747 70.128 46.7484 69.8751C46.7652 66.8584 47.579 63.8778 48.4771 61.4901C49.3752 59.1023 50.3326 57.3523 50.6864 56.6135C50.7272 56.5285 50.7508 56.4363 50.756 56.3421C50.7612 56.2479 50.7479 56.1537 50.7168 56.0647C50.6856 55.9757 50.6373 55.8937 50.5746 55.8234C50.5118 55.7531 50.4359 55.6959 50.3511 55.6551C50.2663 55.6142 50.1743 55.5905 50.0804 55.5853C49.9865 55.5801 49.8924 55.5935 49.8037 55.6248C49.7149 55.656 49.6332 55.7045 49.5631 55.7675C49.493 55.8304 49.436 55.9065 49.3953 55.9916C49.1018 56.6042 48.0723 58.496 47.1368 60.9833C46.2575 63.3211 45.4651 66.2313 45.3547 69.2855C45.2999 69.2821 45.3001 69.2855 45.2359 69.2804C44.6994 69.232 43.8394 69.1186 42.7259 69.0445C40.5597 68.9005 37.393 68.9222 33.4422 69.8122C33.419 69.7706 33.4221 69.784 33.3931 69.7194C33.2331 69.3635 33.006 68.7059 32.6667 67.8285C31.9881 66.0738 30.8347 63.4099 28.5643 59.9584C25.9762 56.0232 23.5432 51.1545 22.7471 46.9753C22.349 44.8857 22.3635 42.9828 22.9002 41.4575C23.437 39.9322 24.457 38.7519 26.2774 37.9754C26.3868 37.9287 26.4829 37.8554 26.5571 37.7622C26.6312 37.669 26.681 37.5588 26.702 37.4414C26.702 37.4414 26.7654 36.9748 27.3922 36.0954C28.0191 35.2159 29.1964 34.0075 31.4129 32.8125H31.4132C34.1831 31.3188 36.3744 29.3921 38.5481 27.847C40.7219 26.302 42.8418 25.1416 45.548 24.9974C49.0271 24.8128 51.4047 25.5825 52.9157 26.3755C54.4267 27.1685 55.0237 27.9341 55.0237 27.9341C55.1426 28.0827 55.3154 28.1779 55.5042 28.1987C55.693 28.2195 55.8824 28.1642 56.0306 28.0451C56.1787 27.9259 56.2737 27.7526 56.2944 27.5633C56.3152 27.374 56.2601 27.1841 56.1412 27.0355C56.1412 27.0355 55.3041 26.0078 53.58 25.1029C52.0714 24.3112 49.8473 23.5749 46.8193 23.5356L46.8193 23.5358Z" fill="#6E864C" fill-opacity="0.5"/>
<path d="M56.973 37.438C56.784 37.4577 56.6107 37.5519 56.491 37.6999C56.3714 37.8478 56.3152 38.0373 56.3349 38.2268C56.4538 39.3712 56.8709 41.2619 57.7392 43.0773C58.5744 44.8236 59.8543 46.5267 61.7797 47.1941C61.7822 47.3107 61.7566 47.528 61.6302 47.8151C61.3511 48.449 60.6325 49.363 59.116 50.2018C58.9496 50.2938 58.8266 50.4483 58.7738 50.6312C58.721 50.8142 58.7429 51.0107 58.8347 51.1775C58.9264 51.3442 59.0805 51.4676 59.263 51.5204C59.4455 51.5733 59.6414 51.5513 59.8077 51.4593C61.5403 50.5009 62.5044 49.3862 62.9407 48.395C63.1588 47.8994 63.251 47.4384 63.2096 47.0084C63.1682 46.5786 62.9526 46.0618 62.4088 45.9016H62.4084C60.9351 45.4672 59.8057 44.0762 59.0309 42.4563C58.2561 40.8363 57.8583 39.0281 57.7597 38.078C57.7499 37.9842 57.7219 37.8932 57.6771 37.8103C57.6323 37.7273 57.5716 37.654 57.4986 37.5946C57.4255 37.5351 57.3415 37.4907 57.2513 37.4638C57.1611 37.437 57.0665 37.4282 56.973 37.438Z" fill="#6E864C" fill-opacity="0.5"/>
<path d="M59.934 49.7938C59.8404 49.8033 59.7496 49.8311 59.6667 49.8757C59.5838 49.9203 59.5105 49.9809 59.451 50.0539C59.3915 50.1269 59.3469 50.211 59.3198 50.3013C59.2926 50.3916 59.2835 50.4864 59.2929 50.5802C59.3838 51.4851 59.6333 54.2532 59.9424 57.0668C60.2516 59.8804 60.59 62.6685 60.9764 63.9651C61.299 65.0473 61.1441 65.6969 60.6737 66.325C60.2032 66.953 59.3159 67.5383 58.1453 68.0828C55.804 69.1717 52.4208 70.0948 49.411 71.7678C49.2449 71.8601 49.1221 72.0149 49.0697 72.198C49.0174 72.3811 49.0397 72.5775 49.1318 72.7441C49.2239 72.9107 49.3782 73.0338 49.5608 73.0863C49.7434 73.1388 49.9393 73.1164 50.1054 73.0241C52.9076 71.4664 56.219 70.5618 58.748 69.3856C60.0126 68.7975 61.1046 68.1411 61.8189 67.1875C62.5331 66.2341 62.7684 64.9625 62.3487 63.5539C62.0712 62.6227 61.6734 59.7049 61.3663 56.9099C61.0591 54.1146 60.8121 51.3711 60.7183 50.4369C60.7089 50.3431 60.6811 50.252 60.6366 50.1689C60.5921 50.0858 60.5317 50.0124 60.4589 49.9527C60.3861 49.893 60.3022 49.8482 60.2122 49.821C60.1221 49.7938 60.0276 49.7847 59.934 49.7941V49.7938Z" fill="#6E864C" fill-opacity="0.5"/>
<path d="M60.7002 55.6345C60.5128 55.6036 60.3208 55.6487 60.1665 55.7597C58.0894 57.2555 56.3798 56.6921 56.3798 56.6921C56.2897 56.6651 56.1951 56.6562 56.1016 56.6658C56.008 56.6755 55.9172 56.7035 55.8345 56.7483C55.7517 56.7931 55.6785 56.8538 55.6192 56.927C55.5598 57.0001 55.5154 57.0843 55.4885 57.1747C55.4615 57.265 55.4526 57.3598 55.4622 57.4537C55.4719 57.5475 55.4998 57.6385 55.5445 57.7215C55.5892 57.8044 55.6497 57.8778 55.7227 57.9373C55.7957 57.9969 55.8796 58.0414 55.9697 58.0684C55.9697 58.0684 58.4531 58.762 61.0021 56.9264C61.0785 56.8714 61.1433 56.8019 61.1929 56.7217C61.2425 56.6416 61.2759 56.5524 61.2911 56.4593C61.3063 56.3663 61.3031 56.2711 61.2817 56.1793C61.2602 56.0875 61.221 56.0008 61.1661 55.9242C61.0552 55.7695 60.8877 55.6653 60.7002 55.6345Z" fill="#6E864C" fill-opacity="0.5"/>
<path d="M53.126 70.2694C53.0385 70.2348 52.945 70.2178 52.851 70.2193C52.7569 70.2209 52.664 70.2411 52.5777 70.2786C52.4914 70.3162 52.4134 70.3704 52.348 70.4383C52.2826 70.5061 52.2312 70.5862 52.1967 70.674C51.72 71.8856 51.0891 74.2514 50.7589 76.9165C50.4288 79.5816 50.3891 82.5144 51.2776 84.8262C51.3114 84.9142 51.3622 84.9947 51.427 85.063C51.4919 85.1314 51.5695 85.1862 51.6555 85.2244C51.7415 85.2627 51.8342 85.2836 51.9282 85.2859C52.0222 85.2882 52.1158 85.2719 52.2036 85.238C52.3808 85.1695 52.5236 85.0332 52.6006 84.8592C52.6776 84.6851 52.6825 84.4875 52.6143 84.3098C51.8834 82.4079 51.8658 79.6353 52.1807 77.0937C52.4955 74.552 53.1328 72.2095 53.5294 71.2012C53.564 71.1135 53.581 71.0198 53.5794 70.9255C53.5778 70.8311 53.5577 70.7381 53.5202 70.6515C53.4828 70.565 53.4287 70.4867 53.361 70.4212C53.2934 70.3556 53.2135 70.304 53.126 70.2694Z" fill="#6E864C" fill-opacity="0.5"/>
<path d="M33.3386 69.8469C33.1487 69.8423 32.9647 69.9135 32.8272 70.0449C32.6897 70.1763 32.6098 70.357 32.6052 70.5474C32.5835 71.4512 32.5641 72.8647 32.4189 74.4637C32.4104 74.5577 32.4204 74.6524 32.4483 74.7425C32.4763 74.8325 32.5217 74.9162 32.582 74.9886C32.6422 75.0611 32.7161 75.121 32.7994 75.1648C32.8827 75.2086 32.9738 75.2356 33.0675 75.2441C33.2567 75.2614 33.4449 75.2026 33.5909 75.0807C33.7368 74.9588 33.8285 74.7837 33.8457 74.594C33.9969 72.9303 34.0159 71.4693 34.0372 70.5819C34.0417 70.3915 33.9707 70.2072 33.8396 70.0694C33.7086 69.9316 33.5284 69.8515 33.3386 69.8469ZM32.86 76.7737C32.6737 76.737 32.4804 76.7761 32.3227 76.8823C32.1651 76.9885 32.056 77.1531 32.0193 77.34C31.5683 79.6449 30.7335 81.8734 29.355 83.1659C29.2163 83.296 29.1347 83.476 29.1283 83.6663C29.1219 83.8566 29.1912 84.0417 29.3209 84.1809C29.3851 84.2498 29.4623 84.3053 29.548 84.3444C29.6336 84.3834 29.7261 84.4051 29.8201 84.4083C29.9142 84.4114 30.0079 84.396 30.096 84.3628C30.184 84.3297 30.2648 84.2795 30.3335 84.215C32.0848 82.573 32.9453 80.0682 33.4251 77.6166C33.4432 77.5241 33.4429 77.4288 33.4243 77.3364C33.4057 77.2439 33.3692 77.1561 33.3167 77.0778C33.2642 76.9995 33.1969 76.9324 33.1185 76.8802C33.0402 76.828 32.9523 76.7918 32.86 76.7737Z" fill="#6E864C" fill-opacity="0.5"/>
<path d="M123.666 69.9162C123.49 69.9888 123.351 70.1283 123.278 70.3041C121.931 73.5471 118.446 77.386 109.832 77.0362H109.831C109.716 77.0313 109.283 76.7713 108.915 76.1963C108.546 75.6212 108.246 74.8229 108.15 74.1279C108.121 73.9126 108.048 73.6714 107.827 73.4667C107.607 73.2619 107.226 73.1873 106.963 73.2605C106.437 73.4069 106.231 73.7698 106.032 74.2047C105.632 75.0746 105.431 76.4785 105.723 78.6474C105.847 79.5733 105.85 80.1192 105.295 81.0233C104.74 81.9274 103.537 83.1634 101.226 85.0206C97.5589 87.9677 95.1065 89.8979 93.2977 91.0491C91.4888 92.2002 90.3902 92.5563 89.2607 92.5121C89.0709 92.5047 88.8859 92.5733 88.7465 92.7026C88.6071 92.8319 88.5245 93.0115 88.5171 93.2018C88.5098 93.3921 88.5781 93.5776 88.7071 93.7174C88.836 93.8572 89.0151 93.94 89.2049 93.9474C90.689 94.0054 92.1414 93.4861 94.0651 92.2618C95.9888 91.0375 98.4506 89.0922 102.122 86.1414C104.482 84.2447 105.792 82.9541 106.515 81.7761C107.238 80.5983 107.284 79.5063 107.142 78.4554C106.981 77.26 107.013 76.3868 107.104 75.7515C107.268 76.1844 107.471 76.6004 107.709 76.973C108.203 77.7438 108.838 78.4335 109.773 78.4721C109.773 78.4721 109.773 78.4721 109.774 78.4721C118.84 78.8404 123.058 74.5707 124.6 70.8568C124.636 70.7698 124.655 70.6764 124.655 70.5821C124.655 70.4878 124.637 70.3943 124.601 70.3071C124.565 70.2199 124.513 70.1406 124.446 70.0738C124.38 70.007 124.301 69.954 124.214 69.9177C124.039 69.8444 123.842 69.8438 123.666 69.9162Z" fill="#6E864C" fill-opacity="0.5"/>
<path d="M124.562 71.6984C124.374 71.7209 124.202 71.8176 124.084 71.9672C123.967 72.1168 123.913 72.3072 123.936 72.4963C123.988 72.9339 124.057 73.5608 123.539 74.5531C123.021 75.5455 121.868 76.8896 119.341 78.4504C119.18 78.5503 119.064 78.7105 119.02 78.8958C118.976 79.0811 119.008 79.2763 119.107 79.4385C119.157 79.5188 119.221 79.5886 119.298 79.6438C119.374 79.6991 119.46 79.7388 119.552 79.7605C119.643 79.7823 119.738 79.7858 119.831 79.7708C119.924 79.7558 120.013 79.7226 120.093 79.6731C122.766 78.0218 124.133 76.5129 124.808 75.2192C125.484 73.9255 125.418 72.8333 125.358 72.3267C125.336 72.1375 125.239 71.9651 125.09 71.8473C124.941 71.7295 124.751 71.6759 124.562 71.6984Z" fill="#6E864C" fill-opacity="0.5"/>
<path d="M125.027 75.0275C124.84 75.0574 124.672 75.1609 124.56 75.315C124.449 75.4692 124.403 75.6615 124.433 75.8496C124.51 76.3384 124.615 76.902 124.181 77.7855C123.747 78.669 122.709 79.8776 120.298 81.2867C120.216 81.3342 120.145 81.3972 120.088 81.4723C120.031 81.5474 119.99 81.633 119.966 81.7242C119.942 81.8154 119.936 81.9105 119.948 82.004C119.961 82.0975 119.992 82.1875 120.039 82.269C120.087 82.3505 120.15 82.4218 120.225 82.479C120.299 82.5361 120.385 82.5778 120.476 82.6019C120.567 82.6259 120.662 82.6317 120.755 82.619C120.848 82.6063 120.938 82.5753 121.019 82.5278C123.583 81.0296 124.864 79.6474 125.466 78.4198C126.069 77.1922 125.927 76.1243 125.847 75.624C125.833 75.5309 125.8 75.4415 125.75 75.3612C125.701 75.2808 125.637 75.2109 125.561 75.1555C125.484 75.1001 125.398 75.0602 125.307 75.0383C125.215 75.0163 125.12 75.0127 125.027 75.0275Z" fill="#6E864C" fill-opacity="0.5"/>
<path d="M124.416 77.7015C124.328 77.7366 124.249 77.7886 124.182 77.8545C124.114 77.9204 124.061 77.999 124.024 78.0857C123.949 78.2609 123.947 78.4586 124.017 78.6354C124.088 78.8122 124.226 78.9536 124.401 79.0285C124.547 79.0912 124.54 79.0829 124.55 79.261C124.56 79.439 124.478 79.8036 124.217 80.2363C123.694 81.1018 122.513 82.2117 120.718 83.0376C120.546 83.117 120.412 83.262 120.345 83.4405C120.279 83.619 120.287 83.8166 120.366 83.9897C120.445 84.1628 120.59 84.2973 120.768 84.3636C120.946 84.4298 121.143 84.4225 121.316 84.3431C123.33 83.4166 124.717 82.1804 125.442 80.9804C125.804 80.3804 126.016 79.7823 125.98 79.1772C125.945 78.5721 125.552 77.9601 124.964 77.7078C124.877 77.6707 124.784 77.651 124.69 77.65C124.596 77.6489 124.503 77.6664 124.416 77.7015Z" fill="#6E864C" fill-opacity="0.5"/>
<path d="M124.978 79.6377C124.788 79.6356 124.605 79.7091 124.47 79.8421C124.402 79.908 124.349 79.9866 124.312 80.0733C124.275 80.1601 124.255 80.2533 124.254 80.3477C124.253 80.442 124.27 80.5356 124.305 80.6232C124.34 80.7107 124.392 80.7905 124.458 80.858C124.652 81.0572 124.909 81.6194 124.916 82.1935C124.924 82.7675 124.747 83.3238 124.227 83.7542C123.046 84.7311 120.563 85.8116 118.138 86.8675C115.712 87.9234 113.346 88.9185 112.087 90.2661C106.947 95.7675 103.074 100.661 99.842 104.456C96.6099 108.251 94.0033 110.923 91.5449 112.048C91.091 112.256 90.643 112.412 90.1953 112.518C90.1037 112.54 90.0173 112.579 89.9409 112.634C89.8645 112.689 89.7998 112.759 89.7503 112.839C89.7008 112.919 89.6675 113.009 89.6524 113.102C89.6373 113.195 89.6406 113.29 89.6622 113.382C89.6837 113.474 89.7231 113.56 89.778 113.637C89.833 113.713 89.9025 113.778 89.9825 113.828C90.0625 113.878 90.1514 113.911 90.2443 113.926C90.3372 113.941 90.4321 113.938 90.5237 113.916C91.0721 113.787 91.6097 113.597 92.1393 113.355C92.1396 113.355 92.1399 113.355 92.1402 113.355C95.0131 112.04 97.6717 109.217 100.931 105.389C104.191 101.561 108.036 96.7024 113.132 91.2485C113.969 90.3531 116.293 89.2367 118.708 88.1854C121.123 87.1341 123.629 86.1117 125.138 84.8626C126.021 84.132 126.361 83.0952 126.349 82.175C126.336 81.2549 126.035 80.4219 125.482 79.8548C125.417 79.7874 125.338 79.7335 125.252 79.6964C125.165 79.6593 125.072 79.6397 124.978 79.6386L124.978 79.6377Z" fill="#6E864C" fill-opacity="0.5"/>
<mask id="mask21_591_54" style="mask-type:luminance" maskUnits="userSpaceOnUse" x="-18" y="-509" width="384" height="2033">
<path d="M363.42 1523.37L365.114 -508.158L-16.1201 -507.823L-17.8134 1523.7L363.42 1523.37Z" fill="white"/>
</mask>
<g mask="url(#mask21_591_54)">
<path fill-rule="evenodd" clip-rule="evenodd" d="M57.1045 43.4252C57.1425 43.56 57.1655 43.6976 57.1722 43.8302C57.1789 43.9629 57.1691 44.0879 57.1434 44.1982C57.1176 44.3084 57.0765 44.4018 57.0224 44.473C56.9682 44.5441 56.9021 44.5915 56.8277 44.6127C56.7533 44.6338 56.6722 44.6282 56.5889 44.5962C56.5056 44.5641 56.4218 44.5063 56.3424 44.4259C56.2629 44.3455 56.1892 44.2442 56.1256 44.1278C56.062 44.0113 56.0097 43.882 55.9717 43.7472C55.9337 43.6124 55.9107 43.4748 55.904 43.3421C55.8973 43.2095 55.9071 43.0845 55.9328 42.9742C55.9585 42.8639 55.9997 42.7706 56.0538 42.6995C56.108 42.6283 56.1741 42.5808 56.2485 42.5597C56.3229 42.5385 56.404 42.5442 56.4873 42.5762C56.5706 42.6083 56.6544 42.6661 56.7338 42.7465C56.8133 42.8268 56.887 42.9281 56.9506 43.0446C57.0142 43.161 57.0665 43.2904 57.1045 43.4252Z" fill="#6E864C" fill-opacity="0.5"/>
</g>
<path d="M145.275 5.67421e-05L0.707157 1.822C0.517229 1.82442 0.336038 1.90238 0.203434 2.03875C0.07083 2.17511 -0.00232575 2.35871 5.64056e-05 2.54914C0.00246888 2.73959 0.0802249 2.92125 0.216222 3.05422C0.352219 3.18718 0.53532 3.26054 0.725251 3.25815L145.293 1.43621C145.387 1.43505 145.48 1.41533 145.566 1.37815C145.652 1.34098 145.731 1.2871 145.796 1.21957C145.862 1.15205 145.914 1.07221 145.949 0.984612C145.984 0.897019 146.001 0.803383 146 0.709061C145.998 0.518619 145.92 0.336952 145.784 0.20399C145.648 0.071028 145.465 -0.00233596 145.275 5.67421e-05Z" fill="#6E864C" fill-opacity="0.5"/>
<path d="M145.275 84.7051L122.403 84.993C122.309 84.9941 122.216 85.0138 122.13 85.051C122.043 85.0882 121.965 85.1421 121.899 85.2096C121.834 85.2771 121.782 85.357 121.747 85.4446C121.712 85.5322 121.695 85.6258 121.696 85.7201C121.697 85.8144 121.717 85.9076 121.754 85.9943C121.791 86.081 121.845 86.1595 121.912 86.2254C121.979 86.2912 122.059 86.3432 122.146 86.3782C122.234 86.4132 122.327 86.4306 122.421 86.4294L145.293 86.1413C145.387 86.1401 145.48 86.1204 145.566 86.0832C145.652 86.0461 145.731 85.9922 145.796 85.9247C145.862 85.8571 145.914 85.7773 145.949 85.6897C145.984 85.6021 146.001 85.5085 146 85.4141C145.998 85.2237 145.92 85.042 145.784 84.9091C145.648 84.7761 145.465 84.7027 145.275 84.7051ZM101.169 85.2608L69.9029 85.6557C69.713 85.6581 69.5318 85.7361 69.3992 85.8725C69.2666 86.0088 69.1934 86.1924 69.1958 86.3829C69.1982 86.5733 69.276 86.755 69.412 86.8879C69.548 87.0209 69.7311 87.0943 69.921 87.0919L101.187 86.697C101.377 86.6946 101.558 86.6166 101.69 86.4803C101.823 86.3439 101.896 86.1603 101.894 85.9699C101.891 85.7794 101.814 85.5977 101.678 85.4648C101.542 85.3318 101.358 85.2585 101.169 85.2608ZM16.3469 86.3306L0.707459 86.5271C0.613389 86.5282 0.520468 86.548 0.434004 86.5851C0.34754 86.6223 0.269226 86.6762 0.203535 86.7437C0.137844 86.8112 0.0860635 86.8911 0.0511503 86.9787C0.016237 87.0663 -0.00112491 87.1599 5.64816e-05 87.2542C0.00247301 87.4447 0.0802313 87.6263 0.216228 87.7593C0.352225 87.8923 0.535323 87.9656 0.725251 87.9632L16.3647 87.7667C16.4588 87.7655 16.5517 87.7458 16.6381 87.7087C16.7246 87.6715 16.8029 87.6176 16.8686 87.5501C16.9343 87.4825 16.9861 87.4027 17.021 87.3151C17.0559 87.2275 17.0733 87.1339 17.0721 87.0396C17.0697 86.8491 16.9919 86.6674 16.8559 86.5345C16.7199 86.4015 16.5368 86.3282 16.3469 86.3306Z" fill="#6E864C" fill-opacity="0.5"/>
<path d="M145.275 1.82135L0.707157 3.64329C0.517229 3.64571 0.336038 3.72367 0.203434 3.86003C0.07083 3.9964 -0.00232575 4.17999 5.64056e-05 4.37043C0.00246888 4.56088 0.0802249 4.74254 0.216222 4.8755C0.352219 5.00847 0.53532 5.08183 0.725251 5.07944L145.293 3.25749C145.387 3.25634 145.48 3.23662 145.566 3.19944C145.652 3.16227 145.731 3.10839 145.796 3.04086C145.862 2.97334 145.914 2.89349 145.949 2.8059C145.984 2.71831 146.001 2.62467 146 2.53035C145.998 2.33991 145.92 2.1582 145.784 2.02524C145.648 1.89228 145.465 1.81895 145.275 1.82135Z" fill="#6E864C" fill-opacity="0.5"/>
<path d="M145.275 86.5264L118.277 86.8669C118.183 86.8681 118.09 86.8878 118.004 86.925C117.917 86.9622 117.839 87.0162 117.774 87.0837C117.708 87.1513 117.656 87.2311 117.621 87.3187C117.586 87.4063 117.569 87.5 117.57 87.5943C117.573 87.7848 117.65 87.9664 117.786 88.0994C117.922 88.2323 118.106 88.3057 118.295 88.3033L145.293 87.9626C145.483 87.9602 145.664 87.8822 145.797 87.7458C145.929 87.6095 146.002 87.4259 146 87.2354C145.998 87.045 145.92 86.8633 145.784 86.7304C145.648 86.5974 145.465 86.524 145.275 86.5264ZM98.8488 87.1115L74.5589 87.418C74.4649 87.4192 74.3719 87.4389 74.2855 87.4761C74.199 87.5133 74.1207 87.5672 74.055 87.6347C73.9893 87.7022 73.9376 87.782 73.9026 87.8696C73.8677 87.9572 73.8504 88.0509 73.8515 88.1452C73.8527 88.2395 73.8724 88.3327 73.9094 88.4194C73.9465 88.5061 74.0003 88.5846 74.0676 88.6505C74.1349 88.7164 74.2146 88.7683 74.3019 88.8033C74.3893 88.8383 74.4827 88.8557 74.5767 88.8545L98.8666 88.5479C98.9607 88.5468 99.0536 88.527 99.1401 88.4899C99.2265 88.4527 99.3049 88.3988 99.3705 88.3313C99.4362 88.2638 99.488 88.1839 99.5229 88.0963C99.5578 88.0087 99.5752 87.9151 99.574 87.8208C99.5729 87.7264 99.5532 87.6333 99.5161 87.5466C99.479 87.4599 99.4253 87.3814 99.358 87.3155C99.2906 87.2496 99.211 87.1977 99.1236 87.1627C99.0363 87.1277 98.9429 87.1103 98.8488 87.1115ZM14.3682 88.1766L0.707459 88.3484C0.613389 88.3495 0.520468 88.3692 0.434004 88.4064C0.34754 88.4436 0.269226 88.4975 0.203535 88.565C0.137844 88.6325 0.0860635 88.7124 0.0511503 88.8C0.016237 88.8876 -0.00112491 88.9812 5.64816e-05 89.0755C0.00121281 89.1698 0.0208894 89.263 0.0579619 89.3497C0.0950344 89.4364 0.148777 89.5149 0.21612 89.5808C0.283463 89.6466 0.363087 89.6986 0.450445 89.7336C0.537802 89.7686 0.631182 89.786 0.725251 89.7848L14.386 89.6128C14.4801 89.6116 14.573 89.5919 14.6595 89.5547C14.7459 89.5176 14.8242 89.4637 14.8899 89.3962C14.9556 89.3286 15.0074 89.2488 15.0423 89.1612C15.0772 89.0736 15.0946 88.98 15.0934 88.8856C15.091 88.6952 15.0132 88.5135 14.8773 88.3806C14.7413 88.2476 14.5582 88.1742 14.3682 88.1766Z" fill="#6E864C" fill-opacity="0.5"/>
<path d="M145.275 43.337L59.9363 44.413C59.7463 44.4154 59.5652 44.4934 59.4325 44.6298C59.2999 44.7661 59.2268 44.9497 59.2292 45.1402C59.2316 45.3306 59.3093 45.5123 59.4453 45.6452C59.5813 45.7782 59.7644 45.8516 59.9544 45.8492L145.293 44.7734C145.387 44.7723 145.48 44.7525 145.566 44.7154C145.652 44.6782 145.731 44.6243 145.796 44.5568C145.862 44.4893 145.914 44.4094 145.949 44.3218C145.984 44.2342 146.001 44.1406 146 44.0463C145.999 43.952 145.979 43.8588 145.942 43.7721C145.905 43.6854 145.851 43.6068 145.784 43.541C145.717 43.4751 145.637 43.4232 145.55 43.3882C145.462 43.3532 145.369 43.3358 145.275 43.337ZM21.8143 44.8928L0.707157 45.1589C0.517227 45.1613 0.336034 45.2393 0.203429 45.3757C0.0708251 45.512 -0.00232968 45.6956 5.65991e-05 45.8861C0.00121292 45.9804 0.0208895 46.0736 0.057962 46.1602C0.0950345 46.2469 0.148777 46.3255 0.21612 46.3913C0.283463 46.4572 0.363087 46.5091 0.450445 46.5441C0.537802 46.5791 0.631182 46.5965 0.725251 46.5954L21.8324 46.329C22.0224 46.3266 22.2036 46.2486 22.3362 46.1123C22.4688 45.9759 22.5419 45.7923 22.5395 45.6019C22.5371 45.4114 22.4594 45.2297 22.3234 45.0968C22.1874 44.9638 22.0043 44.8905 21.8143 44.8928Z" fill="#6E864C" fill-opacity="0.5"/>
<path d="M91.895 111.985C91.7055 111.971 91.5184 112.033 91.3746 112.158C91.2308 112.282 91.1421 112.459 91.1281 112.649C91.0886 113.187 90.8667 114.228 90.3454 115.058C89.824 115.889 89.0892 116.526 87.7787 116.574C76.2011 116.996 62.798 113.134 62.798 113.134C62.6979 113.105 62.5928 113.098 62.4898 113.114C62.3869 113.13 62.2887 113.168 62.202 113.226C62.1153 113.284 62.0422 113.36 61.9879 113.449C61.9335 113.538 61.8992 113.638 61.8873 113.742C61.8873 113.742 59.7809 132.101 60.7328 146.338C60.7538 146.653 60.8477 146.871 60.9535 147.131C61.0593 147.392 61.1893 147.672 61.3238 147.97C61.5928 148.566 61.8775 149.234 62.008 149.806C62.1385 150.378 62.1002 150.782 61.9362 151.012C61.7722 151.242 61.3671 151.506 60.2823 151.529C42.4126 151.903 1.68427 149.072 1.68427 149.072C1.49478 149.059 1.30783 149.122 1.16453 149.247C1.02124 149.372 0.933345 149.549 0.920175 149.739C0.907033 149.929 0.969699 150.117 1.09439 150.26C1.21907 150.404 1.39557 150.492 1.58506 150.505C1.58506 150.505 42.2472 153.343 60.3121 152.965C60.3122 152.965 60.3123 152.965 60.3124 152.965C61.6356 152.937 62.5875 152.569 63.1022 151.846C63.617 151.123 63.5791 150.252 63.4044 149.486C63.2297 148.72 62.9036 147.987 62.6288 147.378C62.4914 147.074 62.3662 146.801 62.2803 146.589C62.1943 146.378 62.1595 146.205 62.1621 146.242C61.288 133.169 62.9875 116.931 63.2271 114.732C65.3278 115.315 76.9726 118.405 87.8306 118.009C89.6232 117.944 90.8597 116.935 91.5575 115.824C92.2554 114.712 92.501 113.515 92.5568 112.754C92.5637 112.66 92.5521 112.566 92.5225 112.476C92.493 112.387 92.4462 112.304 92.3847 112.232C92.3232 112.161 92.2484 112.102 92.1643 112.06C92.0803 112.018 91.9888 111.992 91.895 111.985Z" fill="#6E864C" fill-opacity="0.5"/>
<path d="M30.9419 81.1938C29.251 81.1415 26.3214 81.94 23.2525 83.0327C20.1835 84.1254 17.1145 85.4945 15.434 86.8396C13.4561 88.4223 11.7084 91.1777 10.1155 94.4472C8.52258 97.7167 7.10917 101.504 5.94856 105.132C4.78794 108.759 3.88164 112.224 3.31193 114.846C3.02708 116.157 2.8262 117.255 2.71941 118.074C2.66602 118.483 2.63536 118.819 2.63257 119.102C2.63118 119.243 2.63515 119.369 2.6573 119.506C2.67944 119.643 2.67708 119.808 2.9121 120.044C3.99362 121.129 5.81235 121.491 7.40558 121.738C8.30707 121.877 9.05265 121.942 9.60588 121.978C8.4767 131.991 7.87277 141.212 7.43 150.182C7.42535 150.276 7.43924 150.371 7.4709 150.459C7.50255 150.548 7.55134 150.63 7.61448 150.7C7.67762 150.77 7.75388 150.826 7.83889 150.867C7.92391 150.907 8.01602 150.93 8.10996 150.935C8.20391 150.94 8.29786 150.926 8.38643 150.894C8.47501 150.862 8.55648 150.813 8.6262 150.75C8.69593 150.687 8.75253 150.61 8.79278 150.525C8.83303 150.44 8.85614 150.347 8.86079 150.253C9.31415 141.069 9.92633 131.654 11.1078 121.385C11.1192 121.286 11.1099 121.186 11.0806 121.09C11.0512 120.995 11.0025 120.907 10.9373 120.832C10.8722 120.757 10.7922 120.696 10.7024 120.653C10.6125 120.611 10.5148 120.587 10.4155 120.585C10.4155 120.585 9.11476 120.549 7.62389 120.318C6.22063 120.101 4.69227 119.626 4.06517 119.121C4.06518 119.118 4.06486 119.119 4.06486 119.116C4.06665 118.934 4.0909 118.636 4.13994 118.26C4.23801 117.508 4.43252 116.436 4.71165 115.151C5.26992 112.582 6.1666 109.152 7.3124 105.571C8.45819 101.99 9.85454 98.2547 11.4024 95.0777C12.9503 91.9006 14.6745 89.2851 16.3277 87.9622C17.6934 86.8691 20.7432 85.4502 23.7319 84.3861C26.5929 83.3674 29.4789 82.6768 30.698 82.6481C30.7774 82.7713 30.8893 82.971 31.0411 83.2399C31.3726 83.8267 31.8672 84.6469 32.6908 85.4162C34.3382 86.9546 37.2836 88.2096 42.5755 87.4509C45.2421 87.0681 47.5876 85.8551 49.6365 84.7915C51.6855 83.7279 53.452 82.8575 54.7518 82.8945H54.7521C59.0844 83.016 65.035 85.282 71.0748 87.5855C77.1146 89.889 83.2507 92.2281 88.3136 92.342C88.397 92.3438 88.3459 92.3369 88.3443 92.3353C88.3428 92.3338 88.3964 92.4013 88.4396 92.5899C88.5261 92.967 88.5437 93.738 88.5081 94.788C88.4369 96.8879 88.2137 100.145 88.5147 104.542C88.9599 111.044 89.6741 113.427 89.6741 113.427C89.7015 113.517 89.7464 113.601 89.8062 113.674C89.8659 113.747 89.9394 113.807 90.0225 113.851C90.1055 113.896 90.1964 113.923 90.29 113.932C90.3837 113.941 90.4782 113.932 90.5682 113.904C90.6582 113.877 90.7419 113.832 90.8145 113.772C90.8872 113.712 90.9473 113.638 90.9916 113.555C91.0358 113.472 91.0633 113.381 91.0724 113.287C91.0815 113.193 91.072 113.098 91.0446 113.008C91.0446 113.008 90.3838 110.867 89.944 104.444C89.6496 100.144 89.8668 96.9868 89.9398 94.8366C89.9762 93.7616 89.9918 92.9486 89.8357 92.2679C89.7577 91.9276 89.6299 91.5977 89.366 91.3285C89.102 91.0593 88.7076 90.9143 88.3459 90.9061C83.7068 90.8018 77.6197 88.5449 71.5841 86.243C65.5486 83.9412 59.5717 81.5928 54.7925 81.4587H54.7922C52.8908 81.4046 51.0213 82.4552 48.978 83.5159C46.9345 84.5766 44.7313 85.6907 42.3726 86.0293C37.3644 86.7474 34.9923 85.6027 33.6672 84.3652C33.0047 83.7464 32.5991 83.0843 32.2874 82.5323C32.1315 82.2563 32.0048 82.0114 31.8484 81.7825C31.7701 81.668 31.6856 81.554 31.5513 81.4396C31.4171 81.3253 31.2026 81.2025 30.9425 81.1941H30.9419L30.9419 81.1938Z" fill="#6E864C" fill-opacity="0.5"/>
<mask id="mask22_591_54" style="mask-type:luminance" maskUnits="userSpaceOnUse" x="-18" y="-509" width="384" height="2033">
<path d="M365.113 1523.7L365.113 -508.158H-17.8139L-17.8139 1523.7H365.113Z" fill="white"/>
</mask>
<g mask="url(#mask22_591_54)">
<path fill-rule="evenodd" clip-rule="evenodd" d="M8.145 150.218C8.59874 141.026 9.21197 131.594 10.396 121.302C10.396 121.302 5.03737 121.16 3.41816 119.536C2.6291 118.745 8.6182 93.212 15.8804 87.4007C18.9266 84.9626 28.1184 81.8247 30.9193 81.9114C31.838 81.9408 32.1735 88.2165 42.4735 86.7397C47.499 86.0183 51.5704 82.0848 54.7716 82.1762C63.8832 82.4316 78.6274 91.4054 88.3293 91.6237C88.9603 91.6376 89.1822 92.1655 89.2323 93.229C89.3236 95.1656 88.8445 98.8777 89.2289 104.492C89.6714 110.955 90.3589 113.217 90.3589 113.217C90.8571 113.099 91.35 112.926 91.8419 112.702C91.7465 114 90.9073 117.178 87.8041 117.291C76.0491 117.72 62.5986 113.824 62.5986 113.824C62.5986 113.824 60.5026 132.165 61.447 146.29C61.5211 147.399 65.1127 152.145 60.2968 152.247C46.7741 152.53 20.3772 150.995 8.145 150.218Z" fill="#6E864C" fill-opacity="0.5"/>
</g>
<path d="M5.42917 119.831C5.24132 119.802 5.04998 119.85 4.89724 119.963C4.74451 120.077 4.64289 120.246 4.61472 120.434C4.61472 120.434 2.78018 132.698 2.15721 149.847C2.15032 150.037 2.2191 150.222 2.34842 150.362C2.47774 150.501 2.65702 150.584 2.84682 150.591C2.94083 150.594 3.0346 150.579 3.12277 150.546C3.21094 150.513 3.29179 150.463 3.3607 150.399C3.42961 150.335 3.48523 150.258 3.52439 150.172C3.56354 150.086 3.58546 149.993 3.5889 149.899C4.20905 132.828 6.03134 120.648 6.03134 120.648C6.04531 120.554 6.04082 120.459 6.01812 120.368C5.99542 120.276 5.95496 120.19 5.89904 120.114C5.84312 120.038 5.77284 119.974 5.69222 119.926C5.6116 119.877 5.52221 119.845 5.42917 119.831Z" fill="#6E864C" fill-opacity="0.5"/>
<path d="M114.99 53.3716C114.81 53.3131 114.613 53.329 114.444 53.4158L107.048 57.2163C106.936 57.2737 106.841 57.3595 106.773 57.4652C106.705 57.5708 106.666 57.6925 106.659 57.8182C106.653 57.9438 106.679 58.069 106.736 58.1811C106.793 58.2933 106.878 58.3884 106.983 58.4571L110.334 60.6455L114.425 77.5346C114.447 77.6263 114.487 77.7126 114.542 77.7888C114.598 77.865 114.668 77.9295 114.748 77.9785C114.828 78.0276 114.918 78.0604 115.011 78.0749C115.103 78.0894 115.198 78.0854 115.29 78.0631C115.474 78.0181 115.634 77.9015 115.732 77.7388C115.831 77.5761 115.861 77.3808 115.817 77.1957L111.659 60.0296C111.616 59.8518 111.507 59.6971 111.354 59.5973L108.8 57.9298L115.097 54.6941C115.266 54.6072 115.394 54.4566 115.452 54.2753C115.511 54.094 115.495 53.897 115.408 53.7275C115.321 53.5581 115.171 53.4301 114.99 53.3716Z" fill="#6E864C" fill-opacity="0.5"/>
<path d="M118.11 55.5124C117.927 55.4625 117.731 55.4876 117.566 55.5823L110.737 59.5016L105.24 60.0999C105.146 60.1101 105.056 60.1387 104.973 60.1839C104.891 60.2292 104.818 60.2904 104.759 60.3639C104.7 60.4374 104.656 60.5218 104.63 60.6123C104.603 60.7029 104.595 60.7977 104.605 60.8915C104.615 60.9852 104.644 61.0761 104.689 61.1588C104.734 61.2415 104.795 61.3145 104.869 61.3736C104.942 61.4327 105.026 61.4768 105.116 61.5032C105.207 61.5297 105.301 61.5381 105.395 61.5279L111.04 60.9132C111.138 60.9026 111.233 60.8717 111.319 60.8225L118.278 56.8288C118.359 56.782 118.431 56.7194 118.489 56.6448C118.546 56.5702 118.588 56.4849 118.613 56.3939C118.638 56.3029 118.644 56.2079 118.632 56.1143C118.62 56.0208 118.59 55.9305 118.543 55.8486C118.449 55.6833 118.293 55.5624 118.11 55.5124Z" fill="#6E864C" fill-opacity="0.5"/>
<path d="M118.848 64.9758C118.623 64.9973 118.425 65.1394 118.33 65.2555C118.33 65.256 118.329 65.2565 118.329 65.257C118.062 65.5858 118.038 65.7965 117.926 66.1302C117.814 66.4639 117.701 66.8527 117.598 67.2283C117.555 67.3837 117.559 67.3831 117.521 67.5283C117.404 67.4282 117.403 67.4086 117.278 67.3118C116.983 67.0823 116.719 66.8692 116.317 66.7491C116.116 66.6891 115.767 66.6288 115.442 66.8873C115.116 67.1457 115.087 67.519 115.108 67.7638C115.166 68.4637 115.457 69.5213 115.734 70.5091C116.01 71.4969 116.275 72.3498 116.275 72.3498C116.332 72.5316 116.458 72.6835 116.626 72.772C116.794 72.8605 116.991 72.8784 117.172 72.8217C117.262 72.7937 117.345 72.7482 117.418 72.6878C117.49 72.6274 117.55 72.5533 117.593 72.4698C117.637 72.3862 117.664 72.2949 117.672 72.201C117.681 72.107 117.671 72.0123 117.643 71.9223C117.643 71.9223 117.383 71.0856 117.113 70.1206C116.988 69.677 116.867 69.1998 116.764 68.7715C117.049 69.0271 117.415 69.3526 117.415 69.3526C117.506 69.4429 117.618 69.5075 117.741 69.5397C117.865 69.5719 117.994 69.5705 118.117 69.5358C118.239 69.5011 118.35 69.4341 118.439 69.342C118.527 69.2499 118.589 69.1358 118.619 69.0116C118.619 69.0116 118.777 68.3535 118.965 67.6631C119.028 67.8614 119.083 68.0018 119.145 68.21C119.517 69.4571 119.855 70.7606 119.855 70.7606C119.878 70.852 119.92 70.9377 119.976 71.013C120.033 71.0883 120.104 71.1517 120.185 71.1995C120.266 71.2473 120.356 71.2786 120.449 71.2916C120.542 71.3047 120.637 71.2992 120.728 71.2755C120.819 71.2519 120.904 71.2104 120.98 71.1536C121.055 71.0968 121.118 71.0257 121.165 70.9444C121.213 70.8631 121.244 70.7731 121.257 70.6797C121.27 70.5863 121.265 70.4912 121.241 70.3999C121.241 70.3999 120.9 69.0803 120.517 67.7983C120.326 67.1572 120.126 66.5287 119.941 66.0522C119.849 65.814 119.769 65.6213 119.653 65.433C119.595 65.3388 119.551 65.238 119.349 65.104C119.248 65.0371 119.073 64.9546 118.848 64.9761L118.848 64.9758Z" fill="#6E864C" fill-opacity="0.5"/>
<path d="M128.718 54.0289C128.624 54.0272 128.53 54.044 128.443 54.0785C128.355 54.113 128.275 54.1644 128.208 54.2298C128.14 54.2953 128.086 54.3735 128.048 54.4599C128.01 54.5464 127.99 54.6394 127.988 54.7337C127.987 54.828 128.004 54.9217 128.038 55.0095C128.072 55.0973 128.124 55.1774 128.189 55.2453C128.254 55.3132 128.332 55.3675 128.419 55.4051C128.505 55.4428 128.598 55.4631 128.692 55.4648L136.463 55.6078C136.557 55.6095 136.651 55.5927 136.738 55.5582C136.826 55.5238 136.906 55.4723 136.973 55.4069C137.041 55.3414 137.095 55.2632 137.133 55.1768C137.17 55.0903 137.191 54.9973 137.192 54.903C137.194 54.8087 137.177 54.7149 137.143 54.6271C137.109 54.5393 137.057 54.4592 136.992 54.3913C136.927 54.3233 136.849 54.269 136.762 54.2313C136.676 54.1936 136.583 54.1733 136.489 54.1716L128.718 54.0289Z" fill="#6E864C" fill-opacity="0.5"/>
<path d="M94.9532 54.0289C94.8591 54.0272 94.7657 54.044 94.6781 54.0785C94.5905 54.113 94.5106 54.1644 94.4429 54.2298C94.3751 54.2953 94.3209 54.3735 94.2833 54.4599C94.2457 54.5464 94.2255 54.6394 94.2238 54.7337C94.222 54.828 94.2389 54.9217 94.2733 55.0095C94.3077 55.0973 94.359 55.1774 94.4243 55.2453C94.4896 55.3132 94.5676 55.3675 94.6539 55.4051C94.7401 55.4428 94.8329 55.4631 94.9269 55.4648L102.698 55.6078C102.792 55.6095 102.886 55.5927 102.973 55.5582C103.061 55.5238 103.141 55.4723 103.209 55.4069C103.276 55.3414 103.331 55.2632 103.368 55.1768C103.406 55.0903 103.426 54.9973 103.428 54.903C103.43 54.8087 103.413 54.7149 103.378 54.6271C103.344 54.5393 103.293 54.4592 103.227 54.3913C103.162 54.3233 103.084 54.269 102.998 54.2313C102.912 54.1936 102.819 54.1733 102.725 54.1716L94.9532 54.0289Z" fill="#6E864C" fill-opacity="0.5"/>
<path d="M83.3279 54.0289C83.138 54.0255 82.9545 54.0978 82.8178 54.2299C82.6811 54.3621 82.6023 54.5433 82.5988 54.7337C82.5953 54.9241 82.6674 55.1081 82.7992 55.2452C82.931 55.3822 83.1117 55.4612 83.3016 55.4648L91.0731 55.6078C91.1672 55.6095 91.2606 55.5927 91.3482 55.5582C91.4357 55.5238 91.5157 55.4723 91.5834 55.4069C91.6511 55.3414 91.7053 55.2632 91.7429 55.1768C91.7805 55.0903 91.8008 54.9973 91.8025 54.903C91.8043 54.8087 91.7875 54.7149 91.7531 54.6271C91.7187 54.5393 91.6673 54.4592 91.602 54.3913C91.5367 54.3233 91.4587 54.269 91.3725 54.2313C91.2862 54.1936 91.1934 54.1733 91.0993 54.1716L83.3279 54.0289Z" fill="#6E864C" fill-opacity="0.5"/>
<path d="M71.7027 54.0289C71.6086 54.0272 71.5152 54.044 71.4276 54.0785C71.3401 54.113 71.2601 54.1644 71.1924 54.2298C71.1247 54.2953 71.0705 54.3735 71.0329 54.4599C70.9953 54.5464 70.975 54.6394 70.9733 54.7337C70.9716 54.828 70.9884 54.9217 71.0228 55.0095C71.0572 55.0973 71.1086 55.1774 71.1738 55.2453C71.2391 55.3132 71.3171 55.3675 71.4034 55.4051C71.4896 55.4428 71.5824 55.4631 71.6764 55.4648L79.4479 55.6078C79.542 55.6095 79.6354 55.5927 79.723 55.5582C79.8105 55.5238 79.8905 55.4723 79.9582 55.4069C80.0259 55.3414 80.0802 55.2632 80.1178 55.1768C80.1553 55.0903 80.1756 54.9973 80.1773 54.903C80.1791 54.8087 80.1623 54.7149 80.1279 54.6271C80.0935 54.5393 80.0422 54.4592 79.9769 54.3913C79.9116 54.3233 79.8336 54.269 79.7473 54.2313C79.661 54.1936 79.5682 54.1733 79.4742 54.1716L71.7027 54.0289Z" fill="#6E864C" fill-opacity="0.5"/>
<path d="M60.4319 54.0363C60.242 54.0328 60.0585 54.1051 59.9218 54.2373C59.7851 54.3694 59.7063 54.5506 59.7028 54.741C59.701 54.8353 59.7178 54.9291 59.7522 55.0169C59.7866 55.1047 59.8379 55.1849 59.9032 55.2528C59.9685 55.3207 60.0465 55.375 60.1328 55.4127C60.2191 55.4504 60.3119 55.4707 60.4059 55.4724L67.8231 55.6079C68.013 55.6113 68.1965 55.539 68.3332 55.4068C68.4699 55.2747 68.5487 55.0935 68.5522 54.9031C68.554 54.8088 68.5372 54.7151 68.5028 54.6273C68.4684 54.5395 68.4171 54.4593 68.3519 54.3914C68.2866 54.3235 68.2086 54.2692 68.1224 54.2315C68.0362 54.1938 67.9434 54.1734 67.8493 54.1717L60.4319 54.0363Z" fill="#6E864C" fill-opacity="0.5"/>
<path d="M13.5764 54.0289C13.3865 54.0255 13.203 54.0978 13.0663 54.2299C12.9296 54.3621 12.8508 54.5433 12.8473 54.7337C12.8438 54.9241 12.916 55.1081 13.0478 55.2452C13.1796 55.3822 13.3603 55.4612 13.5502 55.4648L21.3219 55.6078C21.5118 55.6112 21.6953 55.5389 21.832 55.4068C21.9688 55.2746 22.0475 55.0934 22.0511 54.903C22.0528 54.8087 22.036 54.715 22.0016 54.6272C21.9672 54.5394 21.916 54.4593 21.8507 54.3914C21.7854 54.3235 21.7074 54.2691 21.6212 54.2314C21.535 54.1937 21.4422 54.1734 21.3482 54.1716L13.5764 54.0289Z" fill="#6E864C" fill-opacity="0.5"/>
<path d="M135.994 12.6505C135.9 12.6488 135.806 12.6656 135.719 12.7001C135.631 12.7346 135.551 12.7861 135.483 12.8515C135.416 12.917 135.361 12.9952 135.324 13.0817C135.286 13.1682 135.266 13.2613 135.264 13.3556C135.261 13.546 135.333 13.73 135.465 13.867C135.597 14.0041 135.777 14.0831 135.967 14.0867L143.739 14.2297C143.929 14.2331 144.112 14.1608 144.249 14.0286C144.386 13.8965 144.465 13.7153 144.468 13.5249C144.47 13.4306 144.453 13.3369 144.419 13.2491C144.384 13.1613 144.333 13.0812 144.268 13.0133C144.202 12.9453 144.124 12.891 144.038 12.8533C143.952 12.8156 143.859 12.7953 143.765 12.7935L135.994 12.6505Z" fill="#6E864C" fill-opacity="0.5"/>
<path d="M124.778 12.6505C124.684 12.6488 124.59 12.6657 124.503 12.7002C124.415 12.7347 124.335 12.7862 124.267 12.8516C124.2 12.9171 124.145 12.9953 124.108 13.0818C124.07 13.1682 124.05 13.2613 124.048 13.3556C124.045 13.546 124.117 13.7299 124.249 13.867C124.381 14.0041 124.561 14.0831 124.751 14.0867L132.523 14.2297C132.713 14.2331 132.896 14.1608 133.033 14.0286C133.17 13.8965 133.249 13.7153 133.252 13.5249C133.254 13.4306 133.237 13.3369 133.203 13.2491C133.168 13.1613 133.117 13.0812 133.052 13.0132C132.987 12.9453 132.909 12.891 132.822 12.8533C132.736 12.8156 132.643 12.7953 132.549 12.7935L124.778 12.6505Z" fill="#6E864C" fill-opacity="0.5"/>
<path d="M113.562 12.6505C113.468 12.6488 113.374 12.6656 113.287 12.7001C113.199 12.7346 113.119 12.7861 113.052 12.8515C112.984 12.917 112.93 12.9952 112.892 13.0817C112.855 13.1682 112.834 13.2613 112.833 13.3556C112.831 13.4499 112.848 13.5436 112.882 13.6314C112.917 13.7191 112.968 13.7993 113.033 13.8672C113.099 13.935 113.177 13.9894 113.263 14.027C113.349 14.0647 113.442 14.085 113.536 14.0867L121.307 14.2297C121.401 14.2314 121.495 14.2146 121.582 14.1801C121.67 14.1456 121.75 14.0942 121.818 14.0288C121.885 13.9633 121.94 13.8851 121.977 13.7987C122.015 13.7122 122.035 13.6192 122.037 13.5249C122.038 13.4306 122.022 13.3368 121.987 13.249C121.953 13.1612 121.902 13.0811 121.836 13.0131C121.771 12.9452 121.693 12.8909 121.607 12.8532C121.52 12.8155 121.428 12.7952 121.334 12.7935L113.562 12.6505Z" fill="#6E864C" fill-opacity="0.5"/>
<path d="M102.346 12.6505C102.252 12.6488 102.158 12.6657 102.071 12.7002C101.983 12.7347 101.903 12.7862 101.836 12.8516C101.768 12.9171 101.714 12.9953 101.676 13.0818C101.639 13.1682 101.619 13.2613 101.617 13.3556C101.613 13.546 101.685 13.7299 101.817 13.867C101.949 14.0041 102.13 14.0831 102.32 14.0867L110.091 14.2297C110.281 14.2331 110.465 14.1608 110.602 14.0286C110.738 13.8965 110.817 13.7153 110.821 13.5249C110.822 13.4306 110.806 13.3369 110.771 13.2491C110.737 13.1613 110.685 13.0812 110.62 13.0132C110.555 12.9453 110.477 12.891 110.391 12.8533C110.305 12.8156 110.212 12.7953 110.118 12.7935L102.346 12.6505Z" fill="#6E864C" fill-opacity="0.5"/>
<path d="M91.1306 12.6505C91.0366 12.6488 90.9431 12.6657 90.8556 12.7002C90.768 12.7347 90.6881 12.7862 90.6204 12.8516C90.5527 12.9171 90.4985 12.9953 90.461 13.0818C90.4234 13.1682 90.4032 13.2613 90.4015 13.3556C90.398 13.546 90.4702 13.7299 90.602 13.867C90.7338 14.0041 90.9145 14.0831 91.1044 14.0867L98.8758 14.2297C98.9699 14.2314 99.0634 14.2146 99.1509 14.1801C99.2385 14.1456 99.3184 14.0942 99.3861 14.0288C99.4539 13.9633 99.5081 13.8851 99.5457 13.7987C99.5833 13.7122 99.6035 13.6192 99.6053 13.5249C99.607 13.4306 99.5902 13.3368 99.5558 13.249C99.5214 13.1612 99.4701 13.0811 99.4048 13.0131C99.3395 12.9452 99.2615 12.8909 99.1752 12.8532C99.089 12.8155 98.9961 12.7952 98.9021 12.7935L91.1306 12.6505Z" fill="#6E864C" fill-opacity="0.5"/>
<path d="M79.9148 12.6505C79.8207 12.6488 79.7273 12.6657 79.6397 12.7002C79.5522 12.7347 79.4723 12.7862 79.4046 12.8516C79.3369 12.9171 79.2827 12.9953 79.2451 13.0818C79.2076 13.1682 79.1874 13.2613 79.1857 13.3556C79.1822 13.546 79.2543 13.7299 79.3861 13.867C79.518 14.0041 79.6987 14.0831 79.8885 14.0867L87.6603 14.2297C87.8502 14.2331 88.0337 14.1608 88.1704 14.0286C88.3071 13.8965 88.3859 13.7153 88.3894 13.5249C88.3912 13.4306 88.3744 13.3369 88.34 13.2491C88.3056 13.1613 88.2543 13.0812 88.1891 13.0132C88.1238 12.9453 88.0458 12.891 87.9596 12.8533C87.8734 12.8156 87.7806 12.7953 87.6866 12.7935L79.9148 12.6505Z" fill="#6E864C" fill-opacity="0.5"/>
<path d="M68.6988 12.6505C68.6047 12.6488 68.5112 12.6656 68.4236 12.7001C68.3361 12.7346 68.2561 12.7861 68.1884 12.8515C68.1206 12.917 68.0664 12.9952 68.0289 13.0817C67.9913 13.1682 67.9711 13.2613 67.9694 13.3556C67.9677 13.4499 67.9845 13.5436 68.0189 13.6314C68.0533 13.7191 68.1046 13.7993 68.1699 13.8672C68.2352 13.935 68.3132 13.9894 68.3995 14.027C68.4857 14.0647 68.5785 14.085 68.6725 14.0867L76.444 14.2297C76.5381 14.2314 76.6315 14.2146 76.7191 14.1801C76.8066 14.1456 76.8866 14.0942 76.9543 14.0288C77.022 13.9633 77.0762 13.8851 77.1138 13.7987C77.1514 13.7122 77.1717 13.6192 77.1734 13.5249C77.1752 13.4306 77.1584 13.3368 77.124 13.249C77.0896 13.1612 77.0383 13.0811 76.973 13.0131C76.9077 12.9452 76.8296 12.8909 76.7434 12.8532C76.6571 12.8155 76.5643 12.7952 76.4702 12.7935L68.6988 12.6505Z" fill="#6E864C" fill-opacity="0.5"/>
<path d="M57.4831 12.6505C57.3891 12.6488 57.2956 12.6657 57.2081 12.7002C57.1206 12.7347 57.0406 12.7862 56.9729 12.8516C56.9052 12.9171 56.8511 12.9953 56.8135 13.0818C56.7759 13.1682 56.7557 13.2613 56.754 13.3556C56.7506 13.546 56.8227 13.7299 56.9545 13.867C57.0863 14.0041 57.267 14.0831 57.4569 14.0867L65.2287 14.2297C65.4186 14.2331 65.602 14.1608 65.7388 14.0286C65.8755 13.8965 65.9543 13.7153 65.9578 13.5249C65.9595 13.4306 65.9427 13.3369 65.9084 13.2491C65.874 13.1613 65.8227 13.0812 65.7574 13.0132C65.6922 12.9453 65.6142 12.891 65.528 12.8533C65.4417 12.8156 65.349 12.7953 65.2549 12.7935L57.4831 12.6505Z" fill="#6E864C" fill-opacity="0.5"/>
<path d="M46.2676 12.6505C46.1735 12.6488 46.0801 12.6656 45.9925 12.7001C45.9049 12.7346 45.825 12.7861 45.7572 12.8515C45.6895 12.917 45.6353 12.9952 45.5977 13.0817C45.5601 13.1682 45.5399 13.2613 45.5382 13.3556C45.5365 13.4499 45.5533 13.5436 45.5878 13.6314C45.6222 13.7191 45.6735 13.7993 45.7388 13.8672C45.8041 13.935 45.8821 13.9894 45.9683 14.027C46.0546 14.0647 46.1473 14.085 46.2414 14.0867L54.0129 14.2297C54.1069 14.2314 54.2004 14.2146 54.2879 14.1801C54.3755 14.1456 54.4554 14.0942 54.5231 14.0288C54.5909 13.9633 54.6451 13.8851 54.6827 13.7987C54.7203 13.7122 54.7405 13.6192 54.7423 13.5249C54.744 13.4306 54.7272 13.3368 54.6928 13.249C54.6584 13.1612 54.6071 13.0811 54.5418 13.0131C54.4765 12.9452 54.3985 12.8909 54.3122 12.8532C54.226 12.8155 54.1332 12.7952 54.0391 12.7935L46.2676 12.6505Z" fill="#6E864C" fill-opacity="0.5"/>
<path d="M35.0515 12.6505C34.9574 12.6488 34.864 12.6657 34.7764 12.7002C34.6889 12.7347 34.609 12.7862 34.5413 12.8516C34.4736 12.9171 34.4194 12.9953 34.3819 13.0818C34.3443 13.1682 34.3241 13.2613 34.3224 13.3556C34.3189 13.546 34.3911 13.7299 34.5229 13.867C34.6547 14.0041 34.8354 14.0831 35.0253 14.0867L42.7967 14.2297C42.8908 14.2314 42.9843 14.2146 43.0718 14.1801C43.1594 14.1456 43.2393 14.0942 43.307 14.0288C43.3747 13.9633 43.429 13.8851 43.4666 13.7987C43.5042 13.7122 43.5244 13.6192 43.5262 13.5249C43.5279 13.4306 43.5111 13.3369 43.4767 13.2491C43.4423 13.1613 43.3911 13.0812 43.3258 13.0132C43.2605 12.9453 43.1825 12.891 43.0963 12.8533C43.0101 12.8156 42.9173 12.7953 42.8233 12.7935L35.0515 12.6505Z" fill="#6E864C" fill-opacity="0.5"/>
<path d="M23.836 12.6505C23.7419 12.6488 23.6484 12.6656 23.5608 12.7001C23.4733 12.7346 23.3933 12.7861 23.3256 12.8515C23.2579 12.917 23.2036 12.9952 23.1661 13.0817C23.1285 13.1682 23.1083 13.2613 23.1066 13.3556C23.1049 13.4499 23.1217 13.5436 23.1561 13.6314C23.1905 13.7191 23.2419 13.7993 23.3071 13.8672C23.3724 13.935 23.4504 13.9894 23.5367 14.027C23.6229 14.0647 23.7157 14.085 23.8097 14.0867L31.5812 14.2297C31.6753 14.2314 31.7687 14.2146 31.8563 14.1801C31.9438 14.1456 32.0238 14.0942 32.0915 14.0288C32.1592 13.9633 32.2134 13.8851 32.251 13.7987C32.2886 13.7122 32.3089 13.6192 32.3106 13.5249C32.3124 13.4306 32.2956 13.3368 32.2612 13.249C32.2268 13.1612 32.1755 13.0811 32.1102 13.0131C32.0449 12.9452 31.9669 12.8909 31.8806 12.8532C31.7943 12.8155 31.7015 12.7952 31.6075 12.7935L23.836 12.6505Z" fill="#6E864C" fill-opacity="0.5"/>
<path d="M12.6199 12.6505C12.5258 12.6488 12.4323 12.6657 12.3448 12.7002C12.2573 12.7347 12.1774 12.7862 12.1097 12.8516C12.042 12.9171 11.9878 12.9953 11.9502 13.0818C11.9127 13.1682 11.8924 13.2613 11.8907 13.3556C11.8873 13.546 11.9594 13.7299 12.0912 13.867C12.223 14.0041 12.4037 14.0831 12.5936 14.0867L20.3651 14.2297C20.4591 14.2314 20.5526 14.2146 20.6402 14.1801C20.7277 14.1456 20.8076 14.0942 20.8754 14.0288C20.9431 13.9633 20.9973 13.8851 21.0349 13.7987C21.0725 13.7122 21.0928 13.6192 21.0945 13.5249C21.0963 13.4306 21.0795 13.3369 21.0451 13.2491C21.0107 13.1613 20.9594 13.0812 20.8941 13.0132C20.8289 12.9453 20.7509 12.891 20.6647 12.8533C20.5785 12.8156 20.4857 12.7953 20.3916 12.7935L12.6199 12.6505Z" fill="#6E864C" fill-opacity="0.5"/>
<path d="M133.536 80.4788C133.417 80.4011 133.277 80.3605 133.135 80.3624C132.993 80.3642 132.855 80.4082 132.738 80.489L128.798 83.2089C128.642 83.3169 128.535 83.4828 128.5 83.6701C128.466 83.8574 128.507 84.0507 128.615 84.2075C128.722 84.3644 128.888 84.472 129.074 84.5066C129.261 84.5411 129.454 84.4999 129.611 84.392L133.155 81.9448L136.876 84.3772C137.035 84.4812 137.229 84.5176 137.415 84.4784C137.601 84.4391 137.764 84.3275 137.867 84.1679C137.919 84.0889 137.954 84.0005 137.972 83.9078C137.989 83.815 137.988 83.7198 137.968 83.6275C137.949 83.5352 137.912 83.4476 137.858 83.3697C137.805 83.2919 137.737 83.2253 137.659 83.1738L133.536 80.4788Z" fill="#6E864C" fill-opacity="0.5"/>
<path d="M99.771 80.4784C99.652 80.4006 99.5127 80.3601 99.3706 80.3619C99.2286 80.3637 99.0904 80.4078 98.9734 80.4886L95.0335 83.2085C94.8771 83.3165 94.7699 83.4824 94.7355 83.6697C94.7011 83.857 94.7422 84.0503 94.8499 84.2071C94.9576 84.364 95.123 84.4716 95.3098 84.5061C95.4966 84.5407 95.6894 84.4995 95.8459 84.3916L99.3907 81.9444L103.112 84.3767C103.271 84.4808 103.465 84.5172 103.65 84.478C103.836 84.4387 103.999 84.327 104.103 84.1675C104.154 84.0885 104.19 84.0001 104.207 83.9073C104.224 83.8146 104.223 83.7194 104.204 83.6271C104.184 83.5348 104.147 83.4472 104.094 83.3693C104.041 83.2915 103.973 83.2249 103.894 83.1734L99.771 80.4784Z" fill="#6E864C" fill-opacity="0.5"/>
<path d="M88.1454 80.4788C88.0264 80.4011 87.8872 80.3605 87.7452 80.3624C87.6033 80.3642 87.4651 80.4082 87.3481 80.489L83.4083 83.2089C83.2518 83.3169 83.1446 83.4828 83.1101 83.67C83.0756 83.8573 83.1167 84.0506 83.2243 84.2075C83.2777 84.2853 83.3457 84.3517 83.4247 84.403C83.5036 84.4543 83.5918 84.4896 83.6844 84.5067C83.7769 84.5238 83.8719 84.5225 83.9639 84.5028C84.0559 84.4831 84.1431 84.4455 84.2206 84.392L87.7652 81.9448L91.4861 84.3772C91.6452 84.4812 91.839 84.5176 92.0249 84.4784C92.2108 84.4391 92.3735 84.3275 92.4772 84.1679C92.5287 84.0889 92.5641 84.0006 92.5814 83.9078C92.5987 83.8151 92.5977 83.7198 92.5783 83.6275C92.5589 83.5352 92.5216 83.4476 92.4685 83.3698C92.4153 83.2919 92.3474 83.2253 92.2686 83.1738L88.1454 80.4788Z" fill="#6E864C" fill-opacity="0.5"/>
<path d="M76.5204 80.4788C76.4014 80.4011 76.2622 80.3605 76.1202 80.3624C75.9783 80.3642 75.8401 80.4082 75.7231 80.489L71.7833 83.2089C71.6268 83.3169 71.5196 83.4828 71.4851 83.67C71.4506 83.8573 71.4917 84.0506 71.5993 84.2075C71.6527 84.2853 71.7207 84.3517 71.7997 84.403C71.8786 84.4543 71.9668 84.4896 72.0594 84.5067C72.1519 84.5238 72.2469 84.5225 72.3389 84.5028C72.4309 84.4831 72.5181 84.4455 72.5956 84.392L76.1402 81.9448L79.8611 84.3772C80.0202 84.4812 80.214 84.5176 80.3999 84.4784C80.5858 84.4391 80.7485 84.3275 80.8522 84.1679C80.9037 84.0889 80.9391 84.0006 80.9564 83.9078C80.9737 83.8151 80.9727 83.7198 80.9533 83.6275C80.9339 83.5352 80.8966 83.4476 80.8435 83.3698C80.7903 83.2919 80.7224 83.2253 80.6436 83.1738L76.5204 80.4788Z" fill="#6E864C" fill-opacity="0.5"/>
<path d="M64.8949 80.4788C64.776 80.4011 64.6367 80.3605 64.4947 80.3624C64.3528 80.3642 64.2146 80.4082 64.0976 80.489L60.1578 83.2089C60.0013 83.3169 59.8941 83.4828 59.8596 83.67C59.8251 83.8573 59.8662 84.0506 59.9738 84.2075C60.0272 84.2853 60.0952 84.3517 60.1742 84.403C60.2531 84.4543 60.3414 84.4896 60.4339 84.5067C60.5264 84.5238 60.6214 84.5225 60.7134 84.5028C60.8054 84.4831 60.8926 84.4455 60.9701 84.392L64.5147 81.9448L68.2356 84.3772C68.3144 84.4287 68.4026 84.4642 68.495 84.4816C68.5875 84.499 68.6825 84.4979 68.7746 84.4785C68.8666 84.4591 68.954 84.4216 69.0316 84.3683C69.1093 84.3151 69.1757 84.247 69.2271 84.1679C69.2785 84.0889 69.3138 84.0005 69.3312 83.9078C69.3485 83.815 69.3474 83.7198 69.328 83.6275C69.3086 83.5352 69.2712 83.4476 69.2181 83.3697C69.1649 83.2919 69.0969 83.2253 69.0181 83.1738L64.8949 80.4788Z" fill="#6E864C" fill-opacity="0.5"/>
<path d="M53.27 80.4791C53.1511 80.4012 53.0117 80.3606 52.8696 80.3624C52.7275 80.3641 52.5892 80.4082 52.4722 80.489L50.9681 81.5279C50.8117 81.6359 50.7045 81.8018 50.6701 81.9891C50.6356 82.1763 50.6768 82.3697 50.7845 82.5265C50.8378 82.6042 50.9059 82.6706 50.9849 82.7219C51.0638 82.7732 51.1521 82.8084 51.2446 82.8255C51.3371 82.8426 51.4321 82.8412 51.5241 82.8215C51.6161 82.8018 51.7033 82.7642 51.7808 82.7107L52.8892 81.9451L54.1617 82.7778C54.3207 82.8819 54.5145 82.9184 54.7003 82.8792C54.8862 82.8401 55.049 82.7286 55.1528 82.5692C55.2043 82.4902 55.2397 82.4018 55.2571 82.3091C55.2745 82.2164 55.2735 82.1212 55.2542 82.0289C55.2348 81.9366 55.1976 81.849 55.1445 81.7711C55.0914 81.6932 55.0235 81.6266 54.9448 81.575L53.27 80.4791Z" fill="#6E864C" fill-opacity="0.5"/>
<path d="M30.0199 80.479C29.9009 80.4012 29.7616 80.3606 29.6196 80.3624C29.4776 80.3641 29.3393 80.4082 29.2223 80.4889L27.2777 81.831C27.1213 81.9391 27.0141 82.105 26.9796 82.2922C26.9452 82.4795 26.9864 82.6728 27.0941 82.8297C27.2018 82.9866 27.3672 83.0941 27.554 83.1287C27.7407 83.1633 27.9336 83.1221 28.09 83.0141L29.639 81.945L30.5077 82.5131C30.5865 82.5647 30.6747 82.6002 30.7671 82.6176C30.8596 82.6351 30.9546 82.634 31.0466 82.6146C31.1387 82.5952 31.2261 82.5578 31.3037 82.5046C31.3814 82.4513 31.4478 82.3832 31.4992 82.3042C31.5506 82.2252 31.586 82.1368 31.6033 82.0441C31.6207 81.9514 31.6196 81.8561 31.6002 81.7638C31.5809 81.6715 31.5435 81.5839 31.4904 81.5061C31.4373 81.4282 31.3693 81.3616 31.2905 81.3101L30.0199 80.479Z" fill="#6E864C" fill-opacity="0.5"/>
<path d="M18.3945 80.4784C18.2755 80.4006 18.1362 80.3601 17.9942 80.3619C17.8522 80.3637 17.7139 80.4078 17.5969 80.4886L13.6571 83.2085C13.5007 83.3165 13.3935 83.4824 13.359 83.6697C13.3246 83.857 13.3658 84.0503 13.4734 84.2071C13.5811 84.364 13.7466 84.4716 13.9333 84.5061C14.1201 84.5407 14.3129 84.4995 14.4694 84.3916L18.014 81.9444L21.7352 84.3767C21.8943 84.4808 22.0881 84.5172 22.274 84.478C22.4599 84.4387 22.6226 84.327 22.7264 84.1675C22.7778 84.0885 22.8131 84.0001 22.8305 83.9073C22.8478 83.8146 22.8467 83.7194 22.8273 83.6271C22.8079 83.5348 22.7705 83.4472 22.7174 83.3693C22.6642 83.2915 22.5962 83.2249 22.5174 83.1734L18.3945 80.4784Z" fill="#6E864C" fill-opacity="0.5"/>
<path d="M140.811 39.1005C140.692 39.0227 140.553 38.9822 140.411 38.9839C140.269 38.9857 140.131 39.0297 140.014 39.1104L136.074 41.8303C135.996 41.8838 135.93 41.9521 135.879 42.0313C135.828 42.1104 135.793 42.1989 135.776 42.2917C135.758 42.3844 135.76 42.4796 135.779 42.5719C135.799 42.6641 135.837 42.7516 135.89 42.8293C135.943 42.907 136.012 42.9734 136.09 43.0247C136.169 43.076 136.258 43.1112 136.35 43.1283C136.443 43.1453 136.538 43.144 136.63 43.1243C136.722 43.1046 136.809 43.0669 136.886 43.0134L140.431 40.5665L144.152 42.9989C144.311 43.1029 144.505 43.1392 144.691 43.0999C144.877 43.0607 145.039 42.9489 145.143 42.7894C145.247 42.6298 145.283 42.4354 145.244 42.2491C145.205 42.0627 145.093 41.8995 144.934 41.7955L140.811 39.1005Z" fill="#6E864C" fill-opacity="0.5"/>
<path d="M129.595 39.1005C129.476 39.0228 129.337 38.9822 129.195 38.9839C129.053 38.9857 128.915 39.0297 128.798 39.1104L124.858 41.8303C124.781 41.8838 124.714 41.952 124.663 42.0312C124.612 42.1103 124.577 42.1988 124.56 42.2916C124.543 42.3843 124.544 42.4796 124.564 42.5719C124.583 42.6641 124.621 42.7516 124.674 42.8293C124.728 42.907 124.796 42.9734 124.875 43.0247C124.954 43.076 125.042 43.1112 125.134 43.1283C125.227 43.1453 125.322 43.144 125.414 43.1243C125.506 43.1046 125.593 43.0669 125.67 43.0134L129.215 40.5665L132.936 42.9989C133.015 43.0504 133.103 43.0859 133.195 43.1033C133.288 43.1206 133.383 43.1196 133.475 43.1001C133.567 43.0806 133.654 43.0432 133.732 42.9899C133.81 42.9365 133.876 42.8684 133.927 42.7894C134.031 42.6298 134.067 42.4354 134.028 42.2491C133.989 42.0627 133.878 41.8995 133.718 41.7955L129.595 39.1005Z" fill="#6E864C" fill-opacity="0.5"/>
<path d="M118.38 39.1005C118.261 39.0228 118.121 38.9822 117.979 38.9839C117.837 38.9857 117.699 39.0297 117.582 39.1104L113.642 41.8303C113.565 41.8838 113.498 41.9521 113.447 42.0313C113.396 42.1104 113.361 42.1989 113.344 42.2917C113.327 42.3844 113.328 42.4796 113.348 42.5719C113.367 42.6641 113.405 42.7516 113.458 42.8293C113.512 42.907 113.58 42.9734 113.659 43.0247C113.738 43.076 113.826 43.1112 113.919 43.1283C114.011 43.1453 114.106 43.144 114.198 43.1243C114.29 43.1046 114.377 43.0669 114.455 43.0134L117.999 40.5665L121.72 42.9989C121.879 43.1029 122.073 43.1392 122.259 43.0999C122.445 43.0607 122.608 42.9489 122.711 42.7894C122.815 42.6298 122.851 42.4354 122.812 42.2491C122.773 42.0627 122.662 41.8995 122.502 41.7955L118.38 39.1005Z" fill="#6E864C" fill-opacity="0.5"/>
<path d="M107.164 39.1005C107.045 39.0228 106.905 38.9822 106.763 38.9839C106.622 38.9857 106.483 39.0297 106.366 39.1104L102.426 41.8303C102.349 41.8838 102.283 41.952 102.232 42.0312C102.18 42.1103 102.145 42.1988 102.128 42.2916C102.111 42.3843 102.112 42.4796 102.132 42.5719C102.152 42.6641 102.189 42.7516 102.243 42.8293C102.296 42.907 102.364 42.9734 102.443 43.0247C102.522 43.076 102.61 43.1112 102.703 43.1283C102.795 43.1453 102.89 43.144 102.982 43.1243C103.074 43.1046 103.161 43.0669 103.239 43.0134L106.783 40.5665L110.504 42.9989C110.663 43.1029 110.857 43.1392 111.043 43.0999C111.229 43.0607 111.392 42.9489 111.495 42.7894C111.599 42.6298 111.635 42.4355 111.596 42.2491C111.557 42.0628 111.446 41.8996 111.287 41.7955L107.164 39.1005Z" fill="#6E864C" fill-opacity="0.5"/>
<path d="M95.9478 39.1005C95.8289 39.0228 95.6896 38.9822 95.5476 38.9839C95.4057 38.9857 95.2675 39.0297 95.1505 39.1104L91.2106 41.8303C91.1331 41.8838 91.0669 41.952 91.0157 42.0312C90.9645 42.1103 90.9294 42.1988 90.9123 42.2916C90.8952 42.3843 90.8965 42.4796 90.9162 42.5719C90.9358 42.6641 90.9734 42.7516 91.0267 42.8293C91.0801 42.907 91.1482 42.9734 91.2271 43.0247C91.306 43.076 91.3943 43.1112 91.4868 43.1283C91.5793 43.1453 91.6743 43.144 91.7663 43.1243C91.8583 43.1046 91.9455 43.0669 92.023 43.0134L95.5675 40.5665L99.2885 42.9989C99.4476 43.1029 99.6415 43.1392 99.8273 43.0999C100.013 43.0607 100.176 42.9489 100.28 42.7894C100.383 42.6298 100.42 42.4355 100.381 42.2491C100.341 42.0628 100.23 41.8996 100.071 41.7955L95.9478 39.1005Z" fill="#6E864C" fill-opacity="0.5"/>
<path d="M84.7319 39.1005C84.613 39.0228 84.4738 38.9822 84.3318 38.9839C84.1899 38.9857 84.0516 39.0297 83.9347 39.1104L79.9948 41.8303C79.9173 41.8838 79.8511 41.952 79.7999 42.0312C79.7487 42.1103 79.7136 42.1988 79.6965 42.2916C79.6794 42.3843 79.6807 42.4796 79.7003 42.5719C79.72 42.6641 79.7575 42.7516 79.8109 42.8293C79.8642 42.907 79.9323 42.9734 80.0113 43.0247C80.0902 43.076 80.1785 43.1112 80.271 43.1283C80.3635 43.1453 80.4585 43.144 80.5505 43.1243C80.6425 43.1046 80.7297 43.0669 80.8072 43.0134L84.3517 40.5665L88.0727 42.9989C88.2318 43.1029 88.4256 43.1392 88.6115 43.0999C88.7974 43.0607 88.9601 42.9489 89.0638 42.7894C89.1676 42.6298 89.2039 42.4355 89.1647 42.2491C89.1256 42.0628 89.0142 41.8996 88.8551 41.7955L84.7319 39.1005Z" fill="#6E864C" fill-opacity="0.5"/>
<path d="M73.5166 39.1005C73.3977 39.0228 73.2584 38.9822 73.1165 38.9839C72.9745 38.9857 72.8363 39.0297 72.7194 39.1104L68.7795 41.8303C68.702 41.8838 68.6357 41.952 68.5845 42.0312C68.5334 42.1103 68.4982 42.1988 68.4811 42.2916C68.4641 42.3843 68.4654 42.4796 68.485 42.5719C68.5046 42.6641 68.5422 42.7516 68.5956 42.8293C68.6489 42.907 68.717 42.9734 68.7959 43.0247C68.8749 43.076 68.9631 43.1112 69.0557 43.1283C69.1482 43.1453 69.2431 43.144 69.3351 43.1243C69.4271 43.1046 69.5144 43.0669 69.5918 43.0134L73.1364 40.5665L76.8573 42.9989C77.0165 43.1029 77.2103 43.1392 77.3962 43.0999C77.5821 43.0607 77.7448 42.9489 77.8485 42.7894C77.9522 42.6298 77.9885 42.4355 77.9494 42.2491C77.9103 42.0628 77.7989 41.8996 77.6398 41.7955L73.5166 39.1005Z" fill="#6E864C" fill-opacity="0.5"/>
<path d="M62.3005 39.1005C62.1816 39.0228 62.0423 38.9822 61.9004 38.9839C61.7584 38.9857 61.6202 39.0297 61.5032 39.1104L57.7606 41.6943C57.6042 41.8023 57.497 41.9682 57.4626 42.1554C57.4281 42.3427 57.4693 42.5361 57.577 42.6929C57.6847 42.8498 57.8501 42.9573 58.0369 42.9919C58.2236 43.0265 58.4165 42.9853 58.5729 42.8773L61.9203 40.5665L65.6412 42.9989C65.8004 43.1029 65.9942 43.1392 66.1801 43.0999C66.366 43.0607 66.5286 42.9489 66.6324 42.7894C66.7361 42.6298 66.7724 42.4355 66.7333 42.2491C66.6942 42.0628 66.5828 41.8996 66.4237 41.7955L62.3005 39.1005Z" fill="#6E864C" fill-opacity="0.5"/>
<path d="M17.4381 39.1006C17.3192 39.0228 17.1798 38.9822 17.0378 38.9839C16.8958 38.9857 16.7575 39.0298 16.6405 39.1105L12.7007 41.8304C12.6232 41.8839 12.557 41.9522 12.5058 42.0314C12.4547 42.1105 12.4195 42.199 12.4025 42.2918C12.3854 42.3845 12.3868 42.4798 12.4064 42.572C12.4261 42.6643 12.4637 42.7517 12.517 42.8294C12.6248 42.9862 12.7902 43.0937 12.977 43.1282C13.1638 43.1627 13.3566 43.1215 13.513 43.0135L17.0579 40.5666L20.7788 42.999C20.938 43.103 21.1318 43.1394 21.3177 43.1001C21.5035 43.0608 21.6662 42.949 21.77 42.7895C21.8737 42.6299 21.9099 42.4356 21.8707 42.2492C21.8316 42.0628 21.7201 41.8997 21.561 41.7957L17.4381 39.1006Z" fill="#6E864C" fill-opacity="0.5"/>
<path d="M132.615 54.1002C132.425 54.104 132.245 54.1832 132.113 54.3205C131.981 54.4578 131.91 54.6418 131.913 54.8322L132.428 81.0944C132.432 81.2848 132.511 81.4659 132.648 81.5979C132.784 81.7299 132.968 81.8019 133.158 81.7982C133.348 81.7945 133.528 81.7153 133.66 81.578C133.792 81.4407 133.864 81.2567 133.86 81.0663L133.345 54.8041C133.341 54.6137 133.262 54.4326 133.126 54.3006C132.989 54.1686 132.805 54.0965 132.615 54.1002Z" fill="#6E864C" fill-opacity="0.5"/>
<path d="M98.851 54.1002C98.6612 54.104 98.4805 54.1832 98.3489 54.3205C98.2173 54.4578 98.1454 54.6418 98.1491 54.8322L98.6638 81.0944C98.6675 81.2848 98.7465 81.4659 98.8834 81.5979C99.0203 81.7299 99.2039 81.8019 99.3938 81.7982C99.5837 81.7945 99.7643 81.7153 99.8959 81.578C100.028 81.4407 100.099 81.2567 100.096 81.0663L99.5811 54.8041C99.5773 54.6137 99.4983 54.4326 99.3614 54.3006C99.2245 54.1686 99.0409 54.0965 98.851 54.1002Z" fill="#6E864C" fill-opacity="0.5"/>
<path d="M87.2255 54.1002C87.0357 54.104 86.855 54.1832 86.7234 54.3205C86.5918 54.4578 86.5199 54.6418 86.5236 54.8322L87.0383 81.0944C87.0402 81.1887 87.0605 81.2817 87.0982 81.3681C87.1359 81.4545 87.1902 81.5326 87.2581 81.598C87.3259 81.6633 87.4059 81.7147 87.4935 81.749C87.5811 81.7834 87.6746 81.8001 87.7686 81.7983C87.9585 81.7945 88.1391 81.7153 88.2708 81.578C88.4024 81.4407 88.4743 81.2567 88.4706 81.0663L87.9559 54.8041C87.954 54.7098 87.9336 54.6168 87.8959 54.5304C87.8582 54.444 87.8039 54.3659 87.7361 54.3005C87.6683 54.2351 87.5883 54.1838 87.5007 54.1494C87.4131 54.1151 87.3196 54.0984 87.2255 54.1002Z" fill="#6E864C" fill-opacity="0.5"/>
<path d="M75.6005 54.1002C75.4107 54.104 75.23 54.1832 75.0984 54.3205C74.9668 54.4578 74.8949 54.6418 74.8986 54.8322L75.4133 81.0944C75.417 81.2848 75.4961 81.4659 75.633 81.5979C75.7699 81.7299 75.9534 81.802 76.1433 81.7983C76.2374 81.7964 76.3301 81.7761 76.4163 81.7383C76.5025 81.7005 76.5804 81.6461 76.6457 81.5781C76.7109 81.5101 76.7621 81.4299 76.7964 81.3421C76.8307 81.2543 76.8474 81.1606 76.8456 81.0663L76.3309 54.8041C76.329 54.7098 76.3086 54.6168 76.2709 54.5304C76.2332 54.444 76.1789 54.3659 76.1111 54.3005C76.0433 54.2351 75.9633 54.1838 75.8757 54.1494C75.7881 54.1151 75.6946 54.0984 75.6005 54.1002Z" fill="#6E864C" fill-opacity="0.5"/>
<path d="M63.9754 54.1002C63.8813 54.1021 63.7885 54.1224 63.7024 54.1602C63.6162 54.198 63.5382 54.2524 63.473 54.3204C63.4078 54.3884 63.3566 54.4685 63.3223 54.5564C63.288 54.6442 63.2713 54.7379 63.2731 54.8322L63.7878 81.0944C63.7897 81.1887 63.81 81.2817 63.8477 81.3681C63.8854 81.4545 63.9398 81.5326 64.0076 81.598C64.0754 81.6633 64.1554 81.7147 64.243 81.749C64.3306 81.7834 64.4241 81.8001 64.5181 81.7983C64.708 81.7945 64.8886 81.7153 65.0203 81.578C65.1519 81.4407 65.2238 81.2567 65.2201 81.0663L64.7054 54.8041C64.7016 54.6137 64.6226 54.4326 64.4857 54.3006C64.3488 54.1686 64.1652 54.0965 63.9754 54.1002Z" fill="#6E864C" fill-opacity="0.5"/>
<path d="M52.6751 70.6979C52.581 70.6997 52.4882 70.7201 52.402 70.7579C52.3158 70.7957 52.2378 70.8501 52.1726 70.9181C52.1074 70.9862 52.0562 71.0663 52.0219 71.1542C51.9876 71.2421 51.9709 71.3358 51.9728 71.4302L52.1625 81.0944C52.1662 81.2848 52.2452 81.4659 52.3821 81.5979C52.519 81.7299 52.7026 81.802 52.8925 81.7983C52.9865 81.7964 53.0793 81.7761 53.1655 81.7383C53.2517 81.7005 53.3296 81.6461 53.3948 81.5781C53.46 81.5101 53.5113 81.43 53.5456 81.3421C53.5799 81.2543 53.5966 81.1606 53.5948 81.0663L53.4051 71.4021C53.4033 71.3078 53.3829 71.2147 53.3453 71.1283C53.3076 71.0419 53.2533 70.9638 53.1855 70.8984C53.1178 70.833 53.0378 70.7816 52.9502 70.7472C52.8626 70.7128 52.7691 70.6961 52.6751 70.6979Z" fill="#6E864C" fill-opacity="0.5"/>
<path d="M29.249 61.7194C29.1549 61.7212 29.0622 61.7417 28.976 61.7795C28.8898 61.8173 28.8119 61.8717 28.7467 61.9397C28.6816 62.0077 28.6304 62.0879 28.5961 62.1758C28.5618 62.2636 28.5452 62.3574 28.547 62.4517L28.9122 81.0944C28.914 81.1887 28.9344 81.2817 28.9721 81.3681C29.0098 81.4545 29.0641 81.5326 29.1319 81.598C29.1998 81.6633 29.2798 81.7147 29.3674 81.749C29.455 81.7834 29.5484 81.8001 29.6425 81.7982C29.8324 81.7945 30.013 81.7152 30.1446 81.578C30.2763 81.4407 30.3482 81.2567 30.3445 81.0663L29.979 62.4235C29.9772 62.3292 29.9569 62.2362 29.9192 62.1498C29.8815 62.0634 29.8272 61.9853 29.7595 61.9199C29.6917 61.8545 29.6117 61.8031 29.5241 61.7687C29.4365 61.7343 29.343 61.7175 29.249 61.7194Z" fill="#6E864C" fill-opacity="0.5"/>
<path d="M17.4744 54.1002C17.3803 54.1021 17.2876 54.1224 17.2014 54.1602C17.1152 54.198 17.0373 54.2524 16.972 54.3204C16.9068 54.3884 16.8556 54.4685 16.8213 54.5564C16.787 54.6442 16.7703 54.7379 16.7721 54.8322L17.2868 81.0944C17.2887 81.1887 17.309 81.2817 17.3468 81.3681C17.3845 81.4545 17.4388 81.5326 17.5066 81.598C17.5744 81.6633 17.6544 81.7147 17.742 81.749C17.8296 81.7834 17.9231 81.8001 18.0171 81.7983C18.207 81.7945 18.3877 81.7153 18.5193 81.578C18.6509 81.4407 18.7228 81.2567 18.7191 81.0663L18.2044 54.8041C18.2007 54.6137 18.1216 54.4326 17.9847 54.3006C17.8478 54.1686 17.6643 54.0965 17.4744 54.1002Z" fill="#6E864C" fill-opacity="0.5"/>
<path d="M139.891 12.7218C139.797 12.7237 139.704 12.7441 139.618 12.7819C139.532 12.8197 139.454 12.8742 139.389 12.9422C139.324 13.0102 139.272 13.0904 139.238 13.1782C139.204 13.266 139.187 13.3598 139.189 13.4541L139.704 39.716C139.706 39.8103 139.726 39.9033 139.764 39.9897C139.801 40.0761 139.856 40.1543 139.923 40.2197C139.991 40.2851 140.071 40.3364 140.159 40.3708C140.246 40.4052 140.34 40.422 140.434 40.4201C140.528 40.4183 140.621 40.3979 140.707 40.3601C140.793 40.3223 140.871 40.2679 140.936 40.1999C141.002 40.1319 141.053 40.0516 141.087 39.9638C141.121 39.8759 141.138 39.7822 141.136 39.6879L140.621 13.4257C140.62 13.3314 140.599 13.2384 140.561 13.1519C140.524 13.0655 140.469 12.9874 140.402 12.9221C140.334 12.8567 140.254 12.8054 140.166 12.771C140.079 12.7367 139.985 12.72 139.891 12.7218Z" fill="#6E864C" fill-opacity="0.5"/>
<path d="M128.676 12.7218C128.581 12.7236 128.489 12.744 128.402 12.7818C128.316 12.8196 128.238 12.8741 128.173 12.9421C128.108 13.0101 128.057 13.0903 128.022 13.1781C127.988 13.266 127.971 13.3598 127.973 13.4541L128.488 39.716C128.49 39.8103 128.51 39.9033 128.548 39.9898C128.586 40.0762 128.64 40.1544 128.708 40.2198C128.775 40.2851 128.855 40.3365 128.943 40.3709C129.031 40.4053 129.124 40.422 129.218 40.4201C129.312 40.4183 129.405 40.3979 129.491 40.36C129.577 40.3222 129.655 40.2678 129.721 40.1998C129.786 40.1318 129.837 40.0516 129.871 39.9637C129.905 39.8759 129.922 39.7821 129.92 39.6878L129.406 13.4257C129.402 13.2353 129.323 13.0542 129.186 12.9222C129.049 12.7902 128.865 12.7181 128.676 12.7218Z" fill="#6E864C" fill-opacity="0.5"/>
<path d="M117.459 12.7218C117.365 12.7237 117.273 12.7441 117.186 12.7819C117.1 12.8197 117.022 12.8742 116.957 12.9422C116.892 13.0102 116.841 13.0904 116.807 13.1782C116.772 13.266 116.756 13.3598 116.757 13.4541L117.272 39.716C117.274 39.8103 117.294 39.9033 117.332 39.9897C117.37 40.0761 117.424 40.1543 117.492 40.2196C117.56 40.285 117.64 40.3364 117.727 40.3708C117.815 40.4052 117.908 40.422 118.002 40.4201C118.096 40.4183 118.189 40.3979 118.275 40.3601C118.361 40.3223 118.439 40.2679 118.505 40.1999C118.57 40.1319 118.621 40.0516 118.655 39.9638C118.69 39.8759 118.706 39.7822 118.704 39.6879L118.19 13.4257C118.188 13.3314 118.168 13.2384 118.13 13.1519C118.092 13.0655 118.038 12.9874 117.97 12.9221C117.902 12.8567 117.822 12.8054 117.735 12.771C117.647 12.7367 117.553 12.72 117.459 12.7218Z" fill="#6E864C" fill-opacity="0.5"/>
<path d="M106.244 12.7218C106.15 12.7237 106.057 12.7441 105.971 12.7819C105.884 12.8197 105.807 12.8742 105.741 12.9422C105.676 13.0102 105.625 13.0904 105.591 13.1782C105.556 13.266 105.54 13.3598 105.542 13.4541L106.056 39.716C106.058 39.8103 106.079 39.9033 106.116 39.9898C106.154 40.0762 106.208 40.1544 106.276 40.2198C106.344 40.2852 106.424 40.3365 106.511 40.3709C106.599 40.4053 106.693 40.422 106.787 40.4201C106.881 40.4183 106.973 40.3979 107.06 40.3601C107.146 40.3222 107.224 40.2678 107.289 40.1998C107.354 40.1318 107.405 40.0516 107.44 39.9637C107.474 39.8759 107.491 39.7822 107.489 39.6879L106.974 13.4257C106.972 13.3314 106.952 13.2384 106.914 13.1519C106.876 13.0655 106.822 12.9874 106.754 12.9221C106.686 12.8567 106.606 12.8054 106.519 12.771C106.431 12.7367 106.338 12.72 106.244 12.7218Z" fill="#6E864C" fill-opacity="0.5"/>
<path d="M95.0283 12.7218C94.9342 12.7237 94.8415 12.7441 94.7553 12.7819C94.6691 12.8197 94.5912 12.8742 94.526 12.9422C94.4609 13.0102 94.4097 13.0904 94.3754 13.1782C94.3411 13.266 94.3244 13.3598 94.3263 13.4541L94.841 39.716C94.8429 39.8103 94.8632 39.9033 94.9009 39.9898C94.9386 40.0762 94.9929 40.1544 95.0607 40.2198C95.1285 40.2852 95.2085 40.3365 95.2961 40.3709C95.3838 40.4053 95.4773 40.422 95.5714 40.4201C95.6654 40.4183 95.7582 40.3979 95.8443 40.3601C95.9305 40.3222 96.0084 40.2678 96.0736 40.1998C96.1388 40.1318 96.19 40.0516 96.2242 39.9637C96.2585 39.8759 96.2752 39.7822 96.2733 39.6879L95.7586 13.4257C95.7567 13.3314 95.7364 13.2384 95.6987 13.1519C95.661 13.0655 95.6067 12.9874 95.5388 12.9221C95.471 12.8567 95.391 12.8054 95.3034 12.771C95.2158 12.7367 95.1223 12.72 95.0283 12.7218Z" fill="#6E864C" fill-opacity="0.5"/>
<path d="M83.812 12.7218C83.7179 12.7237 83.6252 12.7441 83.539 12.7819C83.4528 12.8197 83.3749 12.8742 83.3097 12.9422C83.2445 13.0102 83.1934 13.0904 83.1591 13.1782C83.1248 13.266 83.1081 13.3598 83.11 13.4541L83.6247 39.716C83.6265 39.8103 83.6469 39.9033 83.6846 39.9898C83.7223 40.0762 83.7766 40.1544 83.8444 40.2198C83.9122 40.2852 83.9922 40.3365 84.0798 40.3709C84.1675 40.4053 84.261 40.422 84.355 40.4201C84.4491 40.4183 84.5419 40.3979 84.628 40.3601C84.7142 40.3222 84.7921 40.2678 84.8573 40.1998C84.9225 40.1318 84.9737 40.0516 85.0079 39.9637C85.0422 39.8759 85.0589 39.7822 85.057 39.6879L84.5423 13.4257C84.5404 13.3314 84.5201 13.2384 84.4824 13.1519C84.4447 13.0655 84.3903 12.9874 84.3225 12.9221C84.2547 12.8567 84.1747 12.8054 84.0871 12.771C83.9995 12.7367 83.906 12.72 83.812 12.7218Z" fill="#6E864C" fill-opacity="0.5"/>
<path d="M72.5966 12.7218C72.5026 12.7237 72.4098 12.7441 72.3237 12.7819C72.2375 12.8197 72.1596 12.8742 72.0944 12.9422C72.0292 13.0102 71.978 13.0904 71.9438 13.1782C71.9095 13.266 71.8928 13.3598 71.8947 13.4541L72.4094 39.716C72.4112 39.8103 72.4315 39.9033 72.4692 39.9897C72.5069 40.0761 72.5612 40.1543 72.6289 40.2197C72.6967 40.2851 72.7767 40.3364 72.8643 40.3708C72.9519 40.4052 73.0454 40.422 73.1394 40.4201C73.2335 40.4183 73.3263 40.3979 73.4125 40.3601C73.4987 40.3223 73.5766 40.2679 73.6419 40.1999C73.7071 40.1319 73.7583 40.0516 73.7926 39.9638C73.8269 39.8759 73.8436 39.7822 73.8417 39.6879L73.327 13.4257C73.3251 13.3314 73.3047 13.2384 73.267 13.1519C73.2293 13.0655 73.175 12.9874 73.1072 12.9221C73.0394 12.8567 72.9594 12.8054 72.8718 12.771C72.7842 12.7367 72.6907 12.72 72.5966 12.7218Z" fill="#6E864C" fill-opacity="0.5"/>
<path d="M61.3808 12.7218C61.2868 12.7237 61.194 12.7441 61.1078 12.7819C61.0217 12.8197 60.9438 12.8742 60.8786 12.9422C60.8134 13.0102 60.7622 13.0904 60.7279 13.1782C60.6937 13.266 60.677 13.3598 60.6789 13.4541L61.1936 39.716C61.1954 39.8103 61.2157 39.9033 61.2534 39.9898C61.2911 40.0762 61.3454 40.1544 61.4132 40.2198C61.4811 40.2852 61.5611 40.3365 61.6487 40.3709C61.7363 40.4053 61.8298 40.422 61.9239 40.4201C62.0179 40.4183 62.1107 40.3979 62.1969 40.3601C62.2831 40.3222 62.361 40.2678 62.4261 40.1998C62.4913 40.1318 62.5425 40.0516 62.5768 39.9637C62.6111 39.8759 62.6277 39.7822 62.6259 39.6879L62.1111 13.4257C62.1093 13.3314 62.0889 13.2384 62.0512 13.1519C62.0135 13.0655 61.9592 12.9874 61.8914 12.9221C61.8236 12.8567 61.7436 12.8054 61.656 12.771C61.5684 12.7367 61.4749 12.72 61.3808 12.7218Z" fill="#6E864C" fill-opacity="0.5"/>
<path d="M50.165 12.7218C50.071 12.7237 49.9782 12.7441 49.892 12.7819C49.8059 12.8197 49.7279 12.8742 49.6628 12.9422C49.5976 13.0102 49.5464 13.0904 49.5121 13.1782C49.4778 13.266 49.4612 13.3598 49.463 13.4541L49.6835 24.6972C49.6853 24.7915 49.7057 24.8845 49.7434 24.9709C49.7811 25.0573 49.8354 25.1354 49.9032 25.2008C49.971 25.2661 50.051 25.3175 50.1386 25.3518C50.2262 25.3862 50.3197 25.4029 50.4138 25.401C50.6037 25.3973 50.7843 25.3181 50.9159 25.1808C51.0476 25.0435 51.1194 24.8595 51.1157 24.6691L50.8953 13.4257C50.8935 13.3314 50.8731 13.2384 50.8354 13.1519C50.7977 13.0655 50.7434 12.9874 50.6756 12.9221C50.6077 12.8567 50.5277 12.8054 50.4401 12.771C50.3525 12.7367 50.2591 12.72 50.165 12.7218Z" fill="#6E864C" fill-opacity="0.5"/>
<path d="M38.9492 12.7218C38.8551 12.7237 38.7624 12.7441 38.6762 12.7819C38.59 12.8197 38.5121 12.8742 38.4469 12.9422C38.3818 13.0102 38.3306 13.0904 38.2963 13.1782C38.262 13.266 38.2453 13.3598 38.2472 13.4541L38.5038 26.5379C38.5076 26.7283 38.5866 26.9094 38.7235 27.0414C38.8604 27.1733 39.044 27.2454 39.2338 27.2417C39.4237 27.238 39.6043 27.1587 39.736 27.0215C39.8676 26.8842 39.9395 26.7001 39.9358 26.5098L39.6795 13.4257C39.6776 13.3314 39.6573 13.2384 39.6196 13.1519C39.5819 13.0655 39.5275 12.9874 39.4597 12.9221C39.3919 12.8567 39.3119 12.8054 39.2243 12.771C39.1367 12.7367 39.0432 12.72 38.9492 12.7218Z" fill="#6E864C" fill-opacity="0.5"/>
<path d="M27.7334 12.7218C27.6393 12.7237 27.5466 12.7441 27.4604 12.7819C27.3742 12.8197 27.2963 12.8742 27.2311 12.9422C27.1659 13.0102 27.1147 13.0904 27.0805 13.1782C27.0462 13.266 27.0295 13.3598 27.0314 13.4541L27.4382 34.2066C27.44 34.3009 27.4603 34.394 27.498 34.4804C27.5357 34.5669 27.59 34.645 27.6578 34.7104C27.7256 34.7758 27.8056 34.8271 27.8933 34.8615C27.9809 34.8959 28.0744 34.9126 28.1685 34.9108C28.2625 34.9089 28.3553 34.8885 28.4415 34.8507C28.5276 34.8129 28.6055 34.7584 28.6707 34.6904C28.7359 34.6224 28.7871 34.5422 28.8214 34.4544C28.8556 34.3665 28.8723 34.2728 28.8705 34.1785L28.4637 13.4257C28.4618 13.3314 28.4415 13.2384 28.4038 13.1519C28.366 13.0655 28.3117 12.9874 28.2439 12.9221C28.1761 12.8567 28.0961 12.8054 28.0085 12.771C27.9209 12.7367 27.8274 12.72 27.7334 12.7218Z" fill="#6E864C" fill-opacity="0.5"/>
<path d="M16.518 12.7218C16.424 12.7237 16.3312 12.7441 16.2451 12.7819C16.1589 12.8197 16.081 12.8742 16.0158 12.9422C15.9506 13.0102 15.8994 13.0904 15.8651 13.1782C15.8309 13.266 15.8142 13.3598 15.8161 13.4541L16.3308 39.716C16.3326 39.8103 16.3529 39.9033 16.3906 39.9897C16.4283 40.0761 16.4825 40.1543 16.5503 40.2197C16.6181 40.2851 16.6981 40.3364 16.7857 40.3708C16.8733 40.4052 16.9668 40.422 17.0608 40.4201C17.1548 40.4183 17.2476 40.3979 17.3338 40.36C17.42 40.3222 17.4979 40.2678 17.563 40.1998C17.6282 40.1318 17.6794 40.0516 17.7137 39.9637C17.748 39.8759 17.7646 39.7821 17.7628 39.6878L17.2481 13.4257C17.2443 13.2353 17.1653 13.0542 17.0284 12.9222C16.8915 12.7902 16.7079 12.7181 16.518 12.7218Z" fill="#6E864C" fill-opacity="0.5"/>
</g>
<defs>
<clipPath id="clip0_591_54">
<rect width="146" height="153" fill="white"/>
</clipPath>
</defs>
</svg>
