<svg width="72" height="68" viewBox="0 0 72 68" fill="none" xmlns="http://www.w3.org/2000/svg">
<g clip-path="url(#clip0_781_1166)">
<path d="M32.234 31.2706C32.1454 31.2802 32.0645 31.3235 32.0089 31.3908C31.9533 31.4582 31.9277 31.5441 31.9377 31.6296C31.9377 31.6296 32.1715 33.6367 32.4714 35.7796C32.6214 36.851 32.7879 37.9564 32.9506 38.8658C33.1133 39.7752 33.2436 40.4465 33.4275 40.8224C33.4656 40.9002 33.5341 40.9602 33.618 40.9892C33.7019 41.0183 33.7943 41.0139 33.8748 40.9771C33.9554 40.9403 34.0176 40.8741 34.0476 40.793C34.0777 40.7119 34.0732 40.6226 34.0351 40.5447C33.9566 40.3842 33.7731 39.6508 33.6129 38.7552C33.4527 37.8596 33.2869 36.7594 33.1375 35.6924C32.8389 33.5585 32.6055 31.557 32.6055 31.557C32.5955 31.4714 32.5508 31.3931 32.4811 31.3394C32.4114 31.2857 32.3225 31.261 32.234 31.2706Z" fill="black"/>
<path d="M40.7407 38.5071C40.2265 38.4932 39.6715 38.511 39.0822 38.5182C38.0834 38.5303 37.4493 38.8975 37.0872 39.3678C36.7251 39.8381 36.6049 40.3699 36.4639 40.7075C36.4305 40.7874 36.4314 40.8768 36.4662 40.9561C36.5011 41.0354 36.5671 41.098 36.6497 41.1303C36.7324 41.1625 36.8249 41.1617 36.907 41.128C36.989 41.0943 37.0538 41.0305 37.0872 40.9506C37.2611 40.5344 37.3734 40.0843 37.6265 39.7556C37.8796 39.4269 38.2435 39.178 39.0905 39.1677C40.2814 39.1531 41.2948 39.1218 41.967 39.309C42.3031 39.4026 42.5478 39.5397 42.7312 39.7509C42.9146 39.9621 43.0475 40.2621 43.1021 40.7211C43.1071 40.7635 43.1207 40.8045 43.1421 40.8418C43.1635 40.8791 43.1924 40.912 43.2269 40.9385C43.2615 40.965 43.3011 40.9847 43.3435 40.9965C43.386 41.0082 43.4304 41.0117 43.4742 41.0069C43.5181 41.002 43.5606 40.9889 43.5992 40.9681C43.6378 40.9474 43.6718 40.9196 43.6993 40.8861C43.7267 40.8527 43.7471 40.8144 43.7592 40.7733C43.7713 40.7323 43.775 40.6894 43.7699 40.647C43.7048 40.0984 43.5304 39.6608 43.246 39.3333C42.9617 39.0057 42.5783 38.8032 42.1531 38.6848C41.7279 38.5664 41.2547 38.521 40.7407 38.5071Z" fill="black"/>
<path d="M15.472 22.6096C13.0135 22.8132 9.2353 23.098 6.54521 26.2609C5.38581 27.6239 4.5167 30.1241 3.78979 33.1559C3.06287 36.1877 2.50206 39.7435 2.07088 43.1562C1.63969 46.569 1.33845 49.8381 1.13425 52.2893C1.03215 53.5149 0.954252 54.5363 0.896564 55.2675C0.867721 55.6331 0.843982 55.9264 0.824906 56.1346C0.815367 56.2387 0.806879 56.3217 0.799991 56.3796C0.793105 56.4375 0.778184 56.4925 0.792495 56.4459C0.730112 56.649 0.742306 56.8728 0.836812 57.0566C0.931318 57.2404 1.08882 57.3751 1.26985 57.4779C1.6319 57.6834 2.11168 57.7886 2.69441 57.8551C3.85987 57.9879 5.43711 57.9335 7.06489 57.7775C7.10882 57.7733 7.15145 57.7607 7.19036 57.7406C7.22927 57.7204 7.2637 57.6931 7.29166 57.6601C7.31963 57.6271 7.3406 57.5891 7.35337 57.5482C7.36613 57.5074 7.37046 57.4645 7.36608 57.4221C7.35726 57.3364 7.31358 57.2576 7.24466 57.203C7.17573 57.1484 7.0872 57.1225 6.99852 57.131C5.3987 57.2843 3.84535 57.3322 2.77312 57.21C2.23701 57.1489 1.8211 57.0373 1.61028 56.9177C1.50487 56.8578 1.45686 56.8029 1.43874 56.7677C1.42062 56.7324 1.41309 56.7077 1.43676 56.6306C1.46192 56.5487 1.45975 56.5218 1.46784 56.4538C1.47594 56.3857 1.48471 56.299 1.49452 56.1919C1.51415 55.9777 1.53794 55.6833 1.56684 55.3169C1.62465 54.5842 1.70241 53.5647 1.80431 52.3415C2.0081 49.8952 2.30858 46.6342 2.73807 43.2349C3.16755 39.8356 3.72667 36.2972 4.44463 33.3027C5.1626 30.3083 6.06322 27.8505 7.06445 26.6734C9.57178 23.7255 13.0659 23.461 15.5294 23.257C15.5734 23.2533 15.6162 23.2414 15.6554 23.2217C15.6946 23.2021 15.7294 23.1752 15.7578 23.1426C15.7862 23.1099 15.8078 23.0722 15.8211 23.0316C15.8345 22.9909 15.8394 22.9481 15.8356 22.9056C15.8319 22.8631 15.8195 22.8217 15.7992 22.7838C15.7789 22.7459 15.751 22.7123 15.7173 22.6848C15.6835 22.6573 15.6445 22.6365 15.6024 22.6236C15.5603 22.6107 15.516 22.6059 15.472 22.6096Z" fill="black"/>
<mask id="mask0_781_1166" style="mask-type:luminance" maskUnits="userSpaceOnUse" x="-108" y="-8" width="281" height="1433">
<path d="M172.633 1424.52L172.633 -7.51465L-107.368 -7.51465L-107.368 1424.52H172.633Z" fill="white"/>
</mask>
<g mask="url(#mask0_781_1166)">
<path fill-rule="evenodd" clip-rule="evenodd" d="M7.08003 65.0657C7.08003 65.0657 6.01662 54.498 6.45688 44.3749C6.48059 43.8091 8.68419 43.2417 8.68419 43.2417C11.0108 48.2476 13.0936 48.578 15.1347 48.4627C16.5853 48.3806 26.4089 45.6567 26.4089 45.3139C26.4089 44.9609 26.366 44.5319 26.2904 44.0686C27.2228 44.1307 28.731 43.4961 29.8588 42.5914C30.4277 42.135 31.7373 42.3661 32.1629 42.3826C33.0626 42.4174 33.3279 41.5243 32.6325 41.3852C32.3266 41.3241 31.6605 41.1653 31.0362 41.1068L33.5695 40.1963H46.2379L60.5646 42.812L60.6493 64.3111L7.08003 65.0657Z" fill="#6E864C"/>
</g>
<mask id="mask1_781_1166" style="mask-type:luminance" maskUnits="userSpaceOnUse" x="-108" y="-8" width="281" height="1433">
<path d="M172.633 1424.52L172.633 -7.51465L-107.368 -7.51465L-107.368 1424.52H172.633Z" fill="white"/>
</mask>
<g mask="url(#mask1_781_1166)">
<path fill-rule="evenodd" clip-rule="evenodd" d="M2.52785 65.1296L0.739347 65.1548C0.247376 62.5469 1.13751 58.3616 1.51896 57.2393C1.74124 57.3476 2.04209 57.4293 2.4039 57.4877C2.326 58.0644 2.26132 58.6416 2.21594 59.221C2.18354 59.6342 2.16265 60.0477 2.15182 60.4616C2.14459 60.7376 2.14109 61.0139 2.14696 61.29C2.16175 61.9799 2.21029 62.6687 2.28232 63.3567C2.34441 63.9494 2.42783 64.5399 2.52785 65.1296ZM2.84067 57.5442C3.83702 57.6453 5.16099 57.6133 6.55099 57.4974C6.57696 58.0202 6.60405 58.5246 6.63115 59.0075C6.54648 59.1001 6.45842 59.1968 6.36698 59.2967C6.11411 59.5718 5.83302 59.8699 5.54176 60.1807C5.36137 60.3722 5.17713 60.5682 4.99267 60.766C4.71857 61.0599 4.4438 61.3562 4.16327 61.6327C3.72018 62.0696 3.27653 62.4636 2.841 62.7415C2.83773 62.5945 2.83502 62.4474 2.83265 62.3003C2.8261 61.8927 2.82452 61.4854 2.82102 61.078C2.81764 60.6705 2.8121 60.2631 2.81131 59.8554C2.81041 59.3656 2.81222 58.8764 2.82102 58.3858C2.82599 58.1052 2.83231 57.8247 2.84067 57.5442ZM6.67743 59.8026C6.8716 62.9921 7.08044 65.0654 7.08044 65.0654L2.95242 65.1236C2.93346 64.862 2.91687 64.6005 2.90197 64.339C2.87849 63.929 2.86211 63.5199 2.85037 63.1109C3.3971 62.8812 3.98356 62.5029 4.55365 62.0417C4.93295 61.7349 5.30537 61.3943 5.64788 61.0388C5.78673 60.8956 5.91655 60.7477 6.04299 60.6003C6.24055 60.3686 6.42569 60.1379 6.59389 59.9138C6.62211 59.8765 6.65033 59.8394 6.67743 59.8026Z" fill="black"/>
</g>
<path d="M28.8027 9.89747C28.4871 9.8966 28.1851 9.93992 27.9253 10.0217C27.8834 10.0349 27.8445 10.056 27.811 10.0837C27.7774 10.1115 27.7498 10.1453 27.7298 10.1834C27.7098 10.2214 27.6978 10.2629 27.6944 10.3054C27.6909 10.3479 27.6962 10.3907 27.7099 10.4313C27.7236 10.4718 27.7454 10.5094 27.7741 10.5418C27.8028 10.5742 27.8378 10.6009 27.8772 10.6202C27.9165 10.6395 27.9595 10.6512 28.0035 10.6545C28.0475 10.6578 28.0917 10.6527 28.1337 10.6395C28.4777 10.5311 29.0843 10.5141 29.5611 10.6586C30.0379 10.8031 30.3535 11.0445 30.3952 11.4839C30.4034 11.5697 30.4465 11.6488 30.515 11.7039C30.5835 11.7589 30.6718 11.7854 30.7606 11.7776C30.8493 11.7697 30.9313 11.7281 30.9883 11.6619C31.0453 11.5957 31.0728 11.5103 31.0646 11.4245C30.9946 10.686 30.3917 10.2295 29.7622 10.0388C29.4475 9.94337 29.1182 9.89833 28.8027 9.89747Z" fill="black"/>
<path d="M33.7294 12.2633C33.5615 12.2595 33.3958 12.273 33.2338 12.3025C32.5858 12.4206 32.0084 12.7801 31.5263 13.2604C30.5623 14.221 29.9441 15.6724 29.9252 16.9775C29.9231 17.1091 29.889 17.1677 29.861 17.1964C29.8329 17.2251 29.7954 17.2479 29.6921 17.2486C29.4856 17.25 29.0577 17.0957 28.5701 16.6833C28.503 16.6265 28.4153 16.5979 28.3264 16.6036C28.2375 16.6093 28.1545 16.6489 28.0958 16.7137C28.0667 16.7458 28.0445 16.7832 28.0304 16.8236C28.0163 16.864 28.0105 16.9067 28.0134 16.9493C28.0164 16.9918 28.028 17.0334 28.0476 17.0716C28.0671 17.1099 28.0943 17.144 28.1275 17.1721C28.6898 17.6476 29.2124 17.9013 29.6967 17.8981C29.9389 17.8965 30.1819 17.814 30.3494 17.6428C30.5169 17.4716 30.5935 17.2354 30.5972 16.9867C30.6133 15.8812 31.186 14.5326 32.0088 13.7128C32.4201 13.3029 32.8851 13.027 33.3584 12.9407C33.8316 12.8545 34.3237 12.9401 34.8661 13.3141C34.9386 13.3641 35.0288 13.3842 35.1167 13.37C35.2046 13.3557 35.2831 13.3083 35.3348 13.2382C35.3866 13.1681 35.4074 13.0809 35.3926 12.996C35.3779 12.911 35.3289 12.8352 35.2563 12.7852C34.7563 12.4404 34.2332 12.2747 33.7294 12.2633Z" fill="black"/>
<path d="M26.2692 17.2073C26.1554 17.1871 26.0337 17.2192 25.953 17.2684C25.7918 17.3669 25.736 17.4921 25.6863 17.6235C25.5868 17.8861 25.5562 18.2238 25.6091 18.6096C25.7148 19.3813 26.2138 20.3433 27.4204 20.8C28.4977 21.2077 29.3568 20.7863 29.7831 20.2464C29.9963 19.9765 30.1211 19.6881 30.1619 19.4243C30.1823 19.2924 30.1869 19.1655 30.1374 19.0269C30.088 18.8883 29.9201 18.7208 29.726 18.7057C29.707 18.7043 29.4381 18.6418 29.1375 18.5397C28.8369 18.4377 28.469 18.2986 28.1037 18.1479C27.7384 17.9971 27.3748 17.8341 27.0839 17.6865C26.7931 17.5389 26.5618 17.3817 26.5314 17.3505V17.3501C26.4711 17.2882 26.3833 17.2275 26.2694 17.2073L26.2692 17.2073ZM26.2904 17.987C26.4279 18.0781 26.5821 18.1655 26.7715 18.2617C27.086 18.4212 27.462 18.5893 27.8398 18.7452C28.2175 18.9011 28.596 19.0444 28.9148 19.1526C29.1517 19.233 29.3302 19.2858 29.4976 19.3194C29.4965 19.3253 29.4976 19.3219 29.4976 19.3282C29.4777 19.4565 29.394 19.6689 29.2493 19.8522C28.9599 20.2187 28.5067 20.5132 27.666 20.195C26.6927 19.8266 26.3567 19.1145 26.2758 18.5242C26.2458 18.3051 26.2639 18.1248 26.2908 17.987L26.2904 17.987Z" fill="black"/>
<path d="M36.3332 12.427C36.2912 12.4139 36.247 12.4088 36.203 12.4121C36.1589 12.4155 36.116 12.4272 36.0767 12.4465C36.0374 12.4659 36.0024 12.4926 35.9737 12.525C35.9451 12.5575 35.9233 12.5951 35.9097 12.6357C35.0898 15.0755 32.9523 19.0905 30.8636 21.2C29.1883 22.8919 26.9734 23.2404 25.0893 22.7943C23.2052 22.3483 21.7083 21.0971 21.4468 19.6692C21.4392 19.6271 21.423 19.587 21.3993 19.551C21.3755 19.515 21.3447 19.4839 21.3085 19.4594C21.2723 19.435 21.2315 19.4177 21.1884 19.4084C21.1453 19.3992 21.1007 19.3983 21.0572 19.4058C21.0138 19.4132 20.9723 19.4289 20.9351 19.4518C20.8978 19.4748 20.8657 19.5046 20.8404 19.5395C20.8151 19.5745 20.7972 19.6139 20.7877 19.6556C20.7782 19.6972 20.7772 19.7403 20.7849 19.7823C21.1094 21.554 22.8455 22.932 24.9292 23.4253C27.0129 23.9186 29.5002 23.5167 31.3493 21.6492C33.5707 19.4057 35.6914 15.3887 36.5491 12.8364C36.5627 12.7958 36.568 12.753 36.5645 12.7105C36.561 12.668 36.5489 12.6265 36.5289 12.5885C36.5088 12.5505 36.4812 12.5167 36.4477 12.489C36.4141 12.4613 36.3752 12.4402 36.3332 12.427Z" fill="black"/>
<path d="M28.976 0.00389938C28.6101 0.0148762 28.2516 0.048752 27.9025 0.103626C25.2043 0.527641 23.0716 2.16722 22.1938 4.0375C21.9146 4.02958 21.2266 4.03339 20.297 4.40743C19.1515 4.86831 17.8309 5.89825 17.1604 8.01825V8.01847C16.68 9.53927 16.5886 11.3407 16.9981 12.7738C17.2028 13.4904 17.5355 14.1211 18.0412 14.5608C18.5274 14.9836 19.1845 15.2009 19.9398 15.1306C20.2695 15.2688 20.6498 15.365 21.0859 15.4027C21.1299 15.4065 21.1742 15.4019 21.2163 15.3891C21.2584 15.3764 21.2975 15.3557 21.3314 15.3284C21.3653 15.301 21.3932 15.2675 21.4137 15.2296C21.4341 15.1918 21.4467 15.1505 21.4506 15.108C21.4545 15.0655 21.4497 15.0227 21.4365 14.982C21.4233 14.9413 21.402 14.9035 21.3737 14.8707C21.3453 14.838 21.3106 14.811 21.2715 14.7912C21.2324 14.7715 21.1896 14.7593 21.1457 14.7556C19.6132 14.6231 19.0732 13.8262 18.9796 12.959C18.886 12.0918 19.364 11.1801 19.9122 10.9512C20.3078 10.7863 20.8197 10.7753 21.1917 11.0522C21.5638 11.3292 21.8821 11.9405 21.7654 13.2068C21.7451 13.4279 21.8368 13.6621 22.0058 13.8037C22.1748 13.9453 22.3882 14.0029 22.6128 14.0142C23.0619 14.0368 23.5948 13.8797 24.1646 13.5377C25.2834 12.8662 26.5196 11.4462 27.1685 9.02554C27.7021 8.72414 28.1944 8.28409 28.6347 7.68776C28.9618 8.10575 29.7723 9.11062 31.109 10.2981C32.7611 11.7659 34.9634 13.2461 37.2396 13.1067C38.2937 13.0421 39.0556 12.5724 39.4668 11.8733C39.8779 11.1742 39.9611 10.2865 39.8413 9.34326C39.6019 7.45685 38.5446 5.3082 37.1858 3.86511C34.4663 0.976553 31.5374 -0.072934 28.9762 0.00390354L28.976 0.00389938ZM28.9981 0.651909C31.3571 0.575826 34.0749 1.52634 36.6884 4.30237C37.9374 5.62886 38.9567 7.71106 39.174 9.42231C39.2825 10.2779 39.1889 11.0307 38.8822 11.5522C38.5756 12.0736 38.0788 12.4044 37.1968 12.4584C35.2578 12.5772 33.1588 11.237 31.5636 9.81994C29.9685 8.40284 28.8889 6.95237 28.8889 6.95237C28.8565 6.90882 28.8135 6.87369 28.7636 6.85014C28.7137 6.82658 28.6586 6.81532 28.6032 6.81737C28.5477 6.81941 28.4936 6.8347 28.4458 6.86187C28.3979 6.88903 28.3577 6.92723 28.3289 6.97304C27.8415 7.74656 27.3028 8.2313 26.7222 8.5318C26.6807 8.55328 26.6443 8.58294 26.6154 8.61888C26.5865 8.65482 26.5657 8.69623 26.5544 8.74042C25.9509 11.1073 24.7753 12.4063 23.8098 12.9858C23.327 13.2756 22.8912 13.3778 22.6474 13.3656C22.5255 13.3594 22.4615 13.326 22.4459 13.3129C22.4302 13.2998 22.4301 13.3156 22.4348 13.2643C22.5631 11.8719 22.2079 10.9888 21.6018 10.5376C20.9956 10.0865 20.2245 10.1135 19.6459 10.3548C18.6995 10.7497 18.1904 11.908 18.311 13.0263C18.36 13.4805 18.5407 13.9287 18.8486 14.3155C18.7219 14.2503 18.6014 14.1742 18.4907 14.0779C18.1163 13.7523 17.8275 13.2361 17.646 12.601C17.2831 11.3309 17.3603 9.6109 17.8033 8.20833V8.20811C18.4207 6.25612 19.5616 5.40719 20.5556 5.00727C21.5496 4.60734 22.375 4.67911 22.375 4.67911C22.4469 4.6853 22.5188 4.669 22.5803 4.63262C22.6418 4.59625 22.6896 4.54172 22.7166 4.4771C23.4243 2.78217 25.4423 1.1486 28.0105 0.745024C28.3315 0.694577 28.6612 0.662772 28.9982 0.651903L28.9981 0.651909Z" fill="black"/>
<mask id="mask2_781_1166" style="mask-type:luminance" maskUnits="userSpaceOnUse" x="-108" y="-8" width="281" height="1433">
<path d="M172.633 1424.52L172.633 -7.51465L-107.368 -7.51465L-107.368 1424.52H172.633Z" fill="white"/>
</mask>
<g mask="url(#mask2_781_1166)">
<path fill-rule="evenodd" clip-rule="evenodd" d="M19.986 14.8067C17.1446 15.1569 16.5587 11.0371 17.4821 8.11367C18.7702 4.04153 22.4052 4.35596 22.4052 4.35596C23.9281 0.70888 30.8425 -2.38963 36.9374 4.08419C39.5452 6.85376 41.0906 12.5456 37.2185 12.7829C33.0032 13.0412 28.6164 7.14233 28.6164 7.14233C28.1038 7.9558 27.5191 8.48844 26.8813 8.81859C25.6395 13.689 21.9999 14.3255 22.1004 13.2359C22.3454 10.5772 20.7537 10.2473 19.7794 10.6535C18.4846 11.1939 17.9517 13.9059 19.986 14.8067Z" fill="black"/>
</g>
<path d="M25.7989 22.9369C25.759 22.9185 25.7158 22.9079 25.6718 22.9057C25.6277 22.9035 25.5836 22.9097 25.542 22.9239C25.5004 22.9382 25.4621 22.9602 25.4293 22.9887C25.3965 23.0173 25.3698 23.0518 25.3509 23.0903C25.3509 23.0903 25.0994 23.6 24.8274 24.1404C24.6915 24.4106 24.5504 24.6885 24.4338 24.9129C24.3173 25.1372 24.2109 25.3277 24.1981 25.347C24.1978 25.3472 24.1974 25.3475 24.197 25.3478C24.1509 25.4181 24.1274 25.5363 24.1507 25.6255C24.174 25.7146 24.2205 25.7673 24.2572 25.8023C24.3308 25.8725 24.3877 25.8954 24.4495 25.9223C24.5731 25.9761 24.7183 26.018 24.9019 26.0653C25.2692 26.1599 25.7775 26.2641 26.3571 26.382C27.5164 26.6177 28.9588 26.907 30.0033 27.2352C30.6067 27.4249 31.005 27.6871 31.3891 28.1361C31.7731 28.5852 32.1328 29.2337 32.5766 30.1556C33.4642 31.9993 34.6894 34.9144 37.2838 39.4798C37.3267 39.5553 37.3988 39.6112 37.4844 39.6352C37.5699 39.6593 37.6619 39.6495 37.74 39.6081C37.7787 39.5876 37.8128 39.5599 37.8404 39.5266C37.8681 39.4933 37.8886 39.4551 37.901 39.4142C37.9133 39.3732 37.9172 39.3303 37.9124 39.2879C37.9076 39.2455 37.8942 39.2044 37.8729 39.167C35.2936 34.6281 34.088 31.7552 33.186 29.8816C32.735 28.9447 32.3603 28.2521 31.9072 27.7223C31.4542 27.1925 30.9128 26.838 30.2112 26.6174C29.1052 26.2699 27.6526 25.9816 26.4954 25.7463C25.9168 25.6287 25.4113 25.5241 25.075 25.4375C25.0055 25.4197 24.9841 25.4091 24.9306 25.393C24.9666 25.3251 24.9885 25.292 25.034 25.2044C25.1528 24.9757 25.2947 24.6963 25.4313 24.4247C25.7046 23.8816 25.9572 23.3699 25.9572 23.3699C25.9762 23.3314 25.9871 23.2897 25.9894 23.2471C25.9917 23.2045 25.9853 23.1618 25.9706 23.1216C25.9558 23.0814 25.9331 23.0444 25.9035 23.0127C25.874 22.981 25.8383 22.9553 25.7984 22.9369L25.7989 22.9369Z" fill="black"/>
<path d="M71.0033 63.8409L0.331228 64.8362C0.285654 64.8368 0.240693 64.8464 0.199074 64.8644C0.157456 64.8824 0.120049 64.9083 0.0891342 64.9407C0.0582194 64.9731 0.0344395 65.0112 0.01924 65.0527C0.0040405 65.0942 -0.00226073 65.1383 0.000719155 65.1823L0.170494 67.6969C0.176106 67.78 0.214479 67.8578 0.277698 67.9143C0.340918 67.9708 0.424164 68.0017 0.510263 68.0006L70.9559 67.145C71.0431 67.144 71.1265 67.1102 71.1884 67.0508C71.2503 66.9915 71.2859 66.9112 71.2877 66.8269L71.3442 64.1722C71.3451 64.1286 71.3369 64.0853 71.3201 64.0448C71.3033 64.0043 71.2783 63.9676 71.2465 63.9366C71.2147 63.9057 71.1768 63.8813 71.135 63.8648C71.0932 63.8484 71.0484 63.8402 71.0033 63.8409ZM70.6651 64.4953L70.6223 66.4994L0.820488 67.3473L0.69437 65.481L70.6651 64.4953Z" fill="black"/>
<path d="M31.1109 64.4023C31.0218 64.4024 30.9363 64.4366 30.8733 64.4975C30.8103 64.5584 30.7749 64.641 30.7749 64.7271V67.3038C30.7749 67.3899 30.8103 67.4725 30.8733 67.5334C30.9363 67.5943 31.0218 67.6285 31.1109 67.6285C31.1551 67.6286 31.1988 67.6202 31.2396 67.6039C31.2804 67.5876 31.3174 67.5636 31.3486 67.5335C31.3799 67.5033 31.4046 67.4675 31.4215 67.4281C31.4385 67.3887 31.4472 67.3465 31.4472 67.3038V64.7271C31.4472 64.6844 31.4385 64.6422 31.4215 64.6028C31.4046 64.5634 31.3799 64.5276 31.3486 64.4974C31.3174 64.4673 31.2804 64.4433 31.2396 64.427C31.1988 64.4107 31.1551 64.4023 31.1109 64.4023Z" fill="black"/>
<path d="M14.5801 28.62C14.5472 28.5915 14.5088 28.5696 14.4672 28.5554C14.4255 28.5413 14.3814 28.5352 14.3373 28.5376C14.2932 28.54 14.25 28.5507 14.2102 28.5692C14.1705 28.5877 14.1348 28.6135 14.1054 28.6453C14.0759 28.6771 14.0533 28.7142 14.0387 28.7545C14.024 28.7948 14.0178 28.8374 14.0203 28.88C14.0227 28.9226 14.0338 28.9644 14.053 29.0028C14.0721 29.0413 14.0989 29.0757 14.1318 29.1041C14.1048 29.0807 14.2214 29.2255 14.3279 29.4402C14.4343 29.6549 14.5645 29.9531 14.7111 30.3155C15.0041 31.0404 15.3638 32.0232 15.7584 33.1499C16.5476 35.4031 17.4775 38.2336 18.3129 40.7681C18.3678 40.9353 18.5318 41.0096 18.6236 41.0291C18.7154 41.0487 18.7866 41.0453 18.8639 41.0393C19.0185 41.0275 19.1924 40.9928 19.4017 40.9441C19.8203 40.8466 20.3679 40.6895 20.97 40.5228C22.1742 40.1894 23.6098 39.8238 24.4775 39.8211C24.4137 39.8213 24.4475 39.807 24.5203 39.8859C24.5931 39.9647 24.6912 40.1078 24.7913 40.2933C24.9913 40.6644 25.2065 41.2049 25.398 41.8037C25.7604 42.9367 26.0325 44.2804 26.0617 45.1533C26.0067 45.1795 25.9518 45.206 25.8566 45.2436C25.5983 45.3459 25.213 45.4796 24.745 45.6308C23.8089 45.9332 22.5383 46.3077 21.2229 46.6739C19.9075 47.04 18.5463 47.3983 17.4268 47.6692C16.3072 47.9402 15.3917 48.1228 15.1152 48.1385C13.6863 48.2192 12.3882 48.126 10.8633 46.2556C9.33852 44.3852 7.6584 40.68 5.81398 33.6023C5.8032 33.5609 5.7841 33.522 5.75776 33.4877C5.73141 33.4535 5.69835 33.4246 5.66045 33.4027C5.62255 33.3808 5.58056 33.3664 5.53688 33.3602C5.4932 33.354 5.44868 33.3561 5.40587 33.3666C5.31945 33.3876 5.24521 33.441 5.19948 33.5149C5.15375 33.5888 5.14027 33.6773 5.16201 33.7608C7.01629 40.8765 8.69423 44.6445 10.3355 46.6577C11.9768 48.6709 13.6528 48.8717 15.1545 48.7869C15.6033 48.7615 16.4596 48.5729 17.5899 48.2994C18.7203 48.0258 20.0871 47.6662 21.409 47.2983C22.7308 46.9303 24.0067 46.5544 24.9579 46.2471C25.4335 46.0934 25.827 45.9574 26.1115 45.8448C26.2538 45.7884 26.3674 45.7392 26.4614 45.6888C26.5085 45.6635 26.5502 45.6398 26.5977 45.601C26.6452 45.5622 26.7452 45.5119 26.7452 45.3137C26.7452 44.3176 26.4393 42.859 26.0403 41.6117C25.8408 40.9881 25.6189 40.4223 25.3875 39.9931C25.2717 39.7785 25.1555 39.5978 25.0219 39.4531C24.8882 39.3084 24.7234 39.1708 24.4753 39.1716C23.4273 39.1748 21.9961 39.5629 20.785 39.8982C20.1795 40.0659 19.6321 40.2221 19.2443 40.3125C19.0851 40.3496 18.9772 40.366 18.8884 40.3775C18.0697 37.8935 17.1676 35.1472 16.3951 32.9417C15.9988 31.8101 15.6371 30.8215 15.337 30.0792C15.187 29.7081 15.0527 29.3988 14.934 29.1593C14.8152 28.9198 14.7463 28.7637 14.5801 28.62Z" fill="black"/>
<path d="M15.8443 24.8424C15.8023 24.8558 15.7635 24.877 15.7301 24.9048C15.6966 24.9326 15.6692 24.9666 15.6493 25.0047C15.6294 25.0428 15.6175 25.0843 15.6142 25.1268C15.6109 25.1694 15.6164 25.2121 15.6302 25.2526C16.9555 29.143 19.6442 30.8002 22.1676 30.8733C24.691 30.9465 27.0438 29.472 27.6917 27.242C27.7157 27.1591 27.7047 27.0703 27.661 26.9953C27.6174 26.9202 27.5446 26.8649 27.4588 26.8417C27.373 26.8184 27.2812 26.829 27.2035 26.8712C27.1258 26.9133 27.0687 26.9836 27.0445 27.0665C26.4913 28.9707 24.4271 30.289 22.1877 30.224C19.9482 30.1591 17.5283 28.7477 16.2685 25.0493C16.2406 24.9676 16.1802 24.8998 16.1007 24.861C16.0212 24.8222 15.9289 24.8155 15.8443 24.8424Z" fill="black"/>
<path d="M20.0923 14.5581C20.049 14.5665 20.0078 14.583 19.9712 14.6068C19.9345 14.6306 19.9031 14.6611 19.8786 14.6966C19.6858 14.9766 19.277 15.6759 18.7857 16.5901C18.2943 17.5043 17.7321 18.617 17.2758 19.6674C17.2413 19.7468 17.2409 19.8362 17.2747 19.9159C17.3084 19.9956 17.3735 20.0591 17.4557 20.0925C17.5379 20.1258 17.6303 20.1262 17.7128 20.0936C17.7953 20.0611 17.861 19.9982 17.8956 19.9188C18.3412 18.8931 18.8969 17.7923 19.3821 16.8897C19.8672 15.9871 20.2938 15.2662 20.4382 15.0565C20.4875 14.9848 20.5054 14.897 20.4878 14.8126C20.4702 14.7282 20.4187 14.6539 20.3445 14.6062C20.2703 14.5585 20.1796 14.5412 20.0923 14.5581ZM16.3361 22.4597C16.2924 22.4535 16.2479 22.4557 16.2051 22.4662C16.1623 22.4766 16.122 22.4951 16.0866 22.5206C16.0512 22.5461 16.0214 22.5781 15.9987 22.6147C15.9761 22.6514 15.9612 22.6919 15.9548 22.7342C15.9361 22.8578 15.956 22.9034 15.9727 22.9852C15.9895 23.067 16.0148 23.1619 16.0488 23.2726C16.1167 23.4941 16.2201 23.7768 16.3612 24.1009C16.6434 24.7492 17.0755 25.5613 17.6731 26.342C18.8684 27.9034 20.7819 29.3598 23.3916 28.9379C24.5839 28.7451 25.2488 27.9583 25.5753 27.2589C25.9019 26.5596 25.9332 25.9088 25.9332 25.9088C25.9354 25.8662 25.9288 25.8235 25.914 25.7834C25.8991 25.7432 25.8762 25.7062 25.8465 25.6746C25.8169 25.643 25.7811 25.6173 25.7412 25.5991C25.7013 25.5808 25.658 25.5704 25.6139 25.5683C25.5249 25.5641 25.4378 25.5942 25.3718 25.652C25.3058 25.7098 25.2662 25.7906 25.2618 25.8766C25.2618 25.8766 25.2318 26.4152 24.9626 26.9917C24.6934 27.5682 24.2277 28.144 23.2807 28.2971C20.9685 28.6709 19.3274 27.4105 18.2135 25.9555C17.6566 25.2279 17.2455 24.4569 16.9808 23.8488C16.8484 23.5448 16.7525 23.2811 16.6932 23.0879C16.6636 22.9913 16.6431 22.9119 16.6322 22.8586C16.6212 22.8053 16.631 22.7548 16.62 22.8281C16.6264 22.7859 16.6242 22.7429 16.6133 22.7015C16.6025 22.6602 16.5834 22.6213 16.557 22.5871C16.5306 22.5529 16.4976 22.524 16.4597 22.5021C16.4217 22.4803 16.3797 22.4659 16.3361 22.4597Z" fill="black"/>
<path d="M1.62392 56.9303C1.58198 56.917 1.53774 56.9118 1.49372 56.915C1.4497 56.9182 1.40677 56.9298 1.36737 56.949C1.32798 56.9683 1.2929 56.9948 1.26413 57.0272C1.23536 57.0596 1.21347 57.0971 1.19971 57.1376C0.789324 58.3451 -0.10736 62.4765 0.408822 65.2127C0.424821 65.2974 0.474997 65.3726 0.548307 65.4216C0.621618 65.4706 0.71206 65.4894 0.799745 65.474C0.887427 65.4585 0.965163 65.41 1.01586 65.3391C1.06655 65.2683 1.08605 65.1809 1.07006 65.0961C0.602303 62.6166 1.48571 58.3775 1.83824 57.3403C1.86606 57.2584 1.85912 57.1693 1.81893 57.0924C1.77874 57.0155 1.70859 56.9572 1.62392 56.9303Z" fill="black"/>
<path d="M31.7192 59.5256C31.1802 59.5198 30.4802 59.5357 29.7785 59.5642C29.0768 59.5927 28.375 59.6339 27.8342 59.6799C27.5639 59.7029 27.3346 59.7268 27.1593 59.7523C27.0717 59.7651 26.9984 59.7776 26.9316 59.7941C26.8981 59.8023 26.8669 59.8109 26.8284 59.8263C26.79 59.8416 26.7393 59.8465 26.6599 59.9488C26.5899 60.0389 26.5915 60.0741 26.5775 60.122C26.5634 60.1701 26.5519 60.2206 26.5407 60.2787C26.5182 60.3947 26.4974 60.539 26.4783 60.7068C26.4399 61.0423 26.4093 61.4692 26.4017 61.9052C26.3942 62.3412 26.4087 62.7838 26.4672 63.1607C26.4965 63.3491 26.5359 63.5211 26.5978 63.676C26.6596 63.8308 26.7403 63.9814 26.9111 64.087C27.0733 64.1874 27.2275 64.2139 27.4314 64.2492C27.6354 64.2845 27.8785 64.3111 28.1515 64.3319C28.6976 64.3733 29.3609 64.3901 30.0131 64.3873C30.6653 64.3844 31.3046 64.3618 31.8039 64.3218C32.0535 64.3019 32.2673 64.2781 32.4387 64.2475C32.5244 64.2322 32.5989 64.2158 32.6708 64.1923C32.7428 64.1688 32.8174 64.1638 32.9206 64.0357C33.0573 63.866 33.0352 63.7808 33.0547 63.6444C33.0742 63.508 33.0867 63.3449 33.0953 63.1588C33.1124 62.7865 33.1128 62.3247 33.1029 61.8641C33.0931 61.4034 33.073 60.9457 33.0483 60.5844C33.0359 60.4038 33.0225 60.2477 33.0079 60.1242C33.0006 60.0624 32.9932 60.009 32.9843 59.9609C32.9755 59.9129 32.9754 59.8819 32.9378 59.8032C32.8768 59.6758 32.7984 59.6479 32.7508 59.6262C32.7033 59.6045 32.667 59.5952 32.6302 59.5867C32.5567 59.5698 32.4824 59.5607 32.3939 59.5527C32.2168 59.5366 31.9887 59.5285 31.7192 59.5256ZM31.712 60.1753C31.9714 60.1781 32.1886 60.1864 32.3311 60.1994C32.3357 60.1998 32.336 60.2003 32.3404 60.2007C32.3529 60.3072 32.3658 60.4544 32.3776 60.6273C32.4015 60.9754 32.4213 61.4263 32.431 61.8775C32.4406 62.3287 32.44 62.7816 32.424 63.13C32.416 63.3042 32.4036 63.453 32.3889 63.5554C32.3864 63.5726 32.3815 63.5795 32.377 63.5948C32.3552 63.5997 32.3454 63.6035 32.3166 63.6086C32.1836 63.6324 31.985 63.6555 31.7486 63.6745C31.2759 63.7123 30.648 63.735 30.0101 63.7378C29.3722 63.7406 28.722 63.7236 28.2043 63.6843C27.9455 63.6646 27.7192 63.6392 27.5499 63.6099C27.3806 63.5806 27.2579 63.5301 27.2736 63.5398C27.2979 63.5548 27.2593 63.5284 27.2249 63.4422C27.1905 63.356 27.1567 63.2228 27.1321 63.0644C27.0829 62.7475 27.0667 62.3293 27.0739 61.9158C27.081 61.5023 27.1107 61.0911 27.1464 60.7781C27.164 60.6247 27.1831 60.4962 27.2004 60.4054C27.2228 60.4016 27.2323 60.3988 27.2598 60.3948C27.4101 60.3729 27.6307 60.3493 27.8932 60.327C28.4182 60.2824 29.1135 60.2414 29.8068 60.2132C30.5001 60.1851 31.1932 60.1698 31.712 60.1753Z" fill="black"/>
<path d="M30.8976 40.7674C30.6599 40.7519 30.4254 40.7535 30.2068 40.7847C30.1631 40.7909 30.1211 40.8054 30.0832 40.8273C30.0454 40.8492 30.0123 40.8781 29.986 40.9123C29.9596 40.9466 29.9405 40.9855 29.9298 41.0269C29.919 41.0683 29.9168 41.1113 29.9233 41.1535C29.9297 41.1957 29.9447 41.2363 29.9674 41.2729C29.9901 41.3095 30.02 41.3414 30.0554 41.3668C30.0909 41.3923 30.1311 41.4107 30.174 41.4211C30.2168 41.4315 30.2613 41.4336 30.3049 41.4273C30.5993 41.3854 31.0649 41.4242 31.4975 41.4934C31.9301 41.5626 32.33 41.6557 32.5651 41.7027C32.6649 41.7226 32.6791 41.7497 32.6857 41.7613C32.6924 41.7728 32.6986 41.7915 32.682 41.8341C32.6489 41.9195 32.5109 42.0702 32.1771 42.0572C32.0133 42.0509 31.5497 41.9871 31.0676 41.9842C30.5855 41.9812 30.0485 42.0173 29.645 42.3409C28.5712 43.2023 27.0653 43.7939 26.3144 43.7439C26.2703 43.7409 26.2261 43.7464 26.1843 43.76C26.1424 43.7735 26.1037 43.7949 26.0704 43.823C26.0371 43.851 26.0099 43.8851 25.9902 43.9233C25.9706 43.9615 25.9589 44.003 25.9559 44.0456C25.9498 44.1315 25.9792 44.2163 26.0378 44.2812C26.0963 44.3461 26.1792 44.3859 26.2681 44.3919C27.382 44.4662 28.8927 43.7885 30.0743 42.8406V42.8408C30.2399 42.708 30.6419 42.6313 31.0632 42.6339C31.4845 42.6365 31.8884 42.6964 32.1502 42.7065C32.7162 42.7284 33.1607 42.4499 33.3113 42.0626C33.3866 41.8689 33.3849 41.6405 33.2738 41.4465C33.1627 41.2526 32.9493 41.116 32.7014 41.0664C32.4929 41.0247 32.0699 40.9264 31.6076 40.8524C31.3764 40.8155 31.1356 40.7829 30.8979 40.7674L30.8976 40.7674Z" fill="black"/>
<path d="M29.3376 39.6922C29.2935 39.6944 29.2503 39.7049 29.2104 39.7232C29.1706 39.7415 29.1348 39.7673 29.1052 39.7989C29.0756 39.8306 29.0528 39.8676 29.038 39.9078C29.0232 39.948 29.0167 39.9906 29.019 40.0332C29.0235 40.1192 29.0632 40.1999 29.1293 40.2577C29.1954 40.3154 29.2826 40.3454 29.3715 40.3411C29.3715 40.3411 29.8261 40.3191 30.4063 40.3596C30.9865 40.4002 31.6877 40.5146 32.1146 40.733C32.1934 40.7732 32.2855 40.7816 32.3707 40.7563C32.4558 40.731 32.5271 40.674 32.5688 40.5979C32.6105 40.5217 32.6192 40.4327 32.593 40.3504C32.5668 40.2681 32.5078 40.1992 32.429 40.1589C31.8354 39.8553 31.078 39.7552 30.4548 39.7116C29.8316 39.6681 29.3376 39.6922 29.3376 39.6922Z" fill="black"/>
<path d="M29.0068 38.1624C28.0673 38.2597 27.3994 38.7427 26.8271 39.1859C26.2547 39.629 25.77 40.0234 25.18 40.1258C25.1366 40.1333 25.0951 40.1491 25.0579 40.1721C25.0208 40.1951 24.9887 40.225 24.9635 40.2601C24.9383 40.2951 24.9205 40.3346 24.911 40.3762C24.9016 40.4179 24.9008 40.461 24.9086 40.503C24.9244 40.5877 24.9744 40.663 25.0476 40.7121C25.1208 40.7613 25.2112 40.7803 25.2989 40.7651C26.1121 40.6239 26.6888 40.1253 27.2473 39.6928C27.8058 39.2603 28.3381 38.885 29.0785 38.8083C29.295 38.7859 29.8823 38.8319 30.533 39.0461C31.1838 39.2602 31.9168 39.6348 32.5333 40.2381C32.5643 40.2685 32.6012 40.2926 32.6418 40.3092C32.6825 40.3258 32.7262 40.3345 32.7703 40.3348C32.8145 40.335 32.8582 40.3269 32.8991 40.3108C32.94 40.2948 32.9772 40.2711 33.0086 40.2411C33.04 40.2111 33.065 40.1754 33.0822 40.1361C33.0993 40.0968 33.1083 40.0546 33.1085 40.0119C33.1088 39.9693 33.1003 39.927 33.0837 39.8875C33.067 39.848 33.0425 39.812 33.0115 39.7817C32.306 39.0912 31.4802 38.6718 30.7495 38.4313C30.0188 38.1908 29.4021 38.1215 29.0068 38.1624Z" fill="black"/>
<path d="M38.5409 39.5923C38.5409 39.5923 38.3826 39.7365 38.2124 39.945C38.0422 40.1535 37.8455 40.4269 37.7712 40.7605C37.7619 40.8022 37.7612 40.8453 37.7692 40.8873C37.7771 40.9292 37.7935 40.9693 37.8175 41.0051C37.8414 41.0409 37.8724 41.0719 37.9088 41.0961C37.9451 41.1204 37.986 41.1375 38.0292 41.1464C38.1163 41.1645 38.2073 41.1484 38.2821 41.1016C38.357 41.0549 38.4095 40.9813 38.4282 40.8971C38.4624 40.7438 38.6014 40.5171 38.74 40.3473C38.8786 40.1775 39.0019 40.0652 39.0019 40.0652C39.0341 40.0359 39.0599 40.0009 39.078 39.9619C39.0961 39.923 39.1061 39.8811 39.1074 39.8384C39.1087 39.7958 39.1013 39.7533 39.0857 39.7134C39.07 39.6735 39.0463 39.637 39.0161 39.606C38.9858 39.5749 38.9495 39.55 38.9092 39.5325C38.869 39.515 38.8255 39.5053 38.7814 39.504C38.7373 39.5028 38.6933 39.5099 38.6521 39.5251C38.6108 39.5402 38.573 39.5631 38.5409 39.5923Z" fill="black"/>
<path d="M39.897 39.3897C39.8078 39.3906 39.7227 39.4257 39.6604 39.4873C39.6604 39.4873 39.4913 39.6535 39.321 39.8906C39.1508 40.1278 38.9573 40.4386 38.9403 40.8142C38.9383 40.8568 38.9451 40.8994 38.9602 40.9395C38.9752 40.9796 38.9984 41.0164 39.0282 41.0478C39.058 41.0793 39.0939 41.1048 39.1339 41.1228C39.1739 41.1409 39.2172 41.1511 39.2613 41.153C39.3054 41.1549 39.3494 41.1483 39.3909 41.1338C39.4324 41.1192 39.4705 41.0969 39.5031 41.068C39.5356 41.0392 39.562 41.0045 39.5807 40.9658C39.5993 40.9272 39.6099 40.8854 39.6119 40.8427C39.6185 40.6967 39.7374 40.4504 39.8734 40.261C40.0093 40.0716 40.1404 39.942 40.1404 39.942C40.1713 39.9115 40.1957 39.8755 40.2121 39.8359C40.2286 39.7963 40.2369 39.754 40.2364 39.7113C40.236 39.6686 40.2268 39.6265 40.2095 39.5872C40.1922 39.548 40.1671 39.5124 40.1355 39.4826C40.0719 39.4223 39.9861 39.3888 39.897 39.3897Z" fill="black"/>
<path d="M41.2305 39.3481C41.1965 39.3208 41.1573 39.3004 41.1151 39.2878C41.0729 39.2753 41.0285 39.2709 40.9846 39.2749C40.9406 39.2789 40.8979 39.2912 40.8589 39.3112C40.8199 39.3312 40.7853 39.3584 40.7571 39.3913C40.7571 39.3913 40.5707 39.6085 40.3931 39.8859C40.2156 40.1633 39.9918 40.4775 40.0743 40.8898C40.0827 40.9317 40.0995 40.9716 40.1239 41.0072C40.1482 41.0428 40.1796 41.0734 40.2162 41.0973C40.2528 41.1212 40.2939 41.1378 40.3371 41.1464C40.3804 41.1549 40.425 41.1551 40.4683 41.147C40.5558 41.1306 40.633 41.0813 40.6829 41.0099C40.7328 40.9386 40.7514 40.851 40.7344 40.7664C40.7333 40.7614 40.8156 40.4609 40.9648 40.2277C41.1141 39.9945 41.2753 39.8054 41.2753 39.8054C41.3321 39.739 41.3593 39.6535 41.3509 39.5677C41.3425 39.482 41.2992 39.403 41.2305 39.3481Z" fill="black"/>
<path d="M41.9149 39.4766C41.9149 39.4766 41.7314 39.6405 41.5513 39.8582C41.3712 40.076 41.1342 40.3259 41.1873 40.7193C41.193 40.7616 41.2073 40.8024 41.2293 40.8394C41.2513 40.8764 41.2807 40.9088 41.3157 40.9348C41.3507 40.9608 41.3906 40.9799 41.4332 40.9909C41.4759 41.002 41.5203 41.0049 41.5641 40.9993C41.6078 40.9938 41.6501 40.98 41.6883 40.9587C41.7265 40.9374 41.7601 40.9091 41.787 40.8753C41.8139 40.8414 41.8336 40.8028 41.8451 40.7616C41.8566 40.7204 41.8595 40.6775 41.8538 40.6352C41.8584 40.669 41.9329 40.4374 42.0765 40.2638C42.2201 40.0901 42.3724 39.9524 42.3724 39.9524C42.4377 39.8938 42.4762 39.8125 42.4795 39.7265C42.4829 39.6404 42.4507 39.5566 42.39 39.4934C42.36 39.4622 42.3239 39.4369 42.2837 39.4192C42.2436 39.4014 42.2002 39.3914 42.1561 39.3899C42.1119 39.3883 42.0679 39.3952 42.0265 39.41C41.9852 39.4249 41.9472 39.4475 41.9149 39.4766Z" fill="black"/>
<path d="M60.5561 42.4874L28.0744 43.3332C27.9854 43.3355 27.901 43.372 27.8397 43.4345C27.7784 43.497 27.7453 43.5804 27.7477 43.6665C27.7501 43.7526 27.7877 43.8342 27.8524 43.8935C27.9171 43.9527 28.0034 43.9847 28.0925 43.9825L60.5741 43.1369C60.6183 43.1358 60.6617 43.1263 60.7021 43.1089C60.7424 43.0915 60.7787 43.0666 60.8091 43.0356C60.8395 43.0047 60.8632 42.9682 60.879 42.9284C60.8948 42.8885 60.9023 42.8461 60.9011 42.8034C60.8999 42.7608 60.8901 42.7188 60.8721 42.6798C60.8541 42.6409 60.8284 42.6057 60.7963 42.5764C60.7643 42.547 60.7266 42.524 60.6854 42.5088C60.6441 42.4935 60.6002 42.4863 60.5561 42.4874Z" fill="black"/>
<path d="M46.3163 39.88C46.2604 39.8671 46.2019 39.8682 46.1465 39.8834L34.1047 43.1857C34.0337 43.2051 33.9713 43.2467 33.9271 43.3038C33.883 43.361 33.8595 43.4306 33.8604 43.5019L34.1111 64.6836C34.1121 64.7697 34.1484 64.8519 34.2121 64.9121C34.2759 64.9724 34.3617 65.0056 34.4508 65.0047C34.495 65.0042 34.5386 64.9953 34.5792 64.9786C34.6198 64.9618 34.6565 64.9374 34.6874 64.9069C34.7183 64.8764 34.7426 64.8403 34.759 64.8007C34.7754 64.7611 34.7836 64.7188 34.7831 64.6761L34.5355 43.7429L46.2455 40.5316L57.79 43.1978C57.8329 43.2077 57.8775 43.2094 57.9211 43.2026C57.9647 43.1959 58.0065 43.181 58.0441 43.1586C58.0817 43.1363 58.1144 43.107 58.1403 43.0724C58.1662 43.0379 58.1848 42.9987 58.195 42.9572C58.2157 42.8735 58.2012 42.7851 58.1546 42.7117C58.1079 42.6383 58.033 42.5858 57.9463 42.5658L46.3163 39.88Z" fill="black"/>
<path d="M50.6228 42.7453C50.5787 42.7468 50.5353 42.7567 50.4951 42.7744C50.455 42.7921 50.4188 42.8173 50.3887 42.8485C50.3586 42.8797 50.3352 42.9163 50.3197 42.9563C50.3043 42.9962 50.2971 43.0387 50.2987 43.0814C50.2987 43.0814 50.3548 44.6121 50.378 46.152C50.3897 46.922 50.3929 47.6948 50.3769 48.2738C50.3716 48.4718 50.3608 48.6045 50.3509 48.7472C50.3141 48.7107 50.2876 48.6898 50.2488 48.6496C50.1345 48.5314 50.0154 48.4045 49.8941 48.2955C49.7728 48.1865 49.6842 48.0617 49.4185 48.0445C49.1433 48.0267 49.0152 48.1888 48.9166 48.3047C48.8181 48.4205 48.7375 48.5485 48.6591 48.6695C48.5973 48.7648 48.5436 48.8397 48.4935 48.9058C48.4582 48.8476 48.4247 48.793 48.3798 48.7125C48.3139 48.5947 48.2433 48.4664 48.1308 48.3464C48.0184 48.2264 47.804 48.095 47.5681 48.1406C47.3772 48.1775 47.249 48.261 47.1076 48.3447C46.9852 48.4171 46.8703 48.4887 46.7676 48.5476C46.7715 48.3253 46.7708 48.0586 46.7594 47.6115C46.7453 47.0589 46.723 46.3819 46.6997 45.7241C46.6529 44.4086 46.6016 43.1706 46.6016 43.1706C46.598 43.0846 46.5592 43.0034 46.4937 42.945C46.4282 42.8866 46.3414 42.8557 46.2523 42.8591C46.1632 42.8626 46.0793 42.9001 46.0188 42.9634C45.9584 43.0267 45.9264 43.1106 45.93 43.1966C45.93 43.1966 45.9812 44.4333 46.0279 45.7465C46.0512 46.4031 46.0734 47.0787 46.0874 47.6274C46.1014 48.1762 46.1051 48.6188 46.0984 48.7302C46.0917 48.8415 46.0963 48.9536 46.1659 49.0745C46.2356 49.1955 46.3979 49.2863 46.5218 49.2974C46.7695 49.3198 46.8984 49.2249 47.0446 49.1453C47.1907 49.0657 47.3341 48.9725 47.4586 48.8987C47.5558 48.8412 47.6118 48.8196 47.6469 48.8043C47.6821 48.8465 47.733 48.9225 47.7883 49.0213C47.849 49.13 47.9112 49.2525 47.9975 49.3705C48.0838 49.4886 48.2199 49.6539 48.4773 49.6539C48.7412 49.6539 48.8663 49.501 48.967 49.3833C49.0677 49.2656 49.1502 49.1359 49.2289 49.0145C49.2978 48.9081 49.359 48.8193 49.4101 48.7541C49.4205 48.7616 49.4261 48.7616 49.4366 48.7711C49.5257 48.8512 49.64 48.9712 49.7578 49.0931C49.8757 49.215 49.9956 49.3386 50.1254 49.4409C50.1903 49.492 50.2568 49.5391 50.345 49.5768C50.4332 49.6145 50.5636 49.6488 50.7093 49.5985C50.8599 49.5464 50.8957 49.4597 50.9207 49.4108C50.9457 49.3619 50.9561 49.3246 50.9659 49.2861C50.9856 49.2093 50.997 49.1293 51.0074 49.033C51.0281 48.8405 51.0409 48.589 51.049 48.2908C51.0652 47.6945 51.0616 46.9171 51.0502 46.1426C51.0268 44.5938 50.9706 43.0583 50.9706 43.0583C50.9674 42.9723 50.929 42.891 50.8638 42.8323C50.7986 42.7736 50.7118 42.7423 50.6228 42.7453Z" fill="black"/>
<mask id="mask3_781_1166" style="mask-type:luminance" maskUnits="userSpaceOnUse" x="-108" y="-8" width="281" height="1433">
<path d="M160.833 1421.77L172.633 -7.5127L-95.5686 -4.75775L-107.368 1424.52L160.833 1421.77Z" fill="white"/>
</mask>
<g mask="url(#mask3_781_1166)">
<path fill-rule="evenodd" clip-rule="evenodd" d="M34.0099 15.661C33.9576 15.7556 33.8948 15.8435 33.825 15.9199C33.7553 15.9964 33.68 16.0597 33.6035 16.1063C33.527 16.153 33.4507 16.182 33.3791 16.1918C33.3074 16.2015 33.2417 16.1919 33.1858 16.1633C33.0729 16.1055 33.0066 15.9743 33.0014 15.7985C32.9963 15.6227 33.0527 15.4167 33.1583 15.2257C33.264 15.0348 33.4101 14.8746 33.5647 14.7805C33.7192 14.6863 33.8695 14.6658 33.9824 14.7235C34.0383 14.7521 34.0834 14.799 34.115 14.8616C34.1467 14.9242 34.1642 15.0012 34.1668 15.0882C34.1693 15.1753 34.1568 15.2707 34.1299 15.369C34.1029 15.4672 34.0622 15.5665 34.0099 15.661Z" fill="black"/>
</g>
</g>
<defs>
<clipPath id="clip0_781_1166">
<rect width="71.3443" height="68" fill="white"/>
</clipPath>
</defs>
</svg>
