<svg width="191" height="110" viewBox="0 0 191 110" fill="none" xmlns="http://www.w3.org/2000/svg">
<g filter="url(#filter0_d_674_737)">
<rect x="4" width="183" height="102" rx="15" fill="url(#paint0_linear_674_737)" fill-opacity="0.5" shape-rendering="crispEdges"/>
<rect x="4.5" y="0.5" width="182" height="101" rx="14.5" stroke="#6E864C" shape-rendering="crispEdges"/>
</g>
<g clip-path="url(#clip0_674_737)">
<path d="M143.234 59.2706C143.145 59.2802 143.064 59.3235 143.009 59.3908C142.953 59.4582 142.928 59.5441 142.938 59.6296C142.938 59.6296 143.172 61.6367 143.471 63.7796C143.621 64.851 143.788 65.9564 143.951 66.8658C144.113 67.7752 144.244 68.4465 144.427 68.8224C144.466 68.9002 144.534 68.9602 144.618 68.9892C144.702 69.0183 144.794 69.0139 144.875 68.9771C144.955 68.9403 145.018 68.8741 145.048 68.793C145.078 68.7119 145.073 68.6226 145.035 68.5447C144.957 68.3842 144.773 67.6508 144.613 66.7552C144.453 65.8596 144.287 64.7594 144.138 63.6924C143.839 61.5585 143.606 59.557 143.606 59.557C143.596 59.4714 143.551 59.3931 143.481 59.3394C143.411 59.2857 143.323 59.261 143.234 59.2706Z" fill="black"/>
<path d="M151.741 66.5066C151.227 66.4927 150.672 66.5105 150.082 66.5177C149.083 66.5299 148.449 66.897 148.087 67.3673C147.725 67.8376 147.605 68.3694 147.464 68.707C147.431 68.7869 147.431 68.8763 147.466 68.9556C147.501 69.0349 147.567 69.0975 147.65 69.1298C147.732 69.162 147.825 69.1612 147.907 69.1275C147.989 69.0938 148.054 69.03 148.087 68.9501C148.261 68.5339 148.373 68.0838 148.627 67.7551C148.88 67.4264 149.244 67.1775 150.091 67.1672C151.281 67.1526 152.295 67.1213 152.967 67.3085C153.303 67.4021 153.548 67.5393 153.731 67.7504C153.915 67.9616 154.048 68.2616 154.102 68.7206C154.107 68.763 154.121 68.804 154.142 68.8413C154.164 68.8786 154.192 68.9115 154.227 68.938C154.261 68.9645 154.301 68.9842 154.344 68.996C154.386 69.0077 154.43 69.0112 154.474 69.0064C154.518 69.0015 154.561 68.9884 154.599 68.9677C154.638 68.9469 154.672 68.9191 154.699 68.8857C154.727 68.8522 154.747 68.8139 154.759 68.7729C154.771 68.7318 154.775 68.6889 154.77 68.6465C154.705 68.0979 154.53 67.6603 154.246 67.3328C153.962 67.0053 153.578 66.8028 153.153 66.6843C152.728 66.5659 152.255 66.5205 151.741 66.5066Z" fill="black"/>
<path d="M126.472 50.6096C124.014 50.8132 120.235 51.098 117.545 54.2609C116.386 55.6239 115.517 58.1241 114.79 61.1559C114.063 64.1877 113.502 67.7435 113.071 71.1562C112.64 74.569 112.338 77.8381 112.134 80.2893C112.032 81.5149 111.954 82.5363 111.897 83.2675C111.868 83.6331 111.844 83.9264 111.825 84.1346C111.815 84.2387 111.807 84.3217 111.8 84.3796C111.793 84.4375 111.778 84.4925 111.792 84.4459C111.73 84.649 111.742 84.8728 111.837 85.0566C111.931 85.2404 112.089 85.3751 112.27 85.4779C112.632 85.6834 113.112 85.7886 113.694 85.8551C114.86 85.9879 116.437 85.9335 118.065 85.7775C118.109 85.7733 118.151 85.7607 118.19 85.7406C118.229 85.7204 118.264 85.6931 118.292 85.6601C118.32 85.6271 118.341 85.5891 118.353 85.5482C118.366 85.5074 118.37 85.4645 118.366 85.4221C118.357 85.3364 118.314 85.2576 118.245 85.203C118.176 85.1484 118.087 85.1225 117.999 85.131C116.399 85.2843 114.845 85.3322 113.773 85.21C113.237 85.1489 112.821 85.0373 112.61 84.9177C112.505 84.8578 112.457 84.8029 112.439 84.7677C112.421 84.7324 112.413 84.7077 112.437 84.6306C112.462 84.5487 112.46 84.5218 112.468 84.4538C112.476 84.3857 112.485 84.299 112.495 84.1919C112.514 83.9777 112.538 83.6833 112.567 83.3169C112.625 82.5842 112.702 81.5647 112.804 80.3415C113.008 77.8952 113.309 74.6342 113.738 71.2349C114.168 67.8356 114.727 64.2972 115.445 61.3027C116.163 58.3083 117.063 55.8505 118.064 54.6734C120.572 51.7255 124.066 51.461 126.529 51.257C126.573 51.2533 126.616 51.2414 126.655 51.2217C126.695 51.2021 126.729 51.1752 126.758 51.1426C126.786 51.1099 126.808 51.0722 126.821 51.0316C126.834 50.9909 126.839 50.9481 126.836 50.9056C126.832 50.8631 126.819 50.8217 126.799 50.7838C126.779 50.7459 126.751 50.7123 126.717 50.6848C126.684 50.6573 126.644 50.6365 126.602 50.6236C126.56 50.6107 126.516 50.6059 126.472 50.6096Z" fill="black"/>
<mask id="mask0_674_737" style="mask-type:luminance" maskUnits="userSpaceOnUse" x="3" y="20" width="281" height="1433">
<path d="M283.633 1452.52L283.633 20.4849L3.63232 20.4849L3.63232 1452.52H283.633Z" fill="white"/>
</mask>
<g mask="url(#mask0_674_737)">
<path fill-rule="evenodd" clip-rule="evenodd" d="M118.08 93.0652C118.08 93.0652 117.017 82.4975 117.457 72.3744C117.481 71.8086 119.684 71.2412 119.684 71.2412C122.011 76.2471 124.094 76.5775 126.135 76.4622C127.585 76.3801 137.409 73.6562 137.409 73.3134C137.409 72.9604 137.366 72.5314 137.29 72.0681C138.223 72.1303 139.731 71.4956 140.859 70.5909C141.428 70.1346 142.737 70.3656 143.163 70.3821C144.063 70.4169 144.328 69.5238 143.632 69.3847C143.327 69.3236 142.661 69.1649 142.036 69.1063L144.569 68.1958H157.238L171.565 70.8115L171.649 92.3106L118.08 93.0652Z" fill="#6E864C"/>
</g>
<mask id="mask1_674_737" style="mask-type:luminance" maskUnits="userSpaceOnUse" x="3" y="20" width="281" height="1433">
<path d="M283.633 1452.52L283.633 20.4849L3.63232 20.4849L3.63232 1452.52H283.633Z" fill="white"/>
</mask>
<g mask="url(#mask1_674_737)">
<path fill-rule="evenodd" clip-rule="evenodd" d="M113.528 93.1296L111.739 93.1548C111.247 90.5469 112.138 86.3616 112.519 85.2393C112.741 85.3476 113.042 85.4293 113.404 85.4877C113.326 86.0644 113.261 86.6416 113.216 87.221C113.184 87.6342 113.163 88.0477 113.152 88.4616C113.145 88.7376 113.141 89.0139 113.147 89.29C113.162 89.9799 113.21 90.6687 113.282 91.3567C113.344 91.9494 113.428 92.5399 113.528 93.1296ZM113.841 85.5442C114.837 85.6453 116.161 85.6133 117.551 85.4974C117.577 86.0202 117.604 86.5246 117.631 87.0075C117.546 87.1001 117.458 87.1968 117.367 87.2967C117.114 87.5718 116.833 87.8699 116.542 88.1807C116.361 88.3722 116.177 88.5682 115.993 88.766C115.719 89.0599 115.444 89.3562 115.163 89.6327C114.72 90.0696 114.277 90.4636 113.841 90.7415C113.838 90.5945 113.835 90.4474 113.833 90.3003C113.826 89.8927 113.825 89.4854 113.821 89.078C113.818 88.6705 113.812 88.2631 113.811 87.8554C113.81 87.3656 113.812 86.8764 113.821 86.3858C113.826 86.1052 113.832 85.8247 113.841 85.5442ZM117.677 87.8026C117.872 90.9921 118.08 93.0654 118.08 93.0654L113.952 93.1236C113.933 92.862 113.917 92.6005 113.902 92.339C113.878 91.929 113.862 91.5199 113.85 91.1109C114.397 90.8812 114.984 90.5029 115.554 90.0417C115.933 89.7349 116.305 89.3943 116.648 89.0388C116.787 88.8956 116.917 88.7477 117.043 88.6003C117.241 88.3686 117.426 88.1379 117.594 87.9138C117.622 87.8765 117.65 87.8394 117.677 87.8026Z" fill="black"/>
</g>
<path d="M139.803 37.8975C139.487 37.8966 139.185 37.9399 138.925 38.0217C138.883 38.0349 138.844 38.056 138.811 38.0837C138.777 38.1115 138.75 38.1453 138.73 38.1834C138.71 38.2214 138.698 38.2629 138.694 38.3054C138.691 38.3479 138.696 38.3907 138.71 38.4313C138.724 38.4718 138.745 38.5094 138.774 38.5418C138.803 38.5742 138.838 38.6009 138.877 38.6202C138.917 38.6395 138.959 38.6512 139.003 38.6545C139.047 38.6578 139.092 38.6527 139.134 38.6395C139.478 38.5311 140.084 38.5141 140.561 38.6586C141.038 38.8031 141.354 39.0445 141.395 39.4839C141.403 39.5697 141.446 39.6488 141.515 39.7039C141.584 39.7589 141.672 39.7854 141.761 39.7776C141.849 39.7697 141.931 39.7281 141.988 39.6619C142.045 39.5957 142.073 39.5103 142.065 39.4245C141.995 38.686 141.392 38.2295 140.762 38.0388C140.447 37.9434 140.118 37.8983 139.803 37.8975Z" fill="black"/>
<path d="M144.729 40.2628C144.562 40.259 144.396 40.2725 144.234 40.302C143.586 40.4202 143.008 40.7796 142.526 41.2599C141.562 42.2205 140.944 43.6719 140.925 44.9771C140.923 45.1087 140.889 45.1672 140.861 45.1959C140.833 45.2246 140.795 45.2474 140.692 45.2481C140.486 45.2495 140.058 45.0952 139.57 44.6828C139.503 44.626 139.415 44.5974 139.326 44.6031C139.237 44.6088 139.155 44.6484 139.096 44.7132C139.067 44.7454 139.045 44.7827 139.03 44.8231C139.016 44.8635 139.01 44.9062 139.013 44.9488C139.016 44.9913 139.028 45.0329 139.048 45.0712C139.067 45.1094 139.094 45.1435 139.128 45.1716C139.69 45.6471 140.212 45.9008 140.697 45.8976C140.939 45.896 141.182 45.8136 141.349 45.6423C141.517 45.4711 141.594 45.2349 141.597 44.9862C141.613 43.8807 142.186 42.5321 143.009 41.7123C143.42 41.3024 143.885 41.0265 144.358 40.9403C144.832 40.854 145.324 40.9396 145.866 41.3136C145.939 41.3636 146.029 41.3837 146.117 41.3695C146.205 41.3553 146.283 41.3079 146.335 41.2377C146.387 41.1676 146.407 41.0805 146.393 40.9955C146.378 40.9105 146.329 40.8347 146.256 40.7847C145.756 40.4399 145.233 40.2742 144.729 40.2628Z" fill="black"/>
<path d="M137.269 45.2068C137.155 45.1866 137.034 45.2187 136.953 45.268C136.792 45.3664 136.736 45.4916 136.686 45.623C136.587 45.8856 136.556 46.2233 136.609 46.6092C136.715 47.3808 137.214 48.3428 138.42 48.7995C139.498 49.2072 140.357 48.7858 140.783 48.2459C140.996 47.976 141.121 47.6876 141.162 47.4238C141.182 47.2919 141.187 47.165 141.137 47.0264C141.088 46.8878 140.92 46.7203 140.726 46.7053C140.707 46.7038 140.438 46.6413 140.138 46.5393C139.837 46.4372 139.469 46.2982 139.104 46.1474C138.738 45.9966 138.375 45.8336 138.084 45.686C137.793 45.5385 137.562 45.3813 137.531 45.35V45.3496C137.471 45.2877 137.383 45.227 137.269 45.2068L137.269 45.2068ZM137.29 45.9865C137.428 46.0776 137.582 46.1651 137.771 46.2612C138.086 46.4208 138.462 46.5888 138.84 46.7447C139.218 46.9006 139.596 47.0439 139.915 47.1521C140.152 47.2325 140.33 47.2853 140.498 47.319C140.496 47.3248 140.498 47.3214 140.498 47.3277C140.478 47.456 140.394 47.6684 140.249 47.8517C139.96 48.2182 139.507 48.5127 138.666 48.1946C137.693 47.8261 137.357 47.114 137.276 46.5237C137.246 46.3046 137.264 46.1243 137.291 45.9865L137.29 45.9865Z" fill="black"/>
<path d="M147.333 40.427C147.291 40.4139 147.247 40.4088 147.203 40.4121C147.159 40.4155 147.116 40.4272 147.077 40.4465C147.037 40.4659 147.002 40.4926 146.974 40.525C146.945 40.5575 146.923 40.5951 146.91 40.6357C146.09 43.0755 143.952 47.0905 141.864 49.2C140.188 50.8919 137.973 51.2404 136.089 50.7943C134.205 50.3483 132.708 49.0971 132.447 47.6692C132.439 47.6271 132.423 47.587 132.399 47.551C132.376 47.515 132.345 47.4839 132.309 47.4594C132.272 47.435 132.232 47.4177 132.188 47.4084C132.145 47.3992 132.101 47.3983 132.057 47.4058C132.014 47.4132 131.972 47.4289 131.935 47.4518C131.898 47.4748 131.866 47.5046 131.84 47.5395C131.815 47.5745 131.797 47.6139 131.788 47.6556C131.778 47.6972 131.777 47.7403 131.785 47.7823C132.109 49.554 133.846 50.932 135.929 51.4253C138.013 51.9186 140.5 51.5167 142.349 49.6492C144.571 47.4057 146.691 43.3887 147.549 40.8364C147.563 40.7958 147.568 40.753 147.564 40.7105C147.561 40.668 147.549 40.6265 147.529 40.5885C147.509 40.5505 147.481 40.5167 147.448 40.489C147.414 40.4613 147.375 40.4402 147.333 40.427Z" fill="black"/>
<path d="M139.976 28.0039C139.61 28.0149 139.252 28.0488 138.902 28.1036C136.204 28.5276 134.072 30.1672 133.194 32.0375C132.915 32.0296 132.227 32.0334 131.297 32.4074C130.151 32.8683 128.831 33.8983 128.16 36.0183V36.0185C127.68 37.5393 127.589 39.3407 127.998 40.7738C128.203 41.4904 128.535 42.1211 129.041 42.5608C129.527 42.9836 130.185 43.2009 130.94 43.1306C131.269 43.2688 131.65 43.365 132.086 43.4027C132.13 43.4065 132.174 43.4019 132.216 43.3891C132.258 43.3764 132.298 43.3557 132.331 43.3284C132.365 43.301 132.393 43.2675 132.414 43.2296C132.434 43.1918 132.447 43.1505 132.451 43.108C132.455 43.0655 132.45 43.0227 132.437 42.982C132.423 42.9413 132.402 42.9035 132.374 42.8707C132.345 42.838 132.311 42.811 132.272 42.7912C132.232 42.7715 132.19 42.7593 132.146 42.7556C130.613 42.6231 130.073 41.8262 129.98 40.959C129.886 40.0918 130.364 39.1801 130.912 38.9512C131.308 38.7863 131.82 38.7753 132.192 39.0522C132.564 39.3292 132.882 39.9405 132.765 41.2068C132.745 41.4279 132.837 41.6621 133.006 41.8037C133.175 41.9453 133.388 42.0029 133.613 42.0142C134.062 42.0368 134.595 41.8797 135.165 41.5377C136.283 40.8662 137.52 39.4462 138.168 37.0255C138.702 36.7241 139.194 36.2841 139.635 35.6878C139.962 36.1057 140.772 37.1106 142.109 38.2981C143.761 39.7659 145.963 41.2461 148.24 41.1067C149.294 41.0421 150.056 40.5724 150.467 39.8733C150.878 39.1742 150.961 38.2865 150.841 37.3433C150.602 35.4569 149.545 33.3082 148.186 31.8651C145.466 28.9766 142.537 27.9271 139.976 28.0039L139.976 28.0039ZM139.998 28.6519C142.357 28.5758 145.075 29.5263 147.688 32.3024C148.937 33.6289 149.957 35.7111 150.174 37.4223C150.283 38.2779 150.189 39.0307 149.882 39.5522C149.576 40.0736 149.079 40.4044 148.197 40.4584C146.258 40.5772 144.159 39.237 142.564 37.8199C140.969 36.4028 139.889 34.9524 139.889 34.9524C139.857 34.9088 139.813 34.8737 139.764 34.8501C139.714 34.8266 139.659 34.8153 139.603 34.8174C139.548 34.8194 139.494 34.8347 139.446 34.8619C139.398 34.889 139.358 34.9272 139.329 34.973C138.842 35.7466 138.303 36.2313 137.722 36.5318C137.681 36.5533 137.644 36.5829 137.615 36.6189C137.586 36.6548 137.566 36.6962 137.554 36.7404C136.951 39.1073 135.775 40.4063 134.81 40.9858C134.327 41.2756 133.891 41.3778 133.647 41.3656C133.525 41.3594 133.462 41.326 133.446 41.3129C133.43 41.2998 133.43 41.3156 133.435 41.2643C133.563 39.8719 133.208 38.9888 132.602 38.5376C131.996 38.0865 131.224 38.1135 130.646 38.3548C129.7 38.7497 129.19 39.908 129.311 41.0263C129.36 41.4805 129.541 41.9287 129.849 42.3155C129.722 42.2503 129.601 42.1742 129.491 42.0779C129.116 41.7523 128.828 41.2361 128.646 40.601C128.283 39.3309 128.36 37.6109 128.803 36.2083V36.2081C129.421 34.2561 130.562 33.4072 131.556 33.0073C132.55 32.6073 133.375 32.6791 133.375 32.6791C133.447 32.6853 133.519 32.669 133.58 32.6326C133.642 32.5962 133.69 32.5417 133.717 32.4771C134.424 30.7822 136.442 29.1486 139.01 28.745C139.331 28.6946 139.661 28.6628 139.998 28.6519L139.998 28.6519Z" fill="black"/>
<mask id="mask2_674_737" style="mask-type:luminance" maskUnits="userSpaceOnUse" x="3" y="20" width="281" height="1433">
<path d="M283.633 1452.52L283.633 20.4849L3.63232 20.4849L3.63232 1452.52H283.633Z" fill="white"/>
</mask>
<g mask="url(#mask2_674_737)">
<path fill-rule="evenodd" clip-rule="evenodd" d="M130.986 42.8062C128.145 43.1564 127.559 39.0366 128.482 36.1132C129.77 32.041 133.405 32.3555 133.405 32.3555C134.928 28.7084 141.843 25.6099 147.937 32.0837C150.545 34.8533 152.091 40.5452 148.219 40.7824C144.003 41.0407 139.616 35.1418 139.616 35.1418C139.104 35.9553 138.519 36.488 137.881 36.8181C136.639 41.6885 133 42.325 133.1 41.2354C133.345 38.5767 131.754 38.2468 130.779 38.653C129.485 39.1934 128.952 41.9054 130.986 42.8062Z" fill="black"/>
</g>
<path d="M136.799 50.9374C136.759 50.919 136.716 50.9084 136.672 50.9062C136.628 50.904 136.584 50.9102 136.542 50.9244C136.5 50.9387 136.462 50.9607 136.429 50.9892C136.396 51.0178 136.37 51.0523 136.351 51.0908C136.351 51.0908 136.099 51.6005 135.827 52.1409C135.691 52.4111 135.55 52.689 135.434 52.9134C135.317 53.1377 135.211 53.3282 135.198 53.3474C135.198 53.3477 135.197 53.348 135.197 53.3483C135.151 53.4186 135.127 53.5368 135.151 53.626C135.174 53.7151 135.22 53.7677 135.257 53.8028C135.331 53.873 135.388 53.8959 135.449 53.9228C135.573 53.9766 135.718 54.0185 135.902 54.0658C136.269 54.1603 136.777 54.2646 137.357 54.3824C138.516 54.6182 139.959 54.9075 141.003 55.2357C141.607 55.4254 142.005 55.6876 142.389 56.1366C142.773 56.5857 143.133 57.2342 143.577 58.1561C144.464 59.9998 145.689 62.9149 148.284 67.4803C148.327 67.5557 148.399 67.6116 148.484 67.6357C148.57 67.6597 148.662 67.65 148.74 67.6086C148.779 67.5881 148.813 67.5604 148.84 67.5271C148.868 67.4938 148.889 67.4556 148.901 67.4146C148.913 67.3737 148.917 67.3308 148.912 67.2884C148.908 67.246 148.894 67.2049 148.873 67.1675C146.294 62.6286 145.088 59.7557 144.186 57.882C143.735 56.9452 143.36 56.2526 142.907 55.7228C142.454 55.193 141.913 54.8385 141.211 54.6179C140.105 54.2704 138.653 53.9821 137.495 53.7468C136.917 53.6291 136.411 53.5246 136.075 53.438C136.006 53.4201 135.984 53.4096 135.931 53.3935C135.967 53.3256 135.988 53.2925 136.034 53.2049C136.153 52.9762 136.295 52.6968 136.431 52.4252C136.705 51.882 136.957 51.3704 136.957 51.3704C136.976 51.3319 136.987 51.2902 136.989 51.2476C136.992 51.205 136.985 51.1623 136.971 51.1221C136.956 51.0819 136.933 51.0449 136.904 51.0132C136.874 50.9815 136.838 50.9558 136.798 50.9374L136.799 50.9374Z" fill="black"/>
<path d="M182.003 91.8404L111.331 92.8357C111.286 92.8364 111.241 92.846 111.199 92.8639C111.157 92.8819 111.12 92.9078 111.089 92.9402C111.058 92.9726 111.034 93.0107 111.019 93.0522C111.004 93.0937 110.998 93.1378 111.001 93.1818L111.17 95.6965C111.176 95.7795 111.214 95.8573 111.278 95.9138C111.341 95.9703 111.424 96.0012 111.51 96.0001L181.956 95.1446C182.043 95.1435 182.126 95.1097 182.188 95.0503C182.25 94.991 182.286 94.9107 182.288 94.8264L182.344 92.1717C182.345 92.1281 182.337 92.0848 182.32 92.0443C182.303 92.0039 182.278 91.9671 182.246 91.9361C182.215 91.9052 182.177 91.8808 182.135 91.8644C182.093 91.8479 182.048 91.8397 182.003 91.8404ZM181.665 92.4948L181.622 94.4989L111.82 95.3468L111.694 93.4805L181.665 92.4948Z" fill="black"/>
<path d="M142.111 92.4023C142.022 92.4024 141.936 92.4366 141.873 92.4975C141.81 92.5584 141.775 92.641 141.775 92.7271V95.3038C141.775 95.3899 141.81 95.4725 141.873 95.5334C141.936 95.5943 142.022 95.6285 142.111 95.6285C142.155 95.6286 142.199 95.6202 142.24 95.6039C142.28 95.5876 142.317 95.5636 142.349 95.5335C142.38 95.5033 142.405 95.4675 142.422 95.4281C142.438 95.3887 142.447 95.3465 142.447 95.3038V92.7271C142.447 92.6844 142.438 92.6422 142.422 92.6028C142.405 92.5634 142.38 92.5276 142.349 92.4974C142.317 92.4673 142.28 92.4433 142.24 92.427C142.199 92.4107 142.155 92.4023 142.111 92.4023Z" fill="black"/>
<path d="M125.58 56.6205C125.547 56.592 125.509 56.5701 125.467 56.5559C125.426 56.5418 125.381 56.5357 125.337 56.5381C125.293 56.5404 125.25 56.5512 125.21 56.5697C125.17 56.5881 125.135 56.614 125.105 56.6458C125.076 56.6776 125.053 56.7147 125.039 56.755C125.024 56.7953 125.018 56.8379 125.02 56.8805C125.023 56.9231 125.034 56.9648 125.053 57.0033C125.072 57.0417 125.099 57.0762 125.132 57.1046C125.105 57.0812 125.221 57.226 125.328 57.4407C125.434 57.6553 125.565 57.9536 125.711 58.316C126.004 59.0409 126.364 60.0237 126.758 61.1504C127.548 63.4036 128.477 66.2341 129.313 68.7686C129.368 68.9358 129.532 69.0101 129.624 69.0296C129.715 69.0492 129.787 69.0458 129.864 69.0398C130.018 69.0279 130.192 68.9933 130.402 68.9446C130.82 68.8471 131.368 68.69 131.97 68.5233C133.174 68.1899 134.61 67.8243 135.478 67.8216C135.414 67.8218 135.447 67.8075 135.52 67.8864C135.593 67.9652 135.691 68.1082 135.791 68.2938C135.991 68.6649 136.207 69.2054 136.398 69.8042C136.76 70.9372 137.032 72.2809 137.062 73.1538C137.007 73.1799 136.952 73.2065 136.857 73.2441C136.598 73.3464 136.213 73.4801 135.745 73.6313C134.809 73.9337 133.538 74.3082 132.223 74.6744C130.908 75.0405 129.546 75.3988 128.427 75.6697C127.307 75.9407 126.392 76.1233 126.115 76.139C124.686 76.2197 123.388 76.1264 121.863 74.2561C120.339 72.3857 118.658 68.6805 116.814 61.6027C116.803 61.5614 116.784 61.5224 116.758 61.4882C116.731 61.454 116.698 61.4251 116.66 61.4032C116.623 61.3813 116.581 61.3668 116.537 61.3606C116.493 61.3545 116.449 61.3566 116.406 61.3671C116.319 61.3881 116.245 61.4414 116.199 61.5154C116.154 61.5893 116.14 61.6778 116.162 61.7613C118.016 68.877 119.694 72.645 121.336 74.6582C122.977 76.6714 124.653 76.8722 126.154 76.7874C126.603 76.762 127.46 76.5734 128.59 76.2998C129.72 76.0263 131.087 75.6667 132.409 75.2987C133.731 74.9308 135.007 74.5549 135.958 74.2476C136.434 74.0939 136.827 73.9579 137.112 73.8452C137.254 73.7889 137.367 73.7397 137.461 73.6893C137.508 73.664 137.55 73.6403 137.598 73.6015C137.645 73.5627 137.745 73.5124 137.745 73.3142C137.745 72.3181 137.439 70.8595 137.04 69.6122C136.841 68.9885 136.619 68.4228 136.387 67.9936C136.272 67.7789 136.156 67.5982 136.022 67.4536C135.888 67.3089 135.723 67.1713 135.475 67.1721C134.427 67.1753 132.996 67.5634 131.785 67.8987C131.179 68.0664 130.632 68.2226 130.244 68.313C130.085 68.35 129.977 68.3665 129.888 68.378C129.07 65.894 128.168 63.1477 127.395 60.9422C126.999 59.8106 126.637 58.822 126.337 58.0797C126.187 57.7086 126.053 57.3993 125.934 57.1598C125.815 56.9203 125.746 56.7642 125.58 56.6205Z" fill="black"/>
<path d="M126.844 52.8424C126.802 52.8558 126.764 52.877 126.73 52.9048C126.697 52.9326 126.669 52.9666 126.649 53.0047C126.629 53.0428 126.617 53.0843 126.614 53.1268C126.611 53.1694 126.616 53.2121 126.63 53.2526C127.955 57.143 130.644 58.8002 133.168 58.8733C135.691 58.9465 138.044 57.472 138.692 55.242C138.716 55.1591 138.705 55.0703 138.661 54.9953C138.617 54.9202 138.545 54.8649 138.459 54.8417C138.373 54.8184 138.281 54.829 138.204 54.8712C138.126 54.9133 138.069 54.9836 138.045 55.0665C137.491 56.9707 135.427 58.289 133.188 58.224C130.948 58.1591 128.528 56.7477 127.268 53.0493C127.241 52.9676 127.18 52.8998 127.101 52.861C127.021 52.8222 126.929 52.8155 126.844 52.8424Z" fill="black"/>
<path d="M131.092 42.5581C131.049 42.5665 131.008 42.583 130.971 42.6068C130.935 42.6306 130.903 42.6611 130.879 42.6966C130.686 42.9766 130.277 43.6759 129.786 44.5901C129.294 45.5043 128.732 46.617 128.276 47.6674C128.241 47.7468 128.241 47.8362 128.275 47.9159C128.308 47.9956 128.374 48.0591 128.456 48.0925C128.538 48.1258 128.63 48.1262 128.713 48.0936C128.795 48.0611 128.861 47.9982 128.896 47.9188C129.341 46.8931 129.897 45.7923 130.382 44.8897C130.867 43.9871 131.294 43.2662 131.438 43.0565C131.488 42.9848 131.505 42.897 131.488 42.8126C131.47 42.7282 131.419 42.6539 131.345 42.6062C131.27 42.5585 131.18 42.5412 131.092 42.5581ZM127.336 50.4597C127.292 50.4535 127.248 50.4557 127.205 50.4662C127.162 50.4766 127.122 50.4951 127.087 50.5206C127.051 50.5461 127.021 50.5781 126.999 50.6147C126.976 50.6514 126.961 50.6919 126.955 50.7342C126.936 50.8578 126.956 50.9034 126.973 50.9852C126.99 51.067 127.015 51.1619 127.049 51.2726C127.117 51.4941 127.22 51.7768 127.361 52.1009C127.643 52.7492 128.075 53.5613 128.673 54.342C129.868 55.9034 131.782 57.3598 134.392 56.9379C135.584 56.7451 136.249 55.9583 136.575 55.2589C136.902 54.5596 136.933 53.9088 136.933 53.9088C136.935 53.8662 136.929 53.8235 136.914 53.7834C136.899 53.7432 136.876 53.7062 136.847 53.6746C136.817 53.643 136.781 53.6173 136.741 53.5991C136.701 53.5808 136.658 53.5704 136.614 53.5683C136.525 53.5641 136.438 53.5942 136.372 53.652C136.306 53.7098 136.266 53.7906 136.262 53.8766C136.262 53.8766 136.232 54.4152 135.963 54.9917C135.693 55.5682 135.228 56.144 134.281 56.2971C131.968 56.6709 130.327 55.4105 129.214 53.9555C128.657 53.2279 128.245 52.4569 127.981 51.8488C127.848 51.5448 127.753 51.2811 127.693 51.0879C127.664 50.9913 127.643 50.9119 127.632 50.8586C127.621 50.8053 127.631 50.7548 127.62 50.8281C127.626 50.7859 127.624 50.7429 127.613 50.7015C127.603 50.6602 127.583 50.6213 127.557 50.5871C127.531 50.5529 127.498 50.524 127.46 50.5021C127.422 50.4803 127.38 50.4659 127.336 50.4597Z" fill="black"/>
<path d="M112.624 84.9308C112.582 84.9175 112.538 84.9123 112.494 84.9155C112.45 84.9187 112.407 84.9303 112.367 84.9495C112.328 84.9688 112.293 84.9953 112.264 85.0277C112.235 85.0601 112.213 85.0976 112.2 85.1381C111.789 86.3456 110.893 90.477 111.409 93.2132C111.425 93.2979 111.475 93.3731 111.548 93.4221C111.622 93.471 111.712 93.4899 111.8 93.4744C111.887 93.459 111.965 93.4105 112.016 93.3396C112.067 93.2688 112.086 93.1814 112.07 93.0966C111.602 90.6171 112.486 86.378 112.838 85.3408C112.866 85.2589 112.859 85.1698 112.819 85.0929C112.779 85.016 112.709 84.9577 112.624 84.9308Z" fill="black"/>
<path d="M142.719 87.5261C142.18 87.5203 141.48 87.5362 140.778 87.5646C140.077 87.5931 139.375 87.6344 138.834 87.6804C138.564 87.7033 138.335 87.7273 138.159 87.7528C138.072 87.7656 137.998 87.7781 137.932 87.7946C137.898 87.8028 137.867 87.8113 137.828 87.8268C137.79 87.8421 137.739 87.847 137.66 87.9493C137.59 88.0394 137.592 88.0746 137.577 88.1225C137.563 88.1705 137.552 88.2211 137.541 88.2791C137.518 88.3952 137.497 88.5395 137.478 88.7072C137.44 89.0428 137.409 89.4697 137.402 89.9057C137.394 90.3416 137.409 90.7843 137.467 91.1612C137.496 91.3496 137.536 91.5216 137.598 91.6765C137.66 91.8313 137.74 91.9819 137.911 92.0875C138.073 92.1879 138.227 92.2144 138.431 92.2497C138.635 92.285 138.878 92.3116 139.152 92.3323C139.698 92.3738 140.361 92.3906 141.013 92.3878C141.665 92.3849 142.305 92.3623 142.804 92.3223C143.054 92.3023 143.267 92.2785 143.439 92.248C143.524 92.2327 143.599 92.2162 143.671 92.1928C143.743 92.1693 143.817 92.1643 143.921 92.0362C144.057 91.8665 144.035 91.7813 144.055 91.6449C144.074 91.5085 144.087 91.3454 144.095 91.1593C144.112 90.787 144.113 90.3251 144.103 89.8645C144.093 89.4039 144.073 88.9461 144.048 88.5849C144.036 88.4043 144.023 88.2482 144.008 88.1247C144.001 88.0629 143.993 88.0095 143.984 87.9614C143.976 87.9134 143.975 87.8824 143.938 87.8037C143.877 87.6763 143.798 87.6484 143.751 87.6267C143.703 87.6049 143.667 87.5957 143.63 87.5872C143.557 87.5703 143.482 87.5612 143.394 87.5531C143.217 87.5371 142.989 87.529 142.719 87.5261ZM142.712 88.1758C142.971 88.1786 143.189 88.1869 143.331 88.1999C143.336 88.2003 143.336 88.2007 143.34 88.2012C143.353 88.3077 143.366 88.4549 143.378 88.6278C143.401 88.9759 143.421 89.4268 143.431 89.878C143.441 90.3292 143.44 90.7821 143.424 91.1305C143.416 91.3047 143.404 91.4535 143.389 91.5558C143.386 91.5731 143.381 91.58 143.377 91.5953C143.355 91.6002 143.345 91.604 143.317 91.6091C143.184 91.6329 142.985 91.656 142.749 91.675C142.276 91.7128 141.648 91.7355 141.01 91.7383C140.372 91.7411 139.722 91.724 139.204 91.6848C138.945 91.6651 138.719 91.6397 138.55 91.6104C138.381 91.5811 138.258 91.5305 138.274 91.5403C138.298 91.5553 138.259 91.5289 138.225 91.4427C138.191 91.3565 138.157 91.2233 138.132 91.0649C138.083 90.748 138.067 90.3298 138.074 89.9163C138.081 89.5028 138.111 89.0916 138.146 88.7786C138.164 88.6252 138.183 88.4967 138.2 88.4059C138.223 88.4021 138.232 88.3993 138.26 88.3953C138.41 88.3734 138.631 88.3498 138.893 88.3275C139.418 88.2829 140.114 88.2419 140.807 88.2137C141.5 88.1856 142.193 88.1702 142.712 88.1758Z" fill="black"/>
<path d="M141.898 68.7679C141.66 68.7524 141.425 68.754 141.207 68.7852C141.163 68.7914 141.121 68.8058 141.083 68.8277C141.045 68.8496 141.012 68.8786 140.986 68.9128C140.96 68.9471 140.941 68.986 140.93 69.0274C140.919 69.0688 140.917 69.1118 140.923 69.154C140.93 69.1962 140.945 69.2368 140.967 69.2734C140.99 69.31 141.02 69.3419 141.055 69.3673C141.091 69.3928 141.131 69.4112 141.174 69.4216C141.217 69.4319 141.261 69.4341 141.305 69.4278C141.599 69.3859 142.065 69.4247 142.498 69.4939C142.93 69.5631 143.33 69.6562 143.565 69.7032C143.665 69.7231 143.679 69.7502 143.686 69.7618C143.692 69.7733 143.699 69.792 143.682 69.8346C143.649 69.9199 143.511 70.0706 143.177 70.0577C143.013 70.0514 142.55 69.9876 142.068 69.9846C141.586 69.9817 141.048 70.0177 140.645 70.3414C139.571 71.2028 138.065 71.7944 137.314 71.7443C137.27 71.7414 137.226 71.7469 137.184 71.7604C137.142 71.774 137.104 71.7954 137.07 71.8234C137.037 71.8515 137.01 71.8855 136.99 71.9237C136.971 71.962 136.959 72.0035 136.956 72.0461C136.95 72.132 136.979 72.2168 137.038 72.2817C137.096 72.3466 137.179 72.3864 137.268 72.3924C138.382 72.4667 139.893 71.789 141.074 70.8411V70.8413C141.24 70.7085 141.642 70.6318 142.063 70.6344C142.485 70.637 142.888 70.6969 143.15 70.707C143.716 70.7289 144.161 70.4504 144.311 70.0631C144.387 69.8694 144.385 69.641 144.274 69.447C144.163 69.253 143.949 69.1165 143.701 69.0669C143.493 69.0252 143.07 68.9269 142.608 68.8529C142.376 68.8159 142.136 68.7834 141.898 68.7679L141.898 68.7679Z" fill="black"/>
<path d="M140.338 67.6922C140.294 67.6944 140.25 67.7049 140.21 67.7232C140.171 67.7415 140.135 67.7673 140.105 67.7989C140.076 67.8306 140.053 67.8676 140.038 67.9078C140.023 67.948 140.017 67.9906 140.019 68.0332C140.024 68.1192 140.063 68.1999 140.129 68.2577C140.195 68.3154 140.283 68.3454 140.372 68.3411C140.372 68.3411 140.826 68.3191 141.406 68.3596C141.986 68.4002 142.688 68.5146 143.115 68.733C143.193 68.7732 143.286 68.7816 143.371 68.7563C143.456 68.731 143.527 68.674 143.569 68.5979C143.611 68.5217 143.619 68.4327 143.593 68.3504C143.567 68.2681 143.508 68.1992 143.429 68.1589C142.835 67.8553 142.078 67.7552 141.455 67.7116C140.832 67.6681 140.338 67.6922 140.338 67.6922Z" fill="black"/>
<path d="M140.007 66.1624C139.067 66.2597 138.399 66.7427 137.827 67.1859C137.255 67.629 136.77 68.0234 136.18 68.1258C136.137 68.1333 136.095 68.1491 136.058 68.1721C136.021 68.1951 135.989 68.225 135.963 68.2601C135.938 68.2951 135.92 68.3346 135.911 68.3762C135.902 68.4179 135.901 68.461 135.909 68.503C135.924 68.5877 135.974 68.663 136.048 68.7121C136.121 68.7613 136.211 68.7803 136.299 68.7651C137.112 68.6239 137.689 68.1253 138.247 67.6928C138.806 67.2603 139.338 66.885 140.078 66.8083C140.295 66.7859 140.882 66.8319 141.533 67.0461C142.184 67.2602 142.917 67.6348 143.533 68.2381C143.564 68.2685 143.601 68.2926 143.642 68.3092C143.683 68.3258 143.726 68.3345 143.77 68.3348C143.814 68.335 143.858 68.3269 143.899 68.3108C143.94 68.2948 143.977 68.2711 144.009 68.2411C144.04 68.2111 144.065 68.1754 144.082 68.1361C144.099 68.0968 144.108 68.0546 144.109 68.0119C144.109 67.9693 144.1 67.927 144.084 67.8875C144.067 67.848 144.042 67.812 144.011 67.7817C143.306 67.0912 142.48 66.6718 141.749 66.4313C141.019 66.1908 140.402 66.1215 140.007 66.1624Z" fill="black"/>
<path d="M149.541 67.5919C149.541 67.5919 149.383 67.736 149.212 67.9445C149.042 68.153 148.845 68.4264 148.771 68.76C148.762 68.8017 148.761 68.8448 148.769 68.8868C148.777 68.9287 148.794 68.9688 148.817 69.0046C148.841 69.0405 148.872 69.0714 148.909 69.0956C148.945 69.1199 148.986 69.137 149.029 69.1459C149.116 69.164 149.207 69.1479 149.282 69.1011C149.357 69.0544 149.41 68.9808 149.428 68.8966C149.462 68.7433 149.601 68.5166 149.74 68.3468C149.879 68.177 150.002 68.0647 150.002 68.0647C150.034 68.0355 150.06 68.0004 150.078 67.9615C150.096 67.9225 150.106 67.8806 150.107 67.8379C150.109 67.7953 150.101 67.7528 150.086 67.7129C150.07 67.673 150.046 67.6365 150.016 67.6055C149.986 67.5744 149.949 67.5495 149.909 67.532C149.869 67.5145 149.826 67.5048 149.781 67.5036C149.737 67.5023 149.693 67.5094 149.652 67.5246C149.611 67.5397 149.573 67.5626 149.541 67.5919Z" fill="black"/>
<path d="M150.897 67.3902C150.808 67.3911 150.723 67.4262 150.66 67.4877C150.66 67.4877 150.491 67.654 150.321 67.8911C150.151 68.1282 149.957 68.4391 149.94 68.8147C149.938 68.8573 149.945 68.8999 149.96 68.9399C149.975 68.98 149.998 69.0169 150.028 69.0483C150.058 69.0798 150.094 69.1053 150.134 69.1233C150.174 69.1414 150.217 69.1516 150.261 69.1535C150.305 69.1554 150.349 69.1488 150.391 69.1342C150.432 69.1197 150.471 69.0973 150.503 69.0685C150.536 69.0397 150.562 69.005 150.581 68.9663C150.599 68.9277 150.61 68.8858 150.612 68.8432C150.619 68.6972 150.737 68.4509 150.873 68.2615C151.009 68.0721 151.14 67.9425 151.14 67.9425C151.171 67.912 151.196 67.876 151.212 67.8364C151.229 67.7968 151.237 67.7545 151.236 67.7118C151.236 67.6691 151.227 67.627 151.21 67.5877C151.192 67.5485 151.167 67.5129 151.136 67.4831C151.072 67.4227 150.986 67.3893 150.897 67.3902Z" fill="black"/>
<path d="M152.231 67.3485C152.197 67.3213 152.157 67.3009 152.115 67.2883C152.073 67.2757 152.029 67.2714 151.985 67.2754C151.941 67.2794 151.898 67.2917 151.859 67.3117C151.82 67.3317 151.785 67.3589 151.757 67.3918C151.757 67.3918 151.571 67.609 151.393 67.8864C151.216 68.1638 150.992 68.478 151.074 68.8903C151.083 68.9322 151.1 68.972 151.124 69.0076C151.148 69.0433 151.18 69.0739 151.216 69.0978C151.253 69.1216 151.294 69.1383 151.337 69.1469C151.38 69.1554 151.425 69.1556 151.468 69.1475C151.556 69.1311 151.633 69.0818 151.683 69.0104C151.733 68.9391 151.751 68.8515 151.734 68.7669C151.733 68.7618 151.816 68.4614 151.965 68.2282C152.114 67.995 152.275 67.8058 152.275 67.8058C152.332 67.7395 152.359 67.654 152.351 67.5682C152.342 67.4825 152.299 67.4035 152.231 67.3485Z" fill="black"/>
<path d="M152.915 67.4771C152.915 67.4771 152.731 67.641 152.551 67.8587C152.371 68.0765 152.134 68.3264 152.187 68.7198C152.193 68.7621 152.207 68.8029 152.229 68.8399C152.251 68.8769 152.281 68.9093 152.316 68.9353C152.351 68.9613 152.391 68.9803 152.433 68.9914C152.476 69.0025 152.52 69.0054 152.564 68.9998C152.608 68.9943 152.65 68.9805 152.688 68.9592C152.727 68.9379 152.76 68.9096 152.787 68.8757C152.814 68.8419 152.834 68.8033 152.845 68.7621C152.857 68.7209 152.86 68.678 152.854 68.6357C152.858 68.6695 152.933 68.4379 153.076 68.2642C153.22 68.0906 153.372 67.9529 153.372 67.9529C153.438 67.8943 153.476 67.813 153.48 67.727C153.483 67.6409 153.451 67.5571 153.39 67.4939C153.36 67.4627 153.324 67.4374 153.284 67.4196C153.244 67.4019 153.2 67.3919 153.156 67.3904C153.112 67.3888 153.068 67.3956 153.027 67.4105C152.985 67.4254 152.947 67.448 152.915 67.4771Z" fill="black"/>
<path d="M171.556 70.4869L139.074 71.3327C138.985 71.3351 138.901 71.3715 138.84 71.434C138.778 71.4965 138.745 71.5799 138.748 71.666C138.75 71.7521 138.788 71.8337 138.852 71.893C138.917 71.9522 139.003 71.9843 139.093 71.982L171.574 71.1364C171.618 71.1353 171.662 71.1258 171.702 71.1084C171.742 71.091 171.779 71.0661 171.809 71.0352C171.839 71.0042 171.863 70.9677 171.879 70.9279C171.895 70.8881 171.902 70.8456 171.901 70.8029C171.9 70.7603 171.89 70.7183 171.872 70.6793C171.854 70.6404 171.828 70.6052 171.796 70.5759C171.764 70.5465 171.727 70.5236 171.685 70.5083C171.644 70.493 171.6 70.4858 171.556 70.4869Z" fill="black"/>
<path d="M157.316 67.88C157.26 67.8671 157.202 67.8682 157.147 67.8834L145.105 71.1857C145.034 71.2051 144.971 71.2467 144.927 71.3038C144.883 71.361 144.86 71.4306 144.86 71.5019L145.111 92.6836C145.112 92.7697 145.148 92.8519 145.212 92.9121C145.276 92.9724 145.362 93.0056 145.451 93.0047C145.495 93.0042 145.539 92.9953 145.579 92.9786C145.62 92.9618 145.657 92.9374 145.687 92.9069C145.718 92.8764 145.743 92.8403 145.759 92.8007C145.775 92.7611 145.784 92.7188 145.783 92.6761L145.536 71.7429L157.246 68.5316L168.79 71.1978C168.833 71.2077 168.877 71.2094 168.921 71.2026C168.965 71.1959 169.006 71.181 169.044 71.1586C169.082 71.1363 169.114 71.107 169.14 71.0724C169.166 71.0379 169.185 70.9987 169.195 70.9572C169.216 70.8735 169.201 70.7851 169.155 70.7117C169.108 70.6383 169.033 70.5858 168.946 70.5658L157.316 67.88Z" fill="black"/>
<path d="M161.623 70.7453C161.579 70.7468 161.535 70.7567 161.495 70.7744C161.455 70.7921 161.419 70.8173 161.389 70.8485C161.359 70.8797 161.335 70.9163 161.32 70.9563C161.304 70.9962 161.297 71.0387 161.299 71.0814C161.299 71.0814 161.355 72.6121 161.378 74.152C161.39 74.922 161.393 75.6948 161.377 76.2738C161.372 76.4718 161.361 76.6045 161.351 76.7472C161.314 76.7107 161.288 76.6898 161.249 76.6496C161.135 76.5314 161.015 76.4045 160.894 76.2955C160.773 76.1865 160.684 76.0617 160.418 76.0445C160.143 76.0267 160.015 76.1888 159.917 76.3047C159.818 76.4205 159.737 76.5485 159.659 76.6695C159.597 76.7648 159.544 76.8397 159.494 76.9058C159.458 76.8476 159.425 76.793 159.38 76.7125C159.314 76.5947 159.243 76.4664 159.131 76.3464C159.018 76.2264 158.804 76.095 158.568 76.1406C158.377 76.1775 158.249 76.261 158.108 76.3447C157.985 76.4171 157.87 76.4887 157.768 76.5476C157.772 76.3253 157.771 76.0586 157.759 75.6115C157.745 75.0589 157.723 74.3819 157.7 73.7241C157.653 72.4086 157.602 71.1706 157.602 71.1706C157.598 71.0846 157.559 71.0034 157.494 70.945C157.428 70.8866 157.341 70.8557 157.252 70.8591C157.163 70.8626 157.079 70.9001 157.019 70.9634C156.958 71.0267 156.926 71.1106 156.93 71.1966C156.93 71.1966 156.981 72.4333 157.028 73.7465C157.051 74.4031 157.073 75.0787 157.087 75.6274C157.101 76.1762 157.105 76.6188 157.098 76.7302C157.092 76.8415 157.096 76.9536 157.166 77.0745C157.236 77.1955 157.398 77.2863 157.522 77.2974C157.769 77.3198 157.898 77.2249 158.045 77.1453C158.191 77.0657 158.334 76.9725 158.459 76.8987C158.556 76.8412 158.612 76.8196 158.647 76.8043C158.682 76.8465 158.733 76.9225 158.788 77.0213C158.849 77.13 158.911 77.2525 158.997 77.3705C159.084 77.4886 159.22 77.6539 159.477 77.6539C159.741 77.6539 159.866 77.501 159.967 77.3833C160.068 77.2656 160.15 77.1359 160.229 77.0145C160.298 76.9081 160.359 76.8193 160.41 76.7541C160.421 76.7616 160.426 76.7616 160.437 76.7711C160.526 76.8512 160.64 76.9712 160.758 77.0931C160.876 77.215 160.996 77.3386 161.125 77.4409C161.19 77.492 161.257 77.5391 161.345 77.5768C161.433 77.6145 161.564 77.6488 161.709 77.5985C161.86 77.5464 161.896 77.4597 161.921 77.4108C161.946 77.3619 161.956 77.3246 161.966 77.2861C161.986 77.2093 161.997 77.1293 162.007 77.033C162.028 76.8405 162.041 76.589 162.049 76.2908C162.065 75.6945 162.062 74.9171 162.05 74.1426C162.027 72.5938 161.971 71.0583 161.971 71.0583C161.967 70.9723 161.929 70.891 161.864 70.8323C161.799 70.7736 161.712 70.7423 161.623 70.7453Z" fill="black"/>
<mask id="mask3_674_737" style="mask-type:luminance" maskUnits="userSpaceOnUse" x="3" y="20" width="281" height="1433">
<path d="M271.833 1449.77L283.632 20.4868L15.431 23.2418L3.63135 1452.52L271.833 1449.77Z" fill="white"/>
</mask>
<g mask="url(#mask3_674_737)">
<path fill-rule="evenodd" clip-rule="evenodd" d="M145.01 43.661C144.958 43.7556 144.895 43.8435 144.825 43.9199C144.755 43.9964 144.68 44.0597 144.604 44.1063C144.527 44.153 144.451 44.182 144.379 44.1918C144.307 44.2015 144.242 44.1919 144.186 44.1633C144.073 44.1055 144.007 43.9743 144.001 43.7985C143.996 43.6227 144.053 43.4167 144.158 43.2257C144.264 43.0348 144.41 42.8746 144.565 42.7805C144.719 42.6863 144.869 42.6658 144.982 42.7235C145.038 42.7521 145.083 42.799 145.115 42.8616C145.147 42.9242 145.164 43.0012 145.167 43.0882C145.169 43.1753 145.157 43.2707 145.13 43.369C145.103 43.4672 145.062 43.5665 145.01 43.661Z" fill="black"/>
</g>
</g>
<defs>
<filter id="filter0_d_674_737" x="0" y="0" width="191" height="110" filterUnits="userSpaceOnUse" color-interpolation-filters="sRGB">
<feFlood flood-opacity="0" result="BackgroundImageFix"/>
<feColorMatrix in="SourceAlpha" type="matrix" values="0 0 0 0 0 0 0 0 0 0 0 0 0 0 0 0 0 0 127 0" result="hardAlpha"/>
<feOffset dy="4"/>
<feGaussianBlur stdDeviation="2"/>
<feComposite in2="hardAlpha" operator="out"/>
<feColorMatrix type="matrix" values="0 0 0 0 0 0 0 0 0 0 0 0 0 0 0 0 0 0 0.25 0"/>
<feBlend mode="normal" in2="BackgroundImageFix" result="effect1_dropShadow_674_737"/>
<feBlend mode="normal" in="SourceGraphic" in2="effect1_dropShadow_674_737" result="shape"/>
</filter>
<linearGradient id="paint0_linear_674_737" x1="171.897" y1="102" x2="19.103" y2="1.98813e-06" gradientUnits="userSpaceOnUse">
<stop offset="0.0515187" stop-color="#6E864C"/>
<stop offset="0.265361" stop-color="white"/>
</linearGradient>
<clipPath id="clip0_674_737">
<rect width="71.3443" height="68" fill="white" transform="translate(111 28)"/>
</clipPath>
</defs>
</svg>
