<svg width="333" height="229" viewBox="0 0 333 229" fill="none" xmlns="http://www.w3.org/2000/svg">
<g clip-path="url(#clip0_531_2674)">
<path d="M31.3168 198.184L1.00354 206.084C0.725055 206.156 0.48227 206.328 0.320145 206.566C0.158021 206.804 0.0875322 207.093 0.121709 207.379C0.155885 207.666 0.292425 207.93 0.506051 208.123C0.719676 208.316 0.995928 208.425 1.28367 208.43L53.3249 209.295C53.6405 209.3 53.9453 209.179 54.1721 208.959C54.3989 208.739 54.5292 208.438 54.5344 208.122C54.5396 207.806 54.4193 207.501 54.1999 207.273C53.9805 207.046 53.68 206.915 53.3645 206.91L10.0502 206.19L31.916 200.492C32.2214 200.412 32.4826 200.214 32.6424 199.942C32.8022 199.669 32.8474 199.344 32.768 199.038C32.6886 198.732 32.4911 198.47 32.2189 198.31C31.9468 198.15 31.6223 198.104 31.3168 198.184Z" fill="black"/>
<mask id="mask0_531_2674" style="mask-type:luminance" maskUnits="userSpaceOnUse" x="-350" y="-2892" width="739" height="3914">
<path d="M388.75 1021.07L388.75 -2891.78H-349.305L-349.305 1021.07H388.75Z" fill="white"/>
</mask>
<g mask="url(#mask0_531_2674)">
<path fill-rule="evenodd" clip-rule="evenodd" d="M222.729 204.615L182.576 215.168L148.258 208.162L148.553 204.615L84.3857 217.314L26.2178 200.024L26.8456 165.801L41.8608 159.898L42.0453 111.038L81.5827 97.9215L82.4962 76.8423L97.7821 69.2314L128.622 75.6498L127.708 94.4336L179.964 112.499L182.576 148.361L206.962 157.335L207.822 181.631L223.759 187.324L222.729 204.615Z" fill="#6E864C"/>
</g>
<path d="M305.08 146.725C304.924 146.714 304.767 146.734 304.619 146.784C304.471 146.833 304.334 146.912 304.216 147.015C304.098 147.118 304.002 147.243 303.932 147.383C303.863 147.524 303.821 147.676 303.811 147.833C303.722 149.121 303.513 154.277 302.751 160.955C301.99 167.633 300.676 175.758 298.433 182.662C298.283 183.122 297.732 184.104 296.989 185.192C296.246 186.28 295.314 187.521 294.386 188.746C293.457 189.972 292.533 191.182 291.788 192.243C291.043 193.303 290.472 194.104 290.217 195.025C290.217 195.027 290.217 195.029 290.217 195.031C290.086 195.51 289.45 197.274 288.801 198.851C288.476 199.639 288.142 200.403 287.861 200.981C287.721 201.27 287.593 201.513 287.498 201.676C287.402 201.838 287.279 201.94 287.436 201.805C287.178 202.029 286.968 202.444 286.962 202.812C286.955 203.181 287.085 203.455 287.215 203.65C287.475 204.04 287.776 204.222 288.114 204.377C288.79 204.687 289.676 204.784 290.645 204.489C292.583 203.899 294.558 201.804 295.785 197.043C295.863 196.737 295.817 196.412 295.657 196.14C295.497 195.867 295.235 195.67 294.93 195.591C294.778 195.552 294.621 195.543 294.466 195.565C294.311 195.586 294.162 195.639 294.028 195.718C293.893 195.798 293.775 195.903 293.681 196.028C293.587 196.153 293.519 196.296 293.48 196.447C292.364 200.779 290.802 201.948 289.952 202.207C289.933 202.213 289.921 202.208 289.902 202.214C289.936 202.146 289.968 202.096 290.002 202.024C290.318 201.374 290.665 200.578 291.001 199.761C291.675 198.125 292.287 196.49 292.513 195.658V195.664C292.551 195.526 293.036 194.616 293.737 193.617C294.439 192.618 295.353 191.42 296.284 190.19C297.216 188.96 298.166 187.698 298.956 186.54C299.747 185.383 300.381 184.375 300.698 183.404C303.026 176.238 304.347 167.996 305.118 161.229C305.89 154.462 306.112 149.095 306.187 147.999C306.209 147.684 306.105 147.372 305.897 147.134C305.69 146.895 305.397 146.749 305.082 146.727L305.08 146.725Z" fill="black"/>
<path d="M323.818 153.779C323.524 153.894 323.288 154.121 323.161 154.41C323.161 154.41 310.91 182.335 309.694 185.047C309.694 185.048 309.694 185.048 309.694 185.049C309.238 186.073 309.116 187.325 309.004 188.864C308.892 190.404 308.843 192.186 308.771 193.991C308.628 197.602 308.289 201.39 307.526 202.958C307.526 202.958 307.526 202.958 307.526 202.958C306.431 205.192 303.958 206.676 301.4 207.529C298.841 208.382 296.15 208.564 295.448 208.494C295.292 208.479 295.135 208.494 294.985 208.54C294.836 208.585 294.697 208.66 294.576 208.759C294.455 208.858 294.355 208.981 294.281 209.119C294.207 209.257 294.162 209.408 294.146 209.564C294.115 209.879 294.211 210.193 294.411 210.438C294.611 210.682 294.9 210.837 295.214 210.868C296.624 211.007 299.26 210.756 302.152 209.791C305.045 208.826 308.147 207.107 309.665 204.006C309.665 204.005 309.665 204.004 309.665 204.003C310.875 201.517 311.004 197.733 311.149 194.084C311.221 192.261 311.271 190.492 311.377 189.037C311.483 187.583 311.699 186.397 311.867 186.02C313.14 183.181 325.34 155.368 325.34 155.368C325.467 155.079 325.474 154.75 325.359 154.456C325.245 154.161 325.018 153.924 324.729 153.797C324.586 153.734 324.432 153.699 324.276 153.696C324.119 153.692 323.964 153.719 323.818 153.776V153.779Z" fill="black"/>
<mask id="mask1_531_2674" style="mask-type:luminance" maskUnits="userSpaceOnUse" x="-350" y="-2892" width="739" height="3914">
<path d="M388.75 1021.07L388.75 -2891.78H-349.305L-349.305 1021.07H388.75Z" fill="white"/>
</mask>
<g mask="url(#mask1_531_2674)">
<path fill-rule="evenodd" clip-rule="evenodd" d="M235.165 174.804C238.197 176.92 245.065 179.394 260.169 179.961C281.659 180.766 292.357 175.579 296.594 173.224C297.264 176.026 298.005 180.05 298.737 184.671C296.672 188.07 291.857 193.555 291.363 195.343C291.006 196.655 288.866 202.14 288.212 202.707C287.632 203.214 291.277 205.27 293.747 199.428C294.264 201.693 294.83 203.541 292.428 207.446C291.104 209.593 293.398 211.143 294.586 210.368C294.824 210.189 295.074 209.98 295.33 209.682C296.392 209.802 299.085 209.563 301.831 208.639C302.885 219.073 303.289 227.509 302.227 227.718C299.885 228.165 267.329 226.824 267.329 226.824L265.329 222.948C265.329 222.948 265.621 226.555 264.451 226.764C263.279 226.973 237.361 226.973 237.066 225.512C236.775 224.051 235.165 174.804 235.165 174.804Z" fill="black"/>
</g>
<path d="M297.074 172.132C296.906 172.058 296.723 172.024 296.54 172.032C296.357 172.041 296.178 172.092 296.017 172.181C291.875 174.483 281.499 179.566 260.214 178.769C245.226 178.207 238.543 175.708 235.846 173.825C235.665 173.698 235.452 173.625 235.231 173.613C235.011 173.6 234.791 173.65 234.597 173.756C234.403 173.861 234.242 174.019 234.133 174.211C234.023 174.403 233.968 174.622 233.976 174.843C233.976 174.843 234.378 187.155 234.817 199.652C235.037 205.9 235.265 212.194 235.457 217.02C235.553 219.433 235.64 221.478 235.712 222.971C235.748 223.717 235.781 224.325 235.809 224.777C235.838 225.228 235.828 225.39 235.899 225.745C235.993 226.207 236.267 226.458 236.459 226.6C236.651 226.743 236.814 226.815 236.979 226.879C237.308 227.007 237.65 227.087 238.059 227.163C238.877 227.318 239.942 227.437 241.209 227.54C243.741 227.745 247.058 227.875 250.402 227.954C253.746 228.033 257.112 228.059 259.722 228.052C261.027 228.049 262.142 228.037 262.975 228.02C263.391 228.011 263.736 228.002 264.005 227.99C264.275 227.978 264.4 227.984 264.659 227.936C265.37 227.809 265.747 227.311 265.995 226.835L266.271 227.37C266.367 227.556 266.511 227.714 266.688 227.828C266.865 227.941 267.069 228.005 267.279 228.014C267.279 228.014 275.422 228.348 283.86 228.628C288.079 228.768 292.371 228.894 295.763 228.957C297.46 228.989 298.93 229.005 300.061 228.999C301.192 228.993 301.854 228.999 302.449 228.887C302.451 228.887 302.453 228.887 302.456 228.887C302.897 228.801 303.203 228.516 303.37 228.286C303.538 228.056 303.62 227.847 303.689 227.637C303.826 227.216 303.894 226.77 303.946 226.231C304.05 225.152 304.062 223.724 304.011 221.978C303.91 218.486 303.543 213.753 303.015 208.519C302.997 208.341 302.939 208.169 302.846 208.016C302.752 207.863 302.626 207.734 302.476 207.636C302.326 207.539 302.155 207.478 301.978 207.455C301.801 207.433 301.621 207.451 301.451 207.508C298.869 208.377 296.128 208.572 295.461 208.497C295.269 208.475 295.074 208.501 294.893 208.572C294.713 208.643 294.553 208.757 294.427 208.904C294.259 209.1 294.101 209.23 293.922 209.367C293.905 209.367 293.615 209.366 293.407 209.16C293.192 208.944 293.007 208.775 293.44 208.073C295.973 203.954 295.412 201.381 294.905 199.162C294.849 198.917 294.716 198.695 294.527 198.53C294.337 198.364 294.1 198.263 293.849 198.241C293.598 198.219 293.347 198.277 293.132 198.406C292.916 198.536 292.747 198.731 292.649 198.963C291.629 201.376 290.583 202.023 289.908 202.197C289.939 202.135 289.967 202.089 289.999 202.024C290.314 201.373 290.661 200.578 290.998 199.76C291.67 198.126 292.281 196.494 292.508 195.662C292.541 195.543 292.888 194.851 293.417 194.068C293.946 193.285 294.65 192.336 295.408 191.33C296.925 189.32 298.653 187.099 299.751 185.292C299.898 185.05 299.954 184.764 299.91 184.485C299.175 179.847 298.433 175.807 297.75 172.947C297.707 172.768 297.623 172.601 297.506 172.46C297.388 172.319 297.239 172.207 297.072 172.133L297.074 172.132ZM295.751 175.012C296.303 177.54 296.89 180.693 297.483 184.397C296.492 185.959 294.946 187.991 293.511 189.892C292.746 190.906 292.025 191.876 291.448 192.73C290.87 193.585 290.431 194.249 290.217 195.025C290.217 195.026 290.217 195.027 290.217 195.028C290.086 195.508 289.449 197.272 288.8 198.848C288.476 199.637 288.142 200.4 287.861 200.978C287.721 201.268 287.593 201.511 287.497 201.673C287.402 201.836 287.279 201.938 287.436 201.803C287.434 201.804 287.433 201.805 287.431 201.806C287.203 202.004 287.006 202.348 286.969 202.684C286.932 203.02 287.024 203.302 287.13 203.503C287.342 203.907 287.608 204.097 287.891 204.26C288.456 204.587 289.17 204.738 289.994 204.628C290.99 204.496 292.055 203.876 293.045 202.765C292.965 203.791 292.543 204.987 291.417 206.819C290.526 208.263 290.827 209.941 291.724 210.843C292.622 211.744 294.045 212.143 295.237 211.365C295.259 211.351 295.28 211.336 295.301 211.32C295.441 211.215 295.615 211.027 295.776 210.881C297.007 210.925 298.765 210.719 300.775 210.179C301.22 214.78 301.545 218.988 301.634 222.046C301.684 223.739 301.664 225.111 301.579 225.999C301.552 226.279 301.517 226.397 301.484 226.563C301.182 226.58 300.855 226.609 300.05 226.613C298.953 226.619 297.495 226.604 295.81 226.572C292.439 226.51 288.153 226.384 283.94 226.245C275.865 225.977 268.704 225.681 268.068 225.655L266.388 222.398C266.262 222.154 266.055 221.96 265.802 221.851C265.55 221.742 265.267 221.724 265.003 221.8C264.738 221.875 264.508 222.041 264.352 222.267C264.195 222.494 264.122 222.768 264.144 223.042C264.144 223.042 264.207 223.876 264.144 224.681C264.114 225.061 264.045 225.407 263.98 225.603C263.932 225.606 263.957 225.603 263.904 225.606C263.665 225.615 263.332 225.627 262.927 225.633C262.117 225.651 261.013 225.66 259.718 225.664C257.13 225.67 253.779 225.644 250.46 225.567C247.141 225.489 243.849 225.358 241.403 225.159C240.18 225.06 239.162 224.942 238.502 224.817C238.349 224.787 238.305 224.769 238.196 224.741C238.189 224.668 238.192 224.7 238.187 224.622C238.16 224.191 238.128 223.591 238.092 222.851C238.021 221.371 237.934 219.33 237.838 216.92C237.646 212.101 237.417 205.809 237.198 199.563C236.797 188.145 236.49 178.748 236.429 176.894C240.342 178.855 247.324 180.668 260.127 181.148C279.842 181.886 290.677 177.605 295.753 175.007L295.751 175.012ZM288.997 203.6C288.997 203.6 288.994 203.603 288.994 203.606L288.99 203.609C288.994 203.606 288.993 203.603 288.997 203.6Z" fill="black"/>
<mask id="mask2_531_2674" style="mask-type:luminance" maskUnits="userSpaceOnUse" x="-350" y="-2892" width="739" height="3914">
<path d="M388.75 1021.07L388.75 -2891.78H-349.305L-349.305 1021.07H388.75Z" fill="white"/>
</mask>
<g mask="url(#mask2_531_2674)">
<path fill-rule="evenodd" clip-rule="evenodd" d="M221.676 131.638C224.122 133.933 226.193 135.274 226.809 135.096C228.875 134.589 232.142 130.982 232.877 128.09C234.257 128.03 235.629 128.001 236.995 127.941C243.836 127.613 250.505 127.017 257 126.093C258.548 125.854 260.083 125.646 261.61 125.377C260.155 124.423 258.714 123.41 257.286 122.426C250.802 117.835 244.601 112.916 238.655 107.67C234.299 103.824 230.077 99.7994 225.979 95.5961C225.607 95.5961 225.235 95.5664 224.866 95.5664C224.866 95.5664 234.671 77.9033 238.846 73.065C241.393 70.1077 248.728 67.2668 250.707 66.8524C250.766 66.6646 250.829 66.4828 250.891 66.3069C251.507 64.5957 257.176 59.3013 260.833 56.0102C261.255 55.9476 261.681 55.8643 262.098 55.754C263.035 57.647 264.073 60.2941 264.273 63.0128C264.398 64.721 260.056 69.8156 257.009 73.1634C257.762 77.641 258.134 84.0862 258.244 91.0351C263.106 85.3024 271.643 65.9551 272.84 65.1025C276.202 62.7117 281.073 58.0553 283.121 56.055C282.871 54.9669 282.567 53.6881 282.234 52.3735C284.838 52.3049 286.917 54.0727 290.884 60.6967C291.58 61.8593 302.745 61.6028 314.627 67.1118C320.53 69.8515 325.431 80.5177 327.107 87.7707C333.165 114.019 337.343 133.039 325.163 155.039C323.929 157.275 324.28 149.733 316.347 147.288C308.298 144.844 303.873 149.852 303.801 147.11C303.751 145.202 306.417 133.486 304.167 117.537C300.811 122.068 297.38 136.258 297.541 137.928C298.639 149.464 298.894 171.912 297.395 172.777C293.806 174.834 283.168 180.825 260.169 179.961C257.625 179.872 255.313 179.722 253.218 179.514C234.609 177.815 232.731 172.687 232.909 171.704C234.198 164.668 230.58 163.118 230.493 160.196C230.353 155.248 235.445 147.109 236.254 140.163C235.254 140.849 229.422 143.95 226.274 143.681C224.03 143.473 220.067 137.838 219.439 135.126C219.088 133.575 220.201 132.174 221.676 131.638Z" fill="#6E864C"/>
</g>
<path d="M255.452 25.7256C254.826 25.739 254.251 25.8866 253.77 26.1244C252.807 26.6002 252.201 27.3363 251.829 27.9137C251.658 28.1793 251.599 28.5021 251.665 28.8112C251.732 29.1203 251.918 29.3904 252.183 29.562C252.314 29.647 252.461 29.7053 252.615 29.7335C252.769 29.7617 252.926 29.7591 253.079 29.7262C253.232 29.6933 253.377 29.6307 253.506 29.5416C253.634 29.4526 253.744 29.339 253.829 29.2074C254.043 28.8756 254.411 28.4668 254.823 28.2636C255.234 28.0604 255.67 27.9613 256.487 28.3178C256.776 28.444 257.103 28.45 257.397 28.3343C257.691 28.2187 257.927 27.9909 258.053 27.7012C258.179 27.4114 258.185 27.0833 258.07 26.7891C257.954 26.4948 257.727 26.2585 257.438 26.132C256.754 25.8333 256.077 25.7122 255.452 25.7256Z" fill="black"/>
<path d="M261.951 40.9661C259.897 40.7673 258.058 41.5833 256.665 42.5202C255.272 43.457 254.343 44.4081 253.862 45.255C253.706 45.5299 253.666 45.8555 253.75 46.1603C253.834 46.4652 254.035 46.7244 254.309 46.8806C254.584 47.0368 254.909 47.0774 255.213 46.9935C255.517 46.9097 255.776 46.7082 255.932 46.4334C256.008 46.2994 256.886 45.2441 257.992 44.5004C259.097 43.7566 260.449 43.2168 261.722 43.34C262.036 43.3703 262.35 43.2743 262.593 43.0733C262.837 42.8723 262.991 42.5827 263.021 42.268C263.036 42.1122 263.02 41.9549 262.975 41.8052C262.929 41.6554 262.855 41.5159 262.755 41.395C262.656 41.2741 262.534 41.1739 262.396 41.1004C262.258 41.0268 262.107 40.9812 261.951 40.9661Z" fill="black"/>
<path d="M265.46 20.1952C253.255 19.8799 244.295 23.9373 244.295 23.9373C244.077 24.0361 243.894 24.1985 243.77 24.4031C243.645 24.6077 243.585 24.845 243.597 25.0843C243.597 25.0843 243.89 30.8988 244.84 37.3633C245.315 40.5955 245.952 43.9943 246.816 46.9505C247.679 49.9067 248.703 52.427 250.31 53.9863C252.64 56.2455 256.135 57.4687 259.684 57.3133C263.233 57.1579 266.888 55.5429 269.244 52.0399C269.42 51.7777 269.486 51.4561 269.425 51.1459C269.365 50.8356 269.184 50.5619 268.922 50.3852C268.793 50.2976 268.647 50.2367 268.494 50.2055C268.341 50.1744 268.183 50.1735 268.029 50.2035C267.876 50.2334 267.73 50.2934 267.6 50.3799C267.469 50.4664 267.357 50.5778 267.27 50.7077C265.356 53.5544 262.499 54.8029 259.58 54.9307C256.66 55.0586 253.731 53.9845 251.966 52.2728C250.98 51.3159 249.914 49.0654 249.1 46.2803C248.286 43.495 247.659 40.1814 247.194 37.0162C246.371 31.4119 246.097 26.9041 246.034 25.8016C249.658 24.3523 269.132 17.5087 288.46 29.3417C288.593 29.4234 288.741 29.4781 288.896 29.5024C289.05 29.5267 289.208 29.5202 289.36 29.4835C289.512 29.4467 289.655 29.3804 289.782 29.2881C289.908 29.1959 290.015 29.0794 290.096 28.9458C290.261 28.6759 290.312 28.3515 290.238 28.0441C290.163 27.7368 289.97 27.4716 289.701 27.3067C281.275 22.1479 272.783 20.3844 265.46 20.1952H265.46Z" fill="black"/>
<path d="M260.093 20.4085C259.944 20.3603 259.787 20.3419 259.631 20.3544C259.476 20.3669 259.324 20.41 259.185 20.4813C259.045 20.5526 258.922 20.6506 258.82 20.7698C258.719 20.889 258.642 21.0272 258.594 21.1762C258.546 21.3252 258.527 21.4821 258.54 21.6382C258.552 21.7943 258.595 21.9465 258.667 22.086C261.742 28.1102 264.766 31.5797 267.232 33.3815C268.464 34.2825 269.545 34.7819 270.549 34.9117C271.051 34.9765 271.551 34.952 272.036 34.7317C272.521 34.5116 272.958 34.0264 273.101 33.4869C273.373 32.4571 274.653 31.0869 275.862 30.5972C276.467 30.3524 276.999 30.3193 277.366 30.4359C277.732 30.5526 278.042 30.7725 278.33 31.5026C278.764 32.6043 278.529 34.2044 277.646 35.6569C276.763 37.1094 275.288 38.3419 273.579 38.7812C273.428 38.8202 273.285 38.8887 273.16 38.9827C273.035 39.0767 272.93 39.1943 272.85 39.3291C272.771 39.4639 272.718 39.6131 272.696 39.7682C272.674 39.9232 272.683 40.0811 272.722 40.2328C272.801 40.5391 272.997 40.8017 273.269 40.9626C273.541 41.1236 273.865 41.1697 274.171 41.091C276.578 40.472 278.501 38.834 279.679 36.8977C280.856 34.9616 281.343 32.6553 280.543 30.6269C280.054 29.3853 279.142 28.4999 278.086 28.1634C277.03 27.8269 275.941 27.9933 274.969 28.3864C273.135 29.1289 271.563 30.6646 270.935 32.5524C270.898 32.5554 270.932 32.5576 270.853 32.5475C270.465 32.4973 269.648 32.197 268.634 31.4557C266.605 29.9732 263.739 26.7879 260.786 21.001C260.642 20.7195 260.393 20.5067 260.092 20.4094L260.093 20.4085Z" fill="black"/>
<path d="M274.735 38.4629C274.579 38.4625 274.424 38.4929 274.279 38.5526C274.135 38.6122 274.003 38.6999 273.893 38.8105C273.669 39.0336 273.543 39.3365 273.542 39.6527C273.541 39.9689 273.666 40.2725 273.888 40.4967C274.647 41.2607 275.683 41.9459 276.686 42.8361C277.689 43.7263 278.612 44.764 279.09 45.9622C279.148 46.1077 279.234 46.2402 279.343 46.3523C279.453 46.4644 279.583 46.5538 279.726 46.6155C279.87 46.6772 280.025 46.71 280.181 46.7118C280.337 46.7137 280.493 46.6848 280.638 46.6265C280.931 46.5091 281.165 46.2799 281.29 45.9893C281.414 45.6986 281.418 45.3702 281.301 45.0766C280.613 43.3533 279.402 42.0612 278.264 41.051C277.126 40.0407 276.013 39.2549 275.576 38.8146C275.353 38.5904 275.051 38.4639 274.735 38.4629ZM281.754 50.495C281.602 50.5341 281.46 50.6026 281.335 50.6967C281.21 50.7909 281.105 50.9088 281.025 51.0437C280.946 51.1786 280.894 51.3279 280.872 51.483C280.85 51.6381 280.859 51.796 280.898 51.9477C281.297 53.4978 281.665 55.0435 281.961 56.3238C281.996 56.4764 282.061 56.6205 282.152 56.748C282.243 56.8754 282.358 56.9836 282.491 57.0665C282.623 57.1494 282.771 57.2053 282.925 57.231C283.08 57.2567 283.237 57.2518 283.39 57.2164C283.542 57.181 283.686 57.1159 283.813 57.0248C283.94 56.9338 284.048 56.8186 284.131 56.6857C284.213 56.5528 284.269 56.4046 284.295 56.2502C284.32 56.0957 284.315 55.9378 284.28 55.7852C283.981 54.4934 283.609 52.9298 283.203 51.352C283.124 51.0458 282.927 50.7835 282.655 50.6228C282.384 50.462 282.059 50.4161 281.754 50.495Z" fill="black"/>
<path d="M247.072 12.8155C244.175 12.7943 241.493 13.0936 239.239 13.764C236.232 14.6578 233.821 16.3107 233.187 18.9372C232.866 20.269 233.272 21.6046 233.967 22.8196C234.662 24.0346 235.679 25.1826 236.863 26.2193C239.232 28.2928 242.226 29.9461 244.96 30.2176C245.275 30.2488 245.588 30.1537 245.832 29.9533C246.076 29.7528 246.231 29.4633 246.262 29.1486C246.293 28.8339 246.198 28.5195 245.998 28.275C245.798 28.0304 245.509 27.8756 245.195 27.8444C243.306 27.6568 240.493 26.2289 238.43 24.4231C237.399 23.5203 236.545 22.5293 236.032 21.6336C235.52 20.7379 235.383 19.9914 235.502 19.4973C235.862 18.0055 237.331 16.8179 239.916 16.0493C242.501 15.2806 246.039 15.03 249.854 15.3192C257.485 15.8974 266.242 18.6565 271.202 22.8912C271.443 23.0963 271.755 23.1974 272.069 23.1722C272.384 23.1469 272.676 22.9975 272.88 22.7567C273.085 22.5161 273.186 22.2038 273.161 21.8886C273.136 21.5734 272.987 21.281 272.747 21.0758C267.144 16.2928 258.08 13.5504 250.034 12.9407C249.028 12.8645 248.038 12.8219 247.072 12.8149V12.8155Z" fill="black"/>
<path d="M268.008 0.000528698C258.699 -0.0624617 249.44 5.50875 246.273 13.7322C246.217 13.8783 246.19 14.0341 246.194 14.1907C246.198 14.3473 246.232 14.5014 246.296 14.6446C246.359 14.7877 246.45 14.9171 246.563 15.0251C246.676 15.133 246.81 15.2176 246.955 15.274C247.25 15.3876 247.577 15.3794 247.866 15.2513C248.154 15.1231 248.38 14.8854 248.494 14.5904C251.4 7.0436 260.826 1.67779 269.658 2.46459C277.319 3.14785 284.411 8.48933 287.195 16.0961C289.978 23.7028 288.59 33.6186 278.881 43.7643C278.663 43.9926 278.544 44.2983 278.551 44.6144C278.558 44.9305 278.689 45.2311 278.917 45.4499C279.03 45.5583 279.163 45.6434 279.308 45.7003C279.454 45.7572 279.61 45.7848 279.766 45.7815C279.922 45.7782 280.076 45.7441 280.219 45.6811C280.362 45.6181 280.492 45.5275 280.6 45.4144C290.775 34.782 292.537 23.7676 289.43 15.2757C286.323 6.78383 278.485 0.858107 269.869 0.0896121C269.25 0.0344321 268.629 0.00473204 268.008 0.000528698Z" fill="black"/>
<path d="M246.878 27.5664C246.037 27.4859 245.255 27.6232 244.563 27.9554C244.422 28.023 244.295 28.1177 244.191 28.2343C244.087 28.3508 244.006 28.4868 243.954 28.6346C243.902 28.7823 243.88 28.939 243.888 29.0954C243.897 29.2518 243.936 29.4048 244.004 29.5461C244.071 29.6873 244.166 29.8138 244.282 29.9184C244.398 30.023 244.534 30.1037 244.682 30.1557C244.829 30.2077 244.985 30.2299 245.141 30.2215C245.298 30.213 245.45 30.1739 245.591 30.1062C246.344 29.7451 246.885 29.6953 248.358 30.5487C248.493 30.6272 248.643 30.6783 248.798 30.6989C248.953 30.7195 249.11 30.7093 249.261 30.6689C249.412 30.6285 249.554 30.5586 249.678 30.4634C249.802 30.3681 249.906 30.2493 249.985 30.1138C250.143 29.84 250.186 29.5147 250.104 29.2092C250.023 28.9037 249.824 28.643 249.55 28.4846C248.62 27.9455 247.719 27.647 246.878 27.5664Z" fill="black"/>
<path d="M250.9 29.5477C250.585 29.5597 250.287 29.6966 250.072 29.9285C249.858 30.1604 249.744 30.4684 249.756 30.7844C249.813 32.3011 250.107 36.4663 249.609 38.9399C249.471 39.6227 249.763 40.347 250.176 40.7641C250.589 41.1811 251.082 41.4014 251.598 41.528C252.63 41.7811 253.855 41.6691 254.857 40.8677C255.103 40.6704 255.262 40.3831 255.297 40.0689C255.332 39.7546 255.241 39.4392 255.044 39.192C254.947 39.0696 254.826 38.9676 254.689 38.8919C254.552 38.8162 254.402 38.7681 254.247 38.7507C254.091 38.7332 253.934 38.7465 253.784 38.79C253.634 38.8334 253.493 38.9062 253.371 39.004C253.102 39.2191 252.542 39.304 252.164 39.2112C252.045 39.182 252.025 39.1596 251.976 39.1315C252.531 36.0449 252.183 31.9726 252.134 30.6942C252.122 30.3781 251.986 30.0798 251.754 29.8648C251.523 29.6498 251.215 29.5358 250.9 29.5477Z" fill="black"/>
<mask id="mask3_531_2674" style="mask-type:luminance" maskUnits="userSpaceOnUse" x="-350" y="-2892" width="739" height="3914">
<path d="M387.034 1020.67L388.751 -2891.79L-347.587 -2891.39L-349.304 1021.07L387.034 1020.67Z" fill="white"/>
</mask>
<g mask="url(#mask3_531_2674)">
<path fill-rule="evenodd" clip-rule="evenodd" d="M256.237 32.4237C256.313 32.825 256.301 33.2262 256.202 33.5394C256.103 33.8526 255.926 34.0522 255.71 34.0938C255.493 34.1354 255.255 34.0157 255.048 33.7613C254.84 33.507 254.681 33.1388 254.604 32.7375C254.527 32.3362 254.54 31.9347 254.639 31.6216C254.738 31.3084 254.915 31.1088 255.131 31.0672C255.348 31.0256 255.586 31.1453 255.793 31.3997C256.001 31.654 256.16 32.0224 256.237 32.4237Z" fill="black"/>
</g>
<mask id="mask4_531_2674" style="mask-type:luminance" maskUnits="userSpaceOnUse" x="-350" y="-2892" width="739" height="3914">
<path d="M387.034 1020.67L388.751 -2891.79L-347.587 -2891.39L-349.304 1021.07L387.034 1020.67Z" fill="white"/>
</mask>
<g mask="url(#mask4_531_2674)">
<path fill-rule="evenodd" clip-rule="evenodd" d="M248.908 33.9161C248.984 34.3174 248.972 34.7189 248.873 35.0321C248.774 35.3453 248.597 35.5445 248.38 35.5862C248.164 35.6278 247.926 35.5083 247.719 35.254C247.511 34.9996 247.352 34.6312 247.275 34.2299C247.198 33.8286 247.211 33.4271 247.31 33.1139C247.408 32.8008 247.586 32.6015 247.802 32.5599C248.019 32.5183 248.257 32.6377 248.464 32.8921C248.671 33.1464 248.831 33.5148 248.908 33.9161Z" fill="black"/>
</g>
<path d="M262.478 54.6239C262.329 54.5739 262.173 54.5537 262.017 54.5643C261.861 54.5748 261.709 54.6161 261.569 54.6857C261.429 54.7552 261.304 54.8518 261.201 54.9698C261.098 55.0878 261.019 55.2249 260.969 55.3733C260.919 55.5217 260.899 55.6785 260.91 55.8347C260.92 55.991 260.962 56.1436 261.031 56.2839C261.928 58.0946 262.904 60.6268 263.085 63.1002C263.077 62.9828 262.977 63.5675 262.585 64.2595C262.192 64.9518 261.59 65.8222 260.884 66.7498C259.472 68.6049 257.641 70.7 256.13 72.3597C256.025 72.4754 255.943 72.6106 255.89 72.7579C255.837 72.9052 255.813 73.0617 255.82 73.2182C255.827 73.3747 255.865 73.5282 255.932 73.67C255.998 73.8118 256.092 73.9392 256.207 74.0447C256.441 74.2577 256.749 74.3691 257.064 74.3544C257.379 74.3398 257.676 74.2004 257.889 73.9667C259.425 72.2786 261.288 70.1522 262.777 68.196C263.521 67.218 264.172 66.2859 264.654 65.438C265.135 64.59 265.531 63.8977 265.46 62.9256C265.242 59.9615 264.142 57.199 263.164 55.2236C263.024 54.9405 262.777 54.7248 262.478 54.6239Z" fill="black"/>
<mask id="mask5_531_2674" style="mask-type:luminance" maskUnits="userSpaceOnUse" x="-350" y="-2892" width="739" height="3914">
<path d="M388.75 1021.07L388.75 -2891.78H-349.305L-349.305 1021.07H388.75Z" fill="white"/>
</mask>
<g mask="url(#mask5_531_2674)">
<path fill-rule="evenodd" clip-rule="evenodd" d="M289.081 28.325C287.947 33.518 285.028 39.0627 279.74 44.5897C278.363 42.2167 275.798 40.7262 274.732 39.656C278.354 38.2161 280.582 33.971 279.437 31.0644C277.883 27.1204 272.762 30.1077 271.95 33.1812C271.507 34.8536 265.755 33.3541 259.726 21.543C263.398 21.2389 267.558 21.2745 271.974 21.984C277.422 22.8605 283.266 24.7655 289.081 28.325Z" fill="black"/>
</g>
<path d="M254.433 65.7502C253.63 65.6441 253.165 66.0625 252.82 66.3965C252.634 66.577 252.484 66.8176 252.322 67.0317C252.186 66.7876 251.969 66.5991 251.709 66.499C251.562 66.4459 251.405 66.4223 251.249 66.4297C251.093 66.437 250.94 66.4751 250.799 66.5417C250.657 66.6084 250.53 66.7025 250.425 66.8183C250.32 66.9341 250.238 67.0695 250.185 67.2169C248.78 71.1217 248.203 75.5482 248.203 75.5482C248.164 75.8379 248.233 76.1319 248.396 76.3741C248.56 76.6163 248.806 76.7899 249.089 76.862C249.372 76.9342 249.671 76.8998 249.93 76.7654C250.189 76.6309 250.39 76.4058 250.495 76.1328C250.495 76.1328 251.342 73.9195 252.358 71.7537C252.867 70.6708 253.422 69.5984 253.893 68.871C254.057 68.6185 254.175 68.4882 254.297 68.3429C254.431 68.5154 254.599 68.7701 254.771 69.1802C255.16 70.1019 255.533 71.5553 255.836 73.3601C257.625 83.9976 257.215 106.762 256.298 119.597C256.233 120.521 256.168 121.443 256.099 122.333C256.075 122.649 256.177 122.961 256.383 123.201C256.588 123.441 256.881 123.589 257.196 123.613C257.51 123.637 257.822 123.535 258.061 123.329C258.301 123.123 258.449 122.831 258.473 122.516C258.542 121.617 258.607 120.691 258.673 119.767C259.6 106.786 260.072 84.1958 258.183 72.9642C257.863 71.0576 257.48 69.4763 256.964 68.2509C256.705 67.6382 256.416 67.1093 256.026 66.6637C255.635 66.2184 255.092 65.8362 254.433 65.749L254.433 65.7502ZM257.097 124.903C256.941 124.891 256.784 124.909 256.635 124.957C256.486 125.005 256.348 125.082 256.229 125.183C256.11 125.285 256.012 125.409 255.941 125.548C255.87 125.688 255.827 125.84 255.814 125.996C254.748 139.207 253.643 147.776 252.851 153.599C252.058 159.423 251.549 162.488 251.768 164.924C252.038 167.893 252.813 170.301 253.141 172.477C253.47 174.653 253.428 176.555 252.165 178.957C252.093 179.096 252.048 179.247 252.033 179.403C252.019 179.559 252.035 179.716 252.082 179.866C252.128 180.015 252.203 180.154 252.303 180.275C252.403 180.395 252.526 180.495 252.664 180.568C252.943 180.715 253.27 180.745 253.571 180.651C253.873 180.558 254.125 180.348 254.272 180.068C255.782 177.194 255.864 174.565 255.495 172.12C255.126 169.675 254.381 167.373 254.139 164.708C253.969 162.821 254.415 159.76 255.209 153.921C256.004 148.081 257.117 139.449 258.187 126.188C258.2 126.032 258.182 125.875 258.134 125.726C258.086 125.577 258.009 125.439 257.908 125.319C257.806 125.2 257.683 125.102 257.544 125.03C257.404 124.959 257.253 124.916 257.097 124.903Z" fill="black"/>
<path d="M211.307 94.0309C206.458 94.016 201.666 94.1059 196.924 94.2853C196.699 94.2939 196.481 94.366 196.295 94.4938C196.11 94.6215 195.964 94.7994 195.875 95.0067C195.786 95.2141 195.758 95.4427 195.794 95.6655C195.829 95.8884 195.927 96.0963 196.076 96.2655C200.868 101.712 205.846 106.984 211.099 111.991C212.628 113.461 214.179 114.898 215.747 116.331C215.98 116.544 216.288 116.656 216.603 116.641C216.919 116.627 217.215 116.488 217.428 116.254C217.641 116.02 217.752 115.712 217.738 115.396C217.724 115.08 217.585 114.783 217.352 114.57C215.79 113.142 214.253 111.718 212.743 110.267C212.742 110.266 212.74 110.265 212.739 110.264C208.169 105.907 203.829 101.313 199.606 96.5963C208.059 96.3366 216.662 96.3589 225.478 96.7709C235.633 107.103 246.56 116.459 258.432 124.638C250.189 125.867 241.673 126.632 232.853 126.897H232.617C231.061 125.782 229.524 124.646 228.016 123.48C227.892 123.384 227.751 123.314 227.6 123.273C227.449 123.232 227.291 123.221 227.136 123.241C226.981 123.261 226.832 123.311 226.696 123.389C226.56 123.467 226.441 123.571 226.346 123.694C226.25 123.818 226.18 123.96 226.139 124.111C226.098 124.262 226.087 124.42 226.107 124.575C226.127 124.731 226.178 124.881 226.255 125.016C226.333 125.152 226.437 125.272 226.561 125.367C228.192 126.629 229.85 127.86 231.535 129.062C231.736 129.205 231.977 129.282 232.225 129.282H232.877C232.888 129.282 232.9 129.282 232.912 129.282C242.896 128.983 252.527 128.084 261.803 126.554C262.038 126.516 262.257 126.407 262.43 126.242C262.603 126.076 262.723 125.863 262.773 125.629C262.823 125.395 262.802 125.151 262.712 124.929C262.623 124.707 262.468 124.518 262.269 124.385C249.431 115.82 237.696 105.859 226.829 94.7616C226.619 94.5472 226.336 94.4202 226.036 94.4059C221.063 94.1665 216.156 94.0464 211.307 94.0315L211.307 94.0309Z" fill="black"/>
<path d="M222.907 112.317C222.302 112.314 221.669 112.502 221.104 112.875L221.114 112.869C219.737 113.761 218.384 114.091 217.241 114.204C216.099 114.317 215.287 114.198 214.606 114.198C214.291 114.198 213.988 114.324 213.765 114.547C213.541 114.771 213.416 115.074 213.416 115.391C213.416 115.707 213.541 116.01 213.765 116.234C213.988 116.457 214.291 116.583 214.606 116.583C214.856 116.583 216.057 116.718 217.476 116.577C218.894 116.437 220.652 116.007 222.406 114.872C222.409 114.87 222.412 114.868 222.415 114.866C222.866 114.568 222.992 114.723 222.971 114.705C222.95 114.687 223.066 114.56 222.823 114.894C221.764 116.338 218.671 117.461 217.209 117.634C217.054 117.653 216.904 117.702 216.768 117.778C216.631 117.855 216.511 117.958 216.414 118.081C216.318 118.204 216.246 118.345 216.204 118.496C216.162 118.646 216.149 118.804 216.168 118.96C216.205 119.274 216.365 119.56 216.613 119.756C216.861 119.952 217.177 120.04 217.49 120.003C219.534 119.759 222.915 118.797 224.742 116.305C224.743 116.304 224.744 116.303 224.745 116.302C225.529 115.225 225.436 113.695 224.537 112.909C224.088 112.516 223.512 112.321 222.907 112.317Z" fill="black"/>
<path d="M227.216 114.95C226.591 115.005 225.954 115.223 225.366 115.639C225.364 115.641 225.361 115.643 225.358 115.645C224.161 116.509 222.756 116.982 221.08 116.637C220.77 116.574 220.449 116.636 220.185 116.81C219.922 116.984 219.738 117.255 219.674 117.565C219.643 117.719 219.642 117.877 219.672 118.031C219.701 118.185 219.761 118.331 219.847 118.462C219.933 118.592 220.044 118.705 220.173 118.793C220.303 118.88 220.448 118.942 220.601 118.973C222.984 119.463 225.138 118.743 226.75 117.58L226.742 117.586C227.049 117.369 227.415 117.349 227.713 117.383C226.882 118.126 225.523 118.787 224.114 119.217C222.5 119.71 220.874 119.95 220.146 120.016C219.991 120.03 219.839 120.075 219.701 120.148C219.563 120.221 219.44 120.32 219.34 120.441C219.24 120.561 219.164 120.7 219.118 120.849C219.071 120.999 219.055 121.156 219.069 121.312C219.098 121.627 219.25 121.918 219.492 122.12C219.735 122.323 220.048 122.42 220.362 122.392C221.268 122.309 222.981 122.057 224.808 121.499C226.635 120.941 228.586 120.12 229.879 118.612C229.881 118.609 229.883 118.607 229.886 118.604C230.347 118.056 230.555 117.202 230.3 116.531C230.045 115.861 229.522 115.473 228.987 115.238C228.452 115.003 227.84 114.895 227.216 114.95L227.216 114.95Z" fill="black"/>
<path d="M227.735 117.799C227.503 117.825 227.265 117.882 227.025 117.976C226.88 118.033 226.747 118.118 226.634 118.226C226.521 118.335 226.431 118.464 226.368 118.608C226.305 118.751 226.271 118.905 226.268 119.062C226.265 119.219 226.292 119.374 226.349 119.52C226.461 119.767 226.654 119.968 226.896 120.09C227.137 120.212 227.413 120.249 227.677 120.193C227.547 120.288 227.569 120.291 227.405 120.39C226.849 120.725 226.119 121.098 225.35 121.439C223.812 122.119 221.999 122.634 221.349 122.634C221.034 122.634 220.731 122.76 220.508 122.983C220.285 123.207 220.159 123.51 220.159 123.827C220.159 124.143 220.285 124.446 220.508 124.67C220.731 124.894 221.034 125.019 221.349 125.019C222.854 125.019 224.617 124.371 226.312 123.62C227.16 123.245 227.961 122.837 228.631 122.434C229.301 122.031 229.816 121.722 230.247 121.135C230.25 121.13 230.254 121.125 230.257 121.12C230.594 120.646 230.707 119.951 230.531 119.421C230.355 118.892 230.005 118.542 229.639 118.296C229.089 117.927 228.433 117.72 227.735 117.797L227.735 117.799Z" fill="black"/>
<path d="M228.476 120.194C228.261 120.182 228.037 120.194 227.804 120.239C227.493 120.296 227.218 120.474 227.039 120.734C226.859 120.994 226.79 121.315 226.847 121.626C226.911 121.888 227.061 122.121 227.273 122.287C227.486 122.453 227.748 122.541 228.017 122.538C227.605 122.816 227.112 123.136 226.576 123.467C225.393 124.198 224.018 124.965 223.669 125.113C223.667 125.114 223.664 125.115 223.662 125.116C221.986 125.837 220.664 125.115 220.134 124.672C220.014 124.571 219.875 124.495 219.726 124.448C219.577 124.401 219.42 124.383 219.265 124.397C219.109 124.411 218.957 124.455 218.819 124.527C218.68 124.6 218.557 124.699 218.456 124.819C218.253 125.061 218.155 125.374 218.182 125.689C218.21 126.004 218.361 126.295 218.603 126.498C219.702 127.423 221.984 128.432 224.598 127.308C225.377 126.979 226.597 126.256 227.825 125.497C228.44 125.117 229.031 124.737 229.507 124.413C229.745 124.25 229.953 124.102 230.131 123.966C230.303 123.834 230.423 123.758 230.621 123.517C230.994 123.071 231.088 122.349 230.922 121.872C230.754 121.393 230.462 121.091 230.151 120.849C229.683 120.486 229.121 120.228 228.476 120.194Z" fill="black"/>
<path d="M212.077 109.946C211.922 109.925 211.765 109.935 211.614 109.975C211.463 110.015 211.321 110.085 211.197 110.18C211.073 110.275 210.968 110.394 210.89 110.529C210.812 110.665 210.761 110.815 210.74 110.97C210.398 113.529 210.199 116.622 211.192 119.11C213.027 123.739 216.377 128.026 219.468 131.164C221.013 132.733 222.492 134.009 223.722 134.897C224.337 135.341 224.885 135.687 225.389 135.933C225.889 136.178 226.282 136.463 227.101 136.25C228.623 135.873 229.975 134.708 231.235 133.276C232.498 131.84 233.588 130.125 234.03 128.385C234.108 128.078 234.061 127.753 233.9 127.482C233.739 127.21 233.477 127.013 233.171 126.935C232.865 126.857 232.541 126.904 232.269 127.065C231.998 127.227 231.801 127.49 231.723 127.796C231.431 128.947 230.521 130.481 229.449 131.699C228.44 132.846 227.263 133.649 226.674 133.855C226.612 133.846 226.547 133.846 226.432 133.79C226.12 133.638 225.655 133.353 225.113 132.962C224.03 132.18 222.626 130.975 221.162 129.489C218.233 126.515 215.055 122.395 213.404 118.23C212.731 116.545 212.782 113.677 213.101 111.289C213.121 111.133 213.112 110.975 213.071 110.824C213.031 110.673 212.962 110.531 212.867 110.406C212.772 110.282 212.653 110.177 212.518 110.098C212.383 110.02 212.233 109.969 212.078 109.948L212.077 109.946Z" fill="black"/>
<path d="M298.116 93.2944C297.971 93.2367 297.816 93.2085 297.659 93.2111C297.503 93.2137 297.348 93.2469 297.205 93.3092C296.915 93.4349 296.688 93.6708 296.571 93.9648C296.455 94.2588 296.461 94.5871 296.586 94.8772C300.03 102.85 301.944 110.466 302.937 117.32C302.959 117.475 303.012 117.625 303.092 117.759C303.172 117.894 303.277 118.011 303.402 118.105C303.528 118.198 303.67 118.266 303.822 118.305C303.973 118.343 304.131 118.352 304.285 118.329C304.598 118.284 304.879 118.116 305.068 117.862C305.257 117.609 305.337 117.291 305.292 116.978C304.273 109.941 302.306 102.115 298.77 93.9299C298.645 93.6397 298.41 93.4109 298.116 93.2944Z" fill="black"/>
<path d="M284.085 53.9107C283.77 53.9108 283.467 54.0364 283.244 54.2601C283.244 54.2601 276.31 61.1728 272.151 64.1297C271.78 64.3946 271.709 64.5653 271.551 64.7975C271.393 65.0298 271.227 65.3039 271.039 65.6302C270.664 66.2827 270.208 67.1402 269.683 68.1588C268.631 70.1962 267.301 72.8715 265.859 75.6942C262.975 81.3397 259.565 87.6371 257.339 90.2614C257.238 90.3808 257.161 90.519 257.113 90.6681C257.065 90.8172 257.047 90.974 257.06 91.1301C257.072 91.2862 257.116 91.4385 257.187 91.5779C257.258 91.7172 257.356 91.841 257.475 91.9424C257.716 92.147 258.028 92.2477 258.342 92.2221C258.657 92.1966 258.948 92.0469 259.153 91.8061C261.789 88.6977 265.079 82.4552 267.978 76.7807C269.428 73.9435 270.76 71.2638 271.798 69.2546C272.316 68.25 272.762 67.4114 273.102 66.8203C273.272 66.5247 273.417 66.2902 273.517 66.1425C273.617 65.9964 273.747 65.9191 273.534 66.0709C278.088 62.8321 284.928 55.9457 284.928 55.9457C285.151 55.7221 285.277 55.4188 285.277 55.1026C285.277 54.7864 285.151 54.4831 284.928 54.2595C284.705 54.0359 284.402 53.9102 284.087 53.9102L284.085 53.9107Z" fill="black"/>
<path d="M260.06 68.362C259.904 68.3764 259.753 68.4214 259.614 68.4945C259.476 68.5675 259.354 68.6671 259.254 68.7876C259.154 68.9081 259.079 69.0471 259.032 69.1966C258.986 69.3462 258.97 69.5036 258.984 69.6595C258.998 69.8155 259.043 69.967 259.116 70.1055C259.189 70.2441 259.289 70.3668 259.409 70.4668C259.409 70.4668 260.425 71.2677 262.219 71.6837C264.013 72.0997 266.691 72.224 270.333 71.247C270.638 71.1651 270.897 70.9654 271.055 70.6916C271.213 70.4177 271.256 70.0922 271.174 69.7867C271.134 69.6355 271.064 69.4935 270.969 69.3693C270.874 69.245 270.755 69.1408 270.62 69.0624C270.485 68.9841 270.335 68.9333 270.18 68.9128C270.025 68.8923 269.868 68.9026 269.717 68.9431C266.402 69.8323 264.151 69.6839 262.756 69.3605C261.362 69.0372 260.93 68.6322 260.93 68.6322C260.687 68.4301 260.374 68.3329 260.06 68.362Z" fill="black"/>
<mask id="mask6_531_2674" style="mask-type:luminance" maskUnits="userSpaceOnUse" x="-350" y="-2892" width="739" height="3914">
<path d="M388.75 1021.07L388.75 -2891.78H-349.305L-349.305 1021.07H388.75Z" fill="white"/>
</mask>
<g mask="url(#mask6_531_2674)">
<path fill-rule="evenodd" clip-rule="evenodd" d="M260.169 69.5508C260.169 69.5508 263.068 71.9622 270.025 70.0961C266.796 76.4488 261.63 87.0406 258.244 91.0353C258.134 84.0864 257.762 77.6412 257.009 73.1636C257.994 72.0845 259.11 70.8237 260.169 69.5508Z" fill="black"/>
</g>
<path d="M290.878 60.8015C290.572 60.879 290.309 61.075 290.147 61.3465C290.147 61.3465 288.471 64.1631 286.24 67.3902C284.17 70.3846 281.581 73.6731 279.65 75.3012C279.488 74.9334 279.314 74.5264 279.007 73.7011C278.195 71.5131 276.819 68.1129 273.785 64.3392C273.687 64.2173 273.566 64.1159 273.429 64.0408C273.291 63.9658 273.141 63.9184 272.985 63.9017C272.83 63.8849 272.673 63.8989 272.523 63.943C272.373 63.9871 272.233 64.0605 272.111 64.1587C271.989 64.257 271.888 64.3782 271.813 64.5157C271.738 64.6531 271.691 64.8042 271.674 64.9599C271.658 65.1156 271.672 65.2731 271.716 65.4234C271.76 65.5737 271.833 65.7137 271.931 65.8356C274.75 69.3418 275.987 72.4091 276.776 74.5332C277.171 75.5952 277.403 76.3911 277.847 77.0956C278.069 77.4479 278.413 77.8759 279.032 78.0255C279.65 78.1749 280.226 77.9169 280.6 77.64C283.141 75.7576 285.914 72.0504 288.196 68.7492C290.479 65.4477 292.192 62.5686 292.192 62.5686C292.272 62.4341 292.325 62.2852 292.347 62.1302C292.37 61.9752 292.362 61.8171 292.323 61.6653C292.285 61.5135 292.217 61.3707 292.124 61.2452C292.03 61.1196 291.913 61.0138 291.779 60.9337C291.508 60.7718 291.183 60.7245 290.877 60.8021L290.878 60.8015Z" fill="black"/>
<path d="M241.402 79.8242C241.246 79.8075 241.089 79.8217 240.939 79.8658C240.789 79.91 240.649 79.9832 240.528 80.0815C240.406 80.1798 240.305 80.3013 240.23 80.4387C240.155 80.5762 240.108 80.727 240.091 80.8827C240.091 80.8827 238.766 93.2713 237.471 107.562C237.457 107.718 237.473 107.875 237.52 108.024C237.566 108.174 237.642 108.313 237.742 108.433C237.842 108.553 237.965 108.653 238.103 108.726C238.242 108.798 238.393 108.843 238.549 108.857C238.863 108.886 239.176 108.788 239.418 108.585C239.661 108.383 239.813 108.092 239.841 107.777C241.135 93.5088 242.458 81.1366 242.458 81.1366C242.492 80.8222 242.4 80.5073 242.201 80.2612C242.003 80.0151 241.716 79.8579 241.402 79.8242ZM237.08 126.751C236.924 126.74 236.767 126.76 236.619 126.81C236.471 126.859 236.334 126.938 236.216 127.04C236.097 127.143 236.001 127.268 235.931 127.408C235.861 127.548 235.82 127.701 235.809 127.857C235.525 131.889 235.299 135.655 235.164 138.922V138.916C235.147 139.276 235.116 139.667 235.073 140.018C235.054 140.173 235.066 140.331 235.108 140.482C235.149 140.633 235.22 140.774 235.317 140.897C235.413 141.021 235.532 141.124 235.669 141.201C235.805 141.278 235.954 141.328 236.11 141.347C236.265 141.366 236.422 141.354 236.573 141.313C236.723 141.271 236.864 141.2 236.988 141.103C237.111 141.007 237.214 140.887 237.291 140.751C237.368 140.615 237.417 140.464 237.436 140.309C237.489 139.884 237.523 139.441 237.542 139.026C237.542 139.024 237.542 139.022 237.542 139.02C237.675 135.788 237.901 132.041 238.183 128.024C238.194 127.868 238.174 127.711 238.125 127.563C238.075 127.414 237.997 127.277 237.895 127.159C237.792 127.04 237.668 126.944 237.528 126.874C237.388 126.804 237.236 126.762 237.08 126.751Z" fill="black"/>
<path d="M293.481 198.265C293.329 198.3 293.185 198.365 293.057 198.455C292.93 198.546 292.821 198.661 292.738 198.794C292.655 198.926 292.599 199.074 292.573 199.229C292.547 199.383 292.552 199.541 292.587 199.694C293.115 202.006 293.685 203.13 291.415 206.821C290.525 208.265 290.826 209.944 291.723 210.845C292.62 211.747 294.044 212.145 295.236 211.367C295.24 211.364 295.245 211.361 295.25 211.358C296.625 210.432 297.67 208.721 298.643 206.914C299.615 205.107 300.381 203.323 300.626 202.036C300.685 201.726 300.619 201.404 300.442 201.143C300.264 200.881 299.991 200.701 299.681 200.641C299.527 200.612 299.369 200.613 299.216 200.645C299.063 200.677 298.918 200.738 298.788 200.826C298.659 200.914 298.548 201.027 298.462 201.158C298.377 201.289 298.317 201.435 298.288 201.589C298.158 202.27 297.44 204.123 296.547 205.781C295.658 207.434 294.463 209.005 293.931 209.369C293.926 209.369 293.621 209.375 293.408 209.161C293.193 208.945 293.008 208.776 293.441 208.074C295.974 203.954 295.413 201.382 294.906 199.163C294.871 199.01 294.807 198.866 294.716 198.738C294.626 198.611 294.511 198.502 294.379 198.419C294.246 198.335 294.099 198.279 293.944 198.253C293.79 198.227 293.632 198.231 293.48 198.266L293.481 198.265Z" fill="black"/>
<path d="M194.832 175.953L149.417 189.041C149.185 189.107 148.979 189.244 148.826 189.431C148.672 189.618 148.58 189.847 148.56 190.088L147.072 208.064C147.048 208.355 147.131 208.644 147.306 208.878C147.481 209.111 147.735 209.272 148.02 209.331L182.339 216.336C182.508 216.371 182.683 216.368 182.851 216.328C183.019 216.288 183.176 216.212 183.312 216.105C183.448 215.998 183.559 215.863 183.637 215.708C183.716 215.554 183.76 215.384 183.766 215.211L184.34 199.382C184.352 199.066 184.237 198.758 184.022 198.527C183.807 198.295 183.509 198.158 183.194 198.147C182.879 198.135 182.572 198.25 182.34 198.465C182.109 198.681 181.973 198.979 181.961 199.295L181.438 213.719L149.532 207.205L150.865 191.105L195.121 178.352L207.421 182.754C207.568 182.806 207.725 182.829 207.881 182.822C208.037 182.814 208.19 182.775 208.331 182.708C208.473 182.641 208.599 182.547 208.704 182.431C208.809 182.315 208.89 182.179 208.943 182.032C209.049 181.734 209.032 181.406 208.897 181.12C208.762 180.835 208.519 180.614 208.222 180.508L195.561 175.976C195.326 175.892 195.071 175.884 194.832 175.952V175.953Z" fill="black"/>
<path d="M194.832 175.953L149.417 189.041C149.185 189.107 148.979 189.244 148.826 189.431C148.672 189.618 148.58 189.847 148.56 190.088L147.072 208.064C147.048 208.355 147.131 208.644 147.306 208.878C147.481 209.111 147.735 209.272 148.02 209.331L182.339 216.336C182.508 216.371 182.683 216.368 182.851 216.328C183.019 216.288 183.176 216.212 183.312 216.105C183.448 215.998 183.559 215.863 183.637 215.708C183.716 215.554 183.76 215.384 183.766 215.211L184.34 199.382C184.352 199.066 184.237 198.758 184.022 198.527C183.807 198.295 183.509 198.158 183.194 198.147C182.879 198.135 182.572 198.25 182.34 198.465C182.109 198.681 181.973 198.979 181.961 199.295L181.438 213.719L149.532 207.205L150.865 191.105L195.121 178.352L207.421 182.754C207.568 182.806 207.725 182.829 207.881 182.822C208.037 182.814 208.19 182.775 208.331 182.708C208.473 182.641 208.599 182.547 208.704 182.431C208.809 182.315 208.89 182.179 208.943 182.032C209.049 181.734 209.032 181.406 208.897 181.12C208.762 180.835 208.519 180.614 208.222 180.508L195.561 175.976C195.326 175.892 195.071 175.884 194.832 175.952V175.953Z" fill="black"/>
<path d="M222.626 186.892L183.146 198.1L150.061 189.035C149.91 188.994 149.753 188.983 149.598 189.002C149.442 189.022 149.293 189.072 149.157 189.15C149.021 189.228 148.902 189.331 148.806 189.455C148.71 189.579 148.64 189.72 148.599 189.871C148.516 190.176 148.557 190.502 148.713 190.776C148.87 191.051 149.128 191.252 149.433 191.336L182.837 200.488C183.046 200.545 183.267 200.544 183.476 200.485L223.275 189.187C223.426 189.144 223.566 189.072 223.689 188.975C223.811 188.878 223.914 188.757 223.99 188.621C224.066 188.484 224.115 188.333 224.133 188.178C224.151 188.022 224.138 187.865 224.096 187.714C224.01 187.41 223.807 187.152 223.531 186.998C223.255 186.844 222.93 186.806 222.626 186.892Z" fill="black"/>
<path d="M222.811 186.855C222.497 186.892 222.211 187.053 222.016 187.301L209.872 202.743C209.74 202.912 209.655 203.112 209.627 203.325C209.599 203.537 209.629 203.753 209.713 203.95C209.797 204.147 209.933 204.318 210.106 204.444C210.278 204.57 210.482 204.648 210.695 204.668L222.618 205.801C222.932 205.83 223.245 205.734 223.489 205.533C223.732 205.331 223.885 205.041 223.915 204.726C223.945 204.412 223.849 204.098 223.648 203.854C223.447 203.61 223.157 203.457 222.843 203.427L213.093 202.5L223.886 188.777C224.081 188.529 224.17 188.213 224.133 187.899C224.096 187.585 223.935 187.298 223.688 187.102C223.565 187.006 223.424 186.934 223.274 186.891C223.123 186.849 222.966 186.837 222.811 186.855Z" fill="black"/>
<path d="M183.417 198.176C183.265 198.141 183.107 198.136 182.953 198.162C182.799 198.188 182.652 198.244 182.519 198.327C182.387 198.41 182.272 198.519 182.181 198.646C182.09 198.774 182.026 198.918 181.991 199.071C181.956 199.224 181.951 199.382 181.977 199.536C182.003 199.691 182.059 199.838 182.142 199.971C182.225 200.104 182.333 200.219 182.461 200.31C182.588 200.4 182.732 200.465 182.885 200.5L202.34 204.981L182.089 214.08C181.802 214.209 181.577 214.448 181.465 214.744C181.352 215.039 181.362 215.367 181.491 215.655C181.62 215.944 181.858 216.169 182.153 216.282C182.448 216.395 182.775 216.385 183.064 216.256L206.551 205.703C206.778 205.6 206.968 205.429 207.093 205.213C207.218 204.997 207.272 204.747 207.247 204.498C207.223 204.25 207.121 204.015 206.957 203.827C206.792 203.64 206.573 203.509 206.33 203.453L183.417 198.176Z" fill="black"/>
<path d="M26.5566 198.88C26.4068 198.835 26.2496 198.821 26.0941 198.837C25.9386 198.853 25.7879 198.9 25.6505 198.975C25.5131 199.049 25.3917 199.151 25.2933 199.272C25.1949 199.394 25.1214 199.534 25.077 199.684C24.9872 199.987 25.0213 200.314 25.1719 200.592C25.3224 200.87 25.5769 201.076 25.8796 201.166L84.0476 218.457C84.1975 218.501 84.3546 218.516 84.5101 218.499C84.6656 218.483 84.8163 218.436 84.9537 218.361C85.0911 218.287 85.2125 218.186 85.3109 218.064C85.4093 217.943 85.4829 217.803 85.5273 217.653C85.5718 217.502 85.5863 217.345 85.57 217.189C85.5538 217.033 85.507 216.883 85.4325 216.745C85.358 216.607 85.2571 216.485 85.1357 216.387C85.0142 216.288 84.8746 216.215 84.7247 216.17L26.5566 198.88Z" fill="black"/>
<mask id="mask7_531_2674" style="mask-type:luminance" maskUnits="userSpaceOnUse" x="-350" y="-2892" width="739" height="3914">
<path d="M388.75 1021.07L388.75 -2891.78H-349.305L-349.305 1021.07H388.75Z" fill="white"/>
</mask>
<g mask="url(#mask7_531_2674)">
<path fill-rule="evenodd" clip-rule="evenodd" d="M1.30302 207.238L53.3441 208.102L84.386 217.314L148.553 204.614L148.258 208.162L182.576 215.167L222.73 204.614L227.077 205.061L227.193 222.948H1.18994L1.30302 207.238Z" fill="black"/>
</g>
<path d="M205.007 156.593L86.8572 185.605L27.9825 165.18C27.6842 165.077 27.3572 165.096 27.0733 165.234C26.7894 165.372 26.5718 165.618 26.4685 165.917C26.4173 166.065 26.3957 166.221 26.4049 166.378C26.4141 166.534 26.454 166.687 26.5223 166.828C26.5906 166.969 26.6859 167.095 26.8028 167.199C26.9197 167.303 27.0559 167.383 27.2037 167.434L86.4103 187.974C86.6268 188.049 86.8602 188.06 87.0827 188.005L205.573 158.909C205.88 158.834 206.144 158.64 206.307 158.369C206.471 158.099 206.521 157.775 206.446 157.468C206.371 157.161 206.177 156.896 205.907 156.732C205.637 156.568 205.313 156.518 205.007 156.593Z" fill="black"/>
<path d="M182.577 148.183C182.261 148.183 181.959 148.308 181.735 148.532C181.512 148.756 181.387 149.059 181.387 149.375V163.327C181.387 163.643 181.512 163.947 181.735 164.17C181.959 164.394 182.261 164.519 182.577 164.519C182.893 164.519 183.195 164.394 183.419 164.17C183.642 163.947 183.767 163.643 183.767 163.327V149.375C183.767 149.059 183.642 148.756 183.419 148.532C183.195 148.308 182.893 148.183 182.577 148.183Z" fill="black"/>
<path d="M86.894 185.658C86.5793 185.633 86.2676 185.734 86.0273 185.939C85.7871 186.144 85.6381 186.437 85.6131 186.752L83.2 217.219C83.1751 217.534 83.2762 217.847 83.4811 218.087C83.686 218.328 83.9779 218.477 84.2926 218.502C84.6072 218.527 84.9188 218.426 85.1589 218.22C85.399 218.015 85.5479 217.723 85.573 217.408L87.986 186.941C88.0109 186.626 87.9099 186.313 87.7051 186.073C87.5003 185.832 87.2086 185.683 86.894 185.658Z" fill="black"/>
<path d="M27.827 165.138C27.6737 165.107 27.5158 165.107 27.3625 165.137C27.2091 165.168 27.0632 165.228 26.9331 165.315C26.803 165.402 26.6912 165.513 26.6042 165.644C26.5172 165.774 26.4566 165.92 26.4259 166.074C26.3953 166.227 26.3951 166.385 26.4255 166.539C26.4559 166.693 26.5162 166.839 26.603 166.969C26.603 166.969 30.3247 172.564 35.2521 178.568C40.1787 184.571 46.1363 191.034 51.506 192.836C56.8554 194.645 65.5586 193.281 73.1614 191.65C80.7644 190.019 87.1597 187.983 87.1597 187.983C87.4605 187.888 87.711 187.676 87.8562 187.396C88.0014 187.115 88.0293 186.788 87.9339 186.487C87.8866 186.337 87.8104 186.199 87.7097 186.079C87.609 185.959 87.4857 185.86 87.3469 185.788C87.2081 185.716 87.0565 185.672 86.9007 185.659C86.7449 185.646 86.5881 185.663 86.4391 185.71C86.4391 185.71 80.1371 187.715 72.6633 189.318C65.1895 190.922 56.4365 191.987 52.2667 190.577C52.2658 190.577 52.2648 190.577 52.2638 190.577C48.1182 189.187 41.9304 182.953 37.0903 177.055C32.2502 171.157 28.583 165.647 28.583 165.647C28.4963 165.517 28.3849 165.405 28.2551 165.318C28.1252 165.231 27.9795 165.17 27.8263 165.139L27.827 165.138Z" fill="black"/>
<path d="M49.3977 189.49C48.1226 189.726 46.1746 190.416 43.7637 191.338C41.3528 192.26 38.5505 193.411 35.8812 194.535C30.5425 196.785 25.7337 198.935 25.7337 198.935C25.4455 199.064 25.2202 199.302 25.1074 199.598C24.9946 199.893 25.0035 200.221 25.1322 200.51C25.1959 200.653 25.2871 200.782 25.4006 200.89C25.5141 200.997 25.6476 201.081 25.7936 201.137C25.9396 201.193 26.0952 201.22 26.2514 201.216C26.4077 201.212 26.5616 201.176 26.7043 201.113C26.7043 201.113 31.4944 198.97 36.8041 196.733C39.4589 195.614 42.2433 194.473 44.6122 193.567C46.9811 192.661 49.0068 191.987 49.8295 191.836C50.1399 191.778 50.4148 191.6 50.5937 191.339C50.7727 191.079 50.841 190.758 50.7838 190.447C50.7266 190.136 50.5484 189.861 50.2885 189.681C50.0285 189.502 49.7081 189.433 49.3977 189.49Z" fill="black"/>
<path d="M58.3404 191.261C58.0251 191.274 57.728 191.413 57.5146 191.646C57.3012 191.879 57.1888 192.187 57.2022 192.503C57.2157 192.819 57.3537 193.116 57.586 193.33C57.586 193.33 62.8941 198.216 68.7941 203.763C74.6942 209.31 81.2308 215.574 83.4997 218.11C83.7104 218.346 84.0059 218.488 84.3211 218.505C84.6363 218.522 84.9454 218.414 85.1805 218.202C85.297 218.098 85.3917 217.972 85.4594 217.83C85.5271 217.689 85.5663 217.536 85.5749 217.38C85.5835 217.223 85.5612 217.067 85.5094 216.919C85.4576 216.771 85.3772 216.635 85.2729 216.519C82.7956 213.749 76.3342 207.581 70.4232 202.024C64.5121 196.466 59.1965 191.574 59.1965 191.574C59.0813 191.468 58.9465 191.386 58.7996 191.332C58.6527 191.278 58.4967 191.254 58.3404 191.261Z" fill="black"/>
<path d="M98.0861 130.454C97.9309 130.435 97.7735 130.447 97.623 130.489C97.4724 130.532 97.3317 130.603 97.2087 130.7C97.0858 130.797 96.9831 130.917 96.9065 131.053C96.8298 131.189 96.7808 131.34 96.7621 131.496C92.8537 164.091 97.2091 184.239 97.2091 184.239C97.2422 184.392 97.3051 184.537 97.3942 184.665C97.4833 184.794 97.5968 184.904 97.7283 184.989C97.8597 185.073 98.0066 185.131 98.1604 185.159C98.3143 185.187 98.4721 185.184 98.6248 185.151C98.7777 185.118 98.9224 185.055 99.0509 184.966C99.1794 184.876 99.2891 184.763 99.3737 184.631C99.4583 184.499 99.5161 184.352 99.5439 184.198C99.5716 184.043 99.5688 183.885 99.5355 183.732C99.5355 183.732 95.2559 164.053 99.1258 131.78C99.1634 131.466 99.075 131.15 98.88 130.901C98.685 130.652 98.3995 130.492 98.0861 130.454Z" fill="black"/>
<path d="M43.2679 110.602C42.971 110.495 42.6438 110.51 42.3581 110.644C42.0725 110.779 41.8518 111.021 41.7446 111.318C41.6915 111.466 41.6679 111.622 41.6751 111.779C41.6823 111.935 41.7202 112.089 41.7867 112.23C41.8531 112.372 41.9468 112.499 42.0623 112.605C42.1778 112.71 42.313 112.792 42.46 112.845L97.5391 132.758C97.7551 132.837 97.989 132.851 98.2127 132.799L178.773 114.018C178.925 113.982 179.069 113.917 179.196 113.826C179.323 113.735 179.431 113.619 179.513 113.486C179.596 113.354 179.652 113.206 179.677 113.051C179.703 112.897 179.698 112.739 179.662 112.586C179.627 112.433 179.562 112.29 179.471 112.162C179.38 112.035 179.265 111.927 179.132 111.844C178.999 111.761 178.852 111.705 178.697 111.68C178.543 111.654 178.385 111.659 178.233 111.695L98.0163 130.396L43.2679 110.602Z" fill="black"/>
<path d="M42.5113 110.585C42.362 110.632 42.2234 110.707 42.1032 110.807C41.983 110.907 41.8836 111.03 41.8108 111.169C41.738 111.307 41.6932 111.459 41.6788 111.615C41.6645 111.771 41.681 111.928 41.7273 112.078C41.7273 112.078 44.2367 120.178 47.8082 128.64C49.594 132.871 51.6429 137.196 53.8118 140.688C55.9806 144.181 58.1716 146.927 60.854 147.796C63.5775 148.682 67.0965 147.96 71.0473 146.654C74.9982 145.348 79.3525 143.359 83.4242 141.286C91.5676 137.139 98.5848 132.642 98.5848 132.642C98.8506 132.471 99.038 132.202 99.1058 131.894C99.1736 131.585 99.1162 131.262 98.9463 130.995C98.8621 130.863 98.7528 130.749 98.6246 130.66C98.4964 130.57 98.3518 130.507 98.1991 130.473C98.0464 130.439 97.8887 130.436 97.7348 130.464C97.5809 130.491 97.4339 130.549 97.3022 130.633C97.3022 130.633 90.3619 135.079 82.3461 139.16C78.3381 141.201 74.062 143.147 70.3017 144.39C66.5413 145.633 63.2684 146.074 61.588 145.528C60.0869 145.041 57.8912 142.742 55.8338 139.429C53.7763 136.116 51.7591 131.876 50.0016 127.712C46.4866 119.383 44.0015 111.371 44.0015 111.371C43.9078 111.069 43.6983 110.817 43.419 110.669C43.1396 110.522 42.8134 110.492 42.512 110.586L42.5113 110.585Z" fill="black"/>
<path d="M42.159 158.82C42.0138 158.878 41.8813 158.964 41.7692 159.073C41.6571 159.182 41.5676 159.313 41.5058 159.457C41.4439 159.601 41.411 159.755 41.4088 159.912C41.4066 160.068 41.4353 160.224 41.4931 160.369C41.5509 160.515 41.6367 160.647 41.7457 160.759C41.8547 160.872 41.9846 160.962 42.1282 161.024L97.9012 185.081C98.1911 185.206 98.5187 185.21 98.812 185.093C99.1053 184.977 99.3403 184.748 99.4652 184.457C99.527 184.313 99.5599 184.159 99.5621 184.002C99.5642 183.845 99.5355 183.69 99.4776 183.544C99.4198 183.399 99.3339 183.266 99.2249 183.154C99.1158 183.042 98.9858 182.952 98.8422 182.89L43.0697 158.833C42.7797 158.708 42.4521 158.704 42.159 158.821V158.82Z" fill="black"/>
<path d="M60.8647 145.243C60.5598 145.161 60.2349 145.204 59.9615 145.362C57.3489 146.874 52.9004 150.244 49.0103 153.283C45.1203 156.322 41.8455 159.005 41.8455 159.005C41.7245 159.104 41.6242 159.226 41.5502 159.364C41.4763 159.502 41.4302 159.654 41.4146 159.81C41.399 159.965 41.4142 160.123 41.4593 160.272C41.5045 160.422 41.5786 160.562 41.6776 160.683C41.7765 160.804 41.8984 160.905 42.0361 160.979C42.1738 161.053 42.3248 161.099 42.4803 161.115C42.6358 161.131 42.7929 161.115 42.9426 161.07C43.0923 161.025 43.2315 160.951 43.3525 160.852C43.3525 160.852 46.6091 158.183 50.4743 155.164C54.3395 152.144 58.8701 148.747 61.1524 147.427C61.4256 147.269 61.625 147.008 61.7066 146.703C61.7882 146.397 61.7454 146.072 61.5877 145.798C61.5095 145.663 61.4054 145.544 61.2813 145.449C61.1573 145.353 61.0157 145.283 60.8647 145.243Z" fill="black"/>
<path d="M67.7663 145.204C67.4515 145.182 67.1408 145.287 66.9027 145.494C66.6645 145.702 66.5184 145.995 66.4965 146.311C66.4746 146.626 66.5787 146.938 66.7858 147.176C66.7858 147.176 73.5882 155.01 80.8202 163.62C84.4362 167.925 88.1594 172.425 91.1873 176.227C94.2152 180.029 96.5835 183.216 97.3315 184.564C97.4849 184.841 97.7416 185.045 98.0451 185.132C98.3487 185.219 98.6742 185.181 98.9501 185.027C99.226 184.873 99.4296 184.616 99.5161 184.312C99.6026 184.008 99.5651 183.682 99.4116 183.406C98.4308 181.638 96.0985 178.57 93.0482 174.74C89.998 170.909 86.2653 166.399 82.6416 162.085C75.3941 153.457 68.5817 145.611 68.5817 145.611C68.3745 145.372 68.0812 145.226 67.7663 145.204Z" fill="black"/>
<path d="M127.747 94.082C127.592 94.0647 127.434 94.0782 127.284 94.1219C127.134 94.1655 126.994 94.2385 126.872 94.3364C126.75 94.4344 126.648 94.5555 126.573 94.6928C126.498 94.83 126.45 94.9807 126.433 95.1364L125.269 105.703L112.126 113.006L82.1261 107.351L82.7695 99.0264C82.7938 98.7112 82.6921 98.399 82.4869 98.1589C82.2817 97.9187 81.9897 97.7703 81.6751 97.7458C81.3605 97.7213 81.0491 97.8229 80.8093 98.0284C80.5695 98.234 80.4211 98.5266 80.3965 98.8418L79.6701 108.232C79.6474 108.525 79.7335 108.816 79.9119 109.049C80.0903 109.283 80.3483 109.442 80.6366 109.496L112.108 115.429C112.38 115.48 112.662 115.434 112.905 115.3L126.962 107.489C127.128 107.397 127.27 107.266 127.375 107.107C127.481 106.948 127.547 106.767 127.567 106.578L128.8 95.3984C128.817 95.2428 128.803 95.0851 128.76 94.9347C128.716 94.7843 128.643 94.6438 128.546 94.5216C128.448 94.3993 128.327 94.2978 128.19 94.2223C128.053 94.1468 127.902 94.0992 127.747 94.082Z" fill="black"/>
<path d="M127.427 75.3453L113.362 81.0315L83.4861 76.2158C83.1744 76.1656 82.8556 76.2416 82.5998 76.4269C82.344 76.6122 82.1721 76.8916 82.122 77.2039C82.0719 77.516 82.1476 77.8352 82.3325 78.0915C82.5173 78.3478 82.7962 78.5201 83.1077 78.5704L113.311 83.4385C113.525 83.4732 113.744 83.4487 113.945 83.3675L128.318 77.5573C128.463 77.4986 128.595 77.412 128.706 77.3023C128.818 77.1925 128.907 77.0618 128.968 76.9177C129.029 76.7736 129.061 76.6187 129.062 76.4621C129.064 76.3055 129.034 76.1502 128.976 76.005C128.858 75.7118 128.628 75.4775 128.338 75.3538C128.047 75.2301 127.72 75.2271 127.427 75.3453Z" fill="black"/>
<path d="M113.544 81.0692C113.228 81.0575 112.921 81.1719 112.69 81.3871C112.458 81.6023 112.322 81.9007 112.31 82.2168L111.138 114.213C111.126 114.529 111.241 114.836 111.455 115.068C111.67 115.3 111.968 115.437 112.284 115.448C112.599 115.46 112.906 115.346 113.137 115.13C113.369 114.915 113.505 114.617 113.517 114.301L114.689 82.3047C114.701 81.9887 114.587 81.6811 114.372 81.4494C114.157 81.2177 113.859 81.0808 113.544 81.0692Z" fill="black"/>
<path d="M82.8465 76.289C82.7018 76.3483 82.5702 76.4355 82.4592 76.5458C82.3482 76.656 82.2599 76.7871 82.1995 76.9315C82.1391 77.0759 82.1076 77.2308 82.1069 77.3874C82.1063 77.544 82.1364 77.6992 82.1955 77.8442C82.1955 77.8442 83.9997 82.2685 86.4521 86.8457C87.6783 89.1342 89.0644 91.4646 90.5093 93.3412C91.9543 95.2178 93.3849 96.7366 95.2349 97.1205C97.6768 97.6276 100.119 96.8527 102.342 95.5619C104.564 94.2711 106.626 92.438 108.416 90.5697C111.995 86.8334 114.502 82.9039 114.502 82.9039C114.672 82.6376 114.73 82.3144 114.663 82.0055C114.595 81.6966 114.408 81.4273 114.142 81.2567C113.876 81.0862 113.554 81.0283 113.245 81.096C112.937 81.1637 112.668 81.3514 112.498 81.6177C112.498 81.6177 110.084 85.3839 106.698 88.9185C105.005 90.6856 103.071 92.382 101.148 93.499C99.2242 94.6163 97.3675 95.1277 95.7179 94.7852C95.0534 94.6471 93.7048 93.586 92.3947 91.8844C91.0846 90.1831 89.7396 87.9384 88.5496 85.7173C86.1695 81.2752 84.3988 76.9411 84.3988 76.9411C84.3396 76.7962 84.2525 76.6643 84.1425 76.553C84.0324 76.4418 83.9016 76.3536 83.7575 76.2931C83.6133 76.2325 83.4587 76.2009 83.3024 76.2002C83.1461 76.1995 82.9911 76.2297 82.8465 76.289Z" fill="black"/>
<path d="M94.2891 94.2252C94.1328 94.2202 93.9771 94.246 93.8308 94.3012C93.6845 94.3565 93.5505 94.4401 93.4365 94.5472C90.9806 96.8528 80.0292 107.468 80.0292 107.468C79.8023 107.688 79.6719 107.989 79.6667 108.306C79.6614 108.622 79.7818 108.927 80.0012 109.155C80.11 109.267 80.2398 109.357 80.3833 109.419C80.5267 109.481 80.681 109.515 80.8373 109.517C80.9936 109.52 81.1488 109.491 81.2942 109.434C81.4395 109.376 81.5721 109.29 81.6844 109.181C81.6844 109.181 92.6936 98.5121 95.0643 96.2864C95.2945 96.0701 95.4295 95.7712 95.4398 95.4552C95.45 95.1393 95.3346 94.8321 95.1189 94.6014C95.0121 94.487 94.8838 94.395 94.7414 94.3303C94.599 94.2657 94.4453 94.2298 94.289 94.2246L94.2891 94.2252Z" fill="black"/>
<path d="M98.22 94.8117C97.9099 94.7531 97.5892 94.8203 97.3285 94.9986C97.1993 95.0868 97.0888 95.1999 97.0033 95.331C96.9177 95.4621 96.8587 95.6088 96.8297 95.7628C96.8007 95.9167 96.8023 96.0747 96.8343 96.228C96.8664 96.3813 96.9282 96.5269 97.0164 96.6562C97.0164 96.6562 99.8693 100.843 103.098 105.235C104.712 107.431 106.42 109.679 107.927 111.498C108.681 112.407 109.384 113.208 110.013 113.853C110.643 114.497 111.153 114.981 111.766 115.31C111.904 115.383 112.055 115.429 112.211 115.445C112.366 115.46 112.524 115.444 112.673 115.399C112.823 115.353 112.962 115.279 113.083 115.179C113.204 115.08 113.304 114.958 113.377 114.819C113.526 114.54 113.558 114.214 113.466 113.911C113.374 113.608 113.166 113.355 112.888 113.206C112.763 113.139 112.273 112.756 111.715 112.185C111.158 111.614 110.487 110.852 109.759 109.974C108.303 108.218 106.613 105.996 105.015 103.821C101.817 99.4716 98.9825 95.3112 98.9825 95.3112C98.8944 95.1819 98.7817 95.0712 98.6509 94.9855C98.5201 94.8997 98.3737 94.8407 98.22 94.8117Z" fill="black"/>
<path d="M222.852 203.428C222.697 203.412 222.539 203.427 222.39 203.472C222.24 203.516 222.1 203.59 221.979 203.689C221.858 203.788 221.757 203.91 221.683 204.048C221.609 204.186 221.562 204.337 221.546 204.493C221.53 204.648 221.545 204.806 221.59 204.956C221.634 205.106 221.708 205.246 221.807 205.367C221.906 205.489 222.027 205.589 222.165 205.664C222.302 205.738 222.453 205.785 222.609 205.801L225.895 206.139L225.996 221.756H2.38927L2.49388 207.247C2.49618 206.93 2.373 206.626 2.15142 206.401C1.92984 206.176 1.628 206.048 1.31234 206.045C0.996696 206.043 0.693058 206.167 0.46821 206.389C0.243362 206.611 0.115722 206.913 0.113363 207.229L3.2601e-05 222.94C-0.0011295 223.097 0.0287874 223.253 0.0880815 223.399C0.147376 223.544 0.234868 223.677 0.345508 223.789C0.456148 223.9 0.587734 223.989 0.73272 224.049C0.877707 224.11 1.03323 224.141 1.19029 224.141H227.194C227.351 224.141 227.507 224.11 227.652 224.05C227.796 223.989 227.928 223.9 228.039 223.789C228.149 223.677 228.237 223.545 228.296 223.399C228.355 223.254 228.385 223.098 228.384 222.94L228.268 205.054C228.266 204.76 228.156 204.477 227.959 204.26C227.762 204.042 227.491 203.905 227.199 203.875L222.852 203.428Z" fill="black"/>
</g>
<defs>
<clipPath id="clip0_531_2674">
<rect width="333" height="229" fill="white"/>
</clipPath>
</defs>
</svg>
