<svg width="115" height="115" viewBox="0 0 115 115" fill="none" xmlns="http://www.w3.org/2000/svg">
<path fill-rule="evenodd" clip-rule="evenodd" d="M98.5 97.8144C108.705 87.4373 115 73.2038 115 57.5C115 25.7436 89.2564 0 57.5 0C25.7436 0 0 25.7436 0 57.5C0 73.2038 6.29533 87.4373 16.5 97.8144C31.5 69.4192 68.9 29.6659 98.5 97.8144Z" fill="#D9D9D9"/>
<path d="M75 35C75 44.3888 67.3888 52 58 52C48.6112 52 41 44.3888 41 35C41 25.6112 48.6112 18 58 18C67.3888 18 75 25.6112 75 35Z" fill="#F5F5F5"/>
<path d="M16.5 97.8144C26.9313 108.422 41.4474 115 57.5 115C73.5526 115 88.0687 108.422 98.5 97.8144C68.9 29.6659 31.5 69.4192 16.5 97.8144Z" fill="white"/>
</svg>
