<svg width="236" height="230" viewBox="0 0 236 230" fill="none" xmlns="http://www.w3.org/2000/svg">
<g clip-path="url(#clip0_531_1517)">
<path d="M35.2742 105.889C35.1402 105.843 34.9984 105.824 34.8568 105.832C34.7152 105.84 34.5767 105.876 34.4491 105.938C34.1917 106.063 33.9946 106.285 33.901 106.555C33.8073 106.825 33.8249 107.121 33.9499 107.379C35.028 109.596 37.1926 112.884 40.3623 114.012C40.3632 114.012 40.3641 114.012 40.365 114.012C40.2487 113.971 40.3779 114.005 40.5237 114.383C40.6694 114.761 40.8035 115.365 40.9117 116.046C41.1281 117.408 41.2421 119.049 41.6208 120.363C41.6999 120.638 41.8851 120.87 42.1357 121.009C42.3862 121.147 42.6815 121.18 42.9567 121.101C43.2319 121.022 43.4643 120.838 43.6029 120.587C43.7415 120.337 43.7749 120.042 43.6958 119.768C43.4294 118.842 43.2812 117.197 43.0447 115.709C42.9265 114.965 42.7872 114.253 42.5392 113.609C42.2914 112.966 41.9074 112.271 41.0877 111.98H41.085C38.9808 111.231 36.8058 108.316 35.8921 106.437C35.7669 106.18 35.5447 105.983 35.2742 105.889Z" fill="black"/>
<mask id="mask0_531_1517" style="mask-type:luminance" maskUnits="userSpaceOnUse" x="-333" y="-2113" width="670" height="3538">
<path d="M336.923 1424.88L336.923 -2112.72H-332.588L-332.588 1424.88H336.923Z" fill="white"/>
</mask>
<g mask="url(#mask0_531_1517)">
<path fill-rule="evenodd" clip-rule="evenodd" d="M45.7422 89.3343C38.0249 105.904 28.0106 127.361 27.2278 128.784C25.5758 131.784 20.6658 131.123 17.5157 129.223C15.8017 128.188 2.83158 119.806 1.25519 118.079C-0.669405 115.971 -0.394073 113.815 2.17025 110.166C2.78029 109.295 10.2519 100.104 18.5388 89.9488C19.1974 89.7089 19.8695 89.1241 20.3851 88.0487C21.0086 88.1538 21.6672 87.9678 22.1828 87.4099C23.7484 85.7227 23.4542 84.2242 23.4542 84.2242C25.8619 84.4641 28.9823 81.7123 29.1605 78.947C29.9379 78.8823 30.861 78.3379 31.7545 77.1951C33.0177 75.5834 32.5616 74.4649 31.6087 73.9501C37.3933 66.8806 41.7095 61.6087 41.7095 61.6087C40.8862 60.7678 40.4624 59.8946 40.8916 58.9431C41.4179 57.7815 44.0579 54.1808 45.0944 54.8599C47.0163 56.124 57.503 62.5709 58.796 63.5304C60.0862 64.4899 58.7285 67.3145 57.0603 69.4276C56.5178 70.1176 55.6027 70.2199 54.7173 70.042C54.7173 70.042 52.9763 73.7883 50.3715 79.3917C50.1204 78.9631 49.8694 78.5238 49.6211 78.0764C47.5102 74.26 45.9662 75.33 45.5452 75.8771C42.7595 79.5022 46.3631 86.4666 46.5736 87.5474C46.4764 87.7576 46.3792 87.9652 46.2821 88.1754C46.0796 88.5447 45.9015 88.9327 45.7422 89.3343Z" fill="#6E864C"/>
</g>
<mask id="mask1_531_1517" style="mask-type:luminance" maskUnits="userSpaceOnUse" x="-333" y="-2113" width="670" height="3538">
<path d="M336.923 1424.88L336.923 -2112.72H-332.588L-332.588 1424.88H336.923Z" fill="white"/>
</mask>
<g mask="url(#mask1_531_1517)">
<path fill-rule="evenodd" clip-rule="evenodd" d="M121.976 5.55521C143.03 1.65256 155.671 18.7078 158.602 31.4184C152.497 32.6986 151.328 40.2317 151.328 40.2317C146.504 32.3213 140.703 30.8712 138.196 19.5891C138.196 19.5891 121.654 34.0704 107.723 35.9894C107.723 35.9894 110.533 63.114 115.376 71.2427C118.58 76.6223 123.628 78.9455 128.656 79.1126C128.656 79.1126 129.52 88.4191 129.474 92.1628C126.659 92.3865 119.436 92.7477 112.768 94.2165C107.961 77.2341 107.521 41.8354 105.345 36.7226C96.3432 15.5814 114.717 10.1128 121.673 5.74116C121.773 5.67917 121.873 5.6172 121.976 5.55521Z" fill="black"/>
</g>
<mask id="mask2_531_1517" style="mask-type:luminance" maskUnits="userSpaceOnUse" x="-333" y="-2113" width="670" height="3538">
<path d="M336.923 1424.88L336.923 -2112.72H-332.588L-332.588 1424.88H336.923Z" fill="white"/>
</mask>
<g mask="url(#mask2_531_1517)">
<path fill-rule="evenodd" clip-rule="evenodd" d="M127.485 108.167C127.485 108.167 132.641 112.255 143.36 107.355C139.583 113.422 135.475 120.901 131.566 129.909C131.566 129.909 127.655 120.295 127.485 108.167Z" fill="black"/>
</g>
<mask id="mask3_531_1517" style="mask-type:luminance" maskUnits="userSpaceOnUse" x="-333" y="-2113" width="670" height="3538">
<path d="M336.923 1424.88L336.923 -2112.72H-332.588L-332.588 1424.88H336.923Z" fill="white"/>
</mask>
<g mask="url(#mask3_531_1517)">
<path fill-rule="evenodd" clip-rule="evenodd" d="M155.363 139.97C155.668 140.269 156.003 140.558 156.37 140.844C160.103 143.735 162.784 144.813 164.711 145.204C164.26 147.673 163.637 153.891 166.255 154.877C169.491 156.095 176.337 156.071 176.337 156.071C176.401 156.201 176.474 156.335 176.553 156.473C180.95 164.154 205.395 180.25 214.043 184.495C219.104 186.98 228.819 182.226 230.879 179.253C230.879 179.253 231.435 206.326 231.435 209.911C231.435 211.892 231.513 218.468 227.845 220.775C211.878 230.82 188.219 231.292 158.805 228.551C150.885 227.812 148.844 222.263 149.074 216.775C149.255 212.433 151.997 149.813 155.363 139.97Z" fill="#6E864C"/>
</g>
<path d="M163.494 113.161C159.698 113.225 157.031 116.001 155.314 118.951C153.598 121.901 152.706 125.133 152.379 126.826C151.724 130.213 151.383 132.97 151.798 135.419C152.214 137.868 153.468 139.958 155.708 141.695C159.466 144.608 162.277 145.79 164.381 146.236C166.485 146.683 167.983 146.445 168.276 146.489C169.258 146.639 170.83 147.729 171.834 148.85C171.928 148.955 172.043 149.041 172.17 149.103C172.298 149.164 172.437 149.2 172.578 149.208C172.72 149.216 172.862 149.196 172.996 149.149C173.129 149.102 173.253 149.03 173.358 148.935C173.464 148.841 173.55 148.727 173.612 148.599C173.673 148.472 173.709 148.333 173.717 148.192C173.725 148.05 173.705 147.909 173.658 147.775C173.611 147.641 173.538 147.518 173.444 147.413C172.218 146.044 170.532 144.65 168.598 144.357C168.597 144.357 168.597 144.357 168.596 144.357C167.434 144.183 166.562 144.496 164.829 144.128C163.096 143.76 160.602 142.761 157.031 139.993C155.12 138.511 154.262 137.04 153.927 135.06C153.591 133.079 153.86 130.538 154.498 127.236C154.781 125.773 155.651 122.664 157.181 120.035C158.711 117.406 160.775 115.364 163.53 115.318C163.816 115.313 164.089 115.195 164.288 114.989C164.487 114.784 164.596 114.508 164.591 114.222C164.586 113.936 164.468 113.664 164.262 113.465C164.056 113.266 163.78 113.157 163.493 113.162L163.494 113.161Z" fill="black"/>
<path d="M170.428 115.163C170.287 115.173 170.149 115.209 170.021 115.272C169.894 115.334 169.78 115.421 169.687 115.528C169.498 115.743 169.402 116.024 169.421 116.309C169.439 116.594 169.571 116.86 169.786 117.049C173.044 119.906 174.614 122.081 175.472 123.682C176.329 125.282 176.413 126.263 176.944 127.268C177.808 128.911 179.591 130.891 181.806 132.175C181.928 132.246 182.064 132.293 182.204 132.312C182.345 132.331 182.488 132.322 182.625 132.285C182.762 132.249 182.89 132.186 183.003 132.1C183.116 132.014 183.211 131.907 183.282 131.785C183.425 131.538 183.465 131.244 183.392 130.967C183.318 130.691 183.138 130.455 182.891 130.311C181.11 129.278 179.454 127.403 178.855 126.265C178.855 126.264 178.855 126.264 178.855 126.263C178.652 125.878 178.369 124.518 177.376 122.664C176.384 120.811 174.62 118.417 171.211 115.428C170.996 115.239 170.715 115.144 170.429 115.162L170.428 115.163Z" fill="black"/>
<mask id="mask4_531_1517" style="mask-type:luminance" maskUnits="userSpaceOnUse" x="-333" y="-2113" width="670" height="3538">
<path d="M336.923 1424.88L336.923 -2112.72H-332.588L-332.588 1424.88H336.923Z" fill="white"/>
</mask>
<g mask="url(#mask4_531_1517)">
<path fill-rule="evenodd" clip-rule="evenodd" d="M177.703 87.5136C179.157 87.4004 180.558 87.2683 181.854 87.1093C184.618 86.5406 186.429 86.7401 187.782 87.5352C187.725 87.6241 187.671 87.7131 187.617 87.802C187.455 88.0689 187.299 88.3411 187.15 88.616C187.15 88.616 179.184 93.6265 171.197 116.867C170.655 118.447 170.109 120.112 169.57 121.867C167.502 121.029 164.687 119.457 162.136 116.239C167.208 99.6044 177.703 87.5136 177.703 87.5136Z" fill="#6E864C"/>
</g>
<path d="M128.562 31.89C126.93 32.0339 125.337 33.0158 124.268 34.7368C124.193 34.8571 124.143 34.9909 124.12 35.1307C124.097 35.2704 124.102 35.4133 124.134 35.5511C124.166 35.689 124.226 35.8191 124.308 35.9341C124.391 36.0491 124.496 36.1466 124.616 36.2212C124.737 36.2959 124.871 36.346 125.011 36.3689C125.151 36.3918 125.294 36.387 125.432 36.3547C125.57 36.3224 125.7 36.2633 125.815 36.1807C125.93 36.0981 126.028 35.9936 126.103 35.8733C126.872 34.6349 127.831 34.1189 128.752 34.0377C129.672 33.9565 130.598 34.3202 131.309 35.1458C131.401 35.2532 131.514 35.3413 131.641 35.4052C131.767 35.469 131.905 35.5074 132.047 35.518C132.188 35.5286 132.33 35.5113 132.465 35.467C132.6 35.4228 132.725 35.3524 132.832 35.26C133.049 35.0736 133.183 34.8087 133.205 34.5236C133.226 34.2385 133.133 33.9565 132.946 33.7398C131.819 32.4308 130.193 31.7461 128.562 31.89Z" fill="black"/>
<path d="M113.297 34.0687C111.903 33.9852 110.537 34.4817 109.432 35.3594C109.321 35.4476 109.229 35.5567 109.16 35.6805C109.091 35.8044 109.048 35.9406 109.032 36.0812C109.016 36.2219 109.028 36.3644 109.067 36.5005C109.106 36.6366 109.172 36.7636 109.26 36.8744C109.348 36.9852 109.457 37.0775 109.582 37.1462C109.706 37.2148 109.842 37.2582 109.983 37.2742C110.124 37.2902 110.266 37.2784 110.403 37.2393C110.539 37.2003 110.666 37.1347 110.777 37.0465C111.511 36.4635 112.378 36.1733 113.168 36.2206C113.959 36.2679 114.698 36.6054 115.353 37.4835C115.524 37.7127 115.779 37.8646 116.063 37.9059C116.346 37.9472 116.634 37.8744 116.864 37.7035C116.977 37.6189 117.073 37.5127 117.146 37.3911C117.219 37.2695 117.266 37.1348 117.287 36.9947C117.307 36.8546 117.3 36.7119 117.265 36.5746C117.23 36.4374 117.169 36.3083 117.084 36.1948C116.09 34.8629 114.692 34.1521 113.297 34.0687Z" fill="black"/>
<path d="M119.069 38.6781C118.789 38.6221 118.497 38.6797 118.259 38.8382C118.141 38.9167 118.04 39.0178 117.961 39.1354C117.882 39.2531 117.827 39.3852 117.799 39.5241C117.771 39.663 117.771 39.8059 117.799 39.9448C117.827 40.0837 117.881 40.2159 117.96 40.3337C118.324 40.8778 118.911 42.9983 119.028 45.5677C119.146 48.1372 118.907 51.2354 118.118 54.1361C117.905 54.9202 118.31 55.6836 118.786 56.1232C119.263 56.5629 119.853 56.8471 120.519 57.045C121.852 57.4407 123.529 57.4725 125.056 56.7197C125.183 56.657 125.296 56.5698 125.39 56.4633C125.483 56.3568 125.555 56.2329 125.6 56.0988C125.646 55.9646 125.664 55.8229 125.655 55.6816C125.646 55.5403 125.608 55.4022 125.546 55.2752C125.419 55.0189 125.195 54.8234 124.924 54.7317C124.653 54.64 124.356 54.6596 124.099 54.7862C123.194 55.2327 121.989 55.2321 121.135 54.9783C120.708 54.8514 120.378 54.6562 120.251 54.5393C120.237 54.5264 120.247 54.5422 120.239 54.5349C121.064 51.4197 121.309 48.1988 121.184 45.4692C121.058 42.6913 120.669 40.5038 119.756 39.137C119.677 39.0192 119.576 38.9181 119.458 38.8393C119.34 38.7606 119.208 38.7057 119.069 38.678L119.069 38.6781Z" fill="black"/>
<mask id="mask5_531_1517" style="mask-type:luminance" maskUnits="userSpaceOnUse" x="-333" y="-2113" width="670" height="3538">
<path d="M336.923 1424.88L335.181 -2112.39L-332.587 -2112.72L-330.845 1424.55L336.923 1424.88Z" fill="white"/>
</mask>
<g mask="url(#mask5_531_1517)">
<path fill-rule="evenodd" clip-rule="evenodd" d="M131.39 40.7371C131.574 41.3191 131.616 41.9196 131.506 42.4066C131.397 42.8936 131.144 43.2272 130.805 43.3338C130.466 43.4405 130.068 43.3115 129.698 42.9753C129.329 42.6392 129.018 42.1234 128.834 41.5413C128.65 40.9593 128.608 40.3588 128.718 39.8718C128.828 39.3848 129.08 39.0512 129.419 38.9445C129.758 38.8379 130.156 38.9669 130.526 39.3031C130.896 39.6392 131.207 40.155 131.39 40.7371Z" fill="black"/>
</g>
<mask id="mask6_531_1517" style="mask-type:luminance" maskUnits="userSpaceOnUse" x="-333" y="-2113" width="670" height="3538">
<path d="M336.923 1424.88L335.181 -2112.39L-332.587 -2112.72L-330.845 1424.55L336.923 1424.88Z" fill="white"/>
</mask>
<g mask="url(#mask6_531_1517)">
<path fill-rule="evenodd" clip-rule="evenodd" d="M116.345 43.9206C116.529 44.5027 116.571 45.1033 116.461 45.5903C116.351 46.0773 116.099 46.4108 115.76 46.5174C115.421 46.6241 115.023 46.4952 114.653 46.159C114.283 45.8229 113.972 45.307 113.788 44.7249C113.604 44.1429 113.563 43.5423 113.673 43.0554C113.782 42.5684 114.034 42.2348 114.373 42.1281C114.712 42.0215 115.111 42.1505 115.48 42.4867C115.85 42.8228 116.161 43.3386 116.345 43.9206Z" fill="black"/>
</g>
<path d="M138.531 18.5648C138.353 18.5065 138.163 18.4956 137.979 18.533C137.796 18.5705 137.625 18.6551 137.484 18.7785C137.484 18.7785 133.402 22.3515 127.59 26.1692C121.778 29.987 114.235 34.0046 107.576 34.9218C107.299 34.9599 107.047 35.1042 106.874 35.3241C106.701 35.544 106.621 35.8223 106.649 36.1004C106.649 36.1004 107.355 42.9105 108.669 50.7461C109.983 58.5817 111.804 67.3555 114.448 71.7939C117.634 77.1418 122.627 79.6486 127.653 80.0948C127.716 80.7892 127.908 82.8517 128.112 85.7795C128.229 87.4707 128.332 89.2115 128.375 90.614C128.397 91.3153 128.404 91.9329 128.391 92.4049C128.379 92.8768 128.317 93.2541 128.328 93.2192C122.918 111.671 130.566 130.315 130.566 130.315C130.646 130.512 130.783 130.681 130.958 130.8C131.134 130.92 131.341 130.985 131.554 130.987C131.767 130.99 131.975 130.929 132.154 130.814C132.332 130.698 132.473 130.533 132.557 130.338C138.698 116.188 145.322 105.844 150.378 98.8349C152.907 95.3304 155.041 92.6622 156.544 90.7514C157.295 89.796 157.886 89.0344 158.308 88.42C158.518 88.1128 158.687 87.8455 158.821 87.5719C158.954 87.2985 159.125 87.033 159.029 86.4828C157.669 78.6723 156.975 69.5392 156.961 62.2418C156.954 58.5931 157.119 55.3974 157.442 53.0897C157.604 51.9358 157.809 51.0015 158.024 50.3829C158.239 49.7643 158.531 49.5536 158.365 49.6343C162.603 47.5752 164.861 42.6521 165.194 38.3155C165.36 36.1473 165.055 34.0806 164.054 32.4987C163.053 30.9169 161.191 29.9426 158.985 30.2568C155.284 30.7849 153.042 33.3343 151.816 35.6209C151.416 36.3669 151.14 37.0655 150.911 37.7139C148.8 34.7751 146.613 32.6896 144.714 30.4742C142.411 27.7868 140.468 24.8344 139.25 19.3554C139.209 19.1727 139.122 19.0038 138.996 18.8652C138.87 18.7266 138.71 18.623 138.532 18.5648H138.531ZM137.567 21.4968C138.888 26.2948 140.889 29.3272 143.073 31.876C145.503 34.7117 148.079 36.976 150.406 40.7923C150.521 40.981 150.691 41.1297 150.894 41.2185C151.097 41.3073 151.322 41.3319 151.539 41.2888C151.756 41.2457 151.954 41.137 152.107 40.9774C152.261 40.8179 152.361 40.6153 152.395 40.3969C152.395 40.3969 152.683 38.5712 153.719 36.6384C154.755 34.7058 156.418 32.8013 159.289 32.3914C160.811 32.1746 161.594 32.6481 162.228 33.65C162.862 34.6519 163.182 36.3055 163.041 38.1508C162.757 41.8412 160.665 46.1189 157.42 47.6956C156.576 48.1058 156.276 48.8373 155.984 49.6759C155.693 50.5146 155.477 51.5527 155.303 52.7907C154.957 55.2666 154.795 58.5311 154.802 62.246C154.815 69.6125 155.506 78.7222 156.87 86.6423C156.816 86.7513 156.7 86.9476 156.526 87.2013C156.169 87.7217 155.59 88.4717 154.845 89.4201C153.353 91.3171 151.187 94.0237 148.626 97.5742C143.811 104.248 137.595 113.959 131.706 126.984C129.99 121.736 126.298 107.813 130.4 93.8241C130.529 93.3808 130.535 93.0016 130.55 92.4622C130.564 91.9229 130.556 91.2743 130.534 90.5482C130.489 89.096 130.385 87.3373 130.266 85.6305C130.07 82.8085 129.9 81.0035 129.824 80.1601C130.141 80.151 130.46 80.1672 130.775 80.1424C136.77 79.6668 142.399 76.4802 144.857 71.692C144.922 71.566 144.961 71.4285 144.973 71.2874C144.984 71.1463 144.968 71.0042 144.924 70.8694C144.881 70.7347 144.811 70.6098 144.719 70.5019C144.628 70.394 144.515 70.3052 144.389 70.2407C144.263 70.1761 144.125 70.1369 143.984 70.1255C143.842 70.1141 143.7 70.1305 143.565 70.1739C143.43 70.2174 143.305 70.287 143.197 70.3787C143.089 70.4704 143 70.5826 142.936 70.7086C140.924 74.6285 135.932 77.5704 130.603 77.993C125.275 78.4157 119.733 76.4474 116.304 70.6923C114.105 67.002 112.1 58.1492 110.798 50.3904C109.644 43.5079 109.053 38.1493 108.913 36.8612C115.874 35.6265 123.118 31.6884 128.777 27.9713C133.315 24.9904 136.159 22.6747 137.567 21.4975L137.567 21.4968Z" fill="black"/>
<path d="M132.721 58.5402C132.448 58.6275 132.221 58.8193 132.09 59.0735C130.968 61.2513 129.027 62.445 127.043 62.9694C125.06 63.4939 123.029 63.2272 122.241 62.7926C121.99 62.6545 121.695 62.6214 121.42 62.7007C121.145 62.78 120.912 62.9651 120.774 63.2153C120.705 63.3392 120.662 63.4754 120.646 63.6161C120.63 63.7568 120.642 63.8992 120.682 64.0353C120.721 64.1713 120.787 64.2984 120.875 64.409C120.964 64.5197 121.073 64.6118 121.197 64.6803C122.8 65.5636 125.153 65.6994 127.597 65.0535C130.04 64.4075 132.569 62.8575 134.011 60.06C134.142 59.8057 134.166 59.51 134.079 59.2377C133.991 58.9655 133.799 58.739 133.544 58.6082C133.29 58.4774 132.994 58.453 132.721 58.5402Z" fill="black"/>
<path d="M193.142 82.3881C190.582 82.7262 188.73 84.3432 187.389 86.2109C185.542 85.505 183.21 85.5679 179.941 86.4631C179.141 86.6827 178.479 87.0353 177.994 87.5727C177.752 87.8414 177.538 88.1737 177.477 88.624C177.416 89.0742 177.603 89.6255 177.933 89.9537C178.594 90.61 179.409 90.6735 180.501 90.6285C181.592 90.5835 183.017 90.3278 184.918 89.7747C185.121 89.7158 185.254 89.6648 185.45 89.6068C185.002 90.5648 184.61 91.505 184.26 92.3251C184.205 92.4554 184.175 92.5953 184.174 92.7369C184.173 92.8785 184.199 93.019 184.252 93.1504C184.305 93.2817 184.383 93.4013 184.483 93.5024C184.582 93.6035 184.7 93.6841 184.831 93.7396C185.094 93.8515 185.391 93.8544 185.657 93.7476C185.922 93.6408 186.135 93.433 186.247 93.17C186.784 91.9094 187.379 90.4877 188.088 89.1698C188.799 89.8848 189.42 90.8897 190.105 92.2567C190.168 92.3833 190.256 92.4963 190.363 92.5891C190.47 92.6819 190.595 92.7527 190.729 92.7974C190.864 92.8422 191.006 92.8601 191.147 92.8501C191.289 92.84 191.427 92.8022 191.554 92.7389C191.68 92.6755 191.794 92.5878 191.886 92.4808C191.979 92.3738 192.05 92.2497 192.095 92.1154C192.14 91.981 192.158 91.8393 192.147 91.698C192.137 91.5568 192.1 91.4189 192.036 91.2923C191.426 90.0746 190.788 88.9829 190.004 88.0707C192.372 87.1533 193.878 86.3259 194.705 85.5429C195.032 85.2334 195.289 84.9184 195.436 84.4917C195.583 84.0649 195.53 83.4554 195.23 83.0588C194.632 82.2654 193.846 82.2956 193.143 82.3881H193.142ZM183.093 88.0039C182.419 88.166 181.835 88.2876 181.35 88.3544C181.976 88.2055 182.574 88.0772 183.093 88.0039Z" fill="black"/>
<path d="M181.724 86.0392C172.389 87.1771 157.23 87.0152 157.23 87.0152C157.089 87.0136 156.948 87.0398 156.816 87.0925C156.685 87.1452 156.565 87.2233 156.463 87.3223C156.362 87.4213 156.281 87.5393 156.225 87.6695C156.17 87.7997 156.14 87.9395 156.138 88.0811C156.135 88.367 156.246 88.6423 156.446 88.8468C156.646 89.0512 156.919 89.168 157.206 89.1713C157.206 89.1713 172.35 89.3541 181.985 88.1796C182.126 88.1624 182.262 88.1177 182.385 88.0481C182.509 87.9785 182.617 87.8853 182.705 87.7738C182.792 87.6623 182.857 87.5347 182.895 87.3982C182.933 87.2618 182.944 87.1194 182.926 86.9788C182.909 86.8383 182.864 86.7024 182.795 86.5792C182.725 86.4559 182.632 86.3475 182.52 86.2603C182.408 86.173 182.28 86.1086 182.144 86.0706C182.007 86.0327 181.865 86.022 181.724 86.0392Z" fill="black"/>
<path d="M188.487 86.5716C188.212 86.4914 187.917 86.5235 187.666 86.6607C187.415 86.7979 187.228 87.029 187.148 87.3033C187.108 87.4392 187.095 87.5816 187.111 87.7223C187.126 87.8631 187.169 87.9995 187.237 88.1237C187.305 88.2479 187.397 88.3575 187.507 88.4463C187.618 88.535 187.745 88.6011 187.881 88.6409C189.535 89.1241 191.421 89.256 193.853 90.258C196.285 91.2601 199.263 93.11 202.834 97.0424C209.977 104.907 219.397 121.117 230.797 154.961C232.91 161.234 233.935 165.36 233.833 168.736C233.732 172.112 232.564 174.855 230.002 178.621C229.922 178.738 229.866 178.87 229.838 179.009C229.809 179.147 229.808 179.29 229.834 179.429C229.861 179.568 229.915 179.701 229.992 179.819C230.07 179.937 230.171 180.039 230.288 180.119C230.405 180.198 230.537 180.254 230.676 180.283C230.815 180.311 230.958 180.312 231.097 180.286C231.237 180.259 231.369 180.206 231.488 180.128C231.606 180.05 231.708 179.95 231.788 179.833C234.457 175.909 235.876 172.654 235.992 168.801C236.108 164.948 234.98 160.614 232.844 154.273C221.395 120.287 211.931 103.848 204.434 95.5937C200.686 91.4664 197.406 89.3892 194.676 88.2645C191.947 87.1398 189.767 86.9455 188.487 86.5716ZM183.059 129.713C182.716 129.678 182.183 129.836 181.896 130.142C181.895 130.143 181.895 130.143 181.894 130.144C177.148 135.24 174.407 139.963 172.935 143.513C172.199 145.288 171.779 146.766 171.585 147.883C171.487 148.442 171.444 148.906 171.458 149.317C171.465 149.522 171.482 149.713 171.544 149.93C171.605 150.146 171.687 150.441 172.076 150.707C173.663 151.8 174.046 152.47 174.315 153.253C174.585 154.035 174.666 155.136 175.368 156.552C175.496 156.808 175.719 157.004 175.991 157.095C176.262 157.187 176.559 157.166 176.815 157.04C176.942 156.977 177.056 156.89 177.149 156.783C177.242 156.676 177.314 156.552 177.359 156.418C177.404 156.284 177.423 156.142 177.413 156.001C177.404 155.86 177.366 155.721 177.303 155.595C176.778 154.536 176.748 153.689 176.357 152.552C175.992 151.492 175.212 150.357 173.622 149.183C173.619 148.994 173.638 148.682 173.713 148.253C173.872 147.339 174.246 145.987 174.93 144.337C176.258 141.134 178.785 136.781 183.113 132.037C183.331 132.164 183.562 132.307 183.961 132.517C185.02 133.073 186.668 133.678 188.844 133.387C190.23 133.201 191.515 132.89 193.589 133.281C195.663 133.672 198.543 134.797 202.772 137.67C205.677 139.643 223.49 151.03 223.49 151.03C223.731 151.184 224.023 151.237 224.303 151.175C224.583 151.114 224.827 150.944 224.981 150.704C225.136 150.463 225.188 150.171 225.127 149.892C225.065 149.612 224.895 149.369 224.654 149.215C224.654 149.215 206.685 137.72 203.987 135.887C199.597 132.906 196.446 131.626 193.989 131.162C191.533 130.699 189.787 131.085 188.557 131.249C186.887 131.473 185.812 131.053 184.966 130.609C184.544 130.387 184.204 130.156 183.811 129.957C183.614 129.858 183.402 129.749 183.058 129.714L183.059 129.713Z" fill="black"/>
<path d="M162.261 115.168C162.12 115.152 161.977 115.163 161.841 115.202C161.704 115.241 161.577 115.306 161.466 115.394C161.355 115.482 161.262 115.591 161.193 115.714C161.124 115.838 161.08 115.974 161.064 116.115C161.047 116.255 161.059 116.398 161.098 116.534C161.136 116.67 161.202 116.797 161.29 116.908C163.642 119.874 166.236 121.535 168.313 122.495C169.352 122.975 170.264 123.283 170.941 123.494C171.28 123.6 171.562 123.682 171.755 123.744C171.948 123.806 172.085 123.894 171.935 123.794C172.053 123.873 172.185 123.928 172.324 123.956C172.463 123.984 172.606 123.984 172.745 123.956C172.884 123.929 173.017 123.875 173.135 123.796C173.253 123.718 173.354 123.617 173.433 123.499C173.512 123.382 173.567 123.25 173.595 123.111C173.623 122.972 173.624 122.829 173.596 122.69C173.569 122.551 173.514 122.419 173.436 122.301C173.357 122.183 173.256 122.082 173.138 122.003C172.824 121.793 172.653 121.767 172.414 121.691C172.176 121.614 171.903 121.535 171.585 121.436C170.95 121.238 170.141 120.964 169.22 120.539C167.379 119.688 165.101 118.24 162.983 115.569C162.805 115.345 162.545 115.201 162.261 115.168Z" fill="black"/>
<path d="M97.6186 157.618C97.3329 157.637 97.0664 157.768 96.8778 157.983C96.6891 158.198 96.5938 158.479 96.6127 158.765C96.6127 158.765 97.5793 173.378 98.7068 189.261C99.8343 205.145 101.113 222.227 101.772 227.422C101.808 227.705 101.955 227.963 102.182 228.138C102.408 228.313 102.695 228.391 102.979 228.356C103.263 228.32 103.521 228.173 103.696 227.947C103.872 227.721 103.95 227.434 103.914 227.151C103.286 222.201 101.987 204.986 100.86 189.109C99.7333 173.232 98.7674 158.622 98.7674 158.622C98.7581 158.481 98.721 158.343 98.6582 158.216C98.5954 158.089 98.5082 157.976 98.4015 157.882C98.2948 157.789 98.1708 157.718 98.0365 157.672C97.9021 157.627 97.7601 157.608 97.6186 157.618Z" fill="black"/>
<path d="M129.388 91.0889C127.131 91.2699 121.825 91.5462 116.27 92.4544C110.715 93.3626 104.887 94.8326 101.322 97.7738C97.6612 100.792 92.381 108.449 86.725 117.171C81.069 125.893 75.1744 135.607 70.8588 142.361C70.7825 142.481 70.7306 142.614 70.7059 142.753C70.6813 142.893 70.6843 143.036 70.715 143.174C70.7456 143.312 70.8032 143.443 70.8845 143.559C70.9658 143.675 71.0692 143.774 71.1888 143.85C71.4302 144.004 71.7229 144.056 72.0025 143.994C72.2821 143.932 72.5257 143.762 72.6797 143.521C77.0207 136.727 82.9071 127.025 88.5375 118.343C94.1679 109.661 99.6791 101.924 102.697 99.4362C105.61 97.0328 111.211 95.4668 116.619 94.5827C122.026 93.6986 127.213 93.4265 129.56 93.2383C129.702 93.227 129.84 93.188 129.966 93.1235C130.092 93.059 130.204 92.9702 130.296 92.8624C130.388 92.7546 130.458 92.6297 130.502 92.495C130.545 92.3602 130.562 92.2182 130.551 92.077C130.539 91.9359 130.5 91.7984 130.435 91.6723C130.371 91.5463 130.282 91.4341 130.174 91.3424C130.066 91.2506 129.941 91.1811 129.806 91.1376C129.671 91.0941 129.529 91.0776 129.388 91.0889H129.388Z" fill="black"/>
<path d="M63.5265 113.716C62.9604 113.646 62.4827 113.756 61.9011 113.907C60.7381 114.208 59.2199 114.778 57.2881 115.445C53.4245 116.78 47.9784 118.501 41.405 119.112C40.9427 119.155 40.5306 119.413 40.2773 119.694C40.0238 119.976 39.878 120.276 39.7638 120.58C39.5352 121.189 39.4365 121.85 39.3715 122.528C39.2418 123.882 39.2863 125.334 39.2782 125.842C39.261 126.785 38.705 127.59 37.9302 128.728C37.1554 129.866 36.2226 131.325 36.1371 133.354C35.7858 141.708 37.1446 156.188 39.777 170.174C42.4093 184.16 46.1947 197.538 51.2516 203.89C54.2041 207.6 58.4501 210.09 62.4805 211.467C66.511 212.845 70.2708 213.222 72.7384 212.147C79.3108 209.279 86.047 201.964 91.2902 195.367C96.5334 188.77 100.216 182.854 100.216 182.854C100.367 182.612 100.415 182.319 100.35 182.041C100.285 181.762 100.112 181.521 99.8689 181.37C99.6257 181.219 99.3325 181.171 99.0537 181.236C98.7749 181.301 98.5334 181.474 98.3822 181.716C98.3822 181.716 94.7574 187.536 89.5989 194.026C84.4404 200.516 77.6802 207.638 71.8738 210.171C70.4514 210.791 66.8897 210.695 63.1796 209.427C59.4692 208.159 55.5552 205.832 52.9418 202.548C48.5053 196.976 44.5059 183.628 41.899 169.776C39.292 155.925 37.9569 141.457 38.2939 133.445C38.3542 132.014 38.9682 131.039 39.7158 129.941C40.4634 128.843 41.4052 127.609 41.4366 125.881C41.4366 125.88 41.4366 125.88 41.4366 125.879C41.4474 125.216 41.4099 123.892 41.521 122.732C41.5765 122.153 41.679 121.621 41.7856 121.337C41.8151 121.258 41.8199 121.259 41.8388 121.226C48.5651 120.572 54.1266 118.819 57.9935 117.483C59.9504 116.807 61.4933 116.24 62.4425 115.994C62.7022 115.927 62.7433 115.936 62.8891 115.919C63.3138 119.057 64.62 120.882 65.8146 122.065C66.453 122.697 67.0197 123.182 67.3962 123.645C67.7727 124.109 67.9875 124.513 68.0573 125.194C68.2038 126.641 69.2799 133.693 70.4108 141.187C71.5417 148.682 72.7175 156.501 72.9967 158.823C73.2977 161.338 74.007 163.602 74.4534 165.351C74.6765 166.225 74.8296 166.973 74.8577 167.496C74.8859 168.02 74.7921 168.235 74.7322 168.306C74.6405 168.414 74.571 168.539 74.5277 168.674C74.4843 168.809 74.468 168.951 74.4797 169.092C74.4913 169.233 74.5308 169.37 74.5956 169.496C74.6605 169.622 74.7495 169.734 74.8577 169.826C74.9659 169.917 75.0911 169.987 75.2261 170.03C75.3612 170.073 75.5034 170.09 75.6447 170.078C75.7861 170.066 75.9237 170.027 76.0498 169.962C76.176 169.897 76.2881 169.809 76.3797 169.7C76.9502 169.028 77.0571 168.182 77.014 167.381C76.9709 166.579 76.7805 165.738 76.5458 164.819C76.0765 162.979 75.4121 160.833 75.1408 158.566C74.845 156.107 73.6775 148.362 72.5465 140.867C71.4154 133.372 70.3104 126.012 70.2057 124.978C70.0919 123.866 69.6291 122.973 69.0732 122.289C68.5174 121.605 67.8973 121.093 67.3356 120.536C66.2122 119.424 65.2024 118.214 64.9299 115.117C64.9008 114.789 64.7381 114.382 64.4438 114.117C64.1495 113.852 63.809 113.754 63.526 113.719L63.5265 113.716Z" fill="black"/>
<path d="M45.2415 118.642C45.0999 118.635 44.9583 118.657 44.825 118.705C44.6916 118.753 44.569 118.827 44.4643 118.922C44.3595 119.017 44.2746 119.133 44.2144 119.261C44.1542 119.389 44.1198 119.528 44.1133 119.669C44.1133 119.669 44.0822 120.33 44.166 121.158C44.2499 121.986 44.4126 123.014 44.9932 123.925C45.1469 124.167 45.3903 124.337 45.6698 124.399C45.9493 124.461 46.242 124.41 46.4836 124.256C46.7252 124.103 46.8959 123.86 46.9581 123.581C47.0203 123.302 46.9689 123.01 46.8152 122.768C46.5753 122.392 46.3817 121.605 46.3144 120.941C46.2471 120.277 46.2701 119.769 46.2701 119.769C46.2767 119.627 46.2553 119.486 46.2072 119.353C46.1591 119.22 46.0852 119.097 45.9896 118.993C45.8941 118.888 45.7789 118.803 45.6505 118.743C45.5222 118.683 45.3832 118.648 45.2415 118.642Z" fill="black"/>
<path d="M52.404 117.001C52.2661 117.034 52.136 117.094 52.0212 117.177C51.9064 117.26 51.8091 117.365 51.7349 117.485C51.6607 117.606 51.611 117.74 51.5887 117.88C51.5663 118.02 51.5718 118.163 51.6048 118.3C51.6048 118.3 51.761 118.953 51.9164 119.702C52.0718 120.452 52.2126 121.401 52.2126 121.532C52.2126 121.818 52.3264 122.092 52.5289 122.294C52.7314 122.496 53.006 122.61 53.2924 122.61C53.5787 122.61 53.8534 122.496 54.0559 122.294C54.2583 122.092 54.3721 121.818 54.3721 121.532C54.3721 120.843 54.1941 120.052 54.031 119.265C53.8679 118.479 53.7052 117.799 53.7052 117.799C53.6722 117.662 53.6124 117.532 53.5292 117.417C53.446 117.302 53.341 117.205 53.2201 117.131C53.0993 117.057 52.9651 117.007 52.825 116.985C52.685 116.963 52.5419 116.968 52.404 117.001Z" fill="black"/>
<path d="M58.5317 115.012C58.3967 115.055 58.2715 115.125 58.1633 115.216C58.055 115.308 57.966 115.42 57.901 115.546C57.8361 115.671 57.7967 115.809 57.785 115.95C57.7732 116.091 57.7894 116.233 57.8327 116.368L59.012 120.047C59.0553 120.182 59.1247 120.307 59.2163 120.415C59.3079 120.523 59.42 120.612 59.546 120.677C59.6721 120.741 59.8097 120.781 59.951 120.792C60.0923 120.804 60.2345 120.788 60.3696 120.745C60.5046 120.702 60.6298 120.632 60.738 120.541C60.8462 120.449 60.9354 120.337 61.0003 120.212C61.0652 120.086 61.1047 119.948 61.1164 119.807C61.1281 119.666 61.1119 119.524 61.0687 119.389L59.8893 115.71C59.8461 115.575 59.7767 115.45 59.685 115.342C59.5934 115.234 59.4814 115.145 59.3553 115.08C59.2292 115.016 59.0916 114.976 58.9503 114.965C58.809 114.953 58.6668 114.969 58.5317 115.012Z" fill="black"/>
<path d="M46.3299 74.2596C45.5589 74.3701 44.9831 74.84 44.6892 75.2219C42.8537 77.6097 43.311 80.8131 43.9991 83.358C44.3432 84.6305 44.7701 85.7703 45.0889 86.6017C45.2412 86.999 45.3635 87.3149 45.4394 87.5303C44.3218 89.5038 43.797 91.8429 43.6817 94.0246C43.5584 96.3599 43.8264 98.4602 44.5922 99.8977C44.7267 100.15 44.9562 100.339 45.23 100.422C45.5039 100.506 45.7998 100.477 46.0526 100.343C46.1778 100.277 46.2886 100.186 46.3788 100.077C46.4689 99.9677 46.5366 99.8418 46.578 99.7064C46.6195 99.571 46.6338 99.4285 46.6202 99.2876C46.6065 99.1467 46.5652 99.0099 46.4986 98.8849C46.0956 98.1285 45.7292 96.1981 45.838 94.1383C45.9468 92.0784 46.4819 89.8513 47.4882 88.2515C47.4882 88.2506 47.4882 88.2498 47.4882 88.2489C47.7005 87.9101 47.6662 87.7096 47.6611 87.5793C47.656 87.449 47.6387 87.3665 47.6216 87.2897C47.5872 87.1362 47.5454 87.0107 47.4955 86.867C47.3959 86.5796 47.2614 86.2377 47.1049 85.8295C46.7919 85.0131 46.3938 83.9456 46.0826 82.7948C45.4603 80.4934 45.2862 77.9844 46.4005 76.5342C46.43 76.4957 46.5198 76.3551 46.7354 76.3984C46.9515 76.4418 47.694 76.8247 48.6749 78.5982C50.7406 82.3286 52.9053 85.369 54.6112 87.8709C56.3171 90.3728 57.5253 92.3707 57.8008 93.743C59.0203 99.8133 57.3651 105.008 61.1439 115.323C61.2423 115.591 61.4435 115.81 61.7032 115.93C61.963 116.051 62.2599 116.063 62.5288 115.965C62.7976 115.866 63.0164 115.666 63.137 115.406C63.2577 115.147 63.2702 114.851 63.172 114.582C59.5439 104.678 61.2521 99.9594 59.9181 93.3192C59.5026 91.2497 58.1219 89.1882 56.3964 86.6575C54.6709 84.1269 52.5617 81.1612 50.565 77.5554C49.4351 75.5128 48.3501 74.5232 47.1613 74.2843C46.8641 74.2246 46.5853 74.2217 46.3283 74.2584L46.3299 74.2596Z" fill="black"/>
<path d="M143.736 106.345C143.603 106.296 143.462 106.273 143.32 106.278C143.179 106.283 143.039 106.316 142.91 106.375C137.714 108.751 133.981 108.909 131.57 108.533C129.158 108.157 128.157 107.322 128.157 107.322C128.046 107.234 127.919 107.169 127.782 107.13C127.646 107.091 127.503 107.079 127.362 107.096C127.221 107.112 127.085 107.155 126.961 107.224C126.837 107.293 126.728 107.385 126.64 107.496C126.551 107.607 126.486 107.734 126.447 107.87C126.408 108.007 126.396 108.149 126.412 108.29C126.428 108.43 126.472 108.567 126.541 108.69C126.61 108.814 126.703 108.923 126.814 109.011C126.814 109.011 128.39 110.22 131.236 110.664C134.082 111.107 138.287 110.86 143.809 108.336C143.938 108.277 144.054 108.193 144.151 108.089C144.247 107.986 144.322 107.864 144.372 107.731C144.421 107.599 144.444 107.457 144.439 107.316C144.434 107.174 144.401 107.035 144.342 106.907C144.222 106.647 144.005 106.445 143.736 106.345Z" fill="black"/>
<path d="M132.737 1.23949C128.719 1.33469 124.734 2.54427 121.099 4.82853C117.812 6.89435 111.309 9.40463 106.743 14.2002C102.177 18.9957 99.7344 26.2997 104.352 37.1441C104.726 38.0223 105.252 41.2972 105.673 45.5798C106.093 49.8623 106.503 55.2973 106.994 61.1093C107.978 72.7333 109.275 85.8382 111.73 94.5098C111.768 94.646 111.833 94.7734 111.921 94.8846C112.009 94.9957 112.118 95.0885 112.242 95.1577C112.366 95.2268 112.502 95.2707 112.643 95.2873C112.783 95.3039 112.926 95.2926 113.063 95.2541C113.338 95.1763 113.571 94.9923 113.711 94.7427C113.851 94.4932 113.885 94.1985 113.808 93.9234C111.455 85.6125 110.128 72.5268 109.146 60.9277C108.655 55.1281 108.246 49.6931 107.822 45.3697C107.398 41.0463 107.054 37.979 106.34 36.3008C101.955 26.0041 104.198 20.0031 108.308 15.6862C112.418 11.3693 118.58 8.95938 122.249 6.65359C128.905 2.47082 136.609 2.22939 143.487 6.20403C150.364 10.1786 156.438 18.4642 159.402 31.5458C159.433 31.6839 159.491 31.8144 159.573 31.93C159.655 32.0457 159.759 32.144 159.879 32.2196C159.999 32.2951 160.133 32.3463 160.272 32.3703C160.412 32.3942 160.555 32.3904 160.693 32.3591C160.973 32.2959 161.215 32.1246 161.368 31.8828C161.521 31.6411 161.571 31.3487 161.508 31.0699C158.447 17.5606 152.093 8.68677 144.568 4.33792C140.806 2.16352 136.756 1.1443 132.738 1.23949H132.737Z" fill="black"/>
<path d="M129.524 3.95384C127.073 3.82951 124.489 3.99304 121.778 4.49551C121.497 4.54767 121.248 4.70942 121.086 4.94506C120.923 5.1807 120.862 5.47094 120.914 5.75204C120.94 5.89128 120.993 6.02402 121.07 6.14277C121.147 6.26151 121.247 6.36396 121.364 6.44413C121.481 6.5243 121.613 6.5807 121.751 6.61008C121.89 6.63946 122.033 6.64123 122.173 6.61535C132.384 4.72253 140.42 7.88099 146.375 13.0691C152.331 18.2572 156.137 25.5324 157.55 31.6602C157.582 31.7982 157.641 31.9286 157.723 32.0439C157.805 32.1593 157.91 32.2573 158.03 32.3324C158.15 32.4075 158.284 32.4583 158.424 32.4818C158.563 32.5053 158.706 32.501 158.845 32.4693C158.983 32.4375 159.113 32.3788 159.229 32.2966C159.344 32.2144 159.443 32.1104 159.518 31.9904C159.593 31.8703 159.644 31.7367 159.667 31.597C159.691 31.4574 159.686 31.3144 159.654 31.1764C158.136 24.5937 154.156 16.9861 147.795 11.4446C143.024 7.28849 136.875 4.32691 129.524 3.95384Z" fill="black"/>
<path d="M139.99 0.00123043C136.245 -0.0351278 133.25 0.741896 131.656 1.32198C131.387 1.41999 131.168 1.62059 131.047 1.87971C130.926 2.13883 130.914 2.43525 131.012 2.7038C131.11 2.97238 131.31 3.19108 131.57 3.3118C131.83 3.43253 132.126 3.44542 132.395 3.3476C134.555 2.56162 140.303 1.20738 146.755 3.22126C153.208 5.23514 160.495 10.5517 165.998 23.48C167.513 27.0379 169.914 35.3742 172.109 43.2461C173.206 47.182 174.261 51.0173 175.155 54.1363C176.049 57.2553 176.752 59.6009 177.264 60.797C179.737 66.5733 181.816 70.2113 183.022 73.7545C184.228 77.2977 184.637 80.7904 183.785 86.6309C183.744 86.9138 183.817 87.2015 183.988 87.4308C184.159 87.66 184.415 87.812 184.698 87.8532C184.838 87.8736 184.981 87.8663 185.119 87.8315C185.256 87.7967 185.385 87.7352 185.499 87.6506C185.613 87.5659 185.709 87.4597 185.781 87.338C185.854 87.2163 185.902 87.0816 185.922 86.9415C186.806 80.8746 186.368 76.8853 185.066 73.0612C183.765 69.2371 181.678 65.6223 179.249 59.9495C178.872 59.0689 178.12 56.6444 177.231 53.5436C176.343 50.4428 175.288 46.6083 174.189 42.6675C171.991 34.786 169.648 26.5413 167.986 22.6362C162.295 9.26742 154.455 3.3651 147.4 1.16301C144.754 0.337227 142.237 0.0230616 139.99 0.00123043Z" fill="black"/>
<mask id="mask7_531_1517" style="mask-type:luminance" maskUnits="userSpaceOnUse" x="-333" y="-2113" width="670" height="3538">
<path d="M336.923 1424.88L336.923 -2112.72H-332.588L-332.588 1424.88H336.923Z" fill="white"/>
</mask>
<g mask="url(#mask7_531_1517)">
<path fill-rule="evenodd" clip-rule="evenodd" d="M157.217 88.0933C157.738 87.3656 158.006 86.8939 157.965 86.6675C155.217 70.8898 155.179 49.9832 157.892 48.6652C164.9 45.2612 166.414 32.0924 160.454 31.3081C155.838 10.9378 143.707 1.63666 132.025 2.33471C136.735 0.620564 155.798 -3.23906 166.992 23.058C170.169 30.521 176.477 56.2198 178.256 60.3731C183.158 71.8224 186.588 74.8787 184.853 86.7861C183.994 86.7699 183.006 86.8723 181.854 87.1095C172.368 88.2657 157.217 88.0933 157.217 88.0933Z" fill="black"/>
</g>
<path d="M127.882 97.911C125.018 98.6018 123.401 99.306 123.401 99.306C123.272 99.3629 123.154 99.4449 123.056 99.5471C122.958 99.6493 122.881 99.7697 122.829 99.9016C122.778 100.034 122.753 100.174 122.756 100.316C122.759 100.457 122.79 100.597 122.847 100.727C122.904 100.856 122.986 100.974 123.088 101.072C123.191 101.17 123.311 101.246 123.443 101.298C123.575 101.349 123.716 101.374 123.858 101.371C124 101.368 124.14 101.337 124.27 101.281C124.27 101.281 125.666 100.664 128.389 100.007C128.527 99.9739 128.657 99.9139 128.772 99.8305C128.886 99.7472 128.983 99.6421 129.057 99.5213C129.131 99.4004 129.181 99.2661 129.203 99.1262C129.225 98.9863 129.219 98.8435 129.185 98.7059C129.152 98.5682 129.092 98.4384 129.008 98.324C128.925 98.2095 128.82 98.1127 128.699 98.0389C128.578 97.9651 128.443 97.9158 128.303 97.8939C128.163 97.872 128.02 97.8777 127.882 97.911Z" fill="black"/>
<path d="M127.307 109.886C126.25 110.169 125.286 110.813 124.497 111.379C123.709 111.945 123.123 112.459 123.123 112.459C123.016 112.552 122.929 112.666 122.867 112.793C122.804 112.92 122.767 113.058 122.758 113.199C122.749 113.341 122.768 113.482 122.813 113.616C122.859 113.75 122.931 113.874 123.024 113.98C123.213 114.195 123.48 114.326 123.766 114.345C124.051 114.363 124.333 114.268 124.548 114.079C124.548 114.079 125.059 113.63 125.757 113.13C126.455 112.629 127.367 112.102 127.868 111.968C128.005 111.931 128.133 111.868 128.246 111.782C128.358 111.695 128.452 111.588 128.523 111.465C128.594 111.342 128.64 111.207 128.658 111.067C128.676 110.926 128.667 110.783 128.63 110.647C128.556 110.371 128.375 110.135 128.127 109.993C127.879 109.85 127.584 109.811 127.307 109.886Z" fill="black"/>
<path d="M129.179 119.891C129.04 119.863 128.896 119.863 128.757 119.891C128.618 119.919 128.486 119.974 128.368 120.053C126.692 121.175 125.136 123.239 125.136 123.239C125.048 123.35 124.983 123.477 124.945 123.614C124.907 123.75 124.896 123.893 124.912 124.033C124.929 124.174 124.974 124.31 125.043 124.433C125.113 124.556 125.206 124.665 125.317 124.752C125.429 124.84 125.557 124.905 125.693 124.943C125.83 124.981 125.972 124.992 126.113 124.975C126.254 124.958 126.39 124.914 126.514 124.845C126.637 124.775 126.746 124.682 126.834 124.571C126.834 124.571 128.463 122.586 129.572 121.844C129.689 121.765 129.79 121.663 129.869 121.546C129.947 121.428 130.002 121.296 130.029 121.157C130.057 121.018 130.057 120.875 130.029 120.736C130.001 120.597 129.946 120.465 129.867 120.347C129.707 120.11 129.46 119.946 129.179 119.891Z" fill="black"/>
<path d="M131.391 128.845C131.251 128.868 131.117 128.919 130.997 128.993C130.876 129.068 130.772 129.166 130.689 129.281C130.606 129.396 130.547 129.526 130.515 129.664C130.483 129.802 130.478 129.945 130.501 130.084C130.501 130.084 130.84 132.139 130.958 132.912C130.979 133.052 131.028 133.187 131.101 133.308C131.175 133.429 131.271 133.535 131.386 133.619C131.5 133.702 131.63 133.763 131.767 133.797C131.905 133.831 132.048 133.837 132.188 133.816C132.471 133.772 132.725 133.619 132.895 133.388C133.065 133.158 133.136 132.87 133.092 132.588C132.968 131.771 132.632 129.734 132.632 129.734C132.585 129.452 132.428 129.2 132.196 129.033C131.963 128.867 131.674 128.799 131.391 128.845Z" fill="black"/>
<path d="M135.137 121.835C134.864 121.747 134.568 121.771 134.313 121.901C134.058 122.031 133.866 122.258 133.778 122.53C133.69 122.802 133.714 123.098 133.844 123.352C133.975 123.607 134.201 123.799 134.474 123.887C134.474 123.887 135.083 124.083 135.822 124.412C136.562 124.741 137.417 125.24 137.745 125.582C137.843 125.684 137.96 125.766 138.09 125.823C138.22 125.88 138.36 125.911 138.501 125.914C138.643 125.918 138.784 125.893 138.916 125.842C139.049 125.79 139.169 125.713 139.272 125.615C139.374 125.518 139.456 125.401 139.513 125.271C139.571 125.141 139.602 125.002 139.605 124.86C139.608 124.719 139.583 124.578 139.531 124.446C139.48 124.314 139.403 124.193 139.305 124.091C138.556 123.309 137.552 122.82 136.701 122.442C135.85 122.064 135.137 121.835 135.137 121.835Z" fill="black"/>
<path d="M139.057 114.179C138.921 114.14 138.778 114.128 138.637 114.144C138.496 114.16 138.36 114.204 138.236 114.273C138.112 114.341 138.003 114.434 137.914 114.544C137.826 114.655 137.761 114.782 137.722 114.919C137.683 115.055 137.671 115.197 137.687 115.338C137.703 115.478 137.747 115.615 137.815 115.738C137.884 115.862 137.977 115.971 138.088 116.059C138.199 116.148 138.326 116.213 138.462 116.252C138.462 116.252 140.58 116.897 141.835 117.799C142.068 117.966 142.357 118.034 142.64 117.988C142.922 117.942 143.175 117.786 143.342 117.554C143.425 117.439 143.484 117.309 143.517 117.171C143.549 117.033 143.554 116.89 143.532 116.75C143.509 116.611 143.459 116.477 143.384 116.356C143.309 116.236 143.212 116.131 143.097 116.049C141.351 114.795 139.057 114.179 139.057 114.179Z" fill="black"/>
<path d="M142.442 107.317C142.167 107.397 141.935 107.583 141.798 107.834C141.729 107.958 141.686 108.094 141.671 108.235C141.655 108.376 141.668 108.518 141.707 108.654C141.747 108.79 141.813 108.917 141.902 109.027C141.991 109.138 142.1 109.23 142.225 109.298C142.225 109.298 142.766 109.594 143.387 109.973C144.007 110.352 144.745 110.879 144.885 111.023C145.085 111.228 145.358 111.346 145.644 111.35C145.931 111.354 146.207 111.244 146.412 111.044C146.617 110.845 146.735 110.572 146.739 110.286C146.743 110 146.633 109.725 146.433 109.52C145.902 108.975 145.182 108.542 144.513 108.133C143.844 107.725 143.264 107.407 143.264 107.407C143.139 107.339 143.003 107.296 142.862 107.281C142.721 107.265 142.578 107.278 142.442 107.317Z" fill="black"/>
<path d="M146.824 100.434C146.559 100.543 146.348 100.752 146.238 101.015C146.127 101.279 146.126 101.576 146.234 101.84C146.343 102.105 146.552 102.316 146.816 102.426C146.816 102.426 147.328 102.641 147.928 102.962C148.528 103.284 149.209 103.771 149.367 103.968C149.456 104.078 149.566 104.17 149.69 104.238C149.815 104.305 149.951 104.348 150.092 104.363C150.233 104.379 150.376 104.366 150.512 104.326C150.648 104.286 150.775 104.22 150.885 104.131C150.996 104.042 151.088 103.933 151.156 103.808C151.224 103.684 151.266 103.547 151.282 103.407C151.297 103.266 151.284 103.124 151.244 102.988C151.204 102.852 151.138 102.725 151.049 102.615C150.457 101.882 149.65 101.439 148.951 101.063C148.251 100.688 147.65 100.437 147.65 100.437C147.52 100.382 147.379 100.354 147.237 100.354C147.096 100.353 146.955 100.38 146.824 100.434Z" fill="black"/>
<path d="M152.689 93.2058C152.411 93.1399 152.117 93.1871 151.874 93.3372C151.63 93.4872 151.456 93.7278 151.39 94.006C151.324 94.2841 151.371 94.577 151.521 94.8203C151.671 95.0636 151.912 95.2374 152.191 95.3036C152.191 95.3036 152.841 95.4583 153.556 95.6784C153.913 95.7884 154.285 95.9149 154.574 96.0347C154.863 96.1546 155.087 96.3182 155.016 96.2516C155.224 96.4486 155.501 96.5552 155.787 96.548C156.074 96.5408 156.345 96.4203 156.543 96.2132C156.64 96.1106 156.717 95.9898 156.768 95.8576C156.819 95.7255 156.843 95.5846 156.84 95.4431C156.836 95.3015 156.805 95.1619 156.747 95.0325C156.689 94.903 156.607 94.7863 156.504 94.6887C156.133 94.3364 155.792 94.205 155.402 94.0433C155.012 93.8817 154.59 93.7404 154.193 93.618C153.398 93.3732 152.689 93.2058 152.689 93.2058Z" fill="black"/>
<path d="M172.97 145.319C172.685 145.34 172.42 145.474 172.233 145.691C172.141 145.799 172.07 145.923 172.026 146.058C171.982 146.192 171.965 146.334 171.976 146.475C171.987 146.616 172.025 146.754 172.089 146.88C172.153 147.007 172.242 147.119 172.349 147.211L174.843 149.349C174.951 149.441 175.076 149.511 175.21 149.555C175.345 149.599 175.487 149.616 175.629 149.606C175.77 149.595 175.908 149.556 176.034 149.492C176.161 149.428 176.274 149.34 176.366 149.233C176.458 149.125 176.528 149.001 176.573 148.866C176.617 148.732 176.634 148.59 176.623 148.449C176.612 148.307 176.574 148.17 176.51 148.043C176.445 147.917 176.357 147.805 176.249 147.713L173.755 145.575C173.538 145.389 173.256 145.297 172.97 145.319Z" fill="black"/>
<path d="M174.134 142.015C173.994 142.037 173.859 142.085 173.738 142.159C173.617 142.232 173.511 142.329 173.428 142.443C173.258 142.674 173.188 142.962 173.231 143.245C173.275 143.527 173.429 143.781 173.66 143.95L176.562 146.074C176.676 146.158 176.806 146.218 176.944 146.252C177.081 146.286 177.224 146.292 177.365 146.27C177.505 146.249 177.639 146.2 177.761 146.126C177.882 146.053 177.987 145.956 178.071 145.842C178.155 145.728 178.216 145.598 178.249 145.461C178.283 145.323 178.289 145.18 178.268 145.04C178.246 144.9 178.197 144.766 178.123 144.645C178.05 144.524 177.953 144.419 177.839 144.335L174.937 142.211C174.823 142.128 174.693 142.067 174.555 142.033C174.417 142 174.274 141.993 174.134 142.015Z" fill="black"/>
<path d="M177.1 136.76C176.815 136.786 176.552 136.925 176.369 137.145C176.279 137.254 176.21 137.38 176.169 137.515C176.127 137.65 176.112 137.793 176.125 137.933C176.139 138.074 176.179 138.212 176.246 138.337C176.312 138.462 176.402 138.573 176.511 138.663L179.84 141.417C179.949 141.508 180.075 141.576 180.21 141.617C180.346 141.659 180.488 141.674 180.629 141.661C180.771 141.648 180.908 141.607 181.033 141.54C181.159 141.474 181.27 141.384 181.36 141.275C181.543 141.055 181.63 140.771 181.604 140.487C181.577 140.202 181.438 139.94 181.218 139.757L177.89 137.003C177.78 136.912 177.654 136.844 177.519 136.803C177.383 136.761 177.241 136.746 177.1 136.76Z" fill="black"/>
<path d="M180.354 132.265C180.072 132.311 179.819 132.467 179.652 132.699C179.569 132.814 179.51 132.944 179.477 133.082C179.445 133.22 179.44 133.363 179.463 133.503C179.486 133.642 179.536 133.776 179.61 133.897C179.685 134.017 179.783 134.122 179.898 134.204L183.41 136.727C183.525 136.81 183.655 136.869 183.793 136.901C183.931 136.934 184.074 136.939 184.214 136.916C184.354 136.893 184.488 136.843 184.609 136.768C184.729 136.694 184.834 136.597 184.917 136.482C185 136.367 185.059 136.236 185.091 136.099C185.124 135.961 185.129 135.818 185.106 135.678C185.083 135.539 185.033 135.404 184.958 135.284C184.884 135.164 184.786 135.059 184.671 134.977L181.159 132.454C181.044 132.371 180.914 132.312 180.776 132.28C180.637 132.247 180.494 132.242 180.354 132.265Z" fill="black"/>
<path d="M42.2251 61.0938C42.0838 61.1059 41.9462 61.1457 41.8203 61.2109C41.6944 61.2761 41.5826 61.3655 41.4913 61.4738C41.3069 61.6925 41.2171 61.9754 41.2415 62.2602C41.2659 62.5449 41.4026 62.8083 41.6215 62.9925C41.9846 63.2978 42.6416 63.7461 43.6275 64.4222C44.6134 65.0985 45.8527 65.9348 47.1002 66.7679C49.5951 68.4342 51.9922 70.0172 52.7402 70.4417C52.9892 70.5829 53.2841 70.6196 53.5602 70.5437C53.8362 70.4678 54.0707 70.2855 54.2122 70.0369C54.3536 69.7884 54.3904 69.4939 54.3145 69.2183C54.2386 68.9427 54.0561 68.7085 53.8073 68.5672C53.4298 68.3529 50.7846 66.6345 48.3006 64.9755C47.0587 64.1461 45.8244 63.3134 44.8501 62.6451C43.8758 61.9768 43.0856 61.4046 43.0128 61.3433C42.7937 61.1591 42.5104 61.0694 42.2251 61.0938Z" fill="black"/>
<path d="M29.6468 72.5793C28.5239 72.708 27.5594 73.2431 26.9444 74.0427C26.1242 75.1089 25.9145 76.5586 26.3423 77.936C26.7199 79.1533 27.8504 80.0737 29.1075 80.0316C30.3644 79.9896 31.5532 79.207 32.6055 77.8602C33.5668 76.6315 33.8526 75.2907 33.351 74.2522C32.8493 73.2136 31.8137 72.7233 30.8156 72.5919C30.4133 72.5392 30.0211 72.5369 29.6468 72.5798L29.6468 72.5793ZM29.8762 74.7086C30.0705 74.6914 30.2886 74.6971 30.5336 74.7291C31.0087 74.792 31.3278 75.0283 31.4051 75.1882C31.4823 75.3482 31.5713 75.6781 30.9026 76.5326C30.098 77.5626 29.3682 77.8647 29.0347 77.8759C28.7012 77.8869 28.5697 77.8293 28.4047 77.2975C28.1604 76.5107 28.306 75.812 28.6567 75.3561C28.9198 75.0141 29.2922 74.76 29.8762 74.7086Z" fill="black"/>
<path d="M27.2831 75.8418C26.3208 75.7928 24.8487 75.9414 23.4914 76.8377C22.1342 77.734 21.0409 79.4799 21.1095 82.0228C21.1172 82.3086 21.2383 82.5796 21.4461 82.7762C21.6539 82.9729 21.9315 83.0791 22.2177 83.0714C22.5039 83.0637 22.7753 82.9428 22.9723 82.7353C23.1692 82.5278 23.2755 82.2507 23.2679 81.9649C23.2149 80.0014 23.8735 79.1701 24.6824 78.6359C25.4913 78.1017 26.5998 77.9661 27.1734 77.9953C27.4593 78.0098 27.7393 77.9103 27.9518 77.7187C28.1642 77.5271 28.2918 77.259 28.3064 76.9735C28.3136 76.8321 28.2929 76.6907 28.2454 76.5573C28.1979 76.4239 28.1245 76.3011 28.0295 76.196C27.9345 76.0909 27.8197 76.0056 27.6916 75.9448C27.5635 75.884 27.4247 75.849 27.2831 75.8418Z" fill="black"/>
<path d="M29.2298 77.8733C29.0883 77.8642 28.9464 77.8831 28.8122 77.9288C28.678 77.9745 28.5541 78.0462 28.4476 78.1397C28.3411 78.2332 28.2541 78.3467 28.1916 78.4738C28.1291 78.6009 28.0922 78.739 28.0832 78.8803C28.0186 79.8834 27.354 81.0651 26.4167 81.9177C25.4794 82.7703 24.3135 83.2286 23.5613 83.1537C23.3937 83.137 23.2245 83.1597 23.0672 83.22C22.91 83.2803 22.769 83.3764 22.6556 83.5009C22.5423 83.6253 22.4596 83.7745 22.4143 83.9365C22.369 84.0985 22.3622 84.2688 22.3946 84.4339C22.3946 84.4339 22.4345 84.5556 22.3488 84.9666C22.263 85.3777 22.0424 85.9774 21.3908 86.6796C20.9933 87.1087 20.6364 87.0943 20.221 86.8617C19.8055 86.629 19.422 86.1165 19.4818 85.2662C19.544 84.3826 19.9818 83.7168 20.5621 83.2316C21.1423 82.7465 21.8976 82.5191 22.1785 82.5225C22.3203 82.5243 22.461 82.4981 22.5927 82.4455C22.7244 82.393 22.8443 82.3149 22.9458 82.216C23.0473 82.1171 23.1283 81.9993 23.1842 81.8691C23.24 81.739 23.2697 81.5992 23.2714 81.4576C23.2731 81.316 23.2469 81.1754 23.1942 81.044C23.1416 80.9125 23.0635 80.7928 22.9645 80.6914C22.8654 80.5901 22.7474 80.5093 22.617 80.4535C22.4867 80.3977 22.3466 80.3681 22.2048 80.3664C21.1711 80.3537 20.1176 80.791 19.1755 81.5787C18.2334 82.3664 17.4355 83.581 17.3276 85.1151C17.2147 86.7227 18.0049 88.0927 19.1644 88.742C20.324 89.3913 21.943 89.2582 22.9761 88.143C23.8895 87.1583 24.3049 86.1654 24.4634 85.4057C24.4755 85.347 24.4674 85.3114 24.4766 85.2546C25.7201 85.0653 26.8939 84.3997 27.8713 83.5106C29.1407 82.3559 30.1254 80.7793 30.2389 79.0172C30.248 78.8759 30.2292 78.7342 30.1834 78.6001C30.1376 78.4661 30.0659 78.3425 29.9722 78.2361C29.8786 78.1298 29.7649 78.0429 29.6376 77.9804C29.5103 77.918 29.372 77.8813 29.2304 77.8723L29.2298 77.8733Z" fill="black"/>
<path d="M18.3321 84.3218C17.2474 84.3858 16.4556 84.995 15.7436 85.902C15.0317 86.8088 14.584 88.2576 15.2564 89.6432C15.2563 89.6432 15.2565 89.6434 15.2564 89.6432C15.7671 90.6956 16.9295 91.2742 18.1524 91.1387C19.3757 91.0032 20.5938 90.11 21.3588 88.5141C21.4824 88.2562 21.4983 87.9598 21.4031 87.6902C21.3079 87.4206 21.1094 87.1999 20.8512 87.0764C20.7233 87.0153 20.5845 86.9798 20.4429 86.9722C20.3013 86.9646 20.1596 86.9849 20.0258 87.032C19.8921 87.079 19.7689 87.152 19.6634 87.2466C19.5579 87.3412 19.4721 87.4556 19.4108 87.5834C18.8775 88.6961 18.3022 88.9527 17.9141 88.9957C17.5259 89.0387 17.2588 88.8251 17.1997 88.703C16.9147 88.1162 17.071 87.7053 17.4427 87.2317C17.8145 86.7582 18.5857 86.4662 18.4592 86.4737C18.6008 86.4654 18.7394 86.4293 18.867 86.3675C18.9946 86.3057 19.1088 86.2194 19.203 86.1135C19.2972 86.0076 19.3695 85.8843 19.416 85.7504C19.4624 85.6166 19.482 85.4749 19.4736 85.3335C19.4652 85.1922 19.4289 85.0538 19.367 84.9265C19.3051 84.7991 19.2186 84.6853 19.1126 84.5913C19.0065 84.4973 18.883 84.4251 18.749 84.3787C18.615 84.3324 18.4732 84.3128 18.3316 84.3212L18.3321 84.3218Z" fill="black"/>
<mask id="mask8_531_1517" style="mask-type:luminance" maskUnits="userSpaceOnUse" x="-333" y="-2113" width="670" height="3538">
<path d="M336.923 1424.88L336.923 -2112.72H-332.588L-332.588 1424.88H336.923Z" fill="white"/>
</mask>
<g mask="url(#mask8_531_1517)">
<path fill-rule="evenodd" clip-rule="evenodd" d="M17.6425 96.3298C18.5414 95.0415 20.5821 96.152 19.4726 97.7987C18.9004 98.645 9.23694 113.113 8.51623 113.981C7.79552 114.851 4.88566 113.323 5.93569 112.064C6.60511 111.261 17.0541 97.1707 17.6425 96.3298Z" fill="black"/>
</g>
</g>
<defs>
<clipPath id="clip0_531_1517">
<rect width="236" height="229.987" fill="white"/>
</clipPath>
</defs>
</svg>
